<svg width="21" height="21" viewBox="0 0 21 21" fill="none" xmlns="http://www.w3.org/2000/svg">
<path d="M10 0.1C7.3 0.1 6.9 0.1 5.9 0.2C4.8 0.2 4.1 0.4 3.5 0.7C2.8 0.9 2.2 1.2 1.7 1.8C1.2 2.4 0.8 2.9 0.5 3.5C0.3 4.2 0.1 4.9 0.1 6C0 7 0 7.4 0 10.1C0 12.8 0 13.2 0.1 14.2C0.1 15.3 0.3 16 0.6 16.6C0.9 17.3 1.2 17.8 1.8 18.4C2.4 19 2.9 19.3 3.6 19.6C4.2 19.8 5 20 6 20.1C6.9 20.1 7.3 20.1 10 20.1C12.7 20.1 13.1 20.1 14.1 20C15.2 20 15.9 19.8 16.5 19.5C17.2 19.2 17.7 18.9 18.3 18.3C18.9 17.7 19.2 17.2 19.5 16.5C19.7 15.9 19.9 15.1 20 14.1C20 13 20.1 12.7 20.1 10C20.1 7.3 20.1 6.9 20 5.9C20 4.8 19.8 4.1 19.5 3.5C19.2 2.8 18.9 2.3 18.3 1.7C17.7 1.1 17.2 0.8 16.5 0.5C15.9 0.3 15.1 0.1 14.1 0C13.1 0.1 12.7 0.1 10 0.1ZM10 1.9C12.7 1.9 13 1.9 14 2C15 2 15.5 2.2 15.9 2.3C16.4 2.5 16.7 2.7 17 3.1C17.3 3.4 17.6 3.8 17.7 4.2C17.9 4.6 18.1 5.1 18.1 6.1C18.1 7.2 18.2 7.5 18.2 10.1C18.2 12.8 18.2 13.1 18.1 14.1C18.1 15.1 17.9 15.6 17.8 16C17.6 16.5 17.4 16.8 17.1 17.1C16.8 17.4 16.4 17.7 16 17.8C15.6 17.9 15.1 18.1 14.1 18.1C13 18.1 12.7 18.2 10.1 18.2C7.4 18.2 7.1 18.2 6.1 18.1C5.1 18.1 4.6 17.9 4.2 17.8C3.6 17.7 3.3 17.5 3 17.1C2.7 16.8 2.4 16.4 2.3 16C2.1 15.6 1.9 15.1 1.9 14.1C1.9 13 1.8 12.7 1.8 10.1C1.8 7.4 1.8 7.1 1.9 6.1C1.9 5.1 2.1 4.6 2.2 4.2C2.4 3.7 2.6 3.4 3 3.1C3.3 2.8 3.7 2.5 4.1 2.4C4.5 2.2 5 2 6 2C7 1.9 7.3 1.9 10 1.9Z" fill="#2E3740"/>
<path d="M10 13.5004C8.10005 13.5004 6.60005 12.0004 6.60005 10.1004C6.60005 8.20039 8.10005 6.70039 10 6.70039C11.9 6.70039 13.4 8.20039 13.4 10.1004C13.4 12.0004 11.9 13.5004 10 13.5004ZM10 4.90039C7.10005 4.90039 4.80005 7.20039 4.80005 10.1004C4.80005 13.0004 7.10005 15.3004 10 15.3004C12.9 15.3004 15.2 13.0004 15.2 10.1004C15.2 7.20039 12.9 4.90039 10 4.90039Z" fill="#2E3740"/>
<path d="M16.6 4.8C16.6 5.5 16 6.1 15.4 6.1C14.8 6.1 14.3 5.5 14.3 4.8C14.3 4.1 14.8 3.5 15.4 3.5C16 3.5 16.6 4.1 16.6 4.8Z" fill="#2E3740"/>
</svg>
