<svg width="25" height="25" viewBox="0 0 25 25" fill="none" xmlns="http://www.w3.org/2000/svg">
<path d="M18.9873 11.5422C18.3673 11.4647 17.011 11.4647 17.011 10.6122C17.011 9.44971 18.716 7.89972 21.506 6.27223C22.3585 5.72973 24.141 4.87724 24.141 3.67599C24.141 2.746 23.4822 2.08725 22.0485 2.281C20.6922 2.47475 18.5998 3.40475 15.8485 5.72973C12.981 8.13222 10.2686 12.1234 10.2686 16.0372C10.2686 20.0284 12.981 24.0196 17.321 24.0196C20.8085 24.0196 23.831 21.3846 23.831 17.7422C23.831 14.9909 21.9322 11.7747 18.9873 11.5422Z" fill="black"/>
<path d="M10.3849 9.79888C9.88119 9.52763 9.3387 9.37263 8.7187 9.29513C8.0987 9.21763 6.74246 9.21763 6.74246 8.36513C6.74246 7.20264 8.44745 5.65265 11.2374 4.02516C12.0899 3.48266 13.8724 2.63017 13.8724 1.42892C13.8724 0.498929 13.2137 -0.159817 11.7799 0.0339321C10.4237 0.227681 8.3312 1.15768 5.57997 3.48266C2.71248 5.88515 0 9.87638 0 13.8289C0 17.8201 2.71248 21.8113 7.05246 21.8113C8.05995 21.8113 9.06745 21.5788 9.91994 21.1913C9.06745 19.6413 8.60245 17.8201 8.60245 16.0763C8.6412 13.8289 9.3387 11.6976 10.3849 9.79888Z" fill="black"/>
</svg>
