<svg width="123" height="124" viewBox="0 0 123 124" fill="none" xmlns="http://www.w3.org/2000/svg">
<path d="M49.752 123.999C50.4759 121.999 50.9585 120.766 50.9585 120.766C50.9585 120.766 50.9585 121.939 50.9736 123.999H71.3328C71.2876 113.954 71.2574 106.105 71.2574 106.105L27.9751 105.624C27.9751 105.624 26.6631 113.639 25.0193 123.999H49.752Z" fill="black"/>
<path d="M114.072 27.1275C111.946 21.6989 104.707 15.5184 101.208 12.7515C101.208 12.7515 93.1849 3.78911 91.2847 5.12746C89.3845 6.4658 86.3381 8.87182 86.3381 8.87182C86.3381 8.87182 85.9158 13.353 87.439 13.6538C88.9622 13.9545 87.2581 15.5485 89.3392 15.9094C91.4204 16.2703 91.6617 15.0523 92.7023 14.8117C93.7429 14.5711 97.9052 15.4132 97.9203 15.4282C99.0815 16.6312 100.876 19.2327 100.71 23.7891C100.454 30.4508 105.596 35.3831 105.596 35.3831C105.596 35.3831 101.479 34.1801 95.824 32.3756C90.1687 30.5861 84.4379 37.3079 84.4379 37.3079C84.4379 37.3079 82.2512 34.4808 76.1434 34.4808C70.0356 34.4808 67.1401 38.8417 67.1401 38.8417C56.0104 60.7064 74.2734 63.4583 75.887 63.5936C77.5007 63.729 79.0389 59.2327 80.2002 57.5034C81.3614 55.7741 88.374 57.8192 88.374 57.8192C100.59 61.9846 116.606 43.0072 117.767 41.8493C118.898 40.7214 116.907 34.3756 114.072 27.1275Z" fill="white"/>
<path d="M75.9475 63.8494C75.9173 63.8494 75.8872 63.8494 75.857 63.8494C75.7816 63.8494 68.1356 63.1727 64.8027 57.2328C62.2691 52.7215 62.9779 46.511 66.9291 38.7817C66.9291 38.7667 66.9442 38.7667 66.9442 38.7667C66.9743 38.7215 69.9754 34.3005 76.1284 34.3005C81.3917 34.3005 83.7896 36.3456 84.423 37.0073C85.4334 35.8794 90.6212 30.526 95.8694 32.1952C100.032 33.5185 103.38 34.526 104.843 34.9621C103.5 33.4283 100.258 29.1426 100.454 23.8042C100.62 19.3682 98.8705 16.8118 97.7847 15.6539C96.6536 15.4283 93.5469 14.8719 92.7325 15.0524C92.4158 15.1275 92.1896 15.308 91.9182 15.5035C91.3903 15.9095 90.7419 16.4057 89.279 16.1501C87.982 15.9245 87.9519 15.2027 87.9368 14.6764C87.9217 14.2403 87.9066 13.9997 87.3788 13.8945C85.7048 13.5636 86.0517 9.33807 86.0969 8.85687C86.0969 8.79672 86.1271 8.73657 86.1874 8.7065C86.2176 8.67642 89.2639 6.28544 91.149 4.96213C92.0539 4.33056 93.9993 5.41326 97.106 8.28544C99.2324 10.2554 101.178 12.4057 101.359 12.6012C105.295 15.699 112.187 21.699 114.283 27.0524C115.852 31.0674 116.968 34.3155 117.616 36.7366C118.415 39.7441 118.506 41.4283 117.903 42.0448C117.827 42.12 117.646 42.3155 117.405 42.5862C115.942 44.1952 111.478 49.0824 106.034 53.0223C99.1118 58.0298 93.1397 59.7291 88.2837 58.0749C86.3835 57.5185 81.256 56.3606 80.3813 57.6689C80.0495 58.1651 79.6725 58.917 79.2804 59.714C78.2398 61.7291 77.1841 63.8494 75.9475 63.8494ZM67.3212 38.9772C63.4605 46.5712 62.7517 52.6313 65.1948 56.9922C68.3618 62.6313 75.8117 63.3832 75.8872 63.3832C75.9022 63.3832 75.9173 63.3832 75.9324 63.3832C76.8976 63.3832 77.9834 61.2178 78.8581 59.4734C79.2653 58.6764 79.6423 57.9095 79.9892 57.3832C81.2107 55.5636 87.6804 57.3982 88.4043 57.6088C95.613 60.0599 105.793 54.6163 117.058 42.2554C117.314 41.9847 117.48 41.7892 117.571 41.699C118.099 41.1727 118.31 38.6012 113.861 27.1877C111.734 21.7291 104.209 15.3832 101.072 12.917C101.057 12.902 101.057 12.902 101.042 12.8869C97.9958 9.47341 92.6873 4.40574 91.4205 5.29296C89.7164 6.49597 87.047 8.58619 86.5494 8.96213C86.3986 10.6163 86.5343 13.2178 87.4844 13.4133C88.3591 13.5937 88.3892 14.1802 88.4043 14.6163C88.4194 15.1125 88.4345 15.5035 89.3695 15.6689C90.6363 15.8945 91.149 15.4885 91.6467 15.1125C91.9333 14.902 92.2349 14.6764 92.6421 14.5712C93.743 14.3155 97.9204 15.1727 97.9505 15.1727C97.9958 15.1877 98.041 15.2027 98.0712 15.2328C99.2173 16.4057 101.102 19.0824 100.921 23.7591C100.665 30.2403 105.687 35.1426 105.732 35.1877C105.808 35.2629 105.823 35.3682 105.778 35.4584C105.732 35.5486 105.612 35.5937 105.521 35.5636C105.476 35.5486 101.344 34.3306 95.7487 32.5561C90.2894 30.8268 84.6642 37.3531 84.6039 37.4283C84.5587 37.4734 84.4984 37.5035 84.423 37.5035C84.3475 37.5035 84.2872 37.4734 84.242 37.4133C84.2269 37.4433 82.0402 34.7366 76.1284 34.7366C70.3525 34.7366 67.4871 38.7516 67.3212 38.9772Z" fill="black"/>
<path d="M74.2284 35.4737C64.7123 29.0376 34.4449 31.6691 22.531 36.3458C17.4638 38.3308 25.3511 68.5263 25.3511 68.5263C25.3511 68.5263 28.2617 88.8721 27.2664 107.188L71.74 109.459L70.7145 85.4737C70.5486 81.6992 71.2273 77.9849 72.675 74.4962C76.8374 64.5112 84.5286 42.4361 74.2284 35.4737Z" fill="#FFE300"/>
<path d="M71.74 109.684C71.74 109.684 71.7249 109.684 71.74 109.684L27.2513 107.414C27.191 107.414 27.1306 107.383 27.1005 107.338C27.0552 107.293 27.0402 107.233 27.0402 107.173C28.0053 89.2782 25.2154 69.1729 25.1249 68.5714C25.0344 68.2105 23.104 60.7819 21.8071 53.218C20.0124 42.7519 20.2236 37.0075 22.4405 36.1353C28.4728 33.7744 38.9993 31.9549 49.2544 31.5188C60.9119 31.0225 70.066 32.391 74.3339 35.2932C78.8884 38.3759 80.487 44.6316 79.0844 53.8947C77.9383 61.4286 75.0729 69.3083 72.8711 74.5865C71.4082 78.0752 70.7598 81.7293 70.9257 85.4737L71.9512 109.459C71.9512 109.519 71.9361 109.579 71.8908 109.624C71.8607 109.654 71.8004 109.684 71.74 109.684ZM27.5077 106.977L71.4987 109.218L70.4732 85.4887C70.3073 81.6842 70.9709 77.9549 72.4639 74.421C74.6657 69.1579 77.516 61.3233 78.6471 53.8346C80.0195 44.7519 78.4963 38.6466 74.0926 35.6692C69.8851 32.8271 60.8516 31.4887 49.2845 31.9699C39.0747 32.406 28.6086 34.2105 22.6064 36.5564C18.5948 38.1203 23.3906 60.1353 25.5622 68.4812C25.5622 68.4962 25.5622 68.4962 25.5622 68.5113C25.6075 68.6917 28.4578 88.9023 27.5077 106.977Z" fill="black"/>
<path d="M21.8373 91.0526C20.0426 88.7969 18.2932 87.1879 17.1622 86.2406C18.9417 84.5563 21.0983 82.015 22.3048 78.4812C24.205 72.9624 23.1041 67.0376 23.8581 66.9473C24.4312 66.8872 25.5019 69.9398 27.9149 71.9849C30.4786 74.1804 34.1282 42.6466 26.7084 37.4887C25.14 37.0827 21.8674 36.4661 17.9765 37.4736C17.0717 37.7142 12.4569 38.9924 8.8375 43.4285C4.8863 48.2857 4.79581 53.6691 4.82597 55.218C2.74481 59.7894 -0.286458 68.2857 0.754126 78.827C3.00118 101.398 22.0484 113.654 24.7328 115.338C30.2675 116.075 34.3997 117.579 35.953 117.278C36.0284 117.263 36.0887 117.248 36.1189 117.218C36.1189 117.218 36.149 117.188 36.1641 117.158C36.5864 116.556 31.1422 109.474 31.1422 109.474C25.6226 102.226 27.6283 98.3609 21.8373 91.0526Z" fill="white"/>
<path d="M35.5155 117.519C34.6107 117.519 33.2534 117.218 31.4889 116.812C29.634 116.391 27.3417 115.88 24.7327 115.534C24.7025 115.534 24.6723 115.519 24.6422 115.504C22.6515 114.271 17.4938 110.782 12.4266 105.053C5.4894 97.2029 1.49296 88.3759 0.542857 78.842C-0.241351 70.9473 1.16118 62.7669 4.59963 55.1729C4.55438 52.6315 5.03697 47.7443 8.65639 43.2932C12.0345 39.1428 16.2421 37.6992 17.901 37.2631C21.5204 36.3157 24.7025 36.7518 26.7384 37.2781C26.7686 37.2781 26.7837 37.2932 26.8138 37.3082C29.5435 39.2029 30.5991 44.406 31.0214 48.436C31.4889 53.0225 31.3984 58.6466 30.765 63.8646C30.5388 65.7142 29.7094 71.7744 28.3672 72.3007C28.156 72.3759 27.9298 72.3458 27.7488 72.1804C26.3312 70.9774 25.3962 69.4736 24.7176 68.3759C24.416 67.8796 24.0691 67.3232 23.8881 67.218C23.7675 67.4586 23.7524 68.436 23.7373 69.3984C23.7072 71.7142 23.6619 75.2029 22.5007 78.5864C21.5355 81.3984 19.8464 83.9849 17.4787 86.2706C19.1376 87.6841 20.6608 89.2481 22.003 90.9473C24.974 94.6917 25.9241 97.5789 26.844 100.376C27.7187 103.053 28.6386 105.819 31.3381 109.338C31.3532 109.353 32.7105 111.128 34.0074 112.962C36.7069 116.782 36.4958 117.083 36.3601 117.293C36.3299 117.338 36.2846 117.383 36.2696 117.398C36.1942 117.459 36.1188 117.489 35.9981 117.519C35.8775 117.519 35.6965 117.519 35.5155 117.519ZM24.8382 115.098C27.4472 115.444 29.7395 115.955 31.5794 116.376C33.5701 116.827 35.1536 117.173 35.9378 117.038C35.9679 117.038 35.983 117.022 35.9981 117.022C35.983 116.406 33.4645 112.797 31.0063 109.594C28.2465 106.015 27.3266 103.203 26.4368 100.496C25.5319 97.7293 24.5818 94.8871 21.6712 91.2029C20.2989 89.4736 18.7305 87.8646 17.0263 86.421C16.9811 86.3759 16.9509 86.3157 16.9509 86.2556C16.9509 86.1954 16.9811 86.1353 17.0263 86.0902C19.4393 83.8044 21.1585 81.233 22.1086 78.421C23.2547 75.0977 23.3 71.6541 23.3301 69.3684C23.3603 67.5939 23.3603 66.7969 23.858 66.7368C24.2501 66.6917 24.5366 67.1729 25.1398 68.1353C25.8034 69.2029 26.7233 70.6766 28.0806 71.8345C28.1711 71.9097 28.2164 71.8947 28.2465 71.8796C28.8196 71.6541 29.7395 69.0375 30.3578 63.8195C31.3984 55.1278 31.2778 41.0075 26.6329 37.7142C24.6573 37.2029 21.5657 36.7969 18.0669 37.7142C16.4532 38.1353 12.3361 39.5488 9.0485 43.5939C5.4894 47.9699 5.03697 52.7669 5.08221 55.233C5.08221 55.2631 5.08221 55.2932 5.06713 55.3232C1.6136 62.842 0.211077 70.9623 0.995285 78.7969C3.16694 100.526 21.1283 112.797 24.8382 115.098Z" fill="black"/>
<path d="M85.5088 45.2329C85.5088 45.2329 91.8579 49.5788 99.9111 45.6239L85.5088 45.2329Z" fill="white"/>
<path d="M92.9738 47.5035C91.6919 47.5035 90.5609 47.3381 89.6409 47.1276C87.0319 46.5261 85.4484 45.4584 85.3881 45.4133C85.2825 45.3381 85.2524 45.2028 85.3278 45.0975C85.4032 44.9923 85.5389 44.9622 85.6445 45.0374C85.7048 45.0825 91.9785 49.263 99.8205 45.4133C99.9261 45.3532 100.062 45.3983 100.122 45.5186C100.182 45.6238 100.137 45.7592 100.017 45.8193C97.4227 47.0975 95.0097 47.5035 92.9738 47.5035Z" fill="black"/>
<path d="M13.4672 61.5786C13.4672 61.5786 8.86754 65.714 8.56592 70.917L13.4672 61.5786Z" fill="white"/>
<path d="M8.56581 71.1425C8.55073 71.1425 8.55073 71.1425 8.56581 71.1425C8.43009 71.1274 8.3396 71.0222 8.3396 70.9019C8.6563 65.6688 13.1203 61.5786 13.3163 61.4132C13.4068 61.3229 13.5576 61.338 13.633 61.4282C13.7235 61.5184 13.7084 61.6688 13.6179 61.744C13.5727 61.7891 9.09365 65.8793 8.79203 70.9169C8.77695 71.0523 8.68646 71.1425 8.56581 71.1425Z" fill="black"/>
<path d="M49.601 23.9847C49.6764 24.0298 49.7368 24.09 49.7368 24.1802L50.8075 33.2178C51.0187 34.496 50.8075 35.9697 52.3005 36.6464L53.9594 37.3231C54.6833 37.6238 54.6532 38.6464 53.9142 38.902C51.9688 39.5787 48.8168 40.4659 45.5594 40.4659C42.3471 40.4809 39.5572 39.2328 37.9133 38.2704C37.2649 37.8945 37.4006 36.917 38.1245 36.7215L38.3959 36.6464C39.6326 36.3155 40.4168 34.7516 40.5977 33.4885L41.8947 20.6464C41.9098 20.4659 42.1058 20.3606 42.2566 20.4509L49.601 23.9847Z" fill="white"/>
<path d="M45.5141 40.6917C42.3169 40.6917 39.5421 39.4887 37.7927 38.4661C37.4157 38.2406 37.2045 37.8345 37.2648 37.3985C37.3252 36.9624 37.6268 36.6165 38.049 36.4962L38.3205 36.421C39.4214 36.1203 40.1905 34.6766 40.3564 33.4586L41.6534 20.6165C41.6685 20.4661 41.759 20.3157 41.8947 20.2406C42.0304 20.1654 42.1963 20.1654 42.332 20.2255L49.6764 23.7594C49.8272 23.8345 49.9328 23.9699 49.9479 24.1353L51.0186 33.1729C51.0639 33.4285 51.094 33.6992 51.1091 33.9699C51.2147 35.0225 51.3052 35.9398 52.3759 36.421L54.0197 37.0827C54.442 37.2481 54.6984 37.6541 54.6833 38.1052C54.6682 38.5563 54.3968 38.9323 53.9594 39.0827C51.9084 39.8045 48.7716 40.6616 45.5292 40.6616C45.5443 40.6917 45.5292 40.6917 45.5141 40.6917ZM42.136 20.6466C42.1058 20.6616 42.1058 20.6616 42.1058 20.6766L40.8089 33.5188C40.6128 34.9172 39.7532 36.5112 38.4412 36.8721L38.1697 36.9473C37.8681 37.0225 37.7324 37.2631 37.7173 37.4736C37.6871 37.6691 37.7625 37.9398 38.0189 38.0902C39.7381 39.0827 42.4225 40.2556 45.5141 40.2556C45.5292 40.2556 45.5443 40.2556 45.5443 40.2556C48.7263 40.2406 51.8028 39.3984 53.8237 38.7067C54.1253 38.6015 54.2309 38.3458 54.2309 38.1353C54.2309 37.9248 54.1404 37.6691 53.8388 37.5488L52.1799 36.8721C50.8678 36.2706 50.7472 35.0977 50.6416 34.0451C50.6114 33.7894 50.5964 33.5188 50.5511 33.2782L49.4804 24.2255C49.4804 24.2105 49.4804 24.2105 49.4653 24.2105L42.136 20.6466C42.1511 20.6466 42.1511 20.6466 42.136 20.6466Z" fill="black"/>
<path d="M58.348 7.86451C55.7541 7.08255 58.3932 10.5713 49.3748 5.39834C45.7856 3.33819 46.6301 8.31564 45.6951 7.77428C42.2416 5.80436 42.3622 5.86451 40.4469 5.90962C39.165 5.9397 37.853 7.95473 37.672 9.65398C37.4307 11.8946 39.0896 12.9021 39.5571 17.8795C39.8889 21.3833 39.1198 23.278 40.3112 24.06C41.5026 24.857 42.9051 23.3382 44.2775 24.1051C46.057 25.0976 44.8656 28.3006 46.3888 30.1051C47.3389 31.248 49.963 32.3006 54.8492 31.248C55.6334 31.0826 56.2065 30.3608 56.1763 29.5487C56.1462 28.5111 56.1009 27.2029 55.9652 25.9547C55.2715 20.0149 53.6277 18.3006 54.6833 17.0675C56.297 15.1728 60.0974 17.3983 61.2134 15.7893C62.3294 14.1051 61.892 8.93218 58.348 7.86451Z" fill="black"/>
<path d="M46.9016 13.3983L47.3088 14.9773C47.5049 15.7292 47.6406 16.481 47.7311 17.248C47.897 18.6765 48.1986 21.1427 48.47 22.5111C48.8772 24.5261 55.181 23.7141 55.181 23.7141L55.7994 22.6916L56.5383 22.5863C56.6741 22.5713 56.8249 22.5111 56.9304 22.4209C57.217 22.1953 57.3075 21.8344 57.1868 21.5186C56.5534 19.8043 55.2715 15.9698 55.2565 12.8119C55.2565 12.8119 51.2449 10.6615 46.9016 13.3983Z" fill="white"/>
<path d="M52.4966 24.1052C50.6417 24.1052 48.5002 23.8194 48.2438 22.5563C47.9723 21.1728 47.6556 18.6465 47.5048 17.2631C47.4143 16.5112 47.2786 15.7593 47.0976 15.0225L46.6905 13.4435C46.6603 13.3533 46.7055 13.248 46.796 13.2029C51.1997 10.436 55.3318 12.5864 55.3771 12.6014C55.4525 12.6465 55.4977 12.7217 55.4977 12.7969C55.5128 15.9698 56.8399 19.8796 57.413 21.4134C57.5638 21.8345 57.4281 22.3007 57.0812 22.5713C56.9455 22.6766 56.7645 22.7518 56.5835 22.7819L55.9501 22.8721L55.3771 23.8044C55.3469 23.8646 55.2866 23.9097 55.2112 23.9097C54.9246 23.9698 53.7785 24.1052 52.4966 24.1052ZM47.158 13.5037L47.5199 14.9322C47.716 15.6841 47.8517 16.451 47.9422 17.233C48.093 18.6014 48.3946 21.1127 48.6811 22.4811C48.9677 23.9247 53.2657 23.7292 55.0302 23.5187L55.5882 22.5864C55.6184 22.5262 55.6787 22.4961 55.7541 22.4811L56.4931 22.3758C56.6137 22.3608 56.7042 22.3157 56.7796 22.2555C56.9756 22.1052 57.0511 21.8345 56.9606 21.6089C56.2518 19.6991 55.0755 16.0751 55.0151 12.9773C54.3516 12.6315 50.883 11.248 47.158 13.5037Z" fill="black"/>
<path d="M46.7357 18.5412C46.7357 18.5412 45.7555 14.7367 44.1267 15.5487C42.4829 16.3758 43.6592 20.5412 46.7357 18.5412Z" fill="white"/>
<path d="M119.426 70.7521C119.396 70.7521 119.365 70.7521 119.335 70.7371C119.215 70.692 119.169 70.5566 119.215 70.4363C122.321 62.7972 122.11 56.2408 121.386 52.0754C120.602 47.5641 119.064 44.8423 119.049 44.8123C118.988 44.707 119.019 44.5717 119.139 44.5115C119.245 44.4514 119.38 44.4814 119.441 44.6017C119.501 44.722 121.024 47.4288 121.824 52.0153C122.563 56.2408 122.774 62.9025 119.637 70.6318C119.592 70.692 119.516 70.7521 119.426 70.7521Z" fill="black"/>
<path d="M117.586 68.1654C117.556 68.1654 117.541 68.1654 117.511 68.1504C117.39 68.1052 117.33 67.9849 117.36 67.8646C120.361 58.5263 118.702 54.4812 118.687 54.4361C118.642 54.3158 118.687 54.1955 118.808 54.1353C118.928 54.0902 119.049 54.1353 119.109 54.2556C119.185 54.421 120.859 58.4662 117.797 68C117.767 68.1052 117.676 68.1654 117.586 68.1654Z" fill="black"/>
<path d="M66.5521 5.97023C66.4315 5.97023 66.341 5.88001 66.3259 5.75971C66.3108 5.63941 66.4164 5.53414 66.537 5.51911L67.4419 5.45896C67.5625 5.44392 67.6681 5.54918 67.6832 5.66948C67.6983 5.78978 67.5927 5.89505 67.4721 5.91008L66.5521 5.97023C66.5672 5.97023 66.5521 5.97023 66.5521 5.97023Z" fill="black"/>
<path d="M63.37 6.18071C63.2493 6.18071 63.1589 6.09049 63.1438 5.97019C63.1287 5.84988 63.2343 5.74462 63.3549 5.72958L64.2598 5.66943C64.3804 5.66943 64.486 5.75966 64.5011 5.87996C64.5161 6.00026 64.4106 6.10552 64.2899 6.12056L63.37 6.18071C63.3851 6.18071 63.37 6.18071 63.37 6.18071Z" fill="black"/>
<path d="M65.3606 4.93259C65.2399 4.93259 65.1344 4.84236 65.1344 4.72206L65.0891 3.83484C65.0891 3.71454 65.1796 3.60928 65.3002 3.59424C65.4209 3.59424 65.5265 3.68446 65.5415 3.80476L65.5868 4.69198C65.5868 4.81228 65.4963 4.91755 65.3606 4.93259Z" fill="black"/>
<path d="M65.5114 8.06051C65.3908 8.06051 65.2852 7.97029 65.2852 7.84999L65.24 6.96277C65.24 6.84247 65.3305 6.73721 65.4511 6.72217C65.5718 6.72217 65.6773 6.81239 65.6924 6.93269L65.7377 7.81991C65.7527 7.94021 65.6472 8.04548 65.5114 8.06051C65.5265 8.06051 65.5265 8.06051 65.5114 8.06051Z" fill="black"/>
<path d="M19.6052 23.8949C19.56 23.8949 19.5298 23.8799 19.4846 23.8649C19.379 23.8047 19.3488 23.6543 19.4092 23.5491C21.2792 20.5416 25.1701 15.0528 30.2222 12.1205C30.3278 12.0604 30.4635 12.0904 30.5389 12.1957C30.5992 12.301 30.569 12.4363 30.4635 12.5115C25.4868 15.3987 21.6562 20.8122 19.8013 23.7746C19.756 23.8649 19.6806 23.8949 19.6052 23.8949Z" fill="black"/>
<path d="M15.2769 25.6846C15.2467 25.6846 15.2166 25.6846 15.1864 25.6696C15.0808 25.6094 15.0205 25.4741 15.0808 25.3688C18.1875 18.9327 21.9276 15.6545 21.9577 15.6245C22.0482 15.5493 22.199 15.5493 22.2744 15.6395C22.3499 15.7297 22.3499 15.8801 22.2594 15.9553C22.2292 15.9854 18.5495 19.2034 15.488 25.5643C15.4428 25.6395 15.3674 25.6846 15.2769 25.6846Z" fill="black"/>
<path d="M32.9367 11.9101C32.3184 11.9101 31.7905 11.4289 31.7453 10.7973C31.7 10.1507 32.1977 9.57924 32.8613 9.53413C33.178 9.51909 33.4796 9.62435 33.7209 9.83488C33.9622 10.0454 34.0979 10.3311 34.1281 10.6469C34.1733 11.2935 33.6756 11.865 33.0121 11.9101C32.9819 11.9101 32.9668 11.9101 32.9367 11.9101ZM32.9367 9.98526C32.9216 9.98526 32.9065 9.98526 32.8914 9.98526C32.4843 10.0153 32.1826 10.3612 32.1977 10.7672C32.2279 11.1732 32.5747 11.474 32.9819 11.4589C33.3891 11.4289 33.6907 11.083 33.6756 10.677C33.6606 10.4815 33.5701 10.301 33.4193 10.1657C33.2835 10.0604 33.1176 9.98526 32.9367 9.98526Z" fill="black"/>
<path d="M16.6342 33.0524C16.5738 33.0524 16.4984 33.0224 16.4532 32.9773L16.0912 32.5412C16.0158 32.4509 16.0309 32.3006 16.1214 32.2254C16.2119 32.1502 16.3627 32.1652 16.4381 32.2555L16.8 32.6915C16.8755 32.7818 16.8604 32.9321 16.7699 33.0073C16.7397 33.0374 16.6794 33.0524 16.6342 33.0524Z" fill="black"/>
<path d="M15.3524 31.5339C15.2921 31.5339 15.2167 31.5038 15.1715 31.4587L14.8095 31.0226C14.7341 30.9324 14.7492 30.782 14.8397 30.7068C14.9302 30.6316 15.081 30.6467 15.1564 30.7369L15.5183 31.173C15.5937 31.2632 15.5786 31.4136 15.4882 31.4888C15.458 31.5189 15.4127 31.5339 15.3524 31.5339Z" fill="black"/>
<path d="M16.3628 31.6389C16.3025 31.6389 16.2271 31.6088 16.1818 31.5487C16.1064 31.4584 16.1215 31.3081 16.212 31.2329L16.6493 30.887C16.7398 30.8118 16.8906 30.8269 16.966 30.9171C17.0414 31.0073 17.0264 31.1577 16.9359 31.2329L16.4985 31.5787C16.4533 31.6239 16.408 31.6389 16.3628 31.6389Z" fill="black"/>
<path d="M14.8396 32.8723C14.7793 32.8723 14.7039 32.8422 14.6586 32.7821C14.5832 32.6918 14.5983 32.5415 14.6888 32.4663L15.1261 32.1204C15.2166 32.0452 15.3674 32.0603 15.4428 32.1505C15.5182 32.2407 15.5032 32.3911 15.4127 32.4663L14.9753 32.8121C14.9301 32.8572 14.8848 32.8723 14.8396 32.8723Z" fill="black"/>
<path d="M74.1981 8.96297C73.9115 8.96297 73.6401 8.8577 73.4289 8.64718C73.2178 8.43665 73.0972 8.16597 73.0972 7.86522C73.0972 7.56447 73.2027 7.29379 73.4139 7.08327C73.625 6.87274 73.8965 6.75244 74.1981 6.75244H74.2132C74.4997 6.75244 74.7712 6.8577 74.9823 7.06823C75.1934 7.27876 75.3141 7.54943 75.3141 7.85019C75.3141 8.15094 75.2085 8.42161 74.9974 8.63214C74.7862 8.84267 74.5148 8.96297 74.1981 8.96297C74.2132 8.96297 74.1981 8.96297 74.1981 8.96297ZM74.1981 7.20357C74.0171 7.20357 73.8512 7.27876 73.7306 7.39906C73.6099 7.51936 73.5345 7.68477 73.5496 7.86522C73.5496 8.04567 73.625 8.21109 73.7457 8.33139C73.8663 8.45169 74.0322 8.51184 74.2132 8.51184C74.3941 8.51184 74.56 8.43665 74.6807 8.31635C74.8013 8.19605 74.8767 8.03064 74.8617 7.85019C74.8617 7.66973 74.7863 7.50432 74.6656 7.38402C74.5299 7.26372 74.364 7.20357 74.1981 7.20357Z" fill="black"/>
</svg>
