<svg width="114" height="96" viewBox="0 0 114 96" fill="none" xmlns="http://www.w3.org/2000/svg">
<g clip-path="url(#clip0)">
<path d="M113.488 79.5919C114.723 82.0773 111.56 83.5882 109.226 81.6618C106.892 79.7279 104.558 77.8922 104.558 77.8922C104.558 77.8922 105.206 80.7553 104.46 82.5306C104.167 83.2256 103.158 83.1425 102.962 82.4172C102.277 79.8941 101.9 78.0735 101.358 76.404C101.004 75.3087 100.342 74.3417 99.461 73.6014C92.3835 67.6637 86.8119 62.8592 81.8802 57.4352C81.3682 56.8762 80.781 56.4003 80.1184 56.0225L79.2224 55.5164L84.8392 48.8535C85.1479 49.0801 85.4641 49.3143 85.7728 49.541C86.8571 50.3417 87.866 51.2407 88.7921 52.2227C94.04 57.8054 112.426 77.4692 113.488 79.5919Z" fill="white"/>
<path d="M102.54 25.0196C102.54 26.8704 104.189 27.5654 104.189 29.0007C104.189 31.1688 100.432 31.7203 100.432 33.979C100.432 35.5352 102.879 35.5881 102.879 37.7184C102.879 39.5843 100.342 39.6825 100.237 42.4172C98.6102 42.6438 97.3453 42.4247 96.3741 42.0545C94.0852 41.1782 92.7676 39.2292 89.2514 38.6551C87.6929 38.3983 86.6237 38.5645 84.523 38.8591C79.4785 39.5616 75.6009 40.2189 72.544 40.1433C68.8246 40.0527 66.3098 38.8817 64.3598 35.3992C62.9367 32.8459 61.8149 29.0536 60.7457 23.539C60.3768 21.6353 59.6164 19.3086 57.99 16.7325C57.7416 16.3322 57.1392 16.4077 56.9887 16.8534C56.6122 17.9488 56.2809 18.9082 55.9873 19.8298C55.8969 20.1093 55.7539 20.3737 55.5581 20.5928C55.3925 20.7892 55.2042 20.9781 54.9934 21.1669C54.9181 21.2349 54.8955 21.3407 54.9407 21.4313L54.9482 21.454C55.1591 21.9148 55.1967 22.4285 55.0687 22.9195C55.0612 22.9346 55.0612 22.9422 55.0612 22.9573C54.5793 24.7174 55.543 26.5531 57.2672 27.1575L59.255 27.8525C59.0366 29.1216 58.7053 30.2321 58.246 31.2595C56.8305 30.4814 55.4753 29.7864 54.2028 29.1896C54.1727 29.1745 54.1351 29.1594 54.105 29.1443C48.4355 15.4332 59.5185 10.1905 65.6172 14.5569C68.6514 16.725 68.7568 21.6126 74.0574 23.6749C79.358 25.7373 88.5587 21.6126 92.7826 21.0687C96.0428 20.6457 100.786 20.3586 104.822 21.7486C103.617 22.5871 102.54 23.5541 102.54 25.0196Z" fill="#323433"/>
<path d="M46.3725 37.4083C42.3745 35.1269 36.592 32.8229 33.2566 32.1808L34.3257 30.3979L38.9713 22.6548C44.445 25.2535 50.4232 27.4064 54.0824 29.1213C54.1126 29.1364 54.1502 29.1515 54.1803 29.1666C55.4528 29.7709 56.8005 30.4659 58.2235 31.2365C57.5609 32.7096 56.6499 33.9938 55.4603 35.2856C54.9709 35.8219 55.3549 36.6831 56.0777 36.6756C59.1571 36.6453 61.5514 36.3205 64.3448 35.3913C66.2873 38.8739 68.8021 40.0448 72.529 40.1354C76.5798 42.8776 80.7434 45.8389 84.8393 48.8455L79.2225 55.5084L77.3327 57.752L65.8581 46.9947C61.4912 55.1458 59.8423 61.1893 59.0367 68.2299C58.1181 67.769 57.2146 67.3233 56.3261 66.8776C50.5663 63.9919 45.5744 61.4234 41.0795 58.8625C38.4668 57.3743 36.0198 55.8937 33.6858 54.3526C32.7898 53.7634 31.9164 53.1666 31.0505 52.5547C36.9911 48.5131 41.5915 43.9277 46.3725 37.4083Z" fill="#FFE300"/>
<path d="M74.0874 78.5645L84.4476 95.4861C83.6194 95.6372 82.8364 95.7278 82.0834 95.758L71.9265 79.1612L74.0874 78.5645Z" fill="#323433"/>
<path d="M71.9192 79.1611L82.0761 95.7579C76.5346 95.9845 72.6344 93.2197 67.5597 91.9203C67.5296 87.5011 66.5885 84.1092 64.1641 80.808C65.0676 80.7173 65.9635 80.5889 66.852 80.4302C67.5974 80.2943 68.3428 80.1281 69.0806 79.9392C69.2237 79.9014 69.3743 79.8637 69.5173 79.8259L71.9192 79.1611Z" fill="#C4C4C4"/>
<path d="M66.9272 76.4268L69.073 79.9319C68.3352 80.1208 67.5898 80.287 66.8444 80.423L64.7588 77.016L66.9272 76.4268Z" fill="#323433"/>
<path d="M64.7589 77.0234L66.8445 80.4304C65.9561 80.5966 65.0601 80.7175 64.1566 80.8081C63.6145 80.861 63.0724 80.8988 62.5303 80.929C62.0108 80.9517 61.4912 80.9668 60.9717 80.9668H58.4344C58.0278 80.1887 57.5459 79.4257 56.9888 78.6703C58.7958 78.489 60.5877 78.1641 62.3421 77.6807L64.7589 77.0234Z" fill="#C4C4C4"/>
<path d="M64.1563 80.8076C66.5883 84.1088 67.5219 87.5007 67.552 91.92C66.0085 91.5272 64.3596 91.2703 62.53 91.2703V80.9285C63.0721 80.8983 63.6142 80.8605 64.1563 80.8076Z" fill="white"/>
<path d="M62.5303 91.2707V93.3103H26.2846C24.455 93.3103 22.6856 92.6154 21.3454 91.3613C21.2325 91.2556 21.1271 91.1498 21.0217 91.0441C18.4166 88.2943 18.3337 83.9581 20.9087 81.1177L37.9097 62.3604L41.0795 58.8628C45.5745 61.4237 50.5664 63.9922 56.3262 66.8779C54.474 73.2084 49.5273 76.6154 44.2493 78.8212C42.1939 79.6824 40.0857 80.3623 38.098 80.9591H55.3775H58.4495H60.9868C61.5063 80.9591 62.0258 80.944 62.5454 80.9213V91.2707H62.5303Z" fill="#323433"/>
<path d="M58.2234 31.2366C58.6827 30.2167 59.0139 29.1062 59.2323 27.8296L57.2446 27.1346C55.5204 26.5378 54.5566 24.7021 55.0385 22.9344C55.046 22.9193 55.046 22.9042 55.046 22.8966C55.1816 22.4131 55.1364 21.8919 54.9256 21.4311L54.918 21.4084C54.8804 21.3178 54.8954 21.212 54.9707 21.144C55.1816 20.9627 55.3698 20.7663 55.5354 20.5699C55.7312 20.3433 55.8742 20.0864 55.9646 19.8069C56.2658 18.8853 56.5895 17.9259 56.966 16.8305C57.1166 16.3848 57.7189 16.3168 57.9674 16.7096C59.5862 19.2857 60.3541 21.6124 60.7231 23.5161C61.7922 29.0307 62.9066 32.823 64.3371 35.3763C61.5438 36.3055 59.1495 36.6303 56.07 36.6605C55.3472 36.6681 54.9632 35.8069 55.4526 35.2706C56.6498 33.9939 57.5683 32.7096 58.2234 31.2366Z" fill="white"/>
<path d="M58.4419 80.9664H55.3774V78.7908C55.9195 78.7606 56.4617 78.7228 57.0038 78.6699C57.5609 79.4254 58.0353 80.1883 58.4419 80.9664Z" fill="white"/>
<path d="M55.3772 78.7837V80.9593H38.0977C40.0929 80.355 42.1936 79.6827 44.249 78.8215H53.8112C54.3382 78.8215 54.8577 78.8139 55.3772 78.7837Z" fill="#323433"/>
<path d="M37.9172 62.3606L20.9162 81.1179C18.3412 83.9583 18.4165 88.2945 21.0291 91.0442H16.8655C15.0283 91.0442 13.2665 90.3492 11.9188 89.0952C8.99744 86.3757 8.80921 81.8053 11.4896 78.8516L33.7008 54.353C36.0349 55.8941 38.4819 57.3747 41.0945 58.8629L37.9172 62.3606Z" fill="#323433"/>
<path d="M9.9837 2.09974C9.76536 2.11485 9.56207 2.12241 9.37384 2.11485V0.392471C10.0439 0.362254 10.6764 0.309374 11.2863 0.233831C11.6928 0.180951 12.0994 0.309374 12.4006 0.588883C15.5252 3.40664 31.5851 18.0242 33.7987 19.6635C36.2306 21.469 38.9712 22.655 38.9712 22.655L34.3257 30.3981C32.3832 29.2952 29.7178 27.7692 27.8656 26.6361C25.0422 24.9137 15.6306 12.2376 13.2288 8.9666C12.8825 8.49068 12.3404 8.20361 11.7531 8.1734C10.8947 8.12807 10.1268 8.04497 9.29102 7.90144V7.34242C9.47925 7.19889 9.6223 7.01004 9.68254 6.74564C9.77289 6.39814 9.89335 6.05064 10.0214 5.70314C10.2849 5.00815 10.5785 4.33581 10.699 3.75413C10.842 3.05914 10.7216 2.48501 9.9837 2.15262V2.09974Z" fill="white"/>
<path d="M8.22191 27.6784C11.2325 27.6784 13.6731 25.2297 13.6731 22.2091C13.6731 19.1884 11.2325 16.7397 8.22191 16.7397C5.21132 16.7397 2.77075 19.1884 2.77075 22.2091C2.77075 25.2297 5.21132 27.6784 8.22191 27.6784Z" fill="#EF5344"/>
<path d="M9.99118 2.1527C10.729 2.48509 10.8495 3.05166 10.7065 3.75421C10.33 4.10927 9.6599 4.22258 8.92203 4.20747C7.48395 4.17725 6.34704 3.33117 5.99316 2.25091C6.00069 2.2358 6.00069 2.22825 6.00822 2.21314C6.20398 1.63901 6.55786 1.20842 7.27313 1.03467C7.31831 1.0951 7.37101 1.15554 7.41619 1.21597C7.94323 1.84298 8.52298 2.09982 9.37379 2.12249C9.56202 2.13004 9.76531 2.12249 9.98365 2.10738L9.99118 2.1527Z" fill="white"/>
<path d="M10.7065 3.75379C10.586 4.33547 10.2924 5.00781 10.0289 5.7028C9.64489 5.90677 9.11031 5.9672 8.53056 5.95965C7.05483 5.92943 5.89533 5.03802 5.5791 3.91243C5.75227 3.17967 5.91039 2.52244 5.99321 2.25049C6.34708 3.33075 7.484 4.17683 8.92208 4.20705C9.65995 4.22216 10.33 4.10885 10.7065 3.75379Z" fill="white"/>
<path d="M7.14508 7.49333C6.82886 7.38002 6.54275 7.20627 6.29428 6.9872C5.60159 6.36774 5.24772 5.38569 5.46607 4.39607C5.50371 4.22988 5.54136 4.07124 5.57901 3.9126C5.89523 5.03819 7.06226 5.92959 8.53046 5.95981C9.11021 5.97492 9.63726 5.90693 10.0288 5.70297C9.90078 6.04291 9.78031 6.39796 9.68996 6.74546C9.6222 7.00986 9.48667 7.20627 9.29844 7.34225C8.96716 7.58398 8.48529 7.65953 7.95824 7.65197C7.67213 7.63686 7.40108 7.58398 7.14508 7.49333Z" fill="white"/>
<path d="M9.38118 0.392578V2.11496C8.53038 2.09229 7.95063 1.83545 7.42358 1.20844L7.47629 0.437904C7.49888 0.43035 7.51393 0.43035 7.53652 0.43035C8.19157 0.43035 8.80143 0.422795 9.38118 0.392578Z" fill="white"/>
<path d="M9.29862 7.90153V15.2292H8.22194H7.14526V8.70229V7.4936C7.40126 7.58425 7.67231 7.63713 7.95842 7.64469C8.48546 7.6598 8.96733 7.5767 9.29862 7.33496V7.90153Z" fill="white"/>
<path d="M7.47664 0.437988L7.41641 1.20853C7.37124 1.15565 7.31853 1.09521 7.27336 1.02722C7.26583 1.01967 7.2583 1.00456 7.25077 0.997006C7.09266 0.785486 7.22818 0.483314 7.47664 0.437988Z" fill="white"/>
<path d="M7.14519 7.49367V8.70236C4.70572 12.827 1.27992 13.2274 1.27992 13.2274L0.22583 10.6967C3.04176 10.0395 4.53255 9.25382 6.29439 6.97998C6.54285 7.20661 6.82896 7.38036 7.14519 7.49367Z" fill="white"/>
<path d="M57.5156 21.7034H57.4855C57.2596 21.6731 57.1015 21.4616 57.1316 21.235L57.2144 20.6004C57.2445 20.3738 57.4554 20.2152 57.6812 20.2454H57.7114C57.9372 20.2756 58.0953 20.4871 58.0652 20.7138L57.9824 21.3483C57.9523 21.5749 57.7415 21.7336 57.5156 21.7034Z" fill="#323433"/>
<path d="M46.3725 37.6355C46.3348 37.6355 46.2972 37.628 46.2595 37.6053C42.2766 35.3315 36.5468 33.0425 33.2189 32.4004C33.1436 32.3853 33.0834 32.34 33.0533 32.272C33.0231 32.204 33.0307 32.1284 33.0683 32.0604L38.783 22.5345C38.8432 22.4363 38.9712 22.3985 39.0766 22.4438C42.141 23.9018 45.3861 25.2238 48.2548 26.3872C50.4759 27.2937 52.5765 28.1473 54.1878 28.9028C54.2254 28.9179 54.2556 28.933 54.2857 28.9481C55.528 29.5373 56.8908 30.2323 58.3439 31.0255C58.3665 31.0331 58.3816 31.0482 58.3966 31.0633C58.4343 31.1011 58.4644 31.1615 58.4644 31.2219C58.4644 31.3503 58.3665 31.4485 58.2385 31.4485C58.1934 31.4485 58.1557 31.4334 58.1181 31.4183C56.68 30.6327 55.3247 29.9377 54.0975 29.356C54.0598 29.3409 54.0297 29.3258 53.992 29.3107C52.3958 28.5628 50.3027 27.7092 48.0816 26.8027C45.2657 25.6544 42.0883 24.3626 39.0691 22.9349L33.6179 32.0227C37.0287 32.7479 42.5853 34.984 46.4779 37.2125C46.5456 37.2502 46.5983 37.3258 46.5983 37.4089C46.5983 37.5373 46.4929 37.6355 46.3725 37.6355Z" fill="#323433"/>
<path d="M59.0365 68.4646C58.9989 68.4646 58.9688 68.4571 58.9387 68.442C58.0201 67.9811 57.1166 67.5354 56.2281 67.0897C51.1835 64.559 45.8378 61.8395 40.9739 59.0671C38.2559 57.5184 35.8314 56.0378 33.5651 54.5496C32.6616 53.9528 31.7732 53.3485 30.9299 52.7517C30.8697 52.7063 30.832 52.6384 30.832 52.5628C30.832 52.4873 30.8697 52.4193 30.9299 52.374C36.7952 48.3702 41.3579 43.8527 46.1841 37.2805C47.0199 36.1398 47.8933 34.9009 48.7667 33.6015C48.8344 33.4958 48.9775 33.4731 49.0829 33.5411C49.1883 33.6091 49.2109 33.7526 49.1431 33.8584C48.2622 35.1653 47.3888 36.4042 46.5455 37.5524C41.7645 44.0718 37.2319 48.5817 31.4494 52.5704C32.2099 53.0992 33.0004 53.6431 33.8061 54.1719C36.0573 55.6601 38.4742 57.1332 41.1847 58.6742C46.0411 61.4391 51.3793 64.1587 56.4164 66.6818C57.2069 67.0822 58.0126 67.4826 58.8332 67.8905C59.5862 61.4996 61.0619 55.441 65.6397 46.8971C65.6698 46.8367 65.73 46.7913 65.8053 46.7838C65.8731 46.7687 65.9484 46.7913 65.9935 46.8442L77.2949 57.4353L84.651 48.7101C84.6585 48.7026 84.6585 48.7026 84.666 48.695C84.7564 48.6044 84.8994 48.6044 84.9823 48.695C85.0651 48.7781 85.0726 48.9141 84.9898 49.0047L77.4831 57.9037C77.4455 57.949 77.3853 57.9792 77.325 57.9868C77.2648 57.9868 77.2046 57.9717 77.1594 57.9264L65.9182 47.3655C61.4082 55.8565 59.9927 61.8697 59.2624 68.2606C59.2549 68.3362 59.2097 68.3966 59.1495 68.4344C59.1118 68.4495 59.0742 68.4646 59.0365 68.4646Z" fill="#323433"/>
<path d="M38.9711 22.8819C38.941 22.8819 38.9109 22.8743 38.8808 22.8668C38.8506 22.8517 36.0874 21.6505 33.663 19.8526C31.7205 18.4022 19.2747 7.12363 13.959 2.30399C13.2212 1.63921 12.6414 1.10286 12.2499 0.75536C11.9939 0.528731 11.6551 0.415416 11.3163 0.460742C10.7139 0.536285 10.0815 0.589165 9.38879 0.619382C8.84669 0.642045 8.23682 0.657154 7.5366 0.657154C7.52907 0.657154 7.52154 0.657154 7.51401 0.657154C7.46884 0.664708 7.43119 0.694925 7.41613 0.740251C7.4086 0.762914 7.39355 0.815794 7.43119 0.86112C7.43872 0.868674 7.44625 0.883783 7.45378 0.891337C7.49895 0.951771 7.54413 1.00465 7.58931 1.05753C8.07118 1.6241 8.59069 1.86584 9.38126 1.88095C9.56196 1.8885 9.75019 1.88095 9.96854 1.86584C9.99113 1.86584 10.0137 1.86584 10.0363 1.85829C10.7139 1.79785 11.2711 2.19068 11.8584 2.60616C12.4984 3.05942 13.1609 3.52779 14.0795 3.51268C14.0795 3.51268 14.0795 3.51268 14.087 3.51268C14.2075 3.51268 14.3129 3.61088 14.3129 3.73175C14.3129 3.86018 14.215 3.95838 14.0946 3.96594C14.072 3.96594 14.0494 3.96594 14.0268 3.96594C12.9953 3.96594 12.2574 3.43714 11.6024 2.97632C11.0678 2.59105 10.601 2.26622 10.089 2.30399C10.0664 2.30399 10.0438 2.31154 10.0137 2.31154C9.78784 2.32665 9.58455 2.33421 9.38126 2.33421C8.45517 2.31154 7.82271 2.01693 7.25802 1.35215C7.20531 1.29171 7.16014 1.23128 7.10743 1.16329C7.10743 1.16329 7.10743 1.15574 7.09991 1.15574C7.09238 1.14818 7.09238 1.14063 7.08485 1.13307C6.96438 0.96688 6.93426 0.75536 7.00955 0.566502C7.08485 0.377645 7.25049 0.241668 7.44625 0.21145C7.47637 0.203896 7.51401 0.203896 7.55166 0.203896C8.24435 0.203896 8.84669 0.188787 9.38126 0.166125C10.0664 0.135907 10.6838 0.0830273 11.2786 0.0150386C11.7454 -0.0453958 12.2198 0.10569 12.5737 0.422971C12.9576 0.770468 13.5449 1.30682 14.2828 1.9716C19.5758 6.78369 32.0066 18.0547 33.9341 19.4825C36.3208 21.2502 39.0389 22.4362 39.0615 22.4437C39.1744 22.4966 39.2271 22.625 39.1819 22.7384C39.1443 22.829 39.0615 22.8819 38.9711 22.8819Z" fill="#323433"/>
<path d="M34.3256 30.6251C34.2879 30.6251 34.2503 30.6175 34.2127 30.5949C32.2852 29.4995 29.5972 27.966 27.745 26.8328C24.9141 25.1029 15.7811 12.8271 13.048 9.10287C12.7393 8.67983 12.265 8.42299 11.7454 8.40032C10.9022 8.36255 10.1342 8.2719 9.2608 8.12837C9.14033 8.10571 9.05751 7.99239 9.07257 7.86397C9.09515 7.7431 9.20809 7.66 9.33609 7.67511C10.1944 7.81864 10.9473 7.90174 11.768 7.93951C12.4231 7.96973 13.0254 8.29456 13.4094 8.82337C14.5538 10.3796 17.5429 14.4211 20.5622 18.2285C24.2515 22.8819 26.819 25.7223 27.9785 26.4324C29.8306 27.558 32.511 29.0991 34.431 30.1869C34.5364 30.2474 34.5816 30.3833 34.5138 30.4966C34.4837 30.5873 34.4084 30.6251 34.3256 30.6251Z" fill="#323433"/>
<path d="M8.07117 7.87895C8.03353 7.87895 7.99588 7.87895 7.95824 7.87895C7.65707 7.87139 7.3559 7.81851 7.06979 7.71275C6.73097 7.59188 6.41474 7.40303 6.14369 7.16129C5.36065 6.45874 5.01431 5.37847 5.24771 4.35109C5.28536 4.1849 5.32301 4.02626 5.36065 3.86762C5.57147 2.9611 5.69947 2.4323 5.78229 2.18301C5.81994 2.06214 5.94793 2.0017 6.0684 2.03948C6.18887 2.07725 6.2491 2.20567 6.21146 2.32654C6.13616 2.55317 6.00064 3.08952 5.79735 3.96582C5.7597 4.12446 5.72206 4.2831 5.68441 4.4493C5.48865 5.31804 5.77476 6.22456 6.43733 6.82135C6.66321 7.02531 6.92673 7.18395 7.21284 7.28971C7.45378 7.37281 7.70224 7.42569 7.95824 7.42569C8.50034 7.4408 8.89939 7.35015 9.15538 7.16129C9.3135 7.04797 9.41138 6.88933 9.46408 6.69292C9.53937 6.3832 9.64478 6.05081 9.81043 5.62777C9.87066 5.46157 9.93842 5.28782 10.0062 5.12163C10.2019 4.61549 10.3902 4.13202 10.4805 3.70898C10.6236 3.00643 10.4504 2.6136 9.89325 2.36431C9.78031 2.31143 9.7276 2.18301 9.78031 2.06214C9.83301 1.94882 9.96101 1.89594 10.0815 1.94882C10.8344 2.28877 11.113 2.89311 10.9248 3.79963C10.8344 4.26044 10.6386 4.75902 10.4278 5.28782C10.3676 5.45402 10.2998 5.62021 10.2396 5.78641C10.0815 6.19434 9.9836 6.51162 9.90831 6.80624C9.83301 7.10841 9.6749 7.35015 9.42644 7.53145C9.11774 7.75808 8.65845 7.87895 8.07117 7.87895Z" fill="#323433"/>
<path d="M5.99315 2.47769C5.97056 2.47769 5.94045 2.47014 5.91786 2.46258C5.79739 2.42481 5.73716 2.28883 5.78233 2.17552L5.79739 2.13775C6.04586 1.41253 6.50514 0.989494 7.22794 0.815745C7.34841 0.785528 7.46888 0.861071 7.499 0.98194C7.52911 1.10281 7.45382 1.22368 7.33335 1.25389C6.76113 1.38987 6.42985 1.6996 6.22656 2.28883L6.2115 2.3266C6.17385 2.41726 6.09103 2.47769 5.99315 2.47769Z" fill="#323433"/>
<path d="M8.66597 6.18678C8.62079 6.18678 8.57562 6.18678 8.53044 6.18678C7.0246 6.15657 5.72204 5.2425 5.36064 3.97337C5.33052 3.85251 5.39829 3.72408 5.51875 3.69387C5.63922 3.65609 5.75969 3.73164 5.79733 3.85251C6.0985 4.93277 7.22789 5.70331 8.53797 5.73353C9.14031 5.74863 9.60712 5.67309 9.92335 5.5069C10.0363 5.44646 10.1718 5.49179 10.2245 5.6051C10.2848 5.71842 10.2396 5.85439 10.1266 5.90727C9.77276 6.08858 9.28336 6.18678 8.66597 6.18678Z" fill="#323433"/>
<path d="M9.05008 4.43423C9.0049 4.43423 8.95973 4.43423 8.91455 4.43423C7.43882 4.40402 6.17391 3.55038 5.77486 2.31903C5.76733 2.29637 5.76733 2.27371 5.76733 2.25104C5.76733 2.12262 5.86521 2.02441 5.99321 2.02441C6.09862 2.02441 6.18144 2.0924 6.21156 2.19061C6.5579 3.2331 7.64211 3.95831 8.92961 3.98098C9.71265 3.99609 10.2623 3.86766 10.5484 3.58815C10.6387 3.50506 10.7818 3.50506 10.8646 3.59571C10.9474 3.68636 10.9474 3.82989 10.8571 3.91299C10.5032 4.26049 9.89335 4.43423 9.05008 4.43423Z" fill="#323433"/>
<path d="M9.29843 15.4637H7.14507C7.01707 15.4637 6.91919 15.3655 6.91919 15.2371V7.49393C6.91919 7.3655 7.01707 7.2673 7.14507 7.2673C7.27306 7.2673 7.37094 7.3655 7.37094 7.49393V15.0104H9.07255V7.34284C9.07255 7.21442 9.17043 7.11621 9.29843 7.11621C9.42642 7.11621 9.5243 7.21442 9.5243 7.34284V15.2371C9.5243 15.3579 9.42642 15.4637 9.29843 15.4637Z" fill="#323433"/>
<path d="M8.22171 27.8977C5.08956 27.8977 2.54468 25.3444 2.54468 22.2018C2.54468 19.0592 5.08956 16.5059 8.22171 16.5059C11.3539 16.5059 13.8988 19.0592 13.8988 22.2018C13.8988 25.3444 11.3539 27.8977 8.22171 27.8977ZM8.22171 16.9591C5.33802 16.9591 2.99643 19.3085 2.99643 22.2018C2.99643 25.0951 5.33802 27.4445 8.22171 27.4445C11.1054 27.4445 13.447 25.0951 13.447 22.2018C13.447 19.3161 11.1054 16.9591 8.22171 16.9591Z" fill="#323433"/>
<path d="M8.22173 16.9595C8.09373 16.9595 7.99585 16.8613 7.99585 16.7329V15.2296C7.99585 15.1011 8.09373 15.0029 8.22173 15.0029C8.34972 15.0029 8.4476 15.1011 8.4476 15.2296V16.7329C8.4476 16.8613 8.34972 16.9595 8.22173 16.9595Z" fill="#323433"/>
<path d="M7.41601 1.43522C7.40848 1.43522 7.40848 1.43522 7.40095 1.43522C7.27296 1.42767 7.18261 1.31435 7.19014 1.19348L7.24284 0.422946C7.25037 0.302077 7.34825 0.211426 7.46872 0.211426C7.59671 0.211426 7.69459 0.309632 7.69459 0.438055C7.69459 0.445609 7.69459 0.453163 7.69459 0.453163L7.64189 1.2237C7.63436 1.34457 7.53648 1.43522 7.41601 1.43522Z" fill="#323433"/>
<path d="M9.38139 2.34165C9.2534 2.34165 9.15552 2.24345 9.15552 2.11502V0.392644C9.15552 0.264221 9.2534 0.166016 9.38139 0.166016C9.50939 0.166016 9.60727 0.264221 9.60727 0.392644V2.11502C9.60727 2.24345 9.50186 2.34165 9.38139 2.34165Z" fill="#323433"/>
<path d="M1.27979 13.4619C1.18944 13.4619 1.10662 13.409 1.06897 13.3259L0.0148801 10.7952C-0.00770759 10.7348 -0.00770759 10.6668 0.0224093 10.6064C0.0525262 10.5459 0.105231 10.5006 0.172994 10.4855C2.76305 9.88115 4.31407 9.1786 6.11355 6.85188C6.12108 6.84433 6.12861 6.83677 6.12861 6.82922C6.21896 6.73857 6.36202 6.73857 6.44484 6.82922C6.52766 6.91232 6.53519 7.04829 6.4599 7.13139C4.63783 9.48078 3.07175 10.2438 0.526867 10.8632L1.40779 12.9784C2.108 12.8349 4.89382 12.0568 6.94177 8.58937C7.002 8.48361 7.14506 8.44584 7.25047 8.51383C7.35588 8.57426 7.39352 8.71779 7.32576 8.82355C4.85617 12.9935 1.4379 13.4392 1.28732 13.4543C1.29485 13.4543 1.28732 13.4619 1.27979 13.4619Z" fill="#323433"/>
<path d="M21.0216 91.2708H16.8579C14.9605 91.2708 13.1535 90.5607 11.7606 89.2614C10.3075 87.9092 9.45666 86.0584 9.37384 84.0716C9.29102 82.0773 9.98371 80.1736 11.3164 78.7005L33.5276 54.2019C33.6104 54.1112 33.7535 54.1037 33.8438 54.1868C33.9342 54.2699 33.9417 54.4134 33.8589 54.5041L11.6477 79.0027C10.3903 80.3851 9.74277 82.183 9.8256 84.0489C9.90089 85.9224 10.699 87.6523 12.0693 88.929C13.3794 90.1453 15.0735 90.8176 16.8579 90.8176H21.0216C21.1495 90.8176 21.2474 90.9158 21.2474 91.0442C21.2474 91.1726 21.1495 91.2708 21.0216 91.2708Z" fill="#323433"/>
<path d="M62.53 93.5374H26.2844C24.387 93.5374 22.58 92.8273 21.1871 91.5279C21.0666 91.4146 20.9537 91.3089 20.8558 91.1955C20.5245 90.848 20.2309 90.4703 19.9673 90.0624C19.8996 89.9566 19.9297 89.8131 20.0351 89.7527C20.1405 89.6847 20.2836 89.7149 20.3438 89.8207C20.5847 90.1984 20.8633 90.561 21.1795 90.8858C21.2774 90.984 21.3753 91.0898 21.4882 91.1955C22.7908 92.4118 24.4924 93.0841 26.2768 93.0841H62.3042V80.9293C62.3042 80.8008 62.4021 80.7026 62.53 80.7026C62.658 80.7026 62.7559 80.8008 62.7559 80.9293V93.3107C62.7559 93.4316 62.658 93.5374 62.53 93.5374Z" fill="#323433"/>
<path d="M20.1631 90.1678C20.0878 90.1678 20.0125 90.1301 19.9749 90.0621C18.1528 87.2066 18.4766 83.4672 20.7504 80.9592L37.7514 62.2018L40.3941 59.2859C40.477 59.1952 40.62 59.1877 40.7104 59.2708C40.8007 59.3539 40.8083 59.4974 40.7254 59.5881L38.0827 62.504L21.0817 81.2613C18.9434 83.6183 18.6497 87.1386 20.3589 89.8128C20.4266 89.9186 20.3965 90.0621 20.2911 90.1225C20.2459 90.1603 20.2083 90.1678 20.1631 90.1678Z" fill="white"/>
<path d="M81.4285 96C78.0629 96 75.3298 94.9424 72.4461 93.8243C70.8725 93.22 69.2537 92.5854 67.5069 92.1397C65.8129 91.7091 64.1865 91.4976 62.5452 91.4976H62.5376C62.4096 91.4976 62.3118 91.3994 62.3118 91.271C62.3118 91.1426 62.4172 91.0444 62.5452 91.0444C64.2242 91.0444 65.8881 91.2634 67.6199 91.7016C69.3892 92.1548 71.0231 92.7894 72.6117 93.4013C75.6385 94.5722 78.4996 95.6751 82.076 95.5316C82.7386 95.5014 83.4087 95.4334 84.0863 95.3201L73.9896 78.8291L69.5775 80.0378C69.4344 80.0755 69.2838 80.1208 69.1332 80.1586C68.3954 80.3475 67.6349 80.5137 66.8895 80.6572C65.9936 80.8234 65.0901 80.9518 64.1865 81.0425C63.6444 81.0954 63.0948 81.1407 62.5527 81.1633C62.0332 81.186 61.5061 81.2011 60.9866 81.2011H54.2706C54.1426 81.2011 54.0447 81.1029 54.0447 80.9745C54.0447 80.8461 54.1426 80.7479 54.2706 80.7479H60.9866C61.4986 80.7479 62.0181 80.7327 62.5301 80.7101C63.0647 80.6874 63.6068 80.6421 64.1414 80.5892C65.0298 80.4986 65.9258 80.3777 66.8067 80.2115C67.5446 80.0755 68.29 79.9093 69.0203 79.7205C69.1634 79.6827 69.3139 79.6449 69.457 79.6072L74.0272 78.3531C74.1251 78.3229 74.223 78.3683 74.2757 78.4514L84.6359 95.373C84.6736 95.4334 84.6811 95.5165 84.651 95.5845C84.6209 95.6525 84.5606 95.7054 84.4853 95.7129C83.6797 95.864 82.8741 95.9546 82.0835 95.9849C81.8652 95.9924 81.6393 96 81.4285 96Z" fill="#323433"/>
<path d="M38.0979 81.1934C38 81.1934 37.9097 81.133 37.8795 81.0347C37.8419 80.9139 37.9097 80.7855 38.0301 80.7552C39.8673 80.2038 42.0282 79.5163 44.1589 78.6249C47.1631 77.3634 49.5423 75.928 51.4171 74.2359C53.721 72.1584 55.257 69.7335 56.1078 66.8251C56.1455 66.7042 56.2659 66.6362 56.3864 66.674C56.5069 66.7118 56.5746 66.8327 56.537 66.9535C55.6711 69.9073 54.0523 72.4682 51.7183 74.5758C49.8058 76.3058 47.389 77.7637 44.3321 79.0404C42.1787 79.9394 40.0028 80.6344 38.1581 81.1858C38.1431 81.1858 38.1205 81.1934 38.0979 81.1934Z" fill="#323433"/>
<path d="M82.076 95.9846C82.0157 95.9846 81.9555 95.962 81.9103 95.9091C81.9028 95.9016 81.8953 95.8864 81.8877 95.8713L71.7308 79.2745C71.6631 79.1688 71.7007 79.0253 71.8061 78.9648C71.9115 78.8968 72.0546 78.9346 72.1148 79.0404L82.2717 95.6372C82.332 95.7278 82.3169 95.8487 82.2341 95.9242C82.1814 95.962 82.1287 95.9846 82.076 95.9846Z" fill="#323433"/>
<path d="M67.5596 92.1473C67.4392 92.1473 67.3338 92.0491 67.3338 91.9207C67.3036 87.373 66.2947 84.0869 63.9757 80.9443C63.9004 80.8461 63.923 80.7025 64.0209 80.627C64.1188 80.5515 64.2618 80.5741 64.3371 80.6723C66.7164 83.9056 67.7479 87.2672 67.778 91.9207C67.7855 92.0416 67.6876 92.1473 67.5596 92.1473Z" fill="#323433"/>
<path d="M55.3772 81.1934C55.2492 81.1934 55.1514 81.0951 55.1514 80.9667V78.7911C55.1514 78.6627 55.2492 78.5645 55.3772 78.5645C55.5052 78.5645 55.6031 78.6627 55.6031 78.7911V80.9667C55.6031 81.0876 55.4977 81.1934 55.3772 81.1934Z" fill="#323433"/>
<path d="M69.073 80.1585C68.9977 80.1585 68.9224 80.1208 68.8772 80.0528L66.8217 76.6911L62.4096 77.8998C60.6478 78.3833 58.8332 78.7157 57.0187 78.897C56.4766 78.9499 55.9269 78.9876 55.3848 79.0178C54.8653 79.0405 54.3383 79.0556 53.8188 79.0556H44.2566C44.1286 79.0556 44.0308 78.9574 44.0308 78.829C44.0308 78.7006 44.1286 78.6024 44.2566 78.6024H53.8188C54.3307 78.6024 54.8503 78.5872 55.3622 78.5646C55.8968 78.5419 56.4389 78.4966 56.9735 78.4437C58.7655 78.27 60.5574 77.9376 62.2891 77.4617L66.8594 76.2076C66.9573 76.1774 67.0551 76.2227 67.1078 76.3058L69.2537 79.811C69.3214 79.9168 69.2838 80.0603 69.1784 80.1208C69.1558 80.151 69.1181 80.1585 69.073 80.1585Z" fill="#323433"/>
<path d="M66.8444 80.6569C66.7692 80.6569 66.6939 80.6192 66.6487 80.5512L64.5631 77.1442C64.4953 77.0384 64.533 76.8949 64.6384 76.8344C64.7438 76.7665 64.8869 76.8042 64.9471 76.91L67.0327 80.317C67.1004 80.4227 67.0628 80.5663 66.9574 80.6267C66.9273 80.6418 66.8821 80.6569 66.8444 80.6569Z" fill="#323433"/>
<path d="M58.4416 81.1933C58.3588 81.1933 58.2835 81.1479 58.2384 81.0724C57.8318 80.3019 57.365 79.554 56.8153 78.8061C56.74 78.7079 56.7626 78.5644 56.8605 78.4888C56.9584 78.4133 57.1014 78.4359 57.1767 78.5341C57.749 79.3047 58.2233 80.0677 58.6374 80.8609C58.6976 80.9742 58.6525 81.1102 58.5395 81.1706C58.5169 81.1857 58.4793 81.1933 58.4416 81.1933Z" fill="#323433"/>
<path d="M37.9172 62.5874C37.8042 62.5874 37.7064 62.5043 37.6913 62.391C37.5181 60.9632 37.4805 59.4221 37.4805 59.407C37.4805 59.2786 37.5784 59.1804 37.6988 59.1729C37.6988 59.1729 37.6988 59.1729 37.7063 59.1729C37.8268 59.1729 37.9322 59.2711 37.9322 59.3919C37.9322 59.407 37.9623 60.933 38.1355 62.3305C38.1506 62.4514 38.0602 62.5647 37.9398 62.5798C37.9322 62.5874 37.9247 62.5874 37.9172 62.5874Z" fill="white"/>
<path d="M103.737 83.2332C103.715 83.2332 103.692 83.2332 103.662 83.2332C103.218 83.203 102.857 82.9084 102.736 82.4778C102.465 81.4731 102.232 80.5666 102.036 79.7658C101.727 78.5345 101.464 77.4769 101.14 76.4797C100.794 75.4296 100.169 74.4929 99.3103 73.7752C92.421 67.9962 86.7515 63.1388 81.707 57.5864C81.21 57.0425 80.6378 56.5817 80.0054 56.2191L79.1094 55.7129C79.004 55.6525 78.9588 55.5165 79.0266 55.4032C79.0868 55.2974 79.2223 55.2521 79.3352 55.3201L80.2312 55.8262C80.9089 56.2115 81.5187 56.7025 82.0458 57.2842C87.0678 62.814 92.7297 67.6638 99.6039 73.4277C100.522 74.1983 101.2 75.203 101.569 76.3362C101.9 77.3484 102.164 78.4211 102.48 79.6525C102.683 80.4532 102.909 81.3598 103.18 82.3569C103.263 82.6515 103.504 82.7649 103.7 82.78C103.896 82.7951 104.137 82.712 104.249 82.44C104.957 80.7554 104.347 77.9679 104.34 77.9452C104.317 77.8546 104.355 77.7564 104.438 77.7035C104.52 77.6506 104.626 77.6582 104.701 77.7186C104.724 77.7337 107.065 79.5845 109.377 81.4957C110.672 82.5609 112.193 82.4778 112.968 81.8583C113.601 81.3522 113.721 80.5666 113.292 79.6978C112.464 78.0359 100.018 64.4986 88.6414 52.3739C87.7228 51.3994 86.7214 50.508 85.6523 49.7224L85.4339 49.5637C85.193 49.39 84.9596 49.2087 84.7186 49.0349C80.3517 45.8319 76.2106 42.9008 72.4159 40.3324C72.3105 40.2644 72.2879 40.1209 72.3557 40.0151C72.4234 39.9093 72.5665 39.8867 72.6719 39.9547C76.4741 42.5307 80.6152 45.4617 84.9897 48.6648C85.2306 48.8385 85.4716 49.0198 85.705 49.1936L85.9233 49.3522C87.0151 50.153 88.039 51.067 88.9727 52.0642C94.5066 57.9566 112.629 77.3484 113.699 79.4939C114.226 80.5514 114.06 81.5637 113.254 82.2058C112.313 82.9537 110.589 83.067 109.091 81.8357C107.404 80.4381 105.695 79.0784 104.897 78.4362C105.048 79.3881 105.236 81.2767 104.671 82.6062C104.505 82.999 104.144 83.2332 103.737 83.2332Z" fill="#323433"/>
<path d="M98.9489 42.7344C98.0002 42.7344 97.1042 42.5758 96.2835 42.2585C95.3951 41.9186 94.6723 41.4351 93.8968 40.9214C92.6469 40.0904 91.3444 39.2217 89.1985 38.8742C87.7228 38.6324 86.7139 38.776 84.7036 39.0555L84.5304 39.0781C83.6947 39.1915 82.8966 39.3123 82.1211 39.4181C78.1908 39.9847 75.0812 40.4228 72.5138 40.3624C68.5082 40.2642 66.0913 38.8968 64.2316 35.6636C61.634 36.5097 59.2548 36.8723 56.0699 36.9025C56.0624 36.9025 56.0624 36.9025 56.0549 36.9025C55.6333 36.9025 55.2643 36.6608 55.0912 36.2755C54.918 35.8827 54.9857 35.4445 55.2794 35.1348C56.5292 33.775 57.3876 32.5059 57.9974 31.1461C58.4266 30.1792 58.7428 29.1442 58.9536 27.9884L57.1542 27.3614C55.3246 26.7269 54.2931 24.7628 54.805 22.8893L54.8126 22.8742C54.8126 22.8666 54.8201 22.8591 54.8201 22.8515C54.9406 22.4209 54.9029 21.9526 54.7147 21.5446L54.7072 21.5295C54.6243 21.3407 54.6695 21.1291 54.8201 20.9932C55.0083 20.827 55.1966 20.6457 55.3697 20.4417C55.5429 20.2453 55.6709 20.0111 55.7537 19.7543C56.0248 18.9233 56.3335 18.0092 56.7626 16.7703C56.8605 16.4832 57.1165 16.2793 57.4177 16.2415C57.7188 16.2037 58.0125 16.3473 58.1706 16.6041C59.5635 18.8175 60.4971 21.1291 60.9564 23.4936C62.0557 29.1669 63.1625 32.8081 64.5403 35.2783C64.5403 35.2783 64.5403 35.2859 64.5479 35.2859C66.3323 38.4814 68.6438 39.8185 72.5364 39.9167C75.0737 39.9771 78.1607 39.539 82.0684 38.9724C82.8439 38.8591 83.642 38.7458 84.4777 38.6324L84.6509 38.6098C86.6386 38.3303 87.7303 38.1792 89.2814 38.436C91.5251 38.7986 92.918 39.7354 94.1528 40.5512C94.9057 41.0498 95.6134 41.5257 96.4492 41.843C97.5108 42.2509 98.7155 42.3794 100.018 42.2207C100.139 40.7703 100.914 40.0602 101.607 39.4256C102.186 38.8968 102.646 38.4738 102.646 37.7259C102.646 36.691 102.021 36.2151 101.366 35.7089C100.794 35.2708 100.199 34.81 100.199 33.9865C100.199 32.7325 101.215 31.9847 102.202 31.2594C103.105 30.5947 103.963 29.9677 103.963 29.0083C103.963 28.4115 103.64 27.9507 103.263 27.4143C102.819 26.7873 102.322 26.0772 102.322 25.0272C102.322 23.6221 103.248 22.64 104.332 21.809C101.298 20.8572 97.4204 20.6759 92.805 21.2727C91.5552 21.4313 89.8837 21.9072 87.9412 22.4587C84.6961 23.3803 80.8787 24.4606 77.5809 24.4606C76.2709 24.4606 75.0436 24.2868 73.9669 23.8713C70.6917 22.5947 69.3364 20.2453 68.1468 18.1754C67.3713 16.8307 66.641 15.5616 65.4739 14.7231C64.0886 13.7335 62.3644 13.2122 60.6251 13.2651C58.8859 13.318 57.1918 13.9299 55.8667 14.9875C54.278 16.2415 53.254 18.0621 52.8926 20.2453C52.471 22.8062 52.9378 25.7599 54.2931 29.0309C54.3382 29.1442 54.2855 29.2802 54.1726 29.3256C54.0596 29.3709 53.9241 29.318 53.8789 29.2047C52.4936 25.8506 52.0117 22.8137 52.4484 20.1697C52.8324 17.8732 53.9091 15.9544 55.573 14.6249C56.981 13.4993 58.7654 12.8572 60.6025 12.8043C62.4472 12.7514 64.2693 13.2953 65.7299 14.3454C66.9723 15.2368 67.7252 16.5512 68.5308 17.9412C69.743 20.0489 71.0004 22.2245 74.125 23.4408C77.7692 24.861 83.3408 23.2821 87.8132 22.0205C89.7708 21.4691 91.4573 20.9856 92.7373 20.827C97.6313 20.2 101.72 20.4266 104.882 21.522C104.965 21.5522 105.017 21.6202 105.032 21.7033C105.048 21.7864 105.01 21.8695 104.942 21.9223C103.64 22.8666 102.766 23.7505 102.766 25.0347C102.766 25.9488 103.203 26.5682 103.625 27.165C104.009 27.7089 104.408 28.2755 104.408 29.0234C104.408 30.2094 103.421 30.9346 102.465 31.6372C101.531 32.3246 100.65 32.9743 100.65 33.9941C100.65 34.5984 101.11 34.9535 101.644 35.3614C102.33 35.8827 103.105 36.4795 103.105 37.741C103.105 38.6929 102.525 39.2217 101.915 39.7807C101.223 40.4077 100.515 41.0574 100.462 42.4474C100.455 42.5607 100.379 42.6513 100.266 42.6664C99.8147 42.7042 99.378 42.7344 98.9489 42.7344ZM57.5156 16.6948C57.5005 16.6948 57.4854 16.6948 57.4779 16.6948C57.3424 16.7099 57.2445 16.793 57.1993 16.9214C56.7702 18.1527 56.4615 19.0668 56.1979 19.8978C56.1001 20.2151 55.9344 20.4946 55.7236 20.7439C55.5354 20.9554 55.3396 21.1594 55.1363 21.3407L55.1439 21.3558C55.3773 21.8695 55.4224 22.4436 55.2794 22.9799V22.9875L55.2718 23.0253C54.8276 24.6645 55.7311 26.3869 57.3349 26.9459L59.3226 27.6409C59.428 27.6787 59.4882 27.7845 59.4732 27.8902C59.2548 29.1594 58.9235 30.2925 58.4492 31.3501C57.8167 32.7628 56.9283 34.0696 55.6483 35.4596C55.4827 35.6409 55.445 35.8827 55.5429 36.1093C55.6182 36.2831 55.8064 36.4719 56.0925 36.4719H56.1001C59.2398 36.4341 61.4985 36.1018 64.0434 35.2783C62.6957 32.7703 61.6115 29.1442 60.5423 23.5918C60.0981 21.2878 59.1795 19.0215 57.8167 16.861C57.7339 16.7476 57.6285 16.6948 57.5156 16.6948Z" fill="#323433"/>
<path d="M54.263 81.1935H38.0977C37.9697 81.1935 37.8718 81.0953 37.8718 80.9669C37.8718 80.8384 37.9697 80.7402 38.0977 80.7402H54.263C54.391 80.7402 54.4888 80.8384 54.4888 80.9669C54.4888 81.0953 54.3834 81.1935 54.263 81.1935Z" fill="white"/>
<path d="M42.1109 15.1538C42.1034 15.1538 42.0884 15.1538 42.0808 15.1538C41.998 15.1387 41.9453 15.0556 41.9679 14.9725L42.6229 11.9658C42.638 11.8979 42.6982 11.8525 42.766 11.845L45.7174 11.7392L46.3499 8.84592C46.365 8.77793 46.4252 8.73261 46.493 8.72505L49.4444 8.61929L50.0769 5.726C50.0919 5.6429 50.1747 5.59002 50.2576 5.61269C50.3404 5.62779 50.3931 5.71089 50.3705 5.79399L49.7155 8.8006C49.7004 8.86859 49.6402 8.91391 49.5724 8.92147L46.621 9.02723L45.9885 11.9205C45.9734 11.9885 45.9132 12.0338 45.8454 12.0414L42.894 12.1472L42.2615 15.0404C42.2465 15.1084 42.1787 15.1538 42.1109 15.1538Z" fill="#323433"/>
<path d="M24.4097 38.6254C24.3721 38.6254 24.3344 38.6102 24.3043 38.5876L21.6917 36.1627C21.6315 36.1098 21.6239 36.0116 21.6842 35.9511C21.7369 35.8907 21.8347 35.8831 21.895 35.9436L24.5076 38.3685C24.5679 38.4214 24.5754 38.5196 24.5152 38.58C24.485 38.6102 24.4474 38.6254 24.4097 38.6254Z" fill="#323433"/>
<path d="M21.895 38.7236C21.8574 38.7236 21.8197 38.7085 21.7896 38.6858C21.7294 38.633 21.7218 38.5348 21.7821 38.4743L24.1989 35.853C24.2517 35.7926 24.3495 35.785 24.4098 35.8454C24.47 35.8983 24.4775 35.9965 24.4173 36.057L22.0004 38.6783C21.9703 38.7085 21.9326 38.7236 21.895 38.7236Z" fill="#323433"/>
<path d="M13.3959 30.6734L11.7881 32.2866L13.3959 33.8998L15.0037 32.2866L13.3959 30.6734Z" fill="#323433"/>
<path d="M34.4463 8.78539C33.6181 8.78539 32.9404 8.1055 32.9404 7.27453C32.9404 6.44356 33.6181 5.76367 34.4463 5.76367C35.2745 5.76367 35.9521 6.44356 35.9521 7.27453C35.9521 8.1055 35.282 8.78539 34.4463 8.78539ZM34.4463 6.05829C33.7837 6.05829 33.2416 6.6022 33.2416 7.26698C33.2416 7.93176 33.7837 8.47566 34.4463 8.47566C35.1088 8.47566 35.651 7.93176 35.651 7.26698C35.651 6.6022 35.1164 6.05829 34.4463 6.05829Z" fill="#323433"/>
<path d="M7.2583 20.0488H8.87709V24.5134H8.16181V20.7212H7.2583V20.0488Z" fill="white"/>
</g>
<defs>
<clipPath id="clip0">
<rect width="114" height="96" fill="white"/>
</clipPath>
</defs>
</svg>
