<svg width="114" height="110" viewBox="0 0 114 110" fill="none" xmlns="http://www.w3.org/2000/svg">
<path d="M94.4573 90.6058H108.498C109.657 90.6058 110.62 89.6536 110.62 88.476V12.0523C110.62 10.7493 109.559 9.67188 108.275 9.67188H72.6689L94.4573 90.6058Z" fill="#8DD5E0"/>
<path d="M110.619 70.6106V11.376C110.619 11.2006 110.595 11.0502 110.57 10.8999L110.619 70.6106Z" fill="#C4C4C4"/>
<path d="M108.522 90.8314H94.4818C94.3831 90.8314 94.2844 90.7311 94.2844 90.6309C94.2844 90.5307 94.3831 90.4305 94.4818 90.4305H108.522C109.558 90.4305 110.422 89.5785 110.422 88.5011V11.8268C110.422 10.6241 109.46 9.67191 108.275 9.67191H72.6688C72.5701 9.67191 72.4714 9.57168 72.4714 9.47145C72.4714 9.37122 72.5701 9.271 72.6688 9.271H108.251C109.657 9.271 110.792 10.4236 110.792 11.8519V88.5261C110.817 89.779 109.781 90.8314 108.522 90.8314Z" fill="black"/>
<path d="M110.546 10.875C110.323 9.79758 109.386 8.9707 108.251 8.9707H72.6689L110.546 10.875Z" fill="#C4C4C4"/>
<path d="M93.9883 94.1142C93.8402 94.891 93.174 95.4422 92.3844 95.4422H10.3143C9.27789 95.4422 8.53763 94.4901 8.71036 93.4878L25.0208 10.2987C25.1688 9.52196 25.835 8.9707 26.6247 8.9707H108.719C109.756 8.9707 110.496 9.92287 110.299 10.9251L93.9883 94.1142Z" fill="white"/>
<path d="M100.503 61.2144C100.478 61.2144 100.478 61.2144 100.453 61.2144C100.354 61.1893 100.28 61.064 100.28 60.9638L110.101 10.875C110.175 10.449 110.077 10.023 109.805 9.67222C109.534 9.34648 109.139 9.14603 108.719 9.14603H26.6246C25.9584 9.14603 25.3661 9.62211 25.2428 10.2986L19.5428 37.4604C19.5181 37.5606 19.3947 37.6358 19.296 37.6358C19.1973 37.6107 19.1233 37.4854 19.1233 37.3852L24.8233 10.2235C24.996 9.37154 25.7363 8.74512 26.6246 8.74512H108.719C109.262 8.74512 109.78 8.99569 110.126 9.42165C110.471 9.84762 110.619 10.3989 110.521 10.9501L100.7 61.039C100.675 61.1643 100.601 61.2144 100.503 61.2144Z" fill="black"/>
<path d="M21.5415 62.0161L23.2688 52.8452H32.7688L31.0415 62.0161H21.5415Z" fill="#C4C4C4"/>
<path d="M32.2507 62.0161L33.978 52.8452H43.478L41.7507 62.0161H32.2507Z" fill="#C4C4C4"/>
<path d="M42.9597 62.0161L44.687 52.8452H54.2117L52.4844 62.0161H42.9597Z" fill="#C4C4C4"/>
<path d="M53.6443 62.0161L55.3716 52.8452H64.8962L63.169 62.0161H53.6443Z" fill="#C4C4C4"/>
<path d="M64.3533 62.0161L66.0805 52.8452H75.5805L73.8533 62.0161H64.3533Z" fill="#C4C4C4"/>
<path d="M75.0625 62.0161L76.7898 52.8452H86.2898L84.5625 62.0161H75.0625Z" fill="#8DD5E0"/>
<path d="M85.7715 62.0161L87.4988 52.8452H97.0234L95.2962 62.0161H85.7715Z" fill="#8DD5E0"/>
<path d="M19.6414 72.2392L21.3686 63.0684H30.8686L29.1414 72.2392H19.6414Z" fill="#C4C4C4"/>
<path d="M30.3506 72.2392L32.0779 63.0684H41.6025L39.8753 72.2392H30.3506Z" fill="#C4C4C4"/>
<path d="M41.0352 72.2392L42.7624 63.0684H52.2871L50.5598 72.2392H41.0352Z" fill="#C4C4C4"/>
<path d="M51.7441 72.2392L53.4714 63.0684H62.9714L61.2441 72.2392H51.7441Z" fill="#C4C4C4"/>
<path d="M62.4531 72.2392L64.1804 63.0684H73.6804L71.9531 72.2392H62.4531Z" fill="#C4C4C4"/>
<path d="M73.1624 72.2392L74.8896 63.0684H84.4143L82.687 72.2392H73.1624Z" fill="#FFE300"/>
<path d="M83.8716 72.2392L85.5989 63.0684H95.1235L93.3962 72.2392H83.8716Z" fill="#8DD5E0"/>
<path d="M25.3416 41.5193L27.0688 32.3735H36.5688L34.8416 41.5193H25.3416Z" fill="#C4C4C4"/>
<path d="M36.0505 41.5195L37.7778 32.3486H47.2778L45.5505 41.5195H36.0505Z" fill="#C4C4C4"/>
<path d="M46.7598 41.5193L48.487 32.3735H57.987L56.2598 41.5193H46.7598Z" fill="#C4C4C4"/>
<path d="M57.4441 41.5193L59.1714 32.3735H68.6714L66.9441 41.5193H57.4441Z" fill="#C4C4C4"/>
<path d="M68.1777 41.5193L69.905 32.3735H79.405L77.6777 41.5193H68.1777Z" fill="#C4C4C4"/>
<path d="M78.8623 41.5193L80.5896 32.3735H90.1143L88.387 41.5193H78.8623Z" fill="#8DD5E0"/>
<path d="M89.5715 41.5193L91.2988 32.3735H100.823L99.0962 41.5193H89.5715Z" fill="#8DD5E0"/>
<path d="M23.4417 51.7675L25.1689 42.5967H34.6936L32.9663 51.7675H23.4417Z" fill="#C4C4C4"/>
<path d="M34.1506 51.7675L35.8779 42.5967H45.4026L43.6753 51.7675H34.1506Z" fill="#C4C4C4"/>
<path d="M44.8352 51.7675L46.5625 42.5967H56.0625L54.3352 51.7675H44.8352Z" fill="#C4C4C4"/>
<path d="M55.5688 51.7675L57.2961 42.5967H66.8208L65.0935 51.7675H55.5688Z" fill="#C4C4C4"/>
<path d="M66.2532 51.7675L67.9804 42.5967H77.5051L75.7779 51.7675H66.2532Z" fill="#C4C4C4"/>
<path d="M87.5481 51.7675L89.2754 42.5967H98.8L97.0728 51.7675H87.5481Z" fill="#8DD5E0"/>
<path d="M76.9624 51.7675L78.6897 42.5967H88.2143L86.4871 51.7675H76.9624Z" fill="#8DD5E0"/>
<path d="M42.3677 8.99514C42.269 8.99514 42.1703 8.89491 42.1703 8.79468C42.1703 7.24115 41.6768 5.78785 40.7391 4.58511C40.6651 4.48489 40.6897 4.3596 40.7884 4.28443C40.8871 4.20926 41.0105 4.23432 41.0845 4.33454C42.0716 5.61245 42.5897 7.16598 42.5897 8.79468C42.5897 8.89491 42.491 8.99514 42.3677 8.99514Z" fill="black"/>
<path d="M35.409 16.0863C31.461 16.0863 28.2532 12.8289 28.2532 8.81974C28.2532 4.81063 31.461 1.55322 35.409 1.55322C36.9142 1.55322 38.3454 2.00425 39.5545 2.88124C39.6532 2.95641 39.6532 3.0817 39.6038 3.18192C39.5298 3.28215 39.4064 3.28215 39.3077 3.23204C38.148 2.40516 36.8155 1.95413 35.409 1.95413C31.683 1.95413 28.648 5.03614 28.648 8.81974C28.648 12.6033 31.683 15.6853 35.409 15.6853C35.5077 15.6853 35.6064 15.7856 35.6064 15.8858C35.6311 15.986 35.5324 16.0863 35.409 16.0863Z" fill="black"/>
<path d="M51.6948 8.99582C51.5961 8.99582 51.4974 8.89559 51.4974 8.79536C51.4974 7.21677 50.9792 5.73841 50.0169 4.51062C49.9428 4.43545 49.9675 4.28511 50.0415 4.20994C50.1156 4.13477 50.2636 4.15982 50.3376 4.235C51.3493 5.5129 51.9169 7.1416 51.9169 8.79536C51.9169 8.89559 51.8182 8.99582 51.6948 8.99582Z" fill="black"/>
<path d="M44.7364 16.0863C40.7884 16.0863 37.5806 12.8289 37.5806 8.81974C37.5806 4.81063 40.7884 1.55322 44.7364 1.55322C46.1429 1.55322 47.5247 1.97919 48.6845 2.75596C48.7832 2.83113 48.8078 2.95641 48.7338 3.05664C48.6598 3.15687 48.5364 3.18192 48.4377 3.10675C47.3273 2.3801 46.0442 1.95413 44.7117 1.95413C40.9858 1.95413 37.9507 5.03614 37.9507 8.81974C37.9507 12.6033 40.9858 15.6853 44.7117 15.6853C44.8104 15.6853 44.9091 15.7856 44.9091 15.8858C44.9338 15.986 44.8598 16.0863 44.7364 16.0863Z" fill="black"/>
<path d="M61.022 8.99564C60.9233 8.99564 60.8246 8.89541 60.8246 8.79518C60.8246 7.21659 60.2817 5.66306 59.2947 4.46033C59.2207 4.38516 59.2453 4.23482 59.3194 4.15965C59.3934 4.08447 59.5415 4.10953 59.6155 4.1847C60.6519 5.48766 61.2441 7.11637 61.2441 8.79518C61.2194 8.89541 61.1454 8.99564 61.022 8.99564Z" fill="black"/>
<path d="M54.0636 16.0863C50.1155 16.0863 46.9077 12.8289 46.9077 8.81974C46.9077 4.81063 50.1155 1.55322 54.0636 1.55322C55.5194 1.55322 56.9506 2.00425 58.1597 2.85618C58.2584 2.93135 58.2584 3.05664 58.209 3.15687C58.135 3.2571 58.0116 3.2571 57.9129 3.20698C56.7778 2.40516 55.4454 1.97919 54.0636 1.97919C50.3376 1.97919 47.3025 5.0612 47.3025 8.8448C47.3025 12.6284 50.3376 15.7104 54.0636 15.7104C54.1623 15.7104 54.261 15.8106 54.261 15.9109C54.261 15.986 54.1623 16.0863 54.0636 16.0863Z" fill="black"/>
<path d="M70.3494 8.99561C70.2507 8.99561 70.152 8.89538 70.152 8.79515C70.152 7.19151 69.5845 5.63798 68.5728 4.38513C68.4987 4.30996 68.5234 4.15962 68.5974 4.08445C68.6715 4.00928 68.8195 4.03434 68.8936 4.10951C69.9546 5.41247 70.5715 7.06623 70.5715 8.7701C70.5468 8.89538 70.4728 8.99561 70.3494 8.99561Z" fill="black"/>
<path d="M63.3909 16.0863C59.4429 16.0863 56.2351 12.8289 56.2351 8.81974C56.2351 4.81063 59.4429 1.55322 63.3909 1.55322C64.8221 1.55322 66.2286 1.97919 67.3884 2.78101C67.4871 2.85618 67.5117 2.98147 67.4377 3.0817C67.3637 3.18192 67.2403 3.20698 67.1416 3.13181C66.0312 2.35505 64.7234 1.95413 63.3663 1.95413C59.6403 1.95413 56.6052 5.03614 56.6052 8.81974C56.6052 12.6033 59.6403 15.6853 63.3663 15.6853C63.465 15.6853 63.5637 15.7856 63.5637 15.8858C63.5884 15.986 63.5143 16.0863 63.3909 16.0863Z" fill="black"/>
<path d="M79.6765 8.99566C79.5778 8.99566 79.4791 8.89543 79.4791 8.79521C79.4791 7.24167 78.9609 5.76332 77.9986 4.53552C77.9245 4.46035 77.9492 4.31001 78.0232 4.23484C78.0973 4.15967 78.2453 4.18473 78.3193 4.2599C79.331 5.56286 79.8739 7.11639 79.8739 8.79521C79.8986 8.89543 79.7999 8.99566 79.6765 8.99566Z" fill="black"/>
<path d="M72.7184 16.0863C68.7703 16.0863 65.5625 12.8289 65.5625 8.81974C65.5625 4.81063 68.7703 1.55322 72.7184 1.55322C74.1495 1.55322 75.5314 1.97919 76.7158 2.78101C76.8145 2.85618 76.8392 2.98147 76.7651 3.0817C76.6911 3.18192 76.5677 3.20698 76.469 3.13181C75.3586 2.35505 74.0508 1.97919 72.7184 1.97919C68.9924 1.97919 65.9573 5.0612 65.9573 8.8448C65.9573 12.6284 68.9924 15.7104 72.7184 15.7104C72.8171 15.7104 72.9158 15.8106 72.9158 15.9109C72.9158 15.986 72.8417 16.0863 72.7184 16.0863Z" fill="black"/>
<path d="M89.0039 8.99566C88.9052 8.99566 88.8065 8.89543 88.8065 8.79521C88.8065 7.24167 88.3129 5.76332 87.3506 4.53552C87.2766 4.4353 87.3013 4.31001 87.3753 4.23484C87.474 4.15967 87.5974 4.18473 87.6714 4.2599C88.6831 5.56286 89.2013 7.11639 89.2013 8.77015C89.2013 8.89543 89.1272 8.99566 89.0039 8.99566Z" fill="black"/>
<path d="M82.0455 16.0863C78.0974 16.0863 74.8896 12.8289 74.8896 8.81974C74.8896 4.81063 78.0974 1.55322 82.0455 1.55322C83.452 1.55322 84.8091 1.95413 85.9442 2.7309C86.0429 2.80607 86.0676 2.93136 85.9935 3.03158C85.9195 3.13181 85.7961 3.15687 85.6974 3.0817C84.6117 2.35505 83.3286 1.97919 81.9961 1.97919C78.2702 1.97919 75.2351 5.0612 75.2351 8.8448C75.2351 12.6284 78.2702 15.7104 81.9961 15.7104C82.0948 15.7104 82.1935 15.8106 82.1935 15.9109C82.2429 15.986 82.1442 16.0863 82.0455 16.0863Z" fill="black"/>
<path d="M98.3313 8.99564C98.2326 8.99564 98.1339 8.89541 98.1339 8.79518C98.1339 7.21659 97.591 5.66306 96.604 4.46033C96.53 4.38516 96.5547 4.23482 96.6287 4.15965C96.7027 4.08447 96.8508 4.10953 96.9248 4.1847C97.9612 5.48766 98.5287 7.11637 98.5287 8.77012C98.5287 8.89541 98.43 8.99564 98.3313 8.99564Z" fill="black"/>
<path d="M91.3726 16.0863C87.4246 16.0863 84.2168 12.8289 84.2168 8.81974C84.2168 4.81063 87.4246 1.55322 91.3726 1.55322C92.7545 1.55322 94.1116 1.95413 95.2713 2.7309C95.3701 2.80607 95.3947 2.93136 95.3207 3.03158C95.2467 3.13181 95.1233 3.15687 95.0246 3.0817C93.9389 2.35505 92.6558 1.97919 91.348 1.97919C87.622 1.97919 84.5869 5.0612 84.5869 8.8448C84.5869 12.6284 87.622 15.7104 91.348 15.7104C91.4467 15.7104 91.5454 15.8106 91.5454 15.9109C91.57 15.986 91.4713 16.0863 91.3726 16.0863Z" fill="black"/>
<path d="M100.7 16.0863C96.7517 16.0863 93.5439 12.8289 93.5439 8.81974C93.5439 4.81063 96.7517 1.55322 100.7 1.55322C104.648 1.55322 107.856 4.81063 107.856 8.81974C107.856 8.91997 107.757 9.02019 107.658 9.02019C107.56 9.02019 107.461 8.91997 107.461 8.81974C107.461 5.03614 104.426 1.95413 100.7 1.95413C96.9738 1.95413 93.9388 5.03614 93.9388 8.81974C93.9388 12.6033 96.9738 15.6853 100.7 15.6853C100.798 15.6853 100.897 15.7856 100.897 15.8858C100.897 15.986 100.823 16.0863 100.7 16.0863Z" fill="black"/>
<path d="M35.5323 17.3644C35.1128 17.3644 34.718 17.189 34.4466 16.8883C34.3725 16.8132 34.3725 16.6628 34.4712 16.5876C34.5453 16.5125 34.6933 16.5125 34.7673 16.6127C34.9647 16.8382 35.2608 16.9635 35.557 16.9635C36.1492 16.9635 36.6427 16.4874 36.6427 15.861C36.6427 15.2596 36.1738 14.7585 35.557 14.7585C35.2115 14.7585 34.8907 14.9339 34.6686 15.2095C34.5946 15.3097 34.4712 15.3097 34.3725 15.2596C34.2738 15.1845 34.2738 15.0592 34.3232 14.9589C34.5946 14.558 35.0388 14.3325 35.5323 14.3325C36.3466 14.3325 37.0375 15.0091 37.0375 15.861C37.0375 16.6628 36.3712 17.3644 35.5323 17.3644Z" fill="black"/>
<path d="M44.7117 17.3644C44.2922 17.3644 43.8974 17.189 43.626 16.8883C43.552 16.8132 43.552 16.6628 43.6507 16.5876C43.7247 16.5125 43.8728 16.5125 43.9468 16.6127C44.1442 16.8382 44.4403 16.9635 44.7364 16.9635C45.3286 16.9635 45.8221 16.4874 45.8221 15.861C45.8221 15.2596 45.3533 14.7585 44.7364 14.7585C44.3909 14.7585 44.0702 14.9339 43.8481 15.2095C43.7741 15.3097 43.6507 15.3097 43.552 15.2596C43.4533 15.1845 43.4533 15.0592 43.5026 14.9589C43.7741 14.558 44.2182 14.3325 44.7117 14.3325C45.526 14.3325 46.2169 15.0091 46.2169 15.861C46.1922 16.6628 45.5507 17.3644 44.7117 17.3644Z" fill="black"/>
<path d="M53.8663 17.3644C53.4468 17.3644 53.052 17.189 52.7805 16.8883C52.7065 16.8132 52.7065 16.6628 52.8052 16.5876C52.8793 16.5125 53.0273 16.5125 53.1013 16.6127C53.2987 16.8382 53.5948 16.9635 53.8909 16.9635C54.4832 16.9635 54.9767 16.4874 54.9767 15.861C54.9767 15.2596 54.5078 14.7585 53.8909 14.7585C53.5455 14.7585 53.2247 14.9339 53.0026 15.2095C52.9286 15.3097 52.8052 15.3097 52.7065 15.2596C52.6078 15.1845 52.6078 15.0592 52.6572 14.9589C52.9533 14.558 53.3728 14.3325 53.8663 14.3325C54.6806 14.3325 55.3715 15.0091 55.3715 15.861C55.3715 16.6628 54.7052 17.3644 53.8663 17.3644Z" fill="black"/>
<path d="M63.292 17.3644C62.8726 17.3644 62.4778 17.189 62.2063 16.8883C62.1323 16.8132 62.1323 16.6628 62.231 16.5876C62.305 16.5125 62.4531 16.5125 62.5271 16.6127C62.7245 16.8382 63.0206 16.9635 63.3167 16.9635C63.9089 16.9635 64.4024 16.4874 64.4024 15.861C64.4024 15.2596 63.9336 14.7585 63.3167 14.7585C62.9713 14.7585 62.6505 14.9339 62.4284 15.2095C62.3544 15.3097 62.231 15.3097 62.1323 15.2596C62.0336 15.1845 62.0336 15.0592 62.083 14.9589C62.3544 14.558 62.7985 14.3325 63.292 14.3325C64.1063 14.3325 64.7972 15.0091 64.7972 15.861C64.7972 16.6628 64.131 17.3644 63.292 17.3644Z" fill="black"/>
<path d="M72.5701 17.3644C72.1506 17.3644 71.7558 17.189 71.4844 16.8883C71.4104 16.8132 71.4104 16.6628 71.5091 16.5876C71.5831 16.5125 71.7312 16.5125 71.8052 16.6127C72.0026 16.8382 72.2987 16.9635 72.5948 16.9635C73.187 16.9635 73.6805 16.4874 73.6805 15.861C73.6805 15.2596 73.2117 14.7585 72.5948 14.7585C72.2493 14.7585 71.9286 14.9339 71.7065 15.2095C71.6325 15.3097 71.5091 15.3097 71.4104 15.2596C71.3117 15.1845 71.3117 15.0592 71.361 14.9589C71.6325 14.558 72.0766 14.3325 72.5701 14.3325C73.3844 14.3325 74.0753 15.0091 74.0753 15.861C74.0753 16.6628 73.4091 17.3644 72.5701 17.3644Z" fill="black"/>
<path d="M82.2674 17.3644C81.8479 17.3644 81.4531 17.189 81.1817 16.8883C81.1076 16.8132 81.1076 16.6628 81.2063 16.5876C81.2804 16.5125 81.4284 16.5125 81.5024 16.6127C81.6999 16.8382 81.996 16.9635 82.2921 16.9635C82.8843 16.9635 83.3778 16.4874 83.3778 15.861C83.3778 15.2596 82.909 14.7585 82.2921 14.7585C81.9466 14.7585 81.6258 14.9339 81.4037 15.2095C81.3297 15.3097 81.2064 15.3097 81.1076 15.2596C81.0089 15.1845 81.0089 15.0592 81.0583 14.9589C81.3544 14.558 81.7739 14.3325 82.2674 14.3325C83.0817 14.3325 83.7726 15.0091 83.7726 15.861C83.7726 16.6628 83.1064 17.3644 82.2674 17.3644Z" fill="black"/>
<path d="M91.4468 17.3644C91.0274 17.3644 90.6325 17.189 90.3611 16.8883C90.2871 16.8132 90.2871 16.6628 90.3858 16.5876C90.4598 16.5125 90.6079 16.5125 90.6819 16.6127C90.8793 16.8382 91.1754 16.9635 91.4715 16.9635C92.0637 16.9635 92.5572 16.4874 92.5572 15.861C92.5572 15.2596 92.0884 14.7585 91.4715 14.7585C91.1261 14.7585 90.8053 14.9339 90.5832 15.2095C90.5092 15.3097 90.3858 15.3097 90.2871 15.2596C90.1884 15.1845 90.1884 15.0592 90.2377 14.9589C90.5092 14.558 90.9533 14.3325 91.4468 14.3325C92.2611 14.3325 92.952 15.0091 92.952 15.861C92.9274 16.6628 92.2611 17.3644 91.4468 17.3644Z" fill="black"/>
<path d="M100.601 17.3644C100.182 17.3644 99.7871 17.189 99.5157 16.8883C99.4416 16.8132 99.4416 16.6628 99.5403 16.5876C99.6144 16.5125 99.7624 16.5125 99.8364 16.6127C100.034 16.8382 100.33 16.9635 100.626 16.9635C101.218 16.9635 101.712 16.4874 101.712 15.861C101.712 15.2596 101.243 14.7585 100.626 14.7585C100.281 14.7585 99.9598 14.9339 99.7377 15.2095C99.6637 15.3097 99.5403 15.3097 99.4416 15.2596C99.3429 15.1845 99.3429 15.0592 99.3923 14.9589C99.6637 14.558 100.108 14.3325 100.601 14.3325C101.416 14.3325 102.107 15.0091 102.107 15.861C102.107 16.6628 101.44 17.3644 100.601 17.3644Z" fill="black"/>
<path d="M60.7508 49.187C60.7015 49.187 60.6275 49.187 60.5534 49.1619C60.208 49.0868 59.9119 48.8362 59.7885 48.4854L58.7275 45.7041C58.5794 45.3533 58.7768 44.9273 59.1223 44.802C59.4677 44.6517 59.8872 44.8521 60.0106 45.2029L60.8002 47.3077L63.2924 43.2735C63.4898 42.9478 63.9093 42.8476 64.23 43.048C64.5508 43.2485 64.6495 43.6995 64.4521 44.0002L61.5404 48.7109L61.5158 48.736C61.343 49.0617 61.0469 49.187 60.7508 49.187Z" fill="black"/>
<path d="M5.05857 26.7858C5.03389 26.7858 5.00922 26.7858 4.98454 26.7607C4.88584 26.7106 4.81182 26.5853 4.86117 26.4851C8.01961 18.2414 13.4975 11.1502 20.6534 6.01357C20.9248 5.81312 21.1962 5.61266 21.4923 5.43726C21.591 5.36209 21.7144 5.38715 21.7884 5.48738C21.8625 5.5876 21.8378 5.71289 21.7391 5.78806C21.4677 5.98852 21.1962 6.18897 20.9248 6.36437C13.7936 11.476 8.38974 18.4669 5.25597 26.6354C5.20662 26.7357 5.1326 26.7858 5.05857 26.7858Z" fill="black"/>
<path d="M4.61423 27.9388C4.58956 27.9388 4.56488 27.9388 4.54021 27.9137C4.44151 27.8636 4.36748 27.7634 4.41683 27.6381C4.56488 27.2622 4.68826 26.8613 4.83631 26.4855C4.88566 26.3852 5.00904 26.3101 5.10774 26.3602C5.20644 26.4103 5.28047 26.5356 5.23112 26.6358C5.08307 27.0117 4.93501 27.4126 4.81164 27.7884C4.78696 27.8887 4.71294 27.9388 4.61423 27.9388Z" fill="black"/>
<path d="M2.02341 26.3598C1.99874 26.3598 1.97406 26.3598 1.94939 26.3348C1.85069 26.2847 1.77666 26.1844 1.82601 26.0591C3.55328 20.9225 6.34159 16.0865 10.1416 11.6514C13.7195 7.46689 18.1611 3.63318 23.3676 0.275545C23.4663 0.225431 23.5896 0.250488 23.6637 0.350716C23.713 0.450944 23.6883 0.576229 23.5896 0.651399C12.9052 7.54206 5.52731 16.3872 2.22082 26.2095C2.17147 26.3097 2.09744 26.3598 2.02341 26.3598Z" fill="black"/>
<path d="M4.2687 31.196C4.24403 31.196 4.24403 31.196 4.24403 31.196C4.17 31.171 4.09598 31.1459 4.0713 31.0707L3.15831 28.9158C3.13364 28.8407 3.13364 28.7404 3.20766 28.6903C3.25701 28.6402 3.35572 28.6151 3.40507 28.6402L5.45312 29.2416C5.52714 29.2666 5.55182 29.3167 5.60117 29.3919C5.62585 29.4671 5.62585 29.5423 5.57649 29.5924L4.44143 31.1459C4.39208 31.171 4.34273 31.196 4.2687 31.196ZM3.72585 29.1664L4.31805 30.5696L5.05831 29.5423L3.72585 29.1664Z" fill="black"/>
<path d="M36.4454 93.1368C36.4454 93.1368 39.8999 92.0844 42.2441 92.8862C42.2441 92.8862 42.5155 94.4147 43.5025 95.1163C44.4896 95.843 46.9571 96.2689 47.3766 97.7473C47.796 99.2006 42.7129 100.328 40.9857 99.5263C39.2337 98.6995 37.7285 96.8202 36.0259 96.8202C34.3233 96.7701 36.4454 93.1368 36.4454 93.1368Z" fill="white"/>
<path d="M42.639 99.977C41.9481 99.977 41.3313 99.8767 40.8871 99.6763C40.1962 99.3505 39.5546 98.8745 38.9377 98.3984C37.9261 97.6717 37.0131 96.9701 36.0261 96.9701C35.5819 96.9701 35.3845 96.7697 35.2858 96.5943C34.7676 95.6672 36.1248 93.2868 36.2728 93.0111C36.2975 92.961 36.3468 92.936 36.3962 92.9109C36.5442 92.8608 39.9494 91.8585 42.3183 92.6603C42.3923 92.6854 42.4416 92.7355 42.4663 92.8107C42.4663 92.8357 42.7377 94.2389 43.6507 94.9155C43.9468 95.141 44.4157 95.3414 44.9092 95.5419C46.0196 96.018 47.278 96.5692 47.5741 97.6467C47.6481 97.8972 47.6235 98.2981 47.1546 98.699C46.2663 99.4758 44.2429 99.977 42.639 99.977ZM36.5936 93.3118C36.0507 94.264 35.3351 95.8676 35.6559 96.3938C35.7053 96.469 35.7793 96.5692 36.0507 96.5692C37.1611 96.5692 38.1728 97.2959 39.2092 98.0977C39.8014 98.5487 40.4429 99.0248 41.0845 99.3255C42.3676 99.9268 45.7728 99.4006 46.9079 98.4234C47.1546 98.223 47.2533 97.9975 47.204 97.797C46.9572 96.895 45.7975 96.3938 44.7611 95.9679C44.2429 95.7423 43.7494 95.5419 43.4287 95.2913C42.5403 94.6398 42.2196 93.4371 42.1209 93.0362C40.0235 92.4098 37.0871 93.1615 36.5936 93.3118Z" fill="black"/>
<path d="M36.7169 92.385L32.3247 90.7062C32.5468 85.1435 33.5338 73.1914 32.004 69.8337C30.6962 66.9271 27.5377 66.0752 25.5143 65.4237C23.9845 66.7768 22.7754 67.9294 20.5793 67.9294C17.9143 67.9294 15.7429 66.5012 14.1637 64.5718C12.2884 65.0479 10.5117 65.7996 9.352 66.2756C6.58837 67.4533 4.86109 70.3098 5.13252 73.3166C5.30525 75.221 5.89746 77.2255 6.58837 79.0296C7.10655 80.5832 8.21694 83.8155 9.54941 86.7472L9.22863 90.5308C8.9572 93.713 7.79746 96.7449 5.87278 99.2756C4.26889 101.38 3.1585 103.786 2.59097 106.317C2.24551 107.795 3.3559 109.198 4.8611 109.198H31.5598L31.8065 109.148L33.4598 109.073C33.6078 109.073 33.6325 108.672 33.6325 108.547C33.5338 107.269 33.0156 101.481 32.6702 97.1959C34.7676 97.5467 36.1494 97.7472 36.1494 97.7472L36.7169 92.385Z" fill="#EF5344" stroke="black" stroke-width="0.5" stroke-miterlimit="10"/>
<path d="M31.6091 97.4965C31.5844 97.4965 31.5844 97.4965 31.5597 97.4965C31.0415 97.3963 30.4987 97.271 29.9311 97.1708C23.5896 95.8177 14.8792 94.0136 12.7324 92.2346C12.0415 91.6582 11.1285 90.5307 10.2649 89.1275C10.2156 89.0273 10.2402 88.902 10.3389 88.8268C10.4376 88.7767 10.561 88.8018 10.635 88.902C11.474 90.2551 12.3623 91.3576 13.0039 91.9088C15.0519 93.6127 23.713 95.4418 30.0298 96.7448C30.5974 96.845 31.1156 96.9703 31.6584 97.0705C31.7571 97.0956 31.8311 97.2209 31.8311 97.3211C31.8065 97.4464 31.7078 97.4965 31.6091 97.4965Z" fill="black"/>
<path d="M31.2636 90.2552C31.2389 90.2552 31.2143 90.2552 31.1896 90.2301L21.6896 86.8474C19.6909 86.0707 18.1363 84.4921 17.3714 82.4625L13.8675 72.9659C13.8182 72.8657 13.8922 72.7404 13.9909 72.6903C14.0896 72.6402 14.213 72.7153 14.2623 72.8156L17.7662 82.3623C18.4571 84.2666 19.9376 85.77 21.8376 86.4967L31.3376 89.8793C31.4363 89.9295 31.5104 90.0297 31.461 90.155C31.4363 90.2301 31.3623 90.2552 31.2636 90.2552Z" fill="black"/>
<path d="M31.461 108.071C31.3623 108.071 31.2882 108.02 31.2636 107.92L31.2389 107.845C30.2025 103.836 29.2155 100.027 28.7467 96.8451C28.722 96.7448 28.796 96.6195 28.9194 96.6195C29.0181 96.5945 29.1415 96.6697 29.1415 96.7949C29.6103 99.9521 30.5727 103.736 31.6337 107.72L31.6584 107.795C31.683 107.895 31.609 108.02 31.5103 108.046C31.5103 108.046 31.4856 108.071 31.461 108.071Z" fill="black"/>
<path d="M28.0804 89.0272C27.9817 89.0272 27.883 88.952 27.883 88.8267C27.4882 82.362 28.2038 79.3552 28.2284 79.2299C28.2531 79.1297 28.3765 79.0545 28.4752 79.0796C28.5739 79.1046 28.6479 79.2299 28.6232 79.3301C28.5986 79.3552 27.9076 82.4121 28.2778 88.8017C28.2778 88.9019 28.2038 89.0021 28.0804 89.0272Z" fill="black"/>
<path d="M21.3935 79.4308C21.3442 79.4308 21.2948 79.4057 21.2455 79.3807C21.1714 79.3055 21.1714 79.1802 21.2455 79.08C21.961 78.3032 22.3805 77.301 22.3805 76.2235C22.3805 75.4969 22.2078 74.7953 21.8377 74.1688C21.7883 74.0686 21.813 73.9433 21.9117 73.8932C22.0104 73.8431 22.1338 73.8682 22.1831 73.9684C22.5779 74.6449 22.7753 75.4217 22.7753 76.2235C22.7753 77.4012 22.3312 78.5287 21.5169 79.3556C21.4922 79.4057 21.4429 79.4308 21.3935 79.4308Z" fill="black"/>
<path d="M28.4506 79.4307C28.4013 79.4307 28.3519 79.4056 28.3026 79.3806C28.2286 79.3054 28.2286 79.1801 28.3026 79.0799C29.2403 78.1027 29.7338 76.7997 29.7338 75.4466C29.7338 74.5195 29.5117 73.6425 29.0429 72.8407C28.9935 72.7405 29.0182 72.6152 29.1169 72.5651C29.2156 72.515 29.339 72.54 29.3883 72.6403C29.8571 73.4922 30.1286 74.4694 30.1286 75.4466C30.1286 76.8999 29.5857 78.3031 28.574 79.3555C28.574 79.4056 28.5247 79.4307 28.4506 79.4307Z" fill="black"/>
<path d="M27.0935 53.2712C27.0688 52.9454 25.4649 52.2438 25.1195 51.8179C24.774 51.3919 24.8234 50.7655 24.6013 50.1641C24.4039 49.5878 23.5896 48.8862 23.5896 48.8862C19.1727 43.4739 14.213 49.4625 14.213 49.4625C13.1519 50.9409 13.5468 53.1459 14.0649 54.3987C15.0766 56.8042 17.8649 58.5081 17.8649 58.5081C17.8896 58.6334 17.9143 58.7336 17.939 58.8589C18.3338 61.1391 16.5325 64.3213 14.3364 64.8725C14.3117 64.8725 14.287 64.8976 14.287 64.8976C15.7182 66.6265 17.8649 67.729 20.2584 67.729C22.2325 67.729 24.0091 66.9773 25.3909 65.7746C24.7247 65.5491 24.0831 65.3236 23.5649 64.9728C21.6403 63.6447 22.9974 59.4101 23.4909 59.0092C23.9597 58.6083 26.2299 59.2848 26.7234 58.6584C27.439 57.7063 26.3779 54.8498 26.3779 54.5741C26.3779 54.4489 26.5506 54.2233 26.7234 53.9978C26.8961 53.6971 27.0935 53.4466 27.0935 53.2712Z" fill="white"/>
<path d="M20.2336 67.9044C17.8648 67.9044 15.644 66.852 14.1141 64.9978C14.0648 64.9477 14.0648 64.8726 14.0648 64.7974C14.0895 64.7222 14.1388 64.6721 14.2128 64.647L14.2622 64.622C16.2856 64.1208 18.1115 61.114 17.7167 58.8589C17.692 58.7837 17.692 58.6835 17.6674 58.5833C17.1985 58.2826 14.805 56.6789 13.8427 54.4238C13.3739 53.2712 12.8804 50.9158 14.0154 49.2871C14.0154 49.2871 14.0154 49.2621 14.0401 49.2621C14.1388 49.1368 16.5076 46.3555 19.4687 46.3555C19.4933 46.3555 19.4933 46.3555 19.4933 46.3555C21.0479 46.3805 22.4791 47.1573 23.7375 48.6858C23.8362 48.786 24.5765 49.4625 24.7739 50.0388C24.8479 50.2644 24.8972 50.5149 24.9466 50.7404C25.0206 51.0912 25.0453 51.3919 25.2427 51.6174C25.3908 51.7928 25.7856 52.0434 26.1557 52.2689C26.8713 52.6949 27.2414 52.9454 27.2661 53.2211C27.2908 53.4716 27.0933 53.7222 26.8219 54.048L26.7972 54.073C26.6985 54.2234 26.5011 54.4238 26.5011 54.499C26.5011 54.5491 26.5505 54.7245 26.5998 54.9249C26.8959 55.9523 27.4141 57.8566 26.7972 58.6835C26.4518 59.1345 25.6128 59.0844 24.7739 59.0343C24.305 59.0092 23.7128 58.9591 23.5648 59.0844C23.3427 59.2849 22.6518 61.0138 22.7258 62.6425C22.7752 63.6197 23.0713 64.3213 23.6388 64.6972C24.1076 65.0229 24.6998 65.2484 25.4154 65.4739C25.4895 65.499 25.5388 65.5491 25.5635 65.6243C25.5882 65.6994 25.5388 65.7746 25.4895 65.8247C24.0583 67.1778 22.183 67.9044 20.2336 67.9044ZM14.657 64.9728C16.0882 66.5764 18.1115 67.4785 20.2583 67.4785C21.9856 67.4785 23.6388 66.8771 24.9713 65.7997C24.4531 65.6243 23.9102 65.3987 23.4414 65.0981C22.7752 64.647 22.405 63.8202 22.3557 62.7177C22.2817 61.0138 22.9726 59.1095 23.3427 58.8088C23.6141 58.5833 24.1817 58.6083 24.8479 58.6584C25.5141 58.7085 26.3037 58.7587 26.5258 58.483C27.044 57.8065 26.5011 55.9022 26.2544 55.0753C26.1557 54.7495 26.131 54.5992 26.131 54.524C26.131 54.3236 26.2791 54.1231 26.5258 53.8475L26.5505 53.8224C26.6492 53.6972 26.8713 53.3965 26.8959 53.2962C26.8219 53.171 26.3284 52.8703 25.983 52.6698C25.5388 52.3942 25.144 52.1687 24.9466 51.9432C24.6752 51.6425 24.6258 51.2416 24.5518 50.8657C24.5024 50.6653 24.4778 50.4397 24.4037 50.2142C24.2063 49.688 23.4661 49.0115 23.4661 49.0115C23.4414 48.9864 23.4414 48.9864 23.4414 48.9864C22.257 47.5331 20.9492 46.8065 19.4933 46.8065C16.7791 46.8065 14.5089 49.4375 14.3856 49.5628C13.3492 51.0411 13.818 53.2211 14.2622 54.2735C15.2245 56.6038 17.9635 58.2826 17.9882 58.2826C18.0375 58.3076 18.0622 58.3577 18.0869 58.4079C18.1115 58.5331 18.1362 58.6584 18.1609 58.7837C18.5557 61.1892 16.8037 64.2461 14.657 64.9728Z" fill="black"/>
<path d="M0 50.7405C0 46.7815 0.0493508 43.2234 3.35584 41.6448C4.61429 41.0435 6.48961 40.0913 7.97013 40.0913C13.3493 40.0913 17.6922 44.5264 17.6922 49.9637C17.6922 55.4011 13.3247 59.8362 7.97013 59.8362C5.47792 59.8362 3.9974 58.3829 2.29481 56.8043C0.296104 55.0002 0 53.6722 0 50.7405Z" fill="black"/>
<path d="M24.083 48.2597C20.0362 43.7494 16.3103 46.5558 14.7804 48.0843C14.1635 48.7107 13.67 49.4874 13.4232 50.3394C12.9544 52.0182 13.3986 53.4966 13.8427 54.5239C14.6817 56.5284 16.7051 58.0569 17.4947 58.6082C17.6921 58.7585 17.9388 58.7084 18.1362 58.5581C18.6051 58.1321 18.9999 57.7061 19.3207 57.3303C19.4687 57.1549 19.4194 56.8542 19.222 56.7289C19.1726 56.7038 19.1232 56.6537 19.0492 56.6287C18.3336 56.0774 18.1116 55.1002 18.5804 54.4487C19.0492 53.7972 20.0362 53.7221 20.7518 54.2733C20.8012 54.3234 20.8505 54.3485 20.8999 54.3986C21.27 53.0455 21.122 51.943 21.6401 50.8906C22.3557 49.4123 23.6388 49.1868 24.231 49.1868C24.5271 48.836 24.083 48.2597 24.083 48.2597Z" fill="black"/>
<path d="M48.1663 93.3872C48.1663 93.3872 43.2312 91.8086 42.7377 91.9089C42.2689 91.984 41.652 92.861 40.4429 93.4624C39.2338 94.0638 38.3208 94.4396 38.5676 94.9909C38.7897 95.467 41.0104 95.3918 42.5897 94.7904C42.9104 94.6651 43.2806 94.7654 43.5026 95.041C44.0455 95.6925 46.4884 96.9453 48.7091 97.0205L48.1663 93.3872Z" fill="white"/>
<path d="M48.7091 97.2213C46.3896 97.1461 43.8974 95.8181 43.3545 95.1666C43.1818 94.9662 42.9104 94.891 42.6883 94.9912C41.2818 95.5425 38.7402 95.8181 38.3948 95.0915C38.074 94.44 38.8636 94.0391 39.9246 93.5129C40.0727 93.4377 40.1961 93.3625 40.3441 93.3124C40.961 93.0117 41.4052 92.6108 41.7753 92.3101C42.1454 92.0095 42.4168 91.784 42.6883 91.7338C43.1818 91.6587 47.0311 92.8614 48.2155 93.2373C48.2896 93.2623 48.3389 93.3124 48.3636 93.4127L48.9065 97.0209C48.9311 97.071 48.8818 97.1461 48.8571 97.1962C48.8324 97.1962 48.7584 97.2213 48.7091 97.2213ZM42.8857 94.5152C43.1818 94.5152 43.4779 94.6655 43.6753 94.891C44.1688 95.4924 46.4142 96.6199 48.4623 96.7953L47.9935 93.563C45.674 92.8363 43.0831 92.0846 42.787 92.1097C42.6142 92.1348 42.3675 92.3352 42.0714 92.5858C41.6766 92.9115 41.2078 93.3124 40.5415 93.6382C40.3935 93.7133 40.2454 93.7885 40.122 93.8637C39.2091 94.3147 38.6415 94.6154 38.7649 94.891C38.913 95.1666 40.8623 95.2418 42.5402 94.5903C42.6389 94.5402 42.7623 94.5152 42.8857 94.5152Z" fill="black"/>
<path d="M102.082 69.6581C98.257 63.9702 85.87 61.4395 85.87 61.4395C84.9323 62.0909 79.1583 62.4668 78.0479 61.9657C77.9492 62.0158 67.7583 65.0477 64.7232 69.2322C62.0089 72.9406 62.6999 85.2436 60.1089 87.5237C57.6661 89.6786 48.0674 92.911 48.0674 92.911L48.7583 98.0477C48.7583 98.0477 62.7245 96.6946 63.6869 96.4941C64.6492 96.2937 68.1778 95.5169 68.9674 92.46C69.1895 91.583 69.5102 89.8039 69.8804 87.6991L72.1505 104.162L72.3232 107.444C72.3479 107.995 72.7427 108.496 73.2609 108.647C76.9128 109.674 82.9089 109.599 87.1037 109.173C88.4115 109.048 89.67 108.697 90.8544 108.146L92.9765 107.168C93.4453 106.943 93.7661 106.492 93.8154 105.966L95.7401 80.2071C95.7401 80.2071 96.1843 81.3848 96.8258 83.1638C99.3921 90.3051 103.488 71.7629 102.082 69.6581Z" fill="black"/>
<path d="M70.004 89.4782C69.9053 89.4782 69.8066 89.403 69.8066 89.2777C69.5352 86.2208 69.017 83.4896 68.3755 80.3575C68.2028 79.4554 68.0054 78.5033 67.808 77.501C67.7833 77.4007 67.8573 77.2755 67.9807 77.2504C68.0794 77.2253 68.2028 77.3005 68.2274 77.4258C68.4248 78.4281 68.5976 79.3552 68.795 80.2572C69.4365 83.4144 69.9547 86.1206 70.2261 89.2026C70.2508 89.3028 70.1521 89.4281 70.0287 89.4281C70.0287 89.4782 70.0287 89.4782 70.004 89.4782Z" fill="white"/>
<path d="M80.4662 84.016C80.3922 84.016 80.2935 83.9659 80.2688 83.8656L77.9 77.3258C77.8506 77.2255 77.9247 77.1002 78.0234 77.0501C78.1221 77 78.2454 77.0752 78.2948 77.1754L80.6636 83.7153C80.713 83.8155 80.6389 83.9408 80.5402 83.9909C80.5402 84.016 80.5156 84.016 80.4662 84.016Z" fill="white"/>
<path d="M75.0378 50.8155C74.9391 50.8155 74.8404 50.7905 74.7417 50.7403C74.4703 50.59 74.3222 50.2643 74.3469 49.8132C74.3716 49.4123 74.495 48.9362 74.717 48.4852C74.9391 48.0342 75.2352 47.6583 75.556 47.4078C75.9015 47.1321 76.2469 47.057 76.5183 47.1823C76.7898 47.3326 76.9378 47.6583 76.9131 48.1094C76.8885 48.5103 76.7651 48.9864 76.543 49.4374C76.1235 50.2893 75.5313 50.8155 75.0378 50.8155ZM76.2469 47.5331C76.1482 47.5331 75.9755 47.6082 75.8028 47.7335C75.5313 47.934 75.2846 48.2848 75.0872 48.6857C74.8898 49.0866 74.7664 49.4875 74.7664 49.8383C74.7417 50.1139 74.8157 50.3144 74.9391 50.3896C75.1612 50.4898 75.7534 50.139 76.1975 49.262C76.395 48.8611 76.5183 48.4602 76.5183 48.1094C76.543 47.8337 76.469 47.6333 76.3456 47.5581C76.3209 47.5331 76.2963 47.5331 76.2469 47.5331Z" fill="black"/>
<path d="M81.4287 64.1709C82.5637 64.1709 83.6495 63.9955 84.6858 63.6447C85.5988 63.344 86.4871 62.918 87.2767 62.3668C83.8222 61.139 85.0313 55.8019 85.0313 55.8019C87.6469 49.9887 85.5988 46.2802 82.5391 45.5035C78.1715 44.401 77.604 46.9818 77.604 46.9818C77.2832 47.6834 76.5183 49.2871 76.1975 49.4875C75.8274 49.713 74.9391 49.9386 74.8157 50.139C74.6676 50.3144 74.7663 50.9158 75.3092 51.442C75.3092 51.442 73.7053 54.8247 74.2482 55.8269C74.791 56.8543 78.5417 57.6811 78.5417 57.6811C78.5417 57.6811 79.43 61.7654 76.9871 63.1937C77.9248 63.6447 78.9118 63.9454 79.9728 64.0957C80.4417 64.1208 80.9352 64.1709 81.4287 64.1709Z" fill="white"/>
<path d="M81.4287 64.3714C80.9598 64.3714 80.4663 64.3213 79.9482 64.2712C78.8871 64.1209 77.8754 63.8202 76.9131 63.3441C76.8391 63.319 76.8144 63.2439 76.7897 63.1687C76.7897 63.0935 76.8391 63.0184 76.8884 62.9682C78.9365 61.7906 78.4923 58.5081 78.3689 57.8316C77.604 57.6562 74.5936 56.8794 74.0508 55.9022C73.5326 54.925 74.717 52.1687 75.0378 51.4671C74.5196 50.9158 74.4209 50.2644 74.643 49.9887C74.7417 49.8384 74.9884 49.7632 75.4326 49.5878C75.6793 49.4876 75.9508 49.3874 76.0988 49.3122C76.1975 49.237 76.543 48.761 77.4066 46.9318C77.456 46.7815 77.678 46.0799 78.4676 45.5787C79.43 44.9774 80.8118 44.8771 82.5637 45.3281C83.9949 45.6789 85.1547 46.6311 85.7962 48.0092C86.7585 50.0389 86.5611 52.8452 85.204 55.9022C85.13 56.253 84.1676 61.089 87.3014 62.1915C87.3754 62.2165 87.4248 62.2917 87.4495 62.3669C87.4741 62.442 87.4248 62.5172 87.3508 62.5673C86.5365 63.1186 85.6482 63.5445 84.7105 63.8703C83.6495 64.196 82.5391 64.3714 81.4287 64.3714ZM77.4066 63.1186C78.2456 63.4694 79.1092 63.72 79.9975 63.8452C80.4663 63.9204 80.9598 63.9455 81.4287 63.9455C82.5144 63.9455 83.5754 63.7701 84.6118 63.4193C85.4014 63.1687 86.1417 62.8179 86.8326 62.3919C83.7235 60.8635 84.8339 55.802 84.8339 55.7518C84.8339 55.7268 84.8585 55.7268 84.8585 55.7017C86.1663 52.7701 86.3884 50.0639 85.4754 48.1596C84.8832 46.9067 83.8222 46.0297 82.4897 45.704C80.8611 45.3031 79.5534 45.3783 78.7144 45.9045C77.9741 46.3555 77.8261 47.007 77.8261 47.032C77.8261 47.0571 77.8014 47.0571 77.8014 47.0821C76.9871 48.786 76.5923 49.5127 76.3209 49.663C76.1482 49.7632 75.8767 49.8885 75.6053 49.9887C75.3832 50.0639 75.0624 50.1892 75.0131 50.2644C74.9637 50.3395 74.9884 50.8156 75.4819 51.2917C75.556 51.3418 75.556 51.4671 75.5313 51.5172C75.1118 52.4193 74.0754 54.95 74.4702 55.7017C74.865 56.4785 77.604 57.2302 78.6404 57.4557C78.7144 57.4808 78.7884 57.5309 78.7884 57.6061C78.7884 57.7815 79.5534 61.5149 77.4066 63.1186Z" fill="black"/>
<path d="M84.9818 43.9247C83.8961 43.5989 82.5883 43.6741 82.0701 43.4486C81.2312 43.0727 81.3299 42.0454 80.0961 41.8449C79.0104 41.6695 77.974 41.7698 77.3571 42.5716C77.2584 42.7219 77.1597 42.8472 77.0857 43.0226C76.0247 45.3278 77.1104 46.5807 77.6039 47.0317C77.6039 47.0317 80.787 48.936 81.3052 49.4622C81.7987 49.9383 82.3415 51.0408 81.8727 52.4941C81.8234 52.6695 81.8727 52.8951 82.0454 52.9953H82.0701C82.2675 53.1456 82.5143 53.0955 82.6623 52.9201C83.1312 52.3438 84.1182 51.2663 84.7844 51.5921C85.574 51.993 85.6234 54.173 83.9454 54.3985C83.6493 54.4486 83.4766 54.7493 83.6 55.0499C83.7974 55.501 84.1922 56.0021 85.0558 55.8518C85.0558 55.8518 88.8312 53.5716 89.5467 50.214C90.2376 46.8062 86.4376 44.3506 84.9818 43.9247Z" fill="black"/>
<path d="M77.5793 51.7928C77.4313 51.7928 77.2832 51.7677 77.1599 51.6926C76.5183 51.3668 76.3949 50.3144 76.8884 49.3121C77.4066 48.3099 78.2949 47.7837 78.9365 48.1094C79.2573 48.2848 79.4547 48.6356 79.504 49.0866C79.5534 49.5126 79.43 50.0137 79.2079 50.4898C78.9858 50.9408 78.6404 51.3167 78.2703 51.5673C78.0235 51.7176 77.8014 51.7928 77.5793 51.7928ZM78.517 48.4351C78.0975 48.4351 77.5793 48.8611 77.2586 49.4875C76.8638 50.2643 76.9131 51.0912 77.3326 51.3167C77.53 51.4169 77.7767 51.3668 78.0482 51.2165C78.3443 51.0411 78.6157 50.7153 78.8378 50.3144C79.0352 49.9135 79.1339 49.5126 79.1092 49.1367C79.0845 48.811 78.9612 48.5855 78.7638 48.4853C78.6897 48.4351 78.591 48.4351 78.517 48.4351Z" fill="black"/>
<path d="M77.1104 49.4874C77.0364 49.4874 76.9623 49.4373 76.913 49.3621C76.913 49.3371 76.7896 49.0865 76.5922 49.0865C76.4935 49.1116 76.3948 49.0113 76.3701 48.8861C76.3701 48.7858 76.4441 48.6856 76.5675 48.6605C76.9623 48.6355 77.2091 48.9612 77.2831 49.1617C77.3325 49.2619 77.2831 49.3872 77.1844 49.4373C77.1597 49.4624 77.1351 49.4874 77.1104 49.4874Z" fill="black"/>
<path d="M82.9583 51.5924C82.9336 51.5924 82.9089 51.5924 82.8843 51.5673L79.2323 49.8384C79.1336 49.7883 79.0843 49.663 79.1336 49.5628C79.183 49.4625 79.3063 49.4124 79.405 49.4625L83.0817 51.1664C83.1804 51.2165 83.2297 51.3418 83.1804 51.442C83.1064 51.5423 83.0323 51.5924 82.9583 51.5924Z" fill="black"/>
<path d="M83.526 93.312L94.926 79.7562C95.2221 79.4054 95.7156 79.3552 96.061 79.6559L113.507 94.7653C113.852 95.066 113.901 95.5671 113.605 95.9179L102.205 109.474C101.909 109.825 101.416 109.875 101.07 109.574L83.6247 94.4646C83.2792 94.1639 83.2299 93.6628 83.526 93.312Z" fill="white"/>
<path d="M101.588 110C101.342 110 101.12 109.925 100.922 109.749L83.4767 94.6401C83.2793 94.4647 83.1559 94.2141 83.1312 93.9385C83.1065 93.6629 83.2052 93.3873 83.3533 93.1868L94.7533 79.631C94.926 79.4305 95.1728 79.3053 95.4442 79.2802C95.7156 79.2551 95.9871 79.3554 96.1845 79.5057L113.63 94.6151C114.049 94.9659 114.099 95.6424 113.729 96.0684L102.329 109.624C102.156 109.825 101.909 109.95 101.638 109.975C101.662 109.975 101.613 110 101.588 110ZM95.5182 79.6811C95.4936 79.6811 95.4936 79.6811 95.4689 79.6811C95.2962 79.7062 95.1728 79.7563 95.0494 79.8816L83.6741 93.4624C83.5754 93.5877 83.526 93.7381 83.526 93.9135C83.5507 94.0889 83.6 94.2141 83.7234 94.3394L101.169 109.449C101.292 109.549 101.44 109.599 101.613 109.599C101.786 109.574 101.909 109.524 102.033 109.399L113.433 95.8428C113.655 95.5923 113.63 95.1914 113.358 94.9909L95.913 79.8816C95.8143 79.7312 95.691 79.6811 95.5182 79.6811Z" fill="black"/>
<path d="M94.7533 81.7104L85.4014 92.8608L101.934 107.168L111.286 96.018L94.7533 81.7104Z" fill="#C4C4C4"/>
<path d="M85.9194 88.952L91.0519 82.8632C91.3973 82.4372 92.0142 82.3871 92.4584 82.763L93.8402 83.9407L87.4246 91.583L86.0428 90.4053C85.5986 90.0044 85.5739 89.378 85.9194 88.952Z" fill="white"/>
<path d="M86.2156 86.7724L87.8442 88.1756L90.6078 84.8932L88.9792 83.49C88.0909 82.7132 86.7338 82.8135 85.9935 83.7155C85.2286 84.6426 85.3273 86.0207 86.2156 86.7724ZM86.8078 85.0185C86.6351 84.8681 86.6104 84.5925 86.7585 84.4171C86.9065 84.2417 87.1779 84.2167 87.3507 84.367C87.5234 84.5173 87.5481 84.793 87.4 84.9684C87.252 85.1438 86.9805 85.1688 86.8078 85.0185Z" fill="white"/>
<path d="M89.4727 94.5396L97.048 85.5192L96.3078 84.8677L88.7324 93.8882L89.4727 94.5396Z" fill="white"/>
<path d="M90.9781 95.8429L98.5534 86.8224L97.8131 86.1709L90.2378 95.1914L90.9781 95.8429Z" fill="white"/>
<path d="M92.4832 97.1456L100.059 88.1251L99.3182 87.4736L91.7429 96.4941L92.4832 97.1456Z" fill="white"/>
<path d="M99.8364 104.688C99.8364 104.688 95.6663 109.474 93.0507 108.797C90.4351 108.121 91.0027 106.216 91.0027 106.216L95.0247 104.036C95.0247 104.036 91.2988 104.563 91.7182 103.26C91.9403 102.583 92.2611 102.633 93.1001 102.608C95.2962 102.558 99.3676 102.333 99.3676 102.333L99.8364 104.688Z" fill="white"/>
<path d="M93.569 109.073C93.3716 109.073 93.1741 109.048 93.0014 108.997C92.0391 108.747 91.3482 108.296 91.0027 107.669C90.5832 106.893 90.8053 106.166 90.8053 106.141C90.83 106.091 90.8547 106.041 90.904 106.016L94.0378 104.312C93.1742 104.362 92.0144 104.312 91.6443 103.861C91.5456 103.735 91.4469 103.51 91.5456 103.184C91.7923 102.407 92.2365 102.407 92.9767 102.407H93.1248C95.2962 102.382 99.343 102.132 99.3677 102.132C99.4664 102.132 99.5651 102.207 99.5897 102.307L100.059 104.663C100.083 104.738 100.059 104.788 100.009 104.838C99.8365 105.013 96.2586 109.073 93.569 109.073ZM91.1755 106.341C91.1508 106.517 91.1014 106.993 91.3482 107.494C91.6443 108.02 92.2365 108.396 93.0755 108.597C95.3703 109.173 99.0469 105.239 99.5897 104.638L99.1702 102.583C98.356 102.633 94.9754 102.808 93.0755 102.833H92.9274C92.1625 102.858 92.0144 102.858 91.8664 103.335C91.817 103.485 91.8417 103.56 91.891 103.61C92.2365 104.036 93.9391 103.961 94.9508 103.836C95.0495 103.811 95.1482 103.886 95.1729 103.986C95.1975 104.086 95.1482 104.187 95.0741 104.237L91.1755 106.341Z" fill="black"/>
<path d="M95.3949 106.968C95.3949 106.968 94.4572 107.77 92.4092 108.597L95.3949 106.968Z" fill="white"/>
<path d="M92.4092 108.797C92.3352 108.797 92.2365 108.747 92.2118 108.647C92.1624 108.546 92.2365 108.421 92.3105 108.371C94.2845 107.594 95.2222 106.792 95.2468 106.792C95.3209 106.717 95.4689 106.742 95.543 106.818C95.617 106.893 95.5923 107.043 95.5183 107.118C95.4689 107.143 94.5066 107.97 92.4832 108.772C92.4585 108.797 92.4339 108.797 92.4092 108.797Z" fill="black"/>
<path d="M94.6794 106.066C94.6794 106.066 93.4209 106.918 91.2988 107.77L94.6794 106.066Z" fill="white"/>
<path d="M91.2988 107.97C91.2248 107.97 91.1261 107.92 91.1014 107.845C91.0521 107.745 91.1261 107.619 91.2001 107.569C93.2975 106.717 94.5313 105.891 94.556 105.865C94.6547 105.79 94.7781 105.815 94.8521 105.916C94.9261 106.016 94.9014 106.141 94.8027 106.216C94.7534 106.266 93.5196 107.068 91.3975 107.945C91.3482 107.97 91.3235 107.97 91.2988 107.97Z" fill="black"/>
<path d="M93.1739 65.3737C95.9129 65.4238 99.3674 66.4762 101.095 68.606C105.709 74.294 113.309 86.0707 112.667 93.0616C111.779 102.608 99.7622 105.74 99.7622 105.74L98.4051 101.606C109.213 91.909 95.9129 78.6539 95.9129 78.6539L92.3103 65.3486L93.1739 65.3737Z" fill="black"/>
</svg>
