<svg width="113" height="128" viewBox="0 0 113 128" fill="none" xmlns="http://www.w3.org/2000/svg">
<g clip-path="url(#clip0)">
<path d="M82.6171 124.462L77.7747 124.07L77.9621 123.554C78.3995 122.332 78.6026 121.033 78.5401 119.733L78.5088 118.935L81.9766 119.577L82.6171 124.462Z" fill="white"/>
<path d="M82.8828 124.712L77.4468 124.274L77.7436 123.46C78.181 122.254 78.3684 121.002 78.3059 119.718L78.2591 118.622L82.1798 119.342L82.8828 124.712ZM78.0872 123.851L82.336 124.196L81.7424 119.749L78.7277 119.201L78.7589 119.702C78.8214 121.048 78.6183 122.364 78.1653 123.616L78.0872 123.851Z" fill="black"/>
<path d="M77.3998 121.675C77.1187 121.941 76.8219 122.254 76.6032 122.536C75.8221 123.522 73.6821 124.618 73.2604 124.759C72.9323 124.869 72.5574 125.025 72.2606 125.26C71.917 125.511 71.7452 125.949 71.792 126.372L71.8076 126.575C71.8389 126.826 71.9795 127.061 72.2138 127.186C72.6824 127.437 73.6509 127.797 75.2286 127.765C77.6654 127.734 79.9148 127.374 81.4612 127.311C83.0077 127.233 83.9449 127.014 84.3666 126.419C84.7415 125.886 84.023 123.052 83.3982 122.238C83.3044 122.113 83.1326 122.05 82.9764 122.097C82.6796 122.176 82.1641 122.379 81.7736 122.833C81.3987 123.256 80.5396 123.6 79.7586 123.694C79.1493 123.773 78.6026 123.319 78.5558 122.708C78.5401 122.504 78.5089 122.285 78.4933 122.066C78.4152 121.534 77.7747 121.299 77.3998 121.675Z" fill="white"/>
<path d="M75.0725 128C73.573 128 72.6201 127.672 72.089 127.39C71.7922 127.233 71.6048 126.936 71.5579 126.607L71.5423 126.403C71.4954 125.887 71.6985 125.386 72.1046 125.088C72.3858 124.885 72.7451 124.697 73.1668 124.556C73.6198 124.399 75.6817 123.334 76.4003 122.411C76.6658 122.082 76.9939 121.737 77.2282 121.518C77.4781 121.283 77.8218 121.205 78.1342 121.33C78.4466 121.44 78.6653 121.722 78.7121 122.05C78.7434 122.27 78.759 122.489 78.7746 122.692C78.7903 122.927 78.9152 123.131 79.087 123.287C79.2745 123.428 79.4932 123.491 79.7119 123.475C80.4773 123.381 81.2583 123.053 81.5707 122.692C82.0081 122.191 82.5861 121.972 82.8829 121.878C83.1328 121.8 83.3983 121.894 83.5546 122.097C84.195 122.943 84.9916 125.887 84.523 126.56C84.0856 127.186 83.1797 127.468 81.4301 127.546C80.8366 127.578 80.1649 127.64 79.3838 127.719C78.1342 127.844 76.7127 127.985 75.1975 128C75.1663 128 75.1194 128 75.0725 128ZM77.8374 121.722C77.728 121.722 77.6343 121.769 77.5562 121.831C77.2438 122.129 76.9626 122.426 76.7752 122.677C75.9473 123.71 73.7448 124.838 73.323 124.978C72.9481 125.104 72.6201 125.26 72.3858 125.433C72.1202 125.636 71.9797 125.981 72.0109 126.325L72.0265 126.529C72.0421 126.716 72.1515 126.873 72.3077 126.951C72.7138 127.171 73.6511 127.531 75.2131 127.515C76.6971 127.499 78.1186 127.358 79.3682 127.233C80.1336 127.155 80.8522 127.092 81.4458 127.061C83.0078 126.983 83.8201 126.748 84.1794 126.262C84.4605 125.871 83.867 123.209 83.2265 122.348C83.1953 122.301 83.1172 122.27 83.0547 122.301C82.8048 122.379 82.3205 122.552 81.9612 122.974C81.5082 123.491 80.5241 123.82 79.8056 123.914C79.4463 123.961 79.1027 123.851 78.8215 123.632C78.5403 123.413 78.3685 123.084 78.3373 122.724C78.3216 122.52 78.2904 122.301 78.2748 122.097C78.2592 121.941 78.1498 121.816 78.0092 121.753C77.9311 121.737 77.8843 121.722 77.8374 121.722Z" fill="black"/>
<path d="M75.9161 126.857C74.6977 126.857 73.5417 126.763 72.6357 126.528C72.5108 126.497 72.4327 126.372 72.4639 126.246C72.4952 126.121 72.6201 126.043 72.7451 126.074C76.0254 126.967 83.1328 125.683 83.1953 125.683C83.3203 125.667 83.4452 125.745 83.4609 125.871C83.4765 125.996 83.3984 126.121 83.2734 126.137C83.086 126.184 79.2589 126.857 75.9161 126.857Z" fill="black"/>
<path d="M66.3874 123.319L61.7168 122.912L61.9042 122.411C62.3416 121.236 62.5291 119.984 62.4822 118.731L62.451 117.964L65.7938 118.59L66.3874 123.319Z" fill="white"/>
<path d="M66.6531 123.569L61.3889 123.115L61.6701 122.332C62.0918 121.174 62.2793 119.968 62.2324 118.731L62.1856 117.667L65.9814 118.387L66.6531 123.569ZM62.045 122.708L66.122 123.053L65.5753 118.778L62.7011 118.23L62.7167 118.7C62.7792 119.984 62.5761 121.268 62.1231 122.473L62.045 122.708Z" fill="black"/>
<path d="M61.014 120.469C60.7172 120.735 60.4204 121.049 60.1704 121.33C59.3582 122.317 57.14 123.382 56.7027 123.522C56.3746 123.616 55.9841 123.773 55.6717 124.008C55.3124 124.258 55.1406 124.697 55.1718 125.135L55.1874 125.354C55.2031 125.621 55.3593 125.855 55.578 125.981C56.0622 126.247 57.0307 126.638 58.6552 126.654C61.1389 126.67 63.4508 126.372 65.0285 126.325C66.6062 126.294 67.5747 126.075 68.012 125.48C68.4182 124.947 67.7465 122.035 67.1217 121.174C67.0279 121.033 66.8561 120.986 66.6843 121.017C66.3875 121.096 65.8564 121.299 65.4346 121.738C65.0441 122.16 64.1537 122.489 63.3571 122.567C62.7322 122.63 62.1855 122.16 62.1387 121.534C62.123 121.33 62.1074 121.111 62.0762 120.876C62.0606 120.36 61.4201 120.109 61.014 120.469Z" fill="white"/>
<path d="M58.9052 126.889C58.8271 126.889 58.7334 126.889 58.6397 126.889C57.0151 126.873 56.0154 126.497 55.453 126.184C55.1562 126.012 54.9688 125.715 54.9376 125.37L54.9219 125.151C54.8751 124.634 55.1094 124.117 55.5155 123.82C55.7967 123.616 56.1716 123.444 56.6246 123.303C57.0932 123.162 59.2176 122.113 59.983 121.189C60.2642 120.845 60.6079 120.516 60.8422 120.297C61.0921 120.062 61.4514 119.999 61.7638 120.125C62.0762 120.25 62.2949 120.532 62.3261 120.876C62.3418 121.096 62.373 121.33 62.3886 121.534C62.4042 121.769 62.5136 121.988 62.701 122.145C62.8885 122.301 63.1072 122.379 63.3415 122.348C64.1225 122.27 64.9348 121.957 65.2628 121.597C65.7158 121.096 66.3094 120.876 66.6218 120.798C66.8717 120.735 67.1529 120.829 67.3091 121.033C67.934 121.91 68.6994 124.947 68.1839 125.621C67.7153 126.247 66.7936 126.513 65.0129 126.56C64.4193 126.576 63.7164 126.623 62.9197 126.685C61.7169 126.779 60.3579 126.889 58.9052 126.889ZM61.4514 120.532C61.342 120.532 61.2483 120.563 61.1702 120.641C60.9359 120.845 60.6079 121.174 60.3423 121.487C59.4832 122.536 57.1869 123.616 56.7496 123.757C56.359 123.883 56.031 124.039 55.7811 124.211C55.4999 124.415 55.3437 124.759 55.3749 125.12L55.3906 125.339C55.4062 125.527 55.5155 125.683 55.6717 125.777C56.0935 126.012 57.0307 126.403 58.624 126.419C60.1549 126.435 61.592 126.325 62.8729 126.231C63.6539 126.169 64.3881 126.122 64.9973 126.106C66.6062 126.075 67.4341 125.84 67.809 125.354C68.1058 124.963 67.5591 122.223 66.9186 121.33C66.8874 121.283 66.8093 121.252 66.7312 121.268C66.4656 121.33 65.9814 121.518 65.6065 121.925C65.1379 122.442 64.1225 122.755 63.3883 122.834C63.0291 122.865 62.6698 122.755 62.4042 122.52C62.1231 122.285 61.9512 121.957 61.92 121.581C61.9044 121.377 61.8888 121.158 61.8575 120.939C61.8419 120.767 61.7325 120.641 61.592 120.579C61.5607 120.547 61.5139 120.532 61.4514 120.532Z" fill="black"/>
<path d="M59.9206 125.73C58.6397 125.73 57.3744 125.636 56.281 125.401C56.156 125.37 56.0779 125.245 56.0935 125.119C56.1248 124.994 56.2497 124.916 56.3747 124.932C60.4205 125.808 67.2311 124.54 67.2936 124.524C67.4185 124.509 67.5435 124.587 67.5748 124.712C67.606 124.838 67.5123 124.963 67.3873 124.994C67.1842 125.041 63.4977 125.73 59.9206 125.73Z" fill="black"/>
<path d="M71.6205 82.5937C71.1206 84.0499 69.2305 93.9141 68.6994 97.7658C68.2152 101.273 67.4498 116.273 67.3092 118.794C67.2936 119.013 67.1217 119.185 66.9031 119.185H61.2796C61.0765 119.185 60.8891 119.029 60.8735 118.81C60.6079 116.195 59.0146 99.5195 59.2645 92.4423C59.5301 84.7231 62.9823 75.5322 63.654 73.0113C64.3256 70.4748 65.1379 64.4937 65.1379 64.4937L81.6334 66.9832C81.6334 66.9832 83.7109 84.3317 83.9765 87.792C84.242 91.2523 84.7575 102.447 84.1014 108.429C83.6641 112.312 83.3516 117.886 83.1954 119.232C83.1173 119.859 82.6019 120.328 81.9614 120.328H77.572C77.3533 120.328 77.1659 120.156 77.1659 119.921C77.1502 118.308 76.9003 110.073 75.885 104.812C74.6822 98.6896 73.3544 89.1072 72.6983 85.2398C72.4796 83.9559 72.2922 82.4998 72.136 81.1063C72.1204 81.1219 72.1204 81.1376 71.6205 82.5937Z" fill="#8DD5E0" stroke="black" stroke-width="0.5" stroke-miterlimit="10"/>
<path d="M72.0111 82.4371C71.8861 82.4371 71.7924 82.3431 71.7768 82.2335C71.6674 81.2471 71.5737 80.339 71.5112 79.6814C71.4019 78.507 70.7927 77.4267 69.8398 76.7221C69.7305 76.6438 69.7149 76.5029 69.793 76.3933C69.8711 76.2837 70.0116 76.268 70.121 76.3463C71.1832 77.1292 71.8549 78.3348 71.9798 79.6344C72.0423 80.3077 72.1204 81.2001 72.2454 82.1866C72.261 82.3118 72.1673 82.4371 72.0423 82.4527C72.0267 82.4371 72.0267 82.4371 72.0111 82.4371Z" fill="black"/>
<path d="M81.6644 74.6709C79.337 74.624 78.2904 72.3849 77.9467 71.4298C77.8998 71.3045 77.9623 71.1793 78.0873 71.1323C78.2123 71.0853 78.3372 71.148 78.3841 71.2732C78.6965 72.1344 79.6337 74.1542 81.6644 74.2012C81.7894 74.2012 81.8987 74.3108 81.8987 74.4361C81.8987 74.577 81.805 74.6709 81.6644 74.6709Z" fill="black"/>
<path d="M64.185 74.3419C64.06 74.3419 63.9663 74.2479 63.9507 74.1383C63.9351 74.0131 64.0288 73.8878 64.1537 73.8722C66.3406 73.6216 66.2938 71.1321 66.2782 71.0225C66.2782 70.8972 66.3719 70.7876 66.4969 70.772C66.6218 70.772 66.7312 70.8659 66.7468 70.9912C66.7468 71.0225 66.8249 74.0287 64.2006 74.3262C64.2006 74.3419 64.185 74.3419 64.185 74.3419Z" fill="black"/>
<path d="M75.2758 34.6972L74.9009 27.1973L69.4961 30.0156L69.6054 34.7598C69.6523 35.8245 70.5583 36.4039 70.5583 36.4039C71.683 37.2024 73.2294 37.0458 74.3541 36.2473L74.6197 36.0594C75.0571 35.7463 75.307 35.2296 75.2758 34.6972Z" fill="white"/>
<path d="M72.2765 37.1711C71.6048 37.1711 70.9644 36.9832 70.4333 36.5918C70.402 36.5761 69.4336 35.9341 69.3867 34.7755L69.2773 30.0313C69.2773 29.9373 69.3242 29.859 69.4023 29.8121L74.8071 26.9937C74.8852 26.9624 74.9633 26.9624 75.0258 26.9937C75.0882 27.0407 75.1351 27.1033 75.1507 27.1816L75.5256 34.6815C75.5569 35.3078 75.2757 35.8872 74.7758 36.2473L74.5103 36.4352C73.823 36.9206 73.0263 37.1711 72.2765 37.1711ZM69.7303 30.1565L69.8397 34.7598C69.8866 35.6836 70.6832 36.2003 70.6832 36.2003C71.6673 36.9049 73.1044 36.8423 74.2291 36.0437L74.4946 35.8558C74.8695 35.5897 75.0726 35.1669 75.0414 34.6972L74.6821 27.5574L69.7303 30.1565Z" fill="black"/>
<path d="M66.9031 18.6797C68.3558 18.5858 66.5438 20.0889 71.9017 18.4605C74.0261 17.8186 72.9796 20.3081 73.5263 20.1515C75.5726 19.5409 75.4945 19.5565 76.5098 19.8071C77.1815 19.9793 77.6189 21.1849 77.5096 22.0931C77.3533 23.2987 76.3692 23.6118 75.5101 26.164C74.9165 27.949 75.0727 29.0293 74.3542 29.2955C73.6356 29.5617 73.0889 28.6066 72.2766 28.8414C71.23 29.1546 71.4487 30.9552 70.4334 31.7224C69.7929 32.2078 68.2933 32.4427 65.8721 31.2997C65.4816 31.1118 65.2785 30.6734 65.3879 30.2506C65.5285 29.7183 65.7159 29.0293 65.9346 28.403C67.0281 25.3811 68.0903 24.6922 67.6998 23.9093C67.0905 22.7194 64.8255 23.4396 64.4507 22.4532C64.0601 21.4668 64.9193 18.8206 66.9031 18.6797Z" fill="black"/>
<path d="M72.0267 23.815L71.6206 24.5979C71.4331 24.958 71.2613 25.3494 71.1207 25.7252C70.8551 26.4611 70.3553 27.6824 70.0897 28.387C69.215 30.626 66.4345 28.2147 66.4345 28.2147L66.2314 27.6041L65.8565 27.4632C65.7784 27.4319 65.716 27.3849 65.6691 27.3379C65.5441 27.1813 65.5441 26.9778 65.6379 26.8369C66.1846 26.0227 67.3249 24.1751 67.7154 22.5311C67.731 22.4997 70.0897 21.8578 72.0267 23.815Z" fill="white"/>
<path d="M72.261 23.768C72.1829 23.9716 72.0892 24.1751 71.9798 24.3943C71.9329 24.5039 71.8861 24.5979 71.8236 24.7075C71.7767 24.7858 71.7455 24.8797 71.6986 24.958C71.6205 25.1302 71.5424 25.3025 71.4643 25.4747C71.3862 25.6469 71.3394 25.8348 71.2613 26.0227C70.9957 26.7586 70.6989 27.4789 70.4177 28.2148L70.3084 28.4809C70.2615 28.5749 70.2303 28.6845 70.1678 28.7784C70.0585 28.9663 69.9179 29.1542 69.7304 29.2951C69.543 29.436 69.3087 29.53 69.09 29.5613C68.8557 29.5926 68.637 29.577 68.4183 29.53C67.9965 29.436 67.6216 29.2638 67.2624 29.0759C66.9031 28.8724 66.5907 28.6532 66.2626 28.3713C66.2314 28.34 66.2001 28.3087 66.2001 28.2617C66.1377 28.0582 66.0752 27.8546 66.0127 27.6511L66.1533 27.792C66.0439 27.745 65.9346 27.6824 65.8096 27.6198C65.7471 27.5885 65.669 27.5415 65.6066 27.4789C65.5441 27.4162 65.4972 27.3379 65.466 27.2597C65.4035 27.1031 65.4035 26.9152 65.4816 26.7586C65.4972 26.743 65.4972 26.7273 65.5128 26.696L65.5441 26.649L65.5909 26.5707L65.6847 26.4141C65.9502 25.9914 66.2001 25.5686 66.4188 25.1302C66.6531 24.6918 66.8562 24.2534 67.0437 23.7993C67.2311 23.3453 67.3873 22.8912 67.4967 22.4215C67.5123 22.3432 67.5904 22.2649 67.6685 22.2493C67.8872 22.1866 68.0903 22.171 68.2933 22.1553C68.4964 22.1396 68.6995 22.1396 68.9025 22.1396C69.3087 22.1553 69.7148 22.2179 70.1209 22.3432C70.5115 22.4685 70.8864 22.6407 71.2456 22.8442C71.4175 22.9538 71.5893 23.0634 71.7455 23.2044C71.8236 23.267 71.9017 23.3296 71.9798 23.4079L72.0111 23.4392L72.0579 23.4862C72.0892 23.5175 72.1204 23.5488 72.136 23.5801C72.1829 23.6428 72.2297 23.7054 72.261 23.768ZM71.7924 23.8463C71.7611 23.8463 71.7299 23.8463 71.7143 23.8307C71.6986 23.8307 71.6986 23.8307 71.683 23.815L71.6518 23.7837C71.5737 23.7211 71.5112 23.6584 71.4331 23.6115C71.2925 23.5019 71.1363 23.3922 70.9801 23.2983C70.6677 23.1104 70.324 22.9538 69.9647 22.8442C69.6055 22.7346 69.2462 22.672 68.8713 22.6563C68.6838 22.6407 68.4964 22.6407 68.3089 22.6563C68.1215 22.672 67.934 22.6877 67.7778 22.7346L67.9497 22.5624C67.6841 23.5645 67.2467 24.4726 66.7469 25.3494C66.4969 25.7878 66.2314 26.2106 65.9658 26.6334L65.8565 26.7899L65.8096 26.8682L65.7784 26.8995C65.7784 26.9152 65.7628 26.9152 65.7628 26.9308C65.7315 26.9935 65.7159 27.0874 65.7628 27.15C65.8096 27.2283 65.8565 27.244 65.9502 27.2753C66.0752 27.3066 66.2001 27.3379 66.3095 27.3849C66.372 27.4162 66.4188 27.4632 66.4501 27.5258C66.5126 27.7294 66.5907 27.9329 66.6531 28.1365L66.5907 28.0269C66.8718 28.2617 67.1843 28.4809 67.5123 28.6688C67.8403 28.8567 68.184 28.9976 68.5276 29.0603C68.8713 29.1229 69.1993 29.0916 69.4493 28.9037C69.5742 28.8097 69.6679 28.6845 69.7617 28.5436C69.8085 28.4653 69.8398 28.387 69.871 28.3087L69.9804 28.0425C70.2615 27.3223 70.5583 26.5864 70.8239 25.8661C70.8864 25.6939 70.9645 25.4904 71.0426 25.3181C71.1207 25.1302 71.1988 24.9423 71.2925 24.7701C71.3394 24.6762 71.3862 24.5979 71.4331 24.5039C71.4643 24.4256 71.5112 24.363 71.5581 24.2847C71.6049 24.1282 71.6986 23.9872 71.7924 23.8463Z" fill="black"/>
<path d="M71.48 26.5083C71.48 26.5083 72.4485 24.6451 73.2139 25.2557C73.9637 25.8977 72.839 27.9175 71.48 26.5083Z" fill="white"/>
<path d="M67.7779 26.9772C67.5435 26.9772 67.3249 26.8989 67.1686 26.7423C66.8875 26.4761 66.7625 26.0064 66.7937 25.2862C66.825 24.7225 66.9812 24.378 67.3092 24.2371C67.5435 24.1275 67.7935 24.1275 68.0122 24.2214C68.1996 24.2997 68.3246 24.425 68.4027 24.5816C68.7463 25.4584 68.6214 26.1943 68.3871 26.5857C68.2621 26.8049 68.0903 26.9302 67.9184 26.9459C67.856 26.9772 67.8091 26.9772 67.7779 26.9772ZM67.4967 24.6912C67.3561 24.7538 67.278 24.973 67.2624 25.3331C67.2311 26.0221 67.3717 26.3039 67.4967 26.4135C67.5748 26.4918 67.6998 26.5231 67.856 26.5074C67.8716 26.5074 67.9497 26.4448 68.0278 26.2726C68.0903 26.1317 68.2933 25.5836 67.9653 24.7695C67.9497 24.7381 67.9184 24.6912 67.8403 24.6599C67.7779 24.6442 67.6529 24.6285 67.4967 24.6912Z" fill="black"/>
<path d="M72.3549 25.1771C72.3393 25.1771 72.3393 25.1771 72.3236 25.1771L67.778 24.6604C67.653 24.6447 67.5593 24.5351 67.5749 24.3942C67.5906 24.269 67.6999 24.175 67.8405 24.1907L72.3861 24.7074C72.5111 24.723 72.6048 24.8326 72.5892 24.9736C72.5736 25.0832 72.4798 25.1771 72.3549 25.1771Z" fill="black"/>
<path d="M65.7941 26.5397C65.7628 26.5397 65.7316 26.5397 65.7004 26.524C65.5598 26.4614 65.4504 26.2892 65.3567 26.0073C65.2942 25.7881 65.0912 25.0366 65.4504 24.3946C65.5598 24.2067 65.716 24.0815 65.919 24.0501C66.3877 23.9562 66.9031 24.3476 66.9656 24.3946C67.075 24.4729 67.0906 24.6138 67.0125 24.7234C66.9344 24.833 66.7938 24.8487 66.6845 24.7704C66.5751 24.6921 66.2315 24.4729 66.0128 24.5199C65.9659 24.5355 65.9034 24.5512 65.8566 24.6451C65.5442 25.2088 65.7941 25.9917 65.9034 26.1326C65.9972 26.1952 66.044 26.3205 65.9972 26.4301C65.9659 26.4771 65.8878 26.5397 65.7941 26.5397Z" fill="black"/>
<path d="M64.7474 43.0435C64.7474 43.0435 63.2478 49.1186 61.8263 50.8409C60.4048 52.5632 57.5462 54.5674 54.1878 54.8492C54.1878 54.8492 52.2821 54.7239 53.4848 58.1686C53.6723 58.7323 54.1722 59.1237 54.7657 59.1863C57.3432 59.4525 64.5443 59.6404 67.3248 53.988C70.7457 47.0518 64.7474 43.0435 64.7474 43.0435Z" fill="white"/>
<path d="M56.8433 59.5304C56.0154 59.5304 55.2969 59.4834 54.7345 59.4208C54.0628 59.3582 53.4849 58.8885 53.2662 58.2465C52.7507 56.759 52.7194 55.71 53.1881 55.0993C53.5473 54.6296 54.0784 54.614 54.1878 54.614C57.5306 54.3165 60.2955 52.328 61.6545 50.6996C63.0291 49.0399 64.5131 43.0587 64.5287 42.9961C64.5443 42.9178 64.6068 42.8552 64.6693 42.8395C64.7474 42.8082 64.8255 42.8239 64.888 42.8708C64.9504 42.9178 66.45 43.9199 67.5279 45.8145C68.5276 47.5681 69.3555 50.4334 67.5279 54.1129C65.2472 58.6849 60.233 59.5304 56.8433 59.5304ZM54.1409 55.0837C54.0784 55.0837 53.7504 55.0993 53.5317 55.3968C53.2818 55.7256 53.1256 56.4616 53.6879 58.1056C53.8441 58.5753 54.2815 58.9198 54.7658 58.9667C57.5775 59.2486 64.4037 59.3425 67.0905 53.8937C68.4651 51.091 68.4807 48.4606 67.1061 46.065C66.3407 44.7341 65.341 43.8416 64.8723 43.4658C64.5287 44.7967 63.2478 49.494 61.9825 51.0127C60.561 52.7194 57.6712 54.8019 54.1878 55.0993C54.1722 55.0837 54.1722 55.0837 54.1409 55.0837C54.1565 55.0837 54.1565 55.0837 54.1409 55.0837Z" fill="black"/>
<path d="M54.2661 55.8976C54.5629 56.336 55.5001 57.5103 54.391 58.2305C54.1099 58.4184 53.7975 58.4184 53.3445 58.6376C52.6728 58.9664 52.0479 59.671 51.4387 59.8746C49.8923 60.4069 48.1115 60.3286 47.0805 59.2639C46.0496 58.1992 48.9238 54.6763 50.9857 54.8642C53.032 55.0521 53.8287 55.2556 54.2661 55.8976Z" fill="white"/>
<path d="M49.611 60.4382C48.5176 60.4382 47.5491 60.0938 46.9243 59.4362C46.5494 59.0604 46.5494 58.4184 46.9086 57.6512C47.5491 56.3047 49.408 54.4884 51.0013 54.6293C53.0163 54.8015 53.938 54.9894 54.4534 55.7567L54.5159 55.8506C54.7815 56.2264 55.2501 56.9153 55.1251 57.5886C55.0626 57.933 54.8596 58.2149 54.5159 58.4341C54.3441 58.5437 54.1566 58.6063 53.9692 58.6533C53.813 58.7003 53.6412 58.7472 53.4381 58.8568C53.1413 58.9978 52.8445 59.2326 52.5633 59.4518C52.2041 59.7337 51.8604 59.9842 51.5167 60.1094C50.8607 60.3286 50.2202 60.4382 49.611 60.4382ZM50.8294 55.099C49.5798 55.099 47.9552 56.5395 47.3304 57.8548C47.0649 58.4184 47.0336 58.8725 47.2523 59.1074C48.1114 59.9998 49.736 60.219 51.3605 59.6554C51.6417 59.5614 51.9541 59.3266 52.2822 59.076C52.5946 58.8412 52.907 58.5907 53.235 58.4341C53.4693 58.3245 53.6568 58.2618 53.8286 58.2149C54.0004 58.1679 54.1254 58.1209 54.2504 58.0426C54.4847 57.8861 54.6253 57.7138 54.6565 57.5103C54.7502 57.0249 54.3441 56.4456 54.1254 56.1324L54.0629 56.0385C53.688 55.4905 53.0007 55.2869 50.9544 55.1147C50.9232 55.099 50.8763 55.099 50.8294 55.099Z" fill="black"/>
<path d="M54.1879 56.2889C54.3441 56.0071 54.2504 55.6939 54.0473 55.4591C53.5475 54.8797 52.5165 53.815 51.7823 53.8776C50.9232 53.9559 49.8297 54.911 50.1578 56.5394C50.3765 57.5728 51.3137 57.0718 51.4387 56.6647C51.5792 56.2263 51.7667 55.7409 52.001 55.9444C52.2353 56.148 53.6256 57.3223 54.1879 56.2889Z" fill="white"/>
<path d="M50.7201 57.3691C50.7045 57.3691 50.6889 57.3691 50.6889 57.3691C50.5014 57.3535 50.0797 57.2595 49.9235 56.5706C49.7204 55.5685 50.0328 54.8796 50.3296 54.4725C50.6889 53.9871 51.22 53.674 51.7667 53.627C52.5478 53.5644 53.5319 54.5038 54.2192 55.3023C54.516 55.6468 54.5784 56.0696 54.391 56.3984C54.2348 56.6959 54.0005 56.8681 53.7037 56.9151C53.032 57.0247 52.251 56.4453 51.8917 56.1322C51.8448 56.1948 51.7667 56.3514 51.6574 56.6959C51.5637 57.0247 51.1419 57.3691 50.7201 57.3691ZM51.8448 54.0967C51.8292 54.0967 51.8136 54.0967 51.798 54.0967C51.4074 54.128 50.9857 54.3786 50.7045 54.7543C50.4702 55.0675 50.2203 55.6312 50.3921 56.4767C50.4546 56.7585 50.5639 56.8994 50.7201 56.8994C50.9232 56.9151 51.1731 56.7115 51.22 56.5706C51.4074 55.9756 51.5637 55.7094 51.798 55.6468C51.9229 55.6155 52.0479 55.6468 52.1572 55.7408C52.5946 56.1322 53.2194 56.5393 53.6256 56.461C53.7818 56.4297 53.8911 56.3357 53.9849 56.1792C54.0942 55.9756 54.0005 55.7564 53.8755 55.6155C53.0476 54.6604 52.2978 54.0967 51.8448 54.0967Z" fill="black"/>
<path d="M75.7756 32.208C75.7756 32.208 76.5879 34.5097 78.1656 35.8562C79.7432 37.2027 82.1488 37.281 83.5391 40.6004C85.9759 46.3937 84.7263 59.9218 82.4613 66.2317C82.0083 67.5 82.2582 70.4436 82.2582 70.4436L64.1382 70.1931C64.1382 70.1931 66.1689 58.4656 64.7318 51.2632C64.1382 48.2726 62.8104 43.3405 66.1689 38.9094C66.9343 37.9073 67.6685 36.8739 68.3558 35.8092L69.0899 34.6349C69.2461 34.6662 69.4336 34.7132 69.621 34.7445C71.6361 35.089 73.698 34.3844 75.1039 32.8969L75.7756 32.208Z" fill="white"/>
<path d="M82.2738 70.6782L64.1382 70.4277C64.0757 70.4277 63.9976 70.3964 63.9664 70.3494C63.9195 70.3024 63.9039 70.2241 63.9195 70.1615C63.9352 70.0519 65.9346 58.4027 64.5131 51.3256C64.4663 51.122 64.435 50.9185 64.3882 50.7149C63.7477 47.646 62.7948 43.0114 65.9815 38.7839C66.9031 37.5626 67.5748 36.6232 68.1527 35.6994L68.8869 34.5251C68.9338 34.4468 69.0431 34.3998 69.1368 34.4155C69.293 34.4468 69.4805 34.4938 69.6523 34.5251C71.5893 34.8539 73.5575 34.1963 74.9165 32.7558L75.5882 32.0512C75.6506 31.9886 75.7288 31.9729 75.8069 31.9886C75.885 32.0042 75.9474 32.0668 75.9787 32.1451C75.9943 32.1608 76.791 34.3998 78.3062 35.6837C78.7748 36.0752 79.3215 36.3727 79.9151 36.6701C81.2428 37.3591 82.7581 38.1419 83.7578 40.5219C84.8825 43.215 85.3198 47.7243 85.0074 53.2514C84.7106 58.1522 83.8359 63.1626 82.6956 66.3254C82.2582 67.5311 82.5081 70.412 82.5081 70.4433C82.5081 70.506 82.4925 70.5686 82.4456 70.6312C82.3988 70.6626 82.3363 70.6782 82.2738 70.6782ZM64.4194 69.9736L82.0239 70.2085C81.977 69.4569 81.8677 67.2492 82.2582 66.1532C84.3826 60.219 85.8197 46.6126 83.336 40.6941C82.3988 38.4708 81.0398 37.7662 79.712 37.0772C79.1028 36.7641 78.5249 36.4666 78.025 36.0282C76.7753 34.9635 75.9943 33.3508 75.6975 32.6305L75.2914 33.0689C73.823 34.6347 71.683 35.3549 69.6055 34.9791C69.4805 34.9635 69.3399 34.9322 69.2149 34.9008L68.5589 35.9342C67.9653 36.858 67.2936 37.8288 66.3564 39.0501C63.2947 43.1054 64.2163 47.6147 64.8412 50.6053C64.888 50.8245 64.9349 51.0281 64.9661 51.216C66.2783 57.7921 64.7162 68.173 64.4194 69.9736Z" fill="black"/>
<path d="M90.5372 70.0832C90.5372 70.0832 90.6622 70.9443 91.2714 71.7272C91.8806 72.5101 92.6617 74.2167 92.3961 75.4223C92.193 76.3148 90.9746 77.6614 89.5375 78.3503C89.3345 78.4442 89.0689 78.4129 88.9283 78.2407C88.8033 78.0998 88.7409 77.8806 88.9127 77.5518C89.2095 76.9255 89.6 76.9568 89.7875 76.5027C90.0218 75.939 89.8812 74.0288 89.1001 74.1071C88.3816 74.1854 89.1001 75.5476 88.8815 76.0956C88.7096 76.534 88.2723 76.7376 87.8505 76.5497C87.2413 76.2835 87.3038 73.2616 87.5849 72.3222C87.8661 71.3827 88.3503 69.77 88.3503 69.77L90.5372 70.0832Z" fill="white"/>
<path d="M89.3031 78.6479C89.1 78.6479 88.8969 78.5696 88.7563 78.413C88.6001 78.2408 88.4752 77.9433 88.6939 77.4579C88.8657 77.0821 89.1 76.9099 89.2718 76.769C89.4124 76.6594 89.5061 76.5811 89.5686 76.4245C89.7248 76.0487 89.678 74.9214 89.3499 74.483C89.2562 74.3577 89.1781 74.342 89.1156 74.342C89.0531 74.342 89.0375 74.3734 89.0375 74.3734C88.9594 74.483 89.0219 74.8744 89.0688 75.1562C89.1312 75.5477 89.1937 75.9078 89.0844 76.1896C88.975 76.4715 88.772 76.675 88.522 76.7846C88.2721 76.8786 88.0065 76.8786 87.7566 76.769C86.8975 76.3932 87.1318 73.0112 87.3661 72.2596C87.6473 71.3358 88.1315 69.7074 88.1315 69.7074L88.194 69.5195L90.7714 69.8797L90.8026 70.0519C90.8026 70.0675 90.9276 70.8817 91.49 71.5863C92.146 72.4318 92.9427 74.2011 92.6459 75.485C92.4116 76.5184 91.0682 77.8963 89.6623 78.5696C89.5374 78.6165 89.4124 78.6479 89.3031 78.6479ZM89.1469 73.8723C89.3187 73.8723 89.5374 73.9349 89.7404 74.2011C90.1778 74.7805 90.2091 76.1113 90.006 76.5967C89.8966 76.8629 89.7248 77.0038 89.5686 77.1291C89.4124 77.2543 89.2562 77.3796 89.1312 77.6614C88.9906 77.9589 89.0844 78.0685 89.1156 78.0998C89.1937 78.1781 89.3343 78.2094 89.4593 78.1468C90.8651 77.4892 92.0054 76.1896 92.1773 75.3911C92.4272 74.2794 91.693 72.6354 91.0994 71.8838C90.6152 71.2575 90.4278 70.5999 90.3496 70.3024L88.522 70.0362C88.3814 70.4903 88.0378 71.6646 87.8191 72.4005C87.4911 73.4809 87.5848 76.174 87.9597 76.3462C88.1003 76.4088 88.2409 76.4088 88.3658 76.3619C88.5064 76.2992 88.6158 76.1896 88.6782 76.0331C88.7407 75.8765 88.6782 75.5477 88.6314 75.2502C88.5533 74.7961 88.4752 74.3734 88.6939 74.1072C88.7563 74.0289 88.8813 73.9193 89.1 73.888C89.1 73.8723 89.1156 73.8723 89.1469 73.8723Z" fill="black"/>
<path d="M78.0718 38.3298C77.2127 38.8935 76.5879 39.7233 76.3223 40.7097C75.8537 42.4008 75.8068 45.1408 78.6498 47.9905C83.3048 52.6564 86.6632 54.2378 86.9757 70.4433L91.615 70.4903C91.615 70.4903 93.0365 59.8902 91.1776 54.6293C89.5062 49.9164 84.4139 39.5041 80.1338 38.0636C79.4308 37.8288 78.6654 37.9384 78.0718 38.3298Z" fill="white"/>
<path d="M91.5995 70.7248L86.9601 70.6778C86.8352 70.6778 86.7258 70.5682 86.7258 70.443C86.4759 57.0089 84.1484 53.7365 80.6338 50.2605C80.54 50.1665 80.54 50.0256 80.6338 49.9317C80.7275 49.8377 80.8681 49.8377 80.9618 49.9317C84.5389 53.4546 86.9133 56.7897 87.1944 70.2081L91.3964 70.2551C91.5838 68.752 92.6304 59.4514 90.9434 54.7229C89.8031 51.4974 86.9601 45.3127 83.836 41.461C83.5705 41.1322 83.3518 40.7877 83.1956 40.4119L83.1174 40.2397C83.0706 40.1144 83.1175 39.9892 83.2424 39.9266C83.3674 39.8796 83.4924 39.9266 83.5548 40.0518L83.6329 40.224C83.7891 40.5685 83.9766 40.8817 84.2109 41.1635C87.3663 45.0622 90.2405 51.3095 91.3964 54.5663C93.2709 59.8116 91.9119 70.0985 91.8494 70.5369C91.8182 70.6309 91.7088 70.7248 91.5995 70.7248Z" fill="black"/>
<path d="M79.6028 49.1649C79.5403 49.1649 79.4778 49.1492 79.4466 49.1023C79.1654 48.8361 78.8218 48.5073 78.4781 48.1628C75.5883 45.2662 75.5883 42.4791 76.0882 40.6629C76.2912 39.927 76.6817 39.2537 77.2285 38.7213C77.3222 38.6274 77.4628 38.6274 77.5565 38.7213C77.6502 38.8153 77.6502 38.9562 77.5565 39.0501C77.0723 39.5355 76.713 40.1305 76.5412 40.7881C76.0725 42.4948 76.0725 45.1096 78.8061 47.834C79.1498 48.1785 79.4778 48.5073 79.759 48.7734C79.8527 48.8674 79.8527 49.0083 79.759 49.1023C79.7121 49.1336 79.6653 49.1649 79.6028 49.1649Z" fill="black"/>
<path d="M33.2247 116.569C33.2247 116.569 32.3968 119.904 33.3496 121.454L33.6152 122.096L28.1479 120.875L28.5228 120.311C29.1789 119.309 29.5694 118.198 29.6632 117.055L33.2247 116.569Z" fill="white"/>
<path d="M34.0215 122.425L27.7888 121.032L28.3355 120.186C28.9604 119.231 29.3509 118.135 29.4446 117.039L29.4602 116.851L33.5529 116.288L33.4748 116.616C33.4591 116.648 32.6937 119.873 33.5685 121.314L33.5841 121.345L34.0215 122.425ZM28.5386 120.719L33.2248 121.768L33.1311 121.564C32.3188 120.233 32.725 117.759 32.9124 116.851L29.8664 117.274C29.7414 118.386 29.3353 119.482 28.7104 120.452L28.5386 120.719Z" fill="black"/>
<path d="M33.6468 119.591L34.131 120.295C35.0995 121.689 36.3804 122.832 37.88 123.615L39.0359 124.225C39.1453 124.288 39.2234 124.398 39.239 124.507V124.57C39.3171 125.259 38.3486 126.715 35.8337 126.934C34.2716 127.075 30.6789 126.84 26.5862 124.664C26.3207 124.523 26.1957 124.241 26.2426 123.944C26.4456 122.894 27.0236 120.405 28.1327 119.278C28.2576 119.152 28.4607 119.152 28.5701 119.293L29.6479 120.593C30.1321 121.172 31.0069 121.266 31.5849 120.765L33.0688 119.512C33.2563 119.372 33.5218 119.403 33.6468 119.591Z" fill="white"/>
<path d="M35.0682 127.201C33.5686 127.201 30.3195 126.919 26.4768 124.868C26.1176 124.68 25.9457 124.288 26.0082 123.897C26.2113 122.848 26.8049 120.28 27.9608 119.106C28.0701 118.996 28.2107 118.934 28.3669 118.949C28.5075 118.949 28.6481 119.027 28.7418 119.137L29.8197 120.437C30.0071 120.671 30.2883 120.812 30.5851 120.844C30.8819 120.875 31.1787 120.781 31.413 120.578L32.8969 119.325C33.0375 119.215 33.2093 119.168 33.3812 119.184C33.553 119.215 33.7092 119.309 33.8185 119.45L34.3028 120.155C35.24 121.517 36.5053 122.629 37.958 123.396L39.114 124.007C39.2858 124.1 39.4107 124.273 39.442 124.476V124.539C39.4889 124.899 39.317 125.337 38.989 125.729C38.6141 126.199 37.7081 126.997 35.818 127.154C35.7087 127.169 35.4431 127.201 35.0682 127.201ZM28.3513 119.403C28.3357 119.403 28.3201 119.403 28.3045 119.419C27.2422 120.515 26.6799 122.973 26.4768 123.975C26.4456 124.163 26.5237 124.351 26.6955 124.445C31.3661 126.934 35.0994 126.747 35.8024 126.7C37.5206 126.543 38.3329 125.854 38.661 125.447C38.9421 125.103 39.0202 124.774 39.0046 124.602V124.539C39.0046 124.492 38.9734 124.461 38.9265 124.429L37.7706 123.819C36.2398 123.02 34.9276 121.846 33.9435 120.421L33.4593 119.716C33.428 119.669 33.3812 119.654 33.3499 119.654C33.3187 119.654 33.2718 119.654 33.225 119.685L31.741 120.938C31.413 121.219 30.9912 121.345 30.5695 121.313C30.1477 121.282 29.7572 121.063 29.476 120.734L28.3982 119.435C28.3826 119.419 28.3669 119.419 28.3513 119.403Z" fill="black"/>
<path d="M32.725 124.774C32.7094 124.774 32.6782 124.774 32.6626 124.774C30.8193 124.57 29.0698 123.991 27.4609 123.067L26.5705 122.55C26.4612 122.488 26.4143 122.347 26.4924 122.237C26.5549 122.128 26.6955 122.081 26.8048 122.159L27.6952 122.676C29.2416 123.568 30.9287 124.132 32.7094 124.32C32.7719 124.32 32.8031 124.288 32.8344 124.273C32.85 124.257 32.8813 124.21 32.8656 124.147L32.7563 123.646C32.7094 123.427 32.7875 123.208 32.975 123.083C33.1624 122.958 33.3967 122.942 33.5842 123.051L34.0372 123.318C35.3025 124.069 36.8489 124.273 38.2704 123.881L38.5516 123.803C38.6765 123.772 38.8015 123.834 38.8327 123.96C38.864 124.085 38.8015 124.21 38.6765 124.241L38.3954 124.32C36.8489 124.758 35.1775 124.539 33.8029 123.709L33.3499 123.443C33.303 123.412 33.2718 123.427 33.2561 123.443C33.2405 123.459 33.2093 123.49 33.2249 123.537L33.3343 124.038C33.3811 124.226 33.3186 124.429 33.1937 124.57C33.0531 124.711 32.8969 124.774 32.725 124.774Z" fill="black"/>
<path d="M13.0902 104.216C13.0902 104.216 10.4034 106.596 10.1847 108.475L9.99729 109.179L6.38892 104.263L7.06061 104.138C8.16967 103.668 9.27874 103.48 10.0598 102.556L13.0902 104.216Z" fill="white"/>
<path d="M10.0909 109.712L5.96704 104.091L6.98238 103.903C7.26356 103.793 7.52911 103.684 7.79466 103.59C8.59131 103.308 9.32549 103.042 9.87221 102.384L9.99717 102.243L13.4806 104.153L13.2307 104.373C13.1994 104.388 10.6064 106.721 10.4033 108.491V108.522L10.0909 109.712ZM6.79494 104.42L9.88783 108.647L9.95031 108.428C10.1534 106.815 12.0122 104.905 12.6839 104.263L10.1065 102.854C9.49731 103.496 8.74752 103.762 7.95087 104.059C7.68532 104.153 7.40414 104.247 7.13859 104.373L7.09173 104.388L6.79494 104.42Z" fill="black"/>
<path d="M11.1217 107.707L10.8717 108.568C10.3875 110.275 10.325 112.06 10.6843 113.782L10.9655 115.113C10.9967 115.239 10.9498 115.364 10.8717 115.458L10.8249 115.505C10.325 116.037 8.51302 116.209 6.66978 114.315C5.52947 113.14 3.34257 110.103 2.37409 105.359C2.31161 105.061 2.4522 104.748 2.71775 104.607C3.70185 104.075 6.07619 102.885 7.73199 103.026C7.91944 103.041 8.0444 103.214 8.01316 103.386L7.68513 105.124C7.52892 105.907 8.0444 106.658 8.82544 106.799L10.8093 107.175C11.0436 107.238 11.1998 107.472 11.1217 107.707Z" fill="white"/>
<path d="M9.7315 116.1C9.10668 116.1 7.87264 115.881 6.49802 114.487C5.96692 113.939 3.26454 110.964 2.13985 105.406C2.06175 104.999 2.2492 104.592 2.60847 104.404C3.57696 103.871 6.0294 102.65 7.74768 102.807C7.90388 102.822 8.04447 102.901 8.13819 103.026C8.23192 103.151 8.26316 103.308 8.23192 103.449L7.90388 105.187C7.8414 105.5 7.90388 105.829 8.09133 106.095C8.27878 106.361 8.54433 106.533 8.85675 106.596L10.8406 106.972C11.0124 107.003 11.1686 107.113 11.2623 107.269C11.3561 107.426 11.3873 107.614 11.3404 107.786L11.0905 108.647C10.6219 110.307 10.5594 112.076 10.9031 113.751L11.1842 115.082C11.2311 115.286 11.1686 115.489 11.028 115.646L10.9812 115.693C10.7312 115.943 10.2782 116.1 9.7315 116.1C9.74712 116.1 9.7315 116.1 9.7315 116.1ZM7.43526 103.261C5.85758 103.261 3.71754 104.341 2.82716 104.827C2.65534 104.92 2.56161 105.124 2.59285 105.328C3.6863 110.761 6.31058 113.642 6.82606 114.174C8.07571 115.458 9.16916 115.646 9.7315 115.646C9.7315 115.646 9.7315 115.646 9.74713 115.646C10.2314 115.646 10.5282 115.505 10.6687 115.364L10.7156 115.317C10.7468 115.286 10.7625 115.223 10.7625 115.176L10.4657 113.83C10.0908 112.076 10.1689 110.228 10.6531 108.49L10.9031 107.629C10.9187 107.582 10.9031 107.535 10.8874 107.488C10.8562 107.441 10.825 107.426 10.7781 107.41L8.79426 107.034C8.35688 106.956 7.98199 106.705 7.71644 106.33C7.46651 105.954 7.37278 105.515 7.45088 105.077L7.77892 103.339C7.77892 103.308 7.77892 103.292 7.7633 103.292C7.74768 103.276 7.73206 103.261 7.70082 103.261C7.62271 103.261 7.52899 103.261 7.43526 103.261Z" fill="black"/>
<path d="M10.8404 114.847C10.7936 114.847 10.7467 114.832 10.6999 114.8L10.4499 114.628C9.0753 113.673 8.15368 112.186 7.90375 110.526L7.82565 109.994C7.81002 109.931 7.77878 109.915 7.74754 109.915C7.7163 109.915 7.68506 109.9 7.6382 109.947L7.31016 110.369C7.1852 110.526 6.99775 110.62 6.79468 110.604C6.59161 110.589 6.40416 110.495 6.29482 110.322C5.23261 108.694 4.5453 106.909 4.23289 104.999L4.06106 103.934C4.04544 103.809 4.12355 103.684 4.24851 103.668C4.37348 103.652 4.49844 103.731 4.51406 103.856L4.68589 104.921C4.98268 106.768 5.65437 108.491 6.68534 110.056C6.71658 110.119 6.77906 110.119 6.8103 110.119C6.82592 110.119 6.88841 110.119 6.93527 110.056L7.2633 109.634C7.40389 109.446 7.6382 109.383 7.85689 109.43C8.07558 109.493 8.23178 109.665 8.27865 109.9L8.35675 110.432C8.59106 111.951 9.4502 113.329 10.7155 114.221L10.9654 114.393C11.0747 114.472 11.0904 114.613 11.0279 114.722C10.9966 114.816 10.9185 114.847 10.8404 114.847Z" fill="black"/>
<path d="M24.04 62.2069L40.9104 61.7998C40.9104 61.7998 47.2367 83.2506 41.129 100.364C37.4582 110.667 34.9433 115.646 34.0373 117.29C33.8342 117.666 33.4124 117.885 32.9751 117.838L29.8822 117.478C29.273 117.415 28.8512 116.852 28.9449 116.257C29.7884 110.636 31.4286 94.1482 32.8657 85.8028C32.8657 85.7871 32.8501 85.7871 32.8501 85.8028C32.4283 87.2589 28.2576 100.568 11.9028 106.862C11.5903 106.987 11.2311 106.878 11.0436 106.612L9.1379 104.028C8.95045 103.778 8.93483 103.433 9.12228 103.167C11.4654 99.691 27.7734 78.4907 24.04 62.2069Z" fill="black"/>
<path d="M31.9598 89.4666C31.9442 89.4666 31.9129 89.4666 31.8973 89.451C31.7724 89.4197 31.7099 89.2787 31.7411 89.1535C31.8348 88.8247 31.9286 88.4959 32.0223 88.1827C33.3032 83.7986 34.4123 80.0095 37.0209 78.2715C37.1303 78.1932 37.2708 78.2245 37.3489 78.3341C37.4271 78.4437 37.3958 78.5847 37.2865 78.663C34.8184 80.307 33.7718 83.8299 32.4753 88.308C32.3816 88.6368 32.2878 88.9499 32.1941 89.2787C32.1629 89.404 32.0692 89.4666 31.9598 89.4666Z" fill="white"/>
<path d="M40.8326 56.7585C41.4574 50.2919 43.4725 48.8045 41.7698 46.2523C41.4418 45.7669 40.5514 45.2189 40.3952 45.125C39.9735 44.9057 38.8644 44.9527 38.8644 44.9527L38.8488 44.9371C37.9271 41.602 36.5838 38.7524 35.6621 37.8599C34.2875 36.5133 31.2571 34.5405 25.1182 35.0885C25.1182 35.0885 21.8691 36.6699 20.7756 40.0206C19.6978 43.293 21.7597 51.8107 22.4939 59.295C22.4939 59.295 22.6501 61.3461 23.2749 62.7396C23.4936 63.2094 22.4158 63.726 22.0722 64.1018C21.4005 64.8377 20.4788 66.3722 21.8847 68.4546C25.1026 73.2301 35.1779 63.9766 38.5051 63.773C40.6764 63.6478 41.5043 64.3837 41.723 65.0569C41.723 65.0569 44.4722 64.6655 42.1603 58.9035C41.9417 58.3712 41.6292 57.8858 41.2387 57.4631C41.2231 57.4474 41.2075 57.4317 41.1919 57.4004C41.0825 57.2908 40.9732 57.0716 40.8326 56.7585Z" fill="#FFE300" stroke="black" stroke-width="0.5" stroke-miterlimit="10"/>
<path d="M34.5843 39.3943C34.5843 39.3943 37.2242 40.3807 38.9893 41.8212C40.7545 43.2617 41.598 45.8608 41.8011 46.3618C42.3165 47.5988 41.0357 47.8493 41.0357 47.8493C40.3015 48.0215 40.0359 47.5518 39.911 47.2856C39.911 47.2856 39.1143 43.9506 36.0526 44.1072C36.0526 44.1072 35.3341 44.1698 35.3341 43.5748C35.3341 43.246 35.8183 43.2617 36.1932 43.2147C36.3651 43.199 36.3963 42.9642 36.2401 42.9015C35.7558 42.698 35.1623 42.4005 34.8186 41.9934C33.897 40.9757 33.2878 39.316 34.5843 39.3943Z" fill="white"/>
<path d="M40.7388 48.1468C40.2858 48.1468 39.9422 47.8963 39.7079 47.4109C39.7079 47.3952 39.6923 47.3796 39.6923 47.3639C39.661 47.2387 38.8956 44.2168 36.0839 44.3733C36.0526 44.3733 35.6309 44.4047 35.3497 44.1541C35.2091 44.0132 35.131 43.8253 35.131 43.6061C35.131 43.1521 35.5684 43.0738 35.912 43.0425C35.3497 42.7919 34.9279 42.4944 34.6624 42.1813C33.9594 41.3671 33.3971 40.2241 33.7095 39.5822C33.8189 39.3786 34.0532 39.1281 34.5999 39.1594C34.6155 39.1594 34.6468 39.1594 34.6624 39.1751C34.7717 39.222 37.3648 40.1928 39.1455 41.6489C40.7857 42.9798 41.6292 45.2345 41.9416 46.08C41.9729 46.174 42.0041 46.2366 42.0197 46.2992C42.2072 46.7376 42.2072 47.1291 42.0354 47.4579C41.7542 47.9746 41.1137 48.0998 41.0825 48.1155C40.9575 48.1311 40.8482 48.1468 40.7388 48.1468ZM40.1296 47.223C40.2702 47.5205 40.4733 47.7554 40.9731 47.6301C40.9888 47.6301 41.4418 47.5362 41.6136 47.2073C41.7229 47.0195 41.7073 46.7689 41.5824 46.4558C41.5667 46.4088 41.5355 46.3305 41.4886 46.2366C41.1762 45.4224 40.3639 43.2617 38.8331 42.0091C37.2242 40.6938 34.8342 39.7387 34.5218 39.6291C34.1938 39.6135 34.1313 39.7387 34.1157 39.7857C33.9438 40.1458 34.35 41.1166 34.9904 41.8681C35.256 42.1656 35.7246 42.4631 36.3338 42.7136C36.5056 42.7763 36.5993 42.9485 36.5681 43.1364C36.5369 43.3243 36.4119 43.4496 36.2244 43.4809C36.162 43.4809 36.0995 43.4965 36.037 43.4965C35.8964 43.5122 35.6152 43.5278 35.5684 43.5905C35.5684 43.7157 35.6152 43.7784 35.6465 43.8097C35.7558 43.9036 35.9745 43.9193 36.037 43.9036C39.0987 43.7314 40.0515 46.8942 40.1296 47.223Z" fill="black"/>
<path d="M43.8472 53.6112C44.1284 53.5955 44.4096 53.5329 44.6907 53.439C45.3624 53.2041 46.6746 52.844 47.5493 53.2667C48.7521 53.8304 50.611 54.7855 51.72 56.3043C52.8291 57.8231 51.2827 59.4828 49.9549 59.1539C48.6115 58.8251 45.7373 56.1634 45.503 55.9285C45.3468 55.7719 43.9878 55.9128 43.113 56.0224C42.6913 56.0694 42.1289 55.6936 42.1602 55.2709C42.207 54.5037 42.332 53.7364 43.8472 53.6112Z" fill="white"/>
<path d="M50.2987 59.4203C50.1581 59.4203 50.0331 59.4047 49.8925 59.3734C48.4711 59.0289 45.6281 56.3671 45.3469 56.1166C45.2688 56.101 44.8783 56.0383 43.1288 56.2419C42.8164 56.2732 42.4415 56.1479 42.1915 55.8974C41.9885 55.7095 41.8947 55.459 41.9104 55.2241C41.9728 54.3943 42.1915 53.5018 43.8473 53.3765C44.1129 53.3609 44.3784 53.2983 44.6284 53.22C45.3625 52.9695 46.7215 52.6093 47.6588 53.0477C49.174 53.768 50.861 54.6918 51.9232 56.1479C52.4543 56.8838 52.4856 57.745 52.0013 58.4652C51.5952 59.0602 50.9391 59.4203 50.2987 59.4203ZM45.0033 55.6156C45.5187 55.6156 45.5968 55.6939 45.6593 55.7565C46.003 56.101 48.7835 58.6218 50.0019 58.9193C50.5799 59.0602 51.2359 58.7784 51.5952 58.2147C51.9701 57.6667 51.9389 57.0091 51.5171 56.4298C50.5174 55.0519 48.8928 54.1594 47.4401 53.4705C46.6278 53.0791 45.3001 53.4705 44.769 53.6584C44.4878 53.7523 44.1754 53.815 43.863 53.8463C42.4727 53.9559 42.4102 54.6291 42.3634 55.2711C42.3477 55.3964 42.4415 55.506 42.504 55.5686C42.6602 55.7095 42.8789 55.8035 43.0663 55.7721C44.0348 55.6469 44.6284 55.6156 45.0033 55.6156ZM45.3157 56.0853C45.3157 56.0853 45.3313 56.0853 45.3157 56.0853V56.0853Z" fill="black"/>
<path d="M39.6767 57.6511C40.1765 57.5259 41.9573 57.1188 42.2541 56.9935C42.8633 56.743 43.1288 56.4611 43.3319 55.8192C43.7068 54.6449 43.7224 53.909 43.6287 53.4862C43.5506 53.1261 43.2382 52.8599 42.8789 52.8443C41.1763 52.7347 33.2878 52.2962 32.3506 51.3725C31.2884 50.3077 31.2884 48.695 29.8356 44.1074C28.3985 39.5041 26.3678 38.2202 26.3678 38.2202C26.3678 38.2202 22.3377 35.1356 21.9941 40.8976C21.9941 40.8976 21.8066 45.814 24.7745 51.8578C26.7427 55.8505 29.8356 59.9528 39.6767 57.6511Z" fill="#FFE300"/>
<path d="M34.5063 58.5594C28.7266 58.5594 26.2742 55.4593 24.5559 51.952C23.4312 49.6503 22.619 47.2391 22.1503 44.7965C22.1191 44.6713 22.2128 44.546 22.3378 44.5147C22.4628 44.499 22.5877 44.5773 22.619 44.7026C23.072 47.0982 23.8686 49.4624 24.9777 51.7328C27.024 55.8977 30.1481 59.4832 39.1456 57.526C39.2706 57.4947 39.3956 57.573 39.4268 57.6983C39.458 57.8235 39.3799 57.9488 39.255 57.9801C37.4586 58.3872 35.8965 58.5594 34.5063 58.5594Z" fill="black"/>
<path d="M41.6763 52.7657H41.6607C41.2545 52.7344 40.8015 52.7031 40.3017 52.6718C36.2403 52.4212 32.835 52.1551 32.1945 51.5131C31.4604 50.7772 31.2104 49.8378 30.7106 47.9745C30.445 46.9881 30.1326 45.7512 29.6171 44.1541C28.2269 39.7074 26.2587 38.4078 26.2431 38.3921L26.2274 38.3765C26.2274 38.3765 25.6182 37.9067 24.8841 37.7032C24.7591 37.6719 24.681 37.531 24.7279 37.4057C24.7591 37.2804 24.8997 37.2022 25.0246 37.2491C25.8057 37.4683 26.4305 37.9381 26.5242 38.0007C26.6961 38.1103 28.6643 39.4882 30.0858 43.9975C30.5856 45.6102 30.9136 46.8472 31.1792 47.8493C31.6478 49.6342 31.8821 50.5267 32.5382 51.1843C33.1005 51.748 37.6305 52.0298 40.3485 52.202C40.8328 52.2334 41.3014 52.2647 41.7075 52.296C41.8325 52.3116 41.9418 52.4212 41.9262 52.5465C41.895 52.6718 41.8013 52.7657 41.6763 52.7657Z" fill="black"/>
<path d="M36.5994 50.4798C36.5213 50.4798 36.4432 50.4329 36.3963 50.3702C36.3339 50.2606 36.3651 50.1197 36.4745 50.0414C36.4901 50.0414 37.5054 49.3838 37.6772 48.1312C37.8335 47.0352 36.8806 45.8609 36.865 45.8609C36.7869 45.7669 36.8025 45.6103 36.8962 45.5321C36.9899 45.4538 37.1461 45.4694 37.2242 45.5634C37.2711 45.6103 38.3333 46.8943 38.1459 48.2095C37.9272 49.697 36.7712 50.4329 36.7244 50.4642C36.6931 50.4642 36.6463 50.4798 36.5994 50.4798Z" fill="black"/>
<path d="M22.7438 63.5224C22.6813 63.5224 22.6032 63.4911 22.5564 63.4441C22.4783 63.3502 22.4939 63.1936 22.5876 63.1153C22.6813 63.037 24.837 61.2364 27.0863 60.4692C27.2113 60.4222 27.3363 60.4849 27.3831 60.6101C27.43 60.7354 27.3675 60.8606 27.2426 60.9076C25.0713 61.6592 22.9156 63.4598 22.8844 63.4754C22.8531 63.5068 22.7907 63.5224 22.7438 63.5224Z" fill="black"/>
<path d="M36.7398 27.3847C36.7398 27.3847 38.833 27.4317 38.5206 23.5643C38.1301 18.6478 33.2564 19.9944 31.6006 19.4933C29.9448 19.008 28.6483 17.1604 28.1172 16.0017C26.6489 12.7919 17.9482 9.31597 14.8084 13.3556C14.6678 13.5435 14.5741 13.7627 14.4335 13.9349C13.9961 14.4829 13.3869 15.1875 9.10685 13.7157C5.32664 12.4162 -1.45273 14.342 0.281162 19.4464C0.781024 20.9182 1.84323 22.1551 3.23347 22.938C3.4834 23.0789 3.76457 23.2198 4.06137 23.3607C4.93612 23.7678 5.6703 24.5507 5.6703 25.4745C5.70154 30.391 8.10712 35.2604 19.3071 29.702C20.1038 29.3106 21.0723 29.4828 21.8533 29.9212C22.8062 30.4692 23.7747 33.2406 28.6015 32.5517C31.5538 32.1289 33.0065 30.1248 33.9906 28.8565C35.1309 27.3847 36.7398 27.3847 36.7398 27.3847Z" fill="black"/>
<path d="M32.0069 25.0988C32.1475 25.2084 32.4443 25.271 32.6318 25.224C33.9127 24.8169 33.9908 24.175 34.5843 23.6896C36.4432 22.1395 37.9272 23.58 38.1146 24.6604C38.2864 25.5998 37.9272 26.1165 38.7394 27.4161C38.8176 27.5413 38.7082 27.7136 38.5832 27.7762L37.8959 28.2146C37.7553 28.2929 37.5991 28.6217 37.5523 28.7783C37.4273 29.2793 37.2242 30.3597 37.0368 30.4693C36.6619 30.6885 34.9905 30.3597 34.9905 30.3597L33.0067 34.8847C32.6474 35.7146 32.8192 36.4192 33.0223 36.8419C33.1472 37.1081 32.9598 37.4056 32.6786 37.4056C32.1319 37.4212 31.1166 37.3273 29.1796 36.9202C26.6178 36.3878 25.29 35.2605 25.29 35.2605C25.29 35.2605 30.5386 34.6342 31.5852 28.3242C31.6008 28.199 31.5852 28.058 31.4915 27.9641C31.1322 27.604 30.1793 26.5549 30.4917 25.6781C30.7885 24.77 31.5227 24.723 32.0069 25.0988Z" fill="white"/>
<path d="M32.5849 37.6718C31.8507 37.6718 30.6792 37.5152 29.1171 37.1864C26.5241 36.654 25.1807 35.5267 25.1182 35.4797C25.0401 35.4171 25.0245 35.3231 25.0401 35.2292C25.0714 35.1353 25.1495 35.0726 25.2432 35.057C25.4462 35.0257 30.3355 34.368 31.3352 28.3242C31.3352 28.2929 31.3509 28.2146 31.304 28.1677C30.7573 27.6353 29.9138 26.5863 30.2418 25.6312C30.4605 24.9892 30.8354 24.7543 31.1166 24.676C31.4602 24.5821 31.8351 24.6604 32.1475 24.9109C32.2256 24.9735 32.4599 25.0205 32.5537 24.9892C33.3659 24.7387 33.6471 24.3786 33.9283 24.0184C34.0689 23.8462 34.2094 23.6583 34.4125 23.4861C35.4591 22.6249 36.3182 22.6719 36.865 22.8754C37.7085 23.1886 38.2083 23.9871 38.3177 24.5978C38.3802 24.9109 38.3802 25.1771 38.3802 25.4276C38.3802 25.96 38.3958 26.4297 38.9113 27.2752C38.9738 27.3691 38.9894 27.4944 38.9581 27.604C38.9269 27.7449 38.8175 27.8858 38.677 27.9641L38.0053 28.4025C37.9428 28.4495 37.8022 28.6687 37.771 28.8253C37.7553 28.9036 37.7397 28.9975 37.7085 29.0915C37.4898 30.0935 37.3648 30.5319 37.1461 30.6572C36.7712 30.8764 35.6622 30.7198 35.1154 30.6102L33.1941 34.963C32.8661 35.7146 33.0223 36.3409 33.2097 36.7323C33.3034 36.9359 33.2878 37.1551 33.1785 37.343C33.0691 37.5309 32.8661 37.6405 32.663 37.6405C32.6474 37.6718 32.6161 37.6718 32.5849 37.6718ZM25.8368 35.4171C26.3991 35.7772 27.5394 36.3879 29.2108 36.7323C31.2103 37.1394 32.1944 37.2177 32.663 37.202C32.7411 37.202 32.7723 37.1551 32.788 37.1238C32.8036 37.1081 32.8348 37.0455 32.8036 36.9672C32.5849 36.4818 32.3974 35.7146 32.788 34.8064L34.7718 30.2814C34.8187 30.1875 34.928 30.1249 35.0373 30.1405C35.7871 30.2971 36.6931 30.3754 36.9118 30.2814C37.0212 30.1249 37.193 29.342 37.2711 28.9975C37.2867 28.9036 37.318 28.8096 37.3336 28.7313C37.3804 28.5434 37.5523 28.152 37.7866 28.0111L38.4583 27.5727C38.4895 27.557 38.5208 27.5257 38.5208 27.5101C37.9428 26.5706 37.9272 25.9913 37.9272 25.4433C37.9272 25.1927 37.9272 24.9735 37.8803 24.6917C37.7866 24.1907 37.3648 23.5644 36.7244 23.3295C36.1152 23.1103 35.4279 23.2982 34.7249 23.8619C34.5531 24.0028 34.4281 24.1593 34.3032 24.3159C33.9908 24.7074 33.6471 25.1301 32.6942 25.4433C32.4599 25.5215 32.0694 25.4433 31.8663 25.271C31.6789 25.1145 31.4446 25.0675 31.2571 25.1145C31.0228 25.1771 30.8198 25.4119 30.6948 25.7721C30.4449 26.508 31.2728 27.4474 31.6477 27.8232C31.7882 27.9641 31.8507 28.1677 31.8195 28.3869C30.9291 33.5852 27.2426 35.0413 25.8368 35.4171Z" fill="black"/>
<path d="M46.3154 56.7741C45.8312 56.7898 45.4875 57.2908 45.6906 57.7449C45.7062 57.7919 45.7374 57.8388 45.7531 57.8858C46.2217 58.7313 47.7994 60.1718 48.8616 60.3597C49.9238 60.5319 50.5486 58.3712 50.0331 57.7136C49.3302 56.8054 47.2058 56.7585 46.3154 56.7741Z" fill="white"/>
<path d="M48.9865 60.5945C48.9397 60.5945 48.8772 60.5945 48.8303 60.5788C47.6744 60.3909 46.0498 58.8722 45.55 57.9953C45.5187 57.9484 45.4875 57.8857 45.4719 57.8388C45.3469 57.5569 45.3625 57.2438 45.5344 56.9776C45.7062 56.7114 45.9874 56.5549 46.2998 56.5392C47.4401 56.5079 49.4708 56.6175 50.2206 57.5569C50.6267 58.0736 50.4705 59.154 50.0644 59.8429C49.7832 60.3283 49.3927 60.5945 48.9865 60.5945ZM46.3154 57.0089C46.1592 57.0089 46.0186 57.0872 45.9249 57.2281C45.8468 57.3534 45.8312 57.51 45.8936 57.6509C45.9093 57.6822 45.9249 57.7292 45.9561 57.7761C46.3935 58.559 47.9087 59.9525 48.8928 60.1248C49.2521 60.1874 49.5176 59.8273 49.6426 59.6081C49.9863 59.0287 50.08 58.1519 49.8457 57.8544C49.1896 57.0089 46.9871 56.9933 46.3154 57.0089Z" fill="black"/>
<path d="M88.2569 1.37779C81.3994 1.45608 75.8853 5.02598 75.9322 9.36311C75.9478 11.3046 77.0881 13.0739 78.947 14.4205L76.8538 18.7576L82.774 16.2994C84.4767 16.8317 86.398 17.1136 88.4287 17.0979C95.2862 17.0196 100.8 13.4497 100.753 9.11259C100.707 4.77547 95.1144 1.31516 88.2569 1.37779Z" fill="white"/>
<path d="M93.1618 1.44043C93.1306 1.44043 93.115 1.44043 93.0837 1.42477C92.9275 1.36214 92.7557 1.31517 92.5995 1.2682C92.4745 1.23688 92.412 1.09597 92.4433 0.970707C92.4745 0.845447 92.6151 0.782817 92.7401 0.814132C92.9119 0.861105 93.0837 0.923735 93.2399 0.986365C93.3649 1.03334 93.4274 1.1586 93.3805 1.28386C93.3493 1.3778 93.2712 1.44043 93.1618 1.44043Z" fill="black"/>
<path d="M86.9447 16.19C86.5073 16.19 86.0543 16.1744 85.6169 16.1431C85.4919 16.1274 85.3826 16.0178 85.3982 15.8925C85.4138 15.7673 85.5232 15.6733 85.6481 15.6733C86.148 15.7046 86.6479 15.7203 87.1634 15.7203C90.4281 15.689 93.5054 14.8435 95.786 13.356C98.051 11.8999 99.2694 9.974 99.2538 7.95419C99.2225 5.5899 97.473 3.39786 94.4582 1.97302C94.3489 1.91039 94.2864 1.78513 94.3489 1.65987C94.4114 1.55027 94.5363 1.48764 94.6613 1.55027C97.8479 3.05339 99.7068 5.38636 99.7224 7.95419C99.738 10.1306 98.4415 12.1974 96.0359 13.7475C93.6772 15.2819 90.5218 16.1431 87.1634 16.1744C87.0853 16.19 87.0071 16.19 86.9447 16.19Z" fill="black"/>
<path d="M75.5728 17.8496C75.5103 17.8496 75.4479 17.8183 75.401 17.7713C75.3385 17.693 75.3229 17.5991 75.3541 17.5051L77.3692 13.3559C75.4791 11.9311 74.4325 10.1148 74.4169 8.22025C74.4013 6.04386 75.6978 3.97707 78.1034 2.42698C80.4777 0.908205 83.6175 0.0313853 86.9759 7.03139e-05C87.7725 -0.0155872 88.5536 0.0313853 89.3346 0.109673C89.4596 0.12533 89.5533 0.234933 89.5377 0.37585C89.5221 0.50111 89.4127 0.595055 89.2721 0.579397C88.5223 0.50111 87.7413 0.454137 86.9759 0.469795C83.7112 0.50111 80.6339 1.34661 78.3533 2.83408C76.0883 4.29022 74.8699 6.21609 74.8855 8.23591C74.9011 10.0209 75.9321 11.7588 77.8066 13.1054C77.9003 13.168 77.9315 13.2933 77.8847 13.4029L76.0571 17.1763L81.4149 14.953C81.4618 14.9373 81.5243 14.9217 81.5712 14.953C82.0866 15.1095 82.6177 15.2505 83.1488 15.3601C83.2738 15.3914 83.3519 15.5166 83.3363 15.6419C83.305 15.7672 83.1801 15.8454 83.0551 15.8298C82.524 15.7202 82.0085 15.5949 81.5087 15.4384L75.6665 17.8653C75.6353 17.8339 75.6041 17.8496 75.5728 17.8496Z" fill="black"/>
<path d="M85.8044 7.37473C85.6794 7.37473 85.5701 7.26513 85.5701 7.13987V5.15137C85.5701 5.02611 85.6794 4.9165 85.8044 4.9165C85.9293 4.9165 86.0387 5.02611 86.0387 5.15137V7.13987C86.0387 7.26513 85.945 7.37473 85.8044 7.37473Z" fill="black"/>
<path d="M89.1784 7.37473C89.0534 7.37473 88.9441 7.26513 88.9441 7.13987V5.15137C88.9441 5.02611 89.0534 4.9165 89.1784 4.9165C89.3034 4.9165 89.4127 5.02611 89.4127 5.15137V7.13987C89.4127 7.26513 89.3034 7.37473 89.1784 7.37473Z" fill="black"/>
<path d="M87.4914 11.3674C86.2417 11.3674 84.9765 10.929 83.9611 10.0521C83.8674 9.97385 83.8518 9.81727 83.9299 9.72333C84.008 9.62938 84.1642 9.61372 84.2579 9.69201C86.1324 11.2891 88.8504 11.2891 90.7093 9.69201C90.803 9.61372 90.9592 9.61372 91.0373 9.72333C91.1154 9.81727 91.1154 9.97385 91.006 10.0521C90.0063 10.929 88.741 11.3674 87.4914 11.3674Z" fill="black"/>
<path d="M5.07667 46.8C5.01419 46.8 4.95171 46.7844 4.90485 46.7374L4.31126 46.1424C4.21754 46.0485 4.21754 45.9076 4.31126 45.8136C4.40498 45.7197 4.54557 45.7197 4.63929 45.8136L5.23288 46.4086C5.3266 46.5025 5.3266 46.6435 5.23288 46.7374C5.20164 46.7844 5.13916 46.8 5.07667 46.8Z" fill="black"/>
<path d="M7.16993 48.8982C7.10745 48.8982 7.04497 48.8826 6.99811 48.8356L6.40452 48.2406C6.3108 48.1466 6.3108 48.0057 6.40452 47.9118C6.49825 47.8178 6.63883 47.8178 6.73256 47.9118L7.32614 48.5068C7.41986 48.6007 7.41986 48.7416 7.32614 48.8356C7.2949 48.8826 7.23242 48.8982 7.16993 48.8982Z" fill="black"/>
<path d="M4.48309 48.8982C4.4206 48.8982 4.35812 48.8826 4.31126 48.8356C4.21754 48.7416 4.21754 48.6007 4.31126 48.5068L4.90485 47.9118C4.99857 47.8178 5.13916 47.8178 5.23288 47.9118C5.3266 48.0057 5.3266 48.1466 5.23288 48.2406L4.63929 48.8356C4.60805 48.8826 4.54557 48.8982 4.48309 48.8982Z" fill="black"/>
<path d="M6.57635 46.8C6.51387 46.8 6.45138 46.7844 6.40452 46.7374C6.3108 46.6435 6.3108 46.5025 6.40452 46.4086L6.99811 45.8136C7.09183 45.7197 7.23242 45.7197 7.32614 45.8136C7.41986 45.9076 7.41986 46.0485 7.32614 46.1424L6.73256 46.7374C6.70131 46.7844 6.63883 46.8 6.57635 46.8Z" fill="black"/>
<path d="M43.5506 19.9009C43.4881 19.9009 43.4256 19.8852 43.3788 19.8383L42.8945 19.3529C42.8008 19.2589 42.8008 19.118 42.8945 19.0241C42.9882 18.9301 43.1288 18.9301 43.2225 19.0241L43.7068 19.5095C43.8005 19.6034 43.8005 19.7443 43.7068 19.8383C43.6599 19.8696 43.6131 19.9009 43.5506 19.9009Z" fill="black"/>
<path d="M45.222 21.5762C45.1595 21.5762 45.097 21.5605 45.0501 21.5136L44.5659 21.0282C44.4722 20.9342 44.4722 20.7933 44.5659 20.6994C44.6596 20.6054 44.8002 20.6054 44.8939 20.6994L45.3782 21.1847C45.4719 21.2787 45.4719 21.4196 45.3782 21.5136C45.3469 21.5449 45.2845 21.5762 45.222 21.5762Z" fill="black"/>
<path d="M43.0663 21.5762C43.0039 21.5762 42.9414 21.5605 42.8945 21.5136C42.8008 21.4196 42.8008 21.2787 42.8945 21.1847L43.3788 20.6994C43.4725 20.6054 43.6131 20.6054 43.7068 20.6994C43.8005 20.7933 43.8005 20.9342 43.7068 21.0282L43.2225 21.5136C43.1913 21.5449 43.1288 21.5762 43.0663 21.5762Z" fill="black"/>
<path d="M44.7534 19.9009C44.6909 19.9009 44.6284 19.8852 44.5815 19.8383C44.4878 19.7443 44.4878 19.6034 44.5815 19.5095L45.0658 19.0241C45.1595 18.9301 45.3001 18.9301 45.3938 19.0241C45.4875 19.118 45.4875 19.2589 45.3938 19.3529L44.9096 19.8383C44.8627 19.8696 44.8002 19.9009 44.7534 19.9009Z" fill="black"/>
<path d="M111.516 17.6146C110.704 17.6146 110.032 16.957 110.032 16.1271C110.032 15.3129 110.688 14.6396 111.516 14.6396C112.344 14.6396 113 15.2973 113 16.1271C113 16.957 112.344 17.6146 111.516 17.6146ZM111.516 15.125C110.954 15.125 110.501 15.5791 110.501 16.1428C110.501 16.7064 110.954 17.1605 111.516 17.1605C112.079 17.1605 112.532 16.7064 112.532 16.1428C112.532 15.5791 112.079 15.125 111.516 15.125Z" fill="black"/>
<path d="M1.93684 55.8812C1.10894 55.8812 0.437256 55.208 0.437256 54.3781C0.437256 53.5483 1.10894 52.875 1.93684 52.875C2.76474 52.875 3.43643 53.5483 3.43643 54.3781C3.43643 55.208 2.76474 55.8812 1.93684 55.8812ZM1.93684 53.3604C1.3745 53.3604 0.905876 53.8301 0.905876 54.3938C0.905876 54.9574 1.3745 55.4272 1.93684 55.4272C2.49919 55.4272 2.96781 54.9574 2.96781 54.3938C2.96781 53.8144 2.49919 53.3604 1.93684 53.3604Z" fill="black"/>
<path d="M2.31196 62.959C1.71838 62.959 1.24976 62.4736 1.24976 61.8943C1.24976 61.315 1.734 60.8296 2.31196 60.8296C2.88993 60.8296 3.37417 61.315 3.37417 61.8943C3.37417 62.4736 2.88993 62.959 2.31196 62.959ZM2.31196 61.2837C1.98393 61.2837 1.71838 61.5498 1.71838 61.8786C1.71838 62.2075 1.98393 62.4736 2.31196 62.4736C2.64 62.4736 2.90555 62.2075 2.90555 61.8786C2.90555 61.5498 2.64 61.2837 2.31196 61.2837Z" fill="black"/>
<path d="M92.2087 30.892C92.1462 30.892 92.0837 30.8764 92.0369 30.8294L91.3496 30.1405C91.2559 30.0465 91.2559 29.9056 91.3496 29.8117C91.4433 29.7177 91.5839 29.7177 91.6776 29.8117L92.3649 30.5006C92.4586 30.5945 92.4586 30.7355 92.3649 30.8294C92.3337 30.8764 92.2712 30.892 92.2087 30.892Z" fill="black"/>
<path d="M94.5986 33.2876C94.5361 33.2876 94.4736 33.2719 94.4268 33.2249L93.7395 32.536C93.6458 32.442 93.6458 32.3011 93.7395 32.2072C93.8332 32.1132 93.9738 32.1132 94.0675 32.2072L94.7548 32.8961C94.8485 32.9901 94.8485 33.131 94.7548 33.2249C94.708 33.2562 94.6611 33.2876 94.5986 33.2876Z" fill="black"/>
<path d="M91.5214 33.2876C91.4589 33.2876 91.3964 33.2719 91.3496 33.2249C91.2559 33.131 91.2559 32.9901 91.3496 32.8961L92.0369 32.2072C92.1306 32.1132 92.2712 32.1132 92.3649 32.2072C92.4586 32.3011 92.4586 32.442 92.3649 32.536L91.6776 33.2249C91.6464 33.2562 91.5839 33.2876 91.5214 33.2876Z" fill="black"/>
<path d="M93.9113 30.892C93.8488 30.892 93.7863 30.8764 93.7395 30.8294C93.6458 30.7355 93.6458 30.5945 93.7395 30.5006L94.4268 29.8117C94.5205 29.7177 94.6611 29.7177 94.7548 29.8117C94.8485 29.9056 94.8485 30.0465 94.7548 30.1405L94.0675 30.8294C94.0363 30.8764 93.9738 30.892 93.9113 30.892Z" fill="black"/>
<path d="M29.8354 16.5654C29.8198 16.5654 29.8198 16.5654 29.8041 16.5654C29.6792 16.5498 29.5854 16.4245 29.6011 16.2992L31.8817 0.892266C31.8973 0.767006 32.0223 0.673061 32.1472 0.688719C32.2722 0.704376 32.3659 0.829636 32.3503 0.954896L30.0697 16.3619C30.0541 16.4871 29.9447 16.5654 29.8354 16.5654Z" fill="black"/>
<path d="M31.8036 17.7242C31.7568 17.7242 31.6943 17.7085 31.663 17.6772C31.5693 17.5989 31.5381 17.4424 31.6318 17.3484L38.9891 8.1105C39.0672 8.01655 39.2234 7.98524 39.3171 8.07918C39.4109 8.15747 39.4421 8.31405 39.3484 8.40799L31.9911 17.6459C31.9442 17.7085 31.8817 17.7242 31.8036 17.7242Z" fill="black"/>
<path d="M26.8675 13.3712C26.7581 13.3712 26.6488 13.2929 26.6332 13.1677L25.1648 3.24081C25.1492 3.11555 25.2273 2.99029 25.3679 2.97463C25.4928 2.95897 25.6178 3.03726 25.6334 3.17818L27.1018 13.105C27.1174 13.2303 27.0393 13.3555 26.8987 13.3712C26.8831 13.3712 26.8831 13.3712 26.8675 13.3712Z" fill="black"/>
</g>
<defs>
<clipPath id="clip0">
<rect width="113" height="128" fill="white"/>
</clipPath>
</defs>
</svg>
