<svg width="104" height="117" viewBox="0 0 104 117" fill="none" xmlns="http://www.w3.org/2000/svg">
<g clip-path="url(#clip0)">
<path d="M17.8134 62.7995C17.7993 62.7995 17.7851 62.7995 17.771 62.7924C17.6934 62.7712 17.651 62.6934 17.6722 62.6155L18.4488 59.9685C18.47 59.9048 18.5265 59.8623 18.59 59.8694L21.2306 59.9543L21.972 57.4135C21.9932 57.3498 22.0496 57.3073 22.1132 57.3144L24.7538 57.3993L25.4951 54.8584C25.5163 54.7806 25.594 54.7381 25.6716 54.7594C25.7493 54.7806 25.7917 54.8584 25.7705 54.9363L24.9938 57.5833C24.9726 57.647 24.9162 57.6895 24.8526 57.6824L22.212 57.5975L21.4707 60.1383C21.4495 60.202 21.393 60.2445 21.3295 60.2374L18.6889 60.1525L17.9475 62.6934C17.9264 62.7641 17.8699 62.7995 17.8134 62.7995Z" fill="#323433"/>
<path d="M25.728 29.8112C25.6927 29.8112 25.6574 29.7971 25.6292 29.7758L23.3063 27.6242C23.2498 27.5747 23.2428 27.4827 23.2993 27.4261C23.3487 27.3694 23.4405 27.3624 23.4969 27.419L25.8198 29.5706C25.8763 29.6201 25.8834 29.7121 25.8269 29.7687C25.8057 29.7971 25.7704 29.8112 25.728 29.8112Z" fill="#323433"/>
<path d="M23.4899 29.8959C23.4546 29.8959 23.4193 29.8817 23.391 29.8605C23.3345 29.8109 23.3275 29.7189 23.384 29.6623L25.5303 27.3338C25.5798 27.2771 25.6716 27.2701 25.728 27.3267C25.7845 27.3762 25.7916 27.4682 25.7351 27.5249L23.5887 29.8534C23.5675 29.8817 23.5322 29.8959 23.4899 29.8959Z" fill="#323433"/>
<path d="M16.5213 52.495C16.486 52.495 16.4507 52.4808 16.4224 52.4525L14.9962 51.0228C14.9397 50.9662 14.9397 50.8813 14.9962 50.8247L16.4224 49.395C16.4789 49.3384 16.5636 49.3384 16.6201 49.395L18.0463 50.8247C18.0746 50.853 18.0887 50.8884 18.0887 50.9238C18.0887 50.9591 18.0746 50.9945 18.0463 51.0228L16.6201 52.4525C16.5919 52.4808 16.5566 52.495 16.5213 52.495ZM15.2928 50.9238L16.5213 52.1552L17.7498 50.9238L16.5213 49.6923L15.2928 50.9238Z" fill="#323433"/>
<path d="M103.789 42.4233L101.12 45.0987H97.9778L100.689 42.4233H103.789Z" fill="#FFE300"/>
<path d="M100.689 42.4235L97.9778 45.0988V41.9493L100.64 39.2739V42.4235H100.689Z" fill="#FFE300"/>
<path d="M92.2232 56.2037L90.6276 56.3665L89.8156 56.4515C89.8015 56.2745 89.745 56.1117 89.6038 55.9843C89.4485 55.8428 89.2791 55.6729 89.1167 55.496L89.385 53.585V53.5709L89.1873 53.769L88.3047 54.5971C88.3047 54.5971 88.3118 54.6042 88.3259 54.6184L87.1892 55.7437L87.1327 55.7012C86.7938 55.4252 86.6173 54.9935 86.6596 54.5617C86.7938 53.0471 87.048 51.8439 87.281 50.5133L75.0876 39.2882C74.7346 38.9627 74.2757 38.7716 73.7956 38.7433C71.7763 38.6371 69.7853 38.5663 67.8154 38.5309V29.8892C70.0324 29.9316 72.3341 30.0024 74.7487 30.1086C75.9349 30.1581 77.0504 30.6748 77.8624 31.5382C83.9767 38.0355 88.3894 43.0181 93.4941 49.0129C93.5718 49.1049 93.6494 49.204 93.7201 49.3031C94.2284 50.0321 94.4685 50.9168 94.3908 51.8085L94.179 54.314C94.0943 55.3049 93.3176 56.0976 92.3362 56.1967L92.2232 56.2037Z" fill="#FBFBFB"/>
<path d="M89.8088 56.451C89.823 56.6846 89.7523 56.9394 89.6676 57.1517C89.5758 57.3924 89.2722 57.4702 89.0745 57.3074L87.1824 55.7504L88.3191 54.625C88.4038 54.7241 88.7427 55.1134 89.1169 55.4956C89.2793 55.6654 89.4487 55.8424 89.6041 55.9839C89.7382 56.1113 89.8018 56.2741 89.8088 56.451Z" fill="#FBFBFB"/>
<path d="M89.3779 53.5708V53.585L89.1802 53.769L89.3779 53.5708Z" fill="#FBFBFB"/>
<path d="M89.3781 53.5845L89.1098 55.4954C88.7427 55.1132 88.4038 54.724 88.312 54.6249L89.1734 53.7685L89.3781 53.5845Z" fill="#FBFBFB"/>
<path d="M89.1804 53.7686L88.319 54.6249C88.3049 54.6108 88.2979 54.6037 88.2979 54.6037L89.1804 53.7686Z" fill="#FBFBFB"/>
<path d="M82.7272 60.1529L84.0828 61.5188L79.8748 62.9698L81.3574 58.7656L82.7272 60.1529Z" fill="#323433"/>
<path d="M35.507 74.9236C38.9666 74.0814 42.6733 73.3099 46.6413 72.6022L48.1946 82.164C38.3311 83.7494 32.0968 85.0941 23.4195 87.0193C20.2282 87.727 16.9734 86.1204 15.5824 83.162C14.1421 80.0974 15.0953 76.4382 17.8418 74.4707C25.1352 69.2403 30.8118 65.7511 39.1219 60.0323L59.3006 58.27C63.7275 61.4691 69.0228 65.5953 74.8547 70.5497C77.7424 73.0056 78.392 77.2168 76.3798 80.43C71.3316 88.4843 67.9849 94.1039 62.4566 103.892L53.2851 97.9258C57.6767 90.4448 61.6658 83.8697 65.0054 79.1136C65.3514 78.6252 65.1819 77.9458 64.6524 77.6697C60.4726 75.504 57.479 73.593 54.083 71.3777C54.0688 71.3707 54.0618 71.3636 54.0476 71.3565C53.1369 70.762 52.1978 70.1462 51.1952 69.4951C49.6561 68.4972 47.6862 68.4689 46.1117 69.4102C42.9063 71.3353 39.4326 73.0551 35.507 74.9236Z" fill="#323433"/>
<path d="M67.8014 38.5307V39.564C65.7609 38.8704 63.0215 38.6014 59.9573 38.5873C60.5009 45.488 60.1409 50.5485 59.3007 58.2701L39.122 60.0324C37.1451 52.6788 36.4673 47.6891 35.8248 41.2768C32.4076 41.9421 29.3151 42.9259 27.1475 44.0795L27.0134 43.0816L25.8625 34.454C31.5109 33.1446 36.665 32.1254 41.7626 31.3823L39.9763 32.6987L44.2408 32.359L48.9642 38.8704L50.8423 31.7928L55.3962 30.901L53.8783 30.1437C58.2345 29.8818 62.7956 29.7969 67.8085 29.8889V38.5307H67.8014ZM43.7254 46.1745C45.0457 46.0117 45.9918 44.8014 45.8294 43.4779L45.4834 40.654L40.2729 41.298L40.6188 44.122C40.7812 45.4455 41.9885 46.3939 43.3088 46.2311L43.7254 46.1745Z" fill="#8DD5E0"/>
<path d="M65.2948 111.89C65.8667 113.426 65.9938 115.061 64.9418 116.788L48.6887 105.811C48.9358 105.386 49.183 104.961 49.4301 104.537L62.1177 112.966C63.0496 112.379 64.1369 111.996 65.2948 111.89Z" fill="#C4C4C4"/>
<path d="M62.3013 106.136C62.4284 106.532 62.619 106.942 62.845 107.367C63.5792 108.747 64.6807 110.262 65.2879 111.89C64.13 111.996 63.0427 112.378 62.1107 112.965L49.4302 104.536C50.7434 102.278 52.0284 100.07 53.2781 97.9326L62.4496 103.899C62.4355 103.927 62.4143 103.963 62.4002 103.991C62.026 104.649 62.0542 105.364 62.3013 106.136Z" fill="#FBFBFB"/>
<path d="M54.0478 71.3848L57.1685 88.7744C54.9304 88.9867 53.5324 88.279 52.551 87.2598C53.1441 86.3185 53.9772 85.547 54.9727 85.0445L52.5651 71.6112C53.0594 71.5334 53.5536 71.4626 54.0478 71.3848Z" fill="#C4C4C4"/>
<path d="M55.3963 30.9006L50.8423 31.7924L51.0894 28.749L53.8783 30.1433L55.3963 30.9006Z" fill="#8DD5E0"/>
<path d="M50.1713 83.3815C49.9454 83.0134 49.7124 82.702 49.437 82.4826C49.0981 82.2066 48.6957 82.0721 48.1873 82.157L46.634 72.5951C48.5474 72.2554 50.5243 71.9227 52.5648 71.6113L54.9724 85.0447C53.9769 85.5543 53.1438 86.3187 52.5507 87.26C51.421 86.0851 50.8491 84.4785 50.1713 83.3815Z" fill="#FBFBFB"/>
<path d="M54.0476 71.3564C54.0617 71.3634 54.0688 71.3704 54.083 71.3773C54.0759 71.3773 54.0617 71.3773 54.0547 71.3843L54.0476 71.3564Z" fill="#FBFBFB"/>
<path d="M53.6876 21.1479C54.0265 22.4006 51.5271 23.3137 51.5271 23.3137L51.0893 28.7493L50.8422 31.7856L48.9641 38.8632L44.2407 32.3518L44.7632 29.1881L45.1515 26.8454C40.2869 26.0102 43.344 18.0196 44.0995 15.4575C46.3729 16.2856 50.4186 15.2735 51.64 16.3564C53.1157 17.6657 51.1882 21.0347 51.1882 21.0347C51.1882 21.0347 52.6567 20.2632 53.3628 20.6879C53.511 20.7799 53.624 20.9214 53.6876 21.1479ZM48.597 20.1783C48.6393 19.8456 48.4911 19.5555 48.2651 19.5271C48.0392 19.4988 47.8274 19.7465 47.785 20.0792C47.7427 20.4118 47.898 20.702 48.1169 20.7303C48.3428 20.7516 48.5546 20.5039 48.597 20.1783ZM44.6078 19.4918C44.6926 19.2016 44.6008 18.9185 44.4031 18.8618C44.2054 18.8052 43.9795 18.9963 43.8947 19.2865C43.81 19.5767 43.9018 19.8598 44.0995 19.9164C44.2972 19.9801 44.5231 19.789 44.6078 19.4918Z" fill="#FBFBFB"/>
<path d="M51.527 12.9379C54.6054 13.6315 55.8057 17.2057 53.3557 20.6879C52.6496 20.2632 51.1811 21.0347 51.1811 21.0347C51.1811 21.0347 53.1156 17.6728 51.6329 16.3564C50.4115 15.2735 46.3659 16.2856 44.0924 15.4575C43.6123 15.2806 43.2028 15.0258 42.9274 14.6436C41.3318 12.4778 44.0077 9.85203 45.8857 10.8217C47.7709 11.7913 48.957 12.3575 51.527 12.9379Z" fill="#323433"/>
<path d="M48.2581 19.5271C48.484 19.5554 48.6323 19.8456 48.5899 20.1782C48.5475 20.5109 48.3357 20.7586 48.1098 20.7303C47.8839 20.702 47.7356 20.4118 47.778 20.0792C47.8203 19.7465 48.0392 19.4988 48.2581 19.5271Z" fill="#323433"/>
<path d="M45.8221 43.478C45.9845 44.8016 45.0455 46.0118 43.7181 46.1746L43.2945 46.2242C41.9742 46.3869 40.7669 45.4456 40.6045 44.115L40.2585 41.291L45.4691 40.647L45.8221 43.478Z" fill="#8DD5E0"/>
<path d="M44.763 29.1953L44.2406 32.359L39.9761 32.6987L41.7765 31.3823L44.763 29.1953Z" fill="#8DD5E0"/>
<path d="M44.3961 18.862C44.5938 18.9186 44.6856 19.2017 44.6009 19.4919C44.5161 19.7821 44.2902 19.9803 44.0925 19.9166C43.8948 19.8599 43.803 19.5768 43.8878 19.2866C43.9725 18.9965 44.2055 18.8054 44.3961 18.862Z" fill="#323433"/>
<path d="M19.5151 0.212402C25.1846 0.212402 29.7739 4.81993 29.7739 10.4962C29.7739 16.1724 25.1776 20.7799 19.5151 20.7799C13.8527 20.7799 9.24927 16.1795 9.24927 10.4962C9.24927 4.81285 13.8456 0.212402 19.5151 0.212402ZM27.211 10.4962C27.211 6.23545 23.7655 2.78158 19.5151 2.78158C15.2647 2.78158 11.8193 6.23545 11.8193 10.4962C11.8193 14.7569 15.2647 18.2108 19.5151 18.2108C23.7655 18.2178 27.211 14.7569 27.211 10.4962Z" fill="#FBFBFB"/>
<path d="M3.45267 15.889L3.84099 16.1155C4.20813 16.3278 4.44819 16.71 4.47643 17.1347C4.58233 18.713 5.02008 19.9233 5.88851 21.3034C6.14975 19.9162 6.44628 18.7555 7.28647 18.4794C7.51241 18.4087 7.75246 18.5785 7.7454 18.8192C7.73834 20.1639 8.06312 21.728 8.59971 23.4125C8.9951 24.6582 9.72232 25.7694 10.7108 26.6258L20.5036 35.1118C20.8566 35.4161 21.3367 35.5365 21.7886 35.4232C23.1795 35.0835 24.5351 34.7579 25.8695 34.4536L27.0204 43.0812C25.2058 43.4917 23.3631 43.9234 21.485 44.3835C20.1435 44.7161 18.7244 44.3198 17.743 43.3431C12.9348 38.5515 9.02334 33.76 5.13305 28.0908C4.78709 27.4468 3.42442 26.1657 2.17473 25.0616C0.699102 23.7593 -0.0210612 21.7917 0.282537 19.8383C0.49435 18.4582 0.727343 17.1984 0.974458 15.6625C1.05918 15.1246 1.65226 14.8415 2.12531 15.1176L2.29476 15.2167L3.45267 15.889Z" fill="#FBFBFB"/>
<path d="M19.5152 2.78174C23.7656 2.78174 27.2111 6.23561 27.2111 10.4963C27.2111 14.757 23.7656 18.2109 19.5152 18.2109C15.2648 18.2109 11.8193 14.757 11.8193 10.4963C11.8193 6.23561 15.2648 2.78174 19.5152 2.78174ZM24.6411 10.4963C24.6411 7.65821 22.3464 5.35091 19.5081 5.35091C16.6769 5.35091 14.3752 7.65113 14.3752 10.4963C14.3752 13.3344 16.6698 15.6417 19.5081 15.6417C22.3464 15.6417 24.6411 13.3415 24.6411 10.4963Z" fill="#FBFBFB"/>
<path d="M19.515 5.35791C22.3462 5.35791 24.6479 7.65813 24.6479 10.5033C24.6479 13.3415 22.3533 15.6488 19.515 15.6488C16.6838 15.6488 14.3821 13.3485 14.3821 10.5033C14.3821 7.65813 16.6767 5.35791 19.515 5.35791ZM22.078 10.4963C22.078 9.07366 20.9271 7.92708 19.515 7.92708C18.0959 7.92708 16.9521 9.08073 16.9521 10.4963C16.9521 11.9189 18.1029 13.0654 19.515 13.0654C20.9271 13.0725 22.078 11.9189 22.078 10.4963Z" fill="#FBFBFB"/>
<path d="M21.3191 12.3123C22.3199 11.309 22.3199 9.68226 21.3191 8.67894C20.3182 7.67563 18.6954 7.67563 17.6946 8.67895C16.6937 9.68226 16.6937 11.309 17.6946 12.3123C18.6954 13.3156 20.3182 13.3156 21.3191 12.3123Z" fill="#FFE300"/>
<path d="M89.1166 55.7079C89.1096 55.7079 89.0955 55.7079 89.0884 55.7079C88.9755 55.6937 88.8907 55.5876 88.9048 55.4672L89.1731 53.5563V53.5492V53.5421L89.2225 53.1812L88.7989 53.1316C88.686 53.1175 88.6013 53.0113 88.6083 52.8981C88.6224 52.7848 88.7283 52.6999 88.8413 52.707L89.4767 52.7777C89.5332 52.7848 89.5826 52.8131 89.6179 52.8556C89.6532 52.898 89.6673 52.9617 89.6603 53.0184L89.5826 53.5987V53.6058V53.6129L89.3214 55.5239C89.3073 55.63 89.2155 55.7079 89.1166 55.7079Z" fill="#323433"/>
<path d="M1.53913 20.3481C1.53207 20.3481 1.52501 20.3481 1.51795 20.3481C1.40498 20.3339 1.32025 20.2348 1.32732 20.1145C1.54619 17.9842 1.70152 16.604 2.08278 15.1602C2.11102 15.047 2.23105 14.9833 2.34401 15.0116C2.45698 15.0399 2.52052 15.1602 2.49228 15.2735C2.11808 16.6819 1.96275 18.0479 1.75094 20.157C1.73682 20.2702 1.64503 20.3481 1.53913 20.3481Z" fill="#323433"/>
<path d="M3.05011 20.4896C3.04305 20.4896 3.04305 20.4896 3.03599 20.4896C2.91597 20.4825 2.83124 20.3835 2.8383 20.2631C2.93715 18.4017 3.02187 17.0924 3.2478 15.8467C3.26899 15.7335 3.38195 15.6556 3.49492 15.6768C3.60788 15.6981 3.68555 15.8113 3.66437 15.9246C3.4455 17.1419 3.36783 18.3876 3.26193 20.2844C3.25486 20.4047 3.16308 20.4896 3.05011 20.4896Z" fill="#323433"/>
<path d="M89.8084 56.6635C89.7025 56.6635 89.6107 56.5785 89.5966 56.4724C89.5824 56.3591 89.6672 56.253 89.7872 56.2388L92.3007 55.984C93.1833 55.892 93.8822 55.1842 93.9528 54.2925L94.1646 51.787C94.2352 50.9518 94.0093 50.1096 93.5292 49.4231C93.4657 49.324 93.388 49.232 93.3174 49.147C87.8103 42.6781 83.4258 37.7804 77.6927 31.6795C76.9161 30.8514 75.857 30.3701 74.7203 30.3206C72.2986 30.2144 69.9686 30.1366 67.794 30.1012C62.7599 30.0092 58.213 30.0941 53.885 30.356C53.772 30.363 53.6661 30.271 53.6591 30.1578C53.652 30.0375 53.7438 29.9384 53.8568 29.9313C58.1989 29.6694 62.7599 29.5845 67.8011 29.6765C69.9757 29.719 72.3127 29.7898 74.7415 29.8959C75.9911 29.9525 77.1491 30.4834 78.0034 31.3893C83.7435 37.4973 88.128 42.395 93.6422 48.871C93.7269 48.9701 93.8046 49.0692 93.8822 49.1824C94.4188 49.9539 94.673 50.8881 94.5883 51.8224L94.3765 54.3279C94.2847 55.4178 93.4304 56.2954 92.3431 56.4016L92.2372 56.4087L89.8225 56.6564C89.8225 56.6635 89.8154 56.6635 89.8084 56.6635Z" fill="#323433"/>
<path d="M20.5528 44.7094C19.4585 44.7094 18.3853 44.2776 17.5945 43.492C12.8852 38.7995 8.98785 34.0859 4.96341 28.2114C4.95635 28.2044 4.95635 28.1973 4.94929 28.1902C4.75866 27.8363 4.10204 27.0366 2.0404 25.2176C0.494167 23.8658 -0.240117 21.8416 0.0705417 19.8103C0.190569 19.0318 0.317656 18.2957 0.444744 17.5243C0.54359 16.9227 0.649496 16.3069 0.762463 15.6345C0.811886 15.316 1.01664 15.04 1.31318 14.8985C1.60265 14.7569 1.94861 14.7711 2.23103 14.9338L3.95377 15.9318C4.38446 16.1795 4.65981 16.6254 4.69512 17.1208C4.77984 18.4373 5.10462 19.5131 5.78948 20.7163C6.0366 19.5484 6.38256 18.5434 7.22275 18.2745C7.39926 18.2179 7.58283 18.2462 7.7311 18.3594C7.87937 18.4656 7.96409 18.6425 7.96409 18.8195C7.95703 20.051 8.23239 21.5302 8.81134 23.342C9.19967 24.5523 9.90571 25.6352 10.8589 26.4633L20.6517 34.9493C20.9553 35.2112 21.3648 35.3103 21.746 35.2112C23.1511 34.8644 24.5208 34.5388 25.827 34.2416C31.8212 32.8544 36.8836 31.8776 41.7482 31.1699C41.8612 31.1557 41.9741 31.2336 41.9883 31.3468C42.0024 31.4601 41.9247 31.5733 41.8117 31.5875C36.9612 32.2952 31.913 33.2649 25.9258 34.6521C24.6196 34.9564 23.2499 35.282 21.8519 35.6217C21.3365 35.7491 20.7858 35.6146 20.3834 35.2678L10.5764 26.7888C9.55975 25.9112 8.81134 24.7646 8.40184 23.4765C7.80876 21.6222 7.52635 20.1005 7.54047 18.8195C7.54047 18.7558 7.4981 18.7133 7.47692 18.6991C7.4628 18.685 7.41338 18.6567 7.34983 18.6779C6.60143 18.9256 6.32607 20.0793 6.09308 21.3391C6.07896 21.424 6.00836 21.4948 5.92363 21.5089C5.8389 21.5231 5.75418 21.4877 5.70476 21.4099C4.7869 19.9377 4.36328 18.7062 4.26443 17.1421C4.24325 16.7882 4.04556 16.4697 3.7349 16.2927L2.01216 15.2948C1.84977 15.2028 1.65914 15.1957 1.48969 15.2736C1.32024 15.3514 1.20727 15.5071 1.17903 15.6911C1.07312 16.3635 0.967215 16.9864 0.861309 17.5879C0.727161 18.3594 0.607134 19.0955 0.487106 19.8669C0.197629 21.7567 0.88249 23.6393 2.31576 24.8991C3.99613 26.3854 5.00578 27.4188 5.31643 27.9779C9.32675 33.8311 13.2029 38.5235 17.891 43.1947C18.8089 44.1148 20.1716 44.49 21.4354 44.1785C23.3346 43.7114 25.1986 43.2726 26.9778 42.8763C27.0908 42.8479 27.2037 42.9258 27.232 43.039C27.2602 43.1523 27.1826 43.2655 27.0696 43.2938C25.2974 43.6902 23.4335 44.129 21.5342 44.5961C21.2094 44.674 20.8776 44.7094 20.5528 44.7094Z" fill="#323433"/>
<path d="M89.3213 57.6046C89.1872 57.6046 89.053 57.5551 88.9401 57.4701L86.9914 55.8706C86.6031 55.5521 86.3912 55.0567 86.4407 54.5471C86.5466 53.3368 86.7301 52.3389 86.9208 51.2843C86.9631 51.0578 87.0055 50.8313 87.0408 50.5978L74.9321 39.4505C74.6144 39.1604 74.2049 38.9834 73.7742 38.9622C71.7761 38.856 69.7639 38.7852 67.8011 38.7499C67.6811 38.7499 67.5893 38.6508 67.5963 38.5304C67.5963 38.4172 67.6952 38.3252 67.8081 38.3252C67.8081 38.3252 67.8081 38.3252 67.8152 38.3252C69.7851 38.3606 71.7973 38.4314 73.8025 38.5375C74.332 38.5658 74.8333 38.7782 75.2287 39.1391L87.4221 50.3642C87.4785 50.4138 87.4997 50.4845 87.4856 50.5553C87.4362 50.8243 87.3938 51.0932 87.3444 51.3551C87.1538 52.4026 86.9773 53.3864 86.8714 54.5825C86.8361 54.9505 86.9843 55.3044 87.2667 55.538L87.3232 55.5804L89.2225 57.1375C89.2648 57.1729 89.3213 57.187 89.3708 57.1729C89.4202 57.1587 89.4625 57.1233 89.4837 57.0738C89.5755 56.8402 89.6179 56.6279 89.6108 56.4651C89.6037 56.3236 89.5543 56.2174 89.4696 56.1395C89.3213 56.0051 89.1519 55.8352 88.9754 55.6441C88.9754 55.6441 88.9683 55.637 88.9683 55.63C88.5588 55.1982 88.1917 54.7736 88.1775 54.7594C88.1634 54.7453 88.1563 54.7311 88.1563 54.7311C88.0857 54.6462 88.0928 54.5188 88.1775 54.4409L89.2578 53.4288C89.3425 53.351 89.4767 53.351 89.5543 53.4359C89.632 53.5208 89.632 53.6553 89.5473 53.7332L88.6153 54.6108C88.7565 54.7736 89.0107 55.0567 89.2931 55.3469C89.3001 55.3539 89.3001 55.3539 89.3001 55.361C89.4696 55.538 89.632 55.7007 89.7661 55.8281C89.9356 55.9838 90.0274 56.1891 90.0415 56.4368C90.0556 56.6704 90.0062 56.9322 89.8862 57.2295C89.8156 57.4064 89.6673 57.5338 89.4837 57.5834C89.4202 57.5975 89.3707 57.6046 89.3213 57.6046Z" fill="#323433"/>
<path d="M92.2232 56.4156C92.202 56.4156 92.1879 56.4156 92.1667 56.4086C92.0537 56.3803 91.9831 56.2599 92.0184 56.1467C92.3432 54.9223 92.5126 53.8394 92.5621 52.7282C92.5691 52.6079 92.668 52.5229 92.7809 52.5229C92.901 52.53 92.9857 52.6291 92.9857 52.7424C92.9363 53.8819 92.7598 55.0001 92.4279 56.2529C92.4067 56.3519 92.315 56.4156 92.2232 56.4156Z" fill="#323433"/>
<path d="M90.6275 56.5785C90.6063 56.5785 90.5922 56.5785 90.571 56.5714C90.458 56.5431 90.3874 56.4227 90.4227 56.3095C90.7546 55.0568 90.9381 53.9456 90.9875 52.8132C90.9946 52.6928 91.0935 52.6079 91.2064 52.6079C91.3265 52.615 91.4112 52.7141 91.4112 52.8273C91.3617 53.988 91.1782 55.1275 90.8322 56.4157C90.804 56.5218 90.7193 56.5785 90.6275 56.5785Z" fill="#323433"/>
<path d="M82.7269 60.3651C82.6705 60.3651 82.621 60.3439 82.5787 60.3014C82.494 60.2165 82.494 60.082 82.5787 60.0041L89.2297 53.4219C89.3144 53.337 89.4485 53.3441 89.5262 53.4219C89.6109 53.5068 89.6039 53.6413 89.5262 53.7192L87.3233 55.8991L82.8752 60.3085C82.8329 60.3439 82.7834 60.3651 82.7269 60.3651Z" fill="#323433"/>
<path d="M93.7131 49.5148C93.6566 49.5148 93.6001 49.4936 93.5648 49.4511C93.4801 49.3662 93.4872 49.2317 93.5648 49.1539L100.541 42.2745C100.625 42.1895 100.759 42.1966 100.837 42.2745C100.922 42.3594 100.915 42.4939 100.837 42.5717L93.8614 49.4511C93.819 49.4936 93.7625 49.5148 93.7131 49.5148Z" fill="#323433"/>
<path d="M79.8745 63.1817C79.818 63.1817 79.7615 63.1604 79.7262 63.118C79.6697 63.0614 79.6485 62.9764 79.6768 62.8986L81.1665 58.6944C81.1877 58.6237 81.2512 58.5741 81.3218 58.56C81.3924 58.5458 81.4701 58.567 81.5195 58.6166L84.2377 61.3698C84.2872 61.4193 84.3083 61.4972 84.2942 61.568C84.2801 61.6388 84.2236 61.6954 84.1601 61.7237L79.9521 63.1675C79.9168 63.1746 79.8956 63.1817 79.8745 63.1817ZM81.4489 59.1545L80.2204 62.6225L83.6941 61.4264L81.4489 59.1545Z" fill="#323433"/>
<path d="M101.119 45.3108H97.9774C97.8574 45.3108 97.7656 45.2188 97.7656 45.0985V41.949C97.7656 41.8923 97.7868 41.8357 97.8292 41.8003L100.498 39.125C100.562 39.0613 100.646 39.0471 100.731 39.0754C100.809 39.1108 100.865 39.1887 100.865 39.2736V42.2108H103.795C103.88 42.2108 103.958 42.2604 103.993 42.3453C104.028 42.4302 104.007 42.5152 103.951 42.5789L101.282 45.2542C101.232 45.2896 101.176 45.3108 101.119 45.3108ZM98.1892 44.8862H101.035L103.28 42.6355H100.646C100.526 42.6355 100.434 42.5435 100.434 42.4232V39.7832L98.1892 42.0339V44.8862Z" fill="#323433"/>
<path d="M26.8788 77.5213C26.787 77.5213 26.7023 77.4647 26.6741 77.3727C26.6388 77.2595 26.7023 77.1392 26.8153 77.1038C29.5053 76.2545 32.4071 75.4476 35.4572 74.7116C38.8957 73.8764 42.6518 73.0908 46.6056 72.3831C48.519 72.0363 50.5171 71.7107 52.5434 71.3993C53.0306 71.3214 53.5248 71.2506 54.0261 71.1728L54.0614 71.1657C54.1744 71.1516 54.2874 71.2294 54.3015 71.3497C54.3156 71.463 54.2379 71.5762 54.1179 71.5904L54.0897 71.5974C53.5954 71.6682 53.1012 71.7461 52.614 71.8239C50.5948 72.1353 48.6037 72.468 46.6904 72.8077C42.7436 73.5155 39.0016 74.294 35.5702 75.1291C32.5342 75.8652 29.6324 76.665 26.9565 77.5143C26.9212 77.5213 26.9 77.5213 26.8788 77.5213Z" fill="#323433"/>
<path d="M56.3985 89.0224C54.7535 89.0224 53.4402 88.4916 52.4023 87.4087C51.6045 86.5806 51.075 85.5473 50.616 84.6414C50.4042 84.2238 50.1995 83.8345 49.9947 83.4948C49.7547 83.1055 49.5358 82.8366 49.3099 82.6526C48.9851 82.3907 48.6462 82.3058 48.2296 82.3695C48.1166 82.3907 48.0037 82.3128 47.9896 82.1925C47.9684 82.0793 48.046 81.966 48.1661 81.9519C48.7027 81.867 49.1616 81.9873 49.5782 82.3199C49.8465 82.5322 50.0936 82.8366 50.3619 83.2683C50.5807 83.6222 50.7855 84.0256 51.0044 84.4503C51.4562 85.335 51.9646 86.3329 52.7201 87.1185C53.7791 88.2227 55.163 88.7039 56.9351 88.5836L53.8497 71.3992C53.8285 71.2859 53.9062 71.1727 54.0192 71.1514C54.1321 71.1302 54.2451 71.2081 54.2663 71.3213L54.2733 71.3496L57.3941 88.7393C57.4011 88.7959 57.387 88.8596 57.3517 88.9021C57.3164 88.9516 57.2599 88.98 57.2034 88.987C56.921 89.0153 56.6527 89.0224 56.3985 89.0224Z" fill="#323433"/>
<path d="M52.5576 87.4719C52.5223 87.4719 52.4799 87.4648 52.4446 87.4365C52.3458 87.3728 52.3176 87.2454 52.3811 87.1463C52.9671 86.2121 53.7861 85.4477 54.7464 84.924L52.367 71.6393C52.367 71.6252 52.367 71.611 52.367 71.6039C52.367 71.4836 52.4588 71.3916 52.5788 71.3916C52.6847 71.3916 52.7765 71.4695 52.7906 71.5756L55.1982 85.0018C55.2124 85.0938 55.17 85.1858 55.0853 85.2283C54.125 85.7166 53.3201 86.4598 52.7482 87.3657C52.6988 87.4436 52.6282 87.4719 52.5576 87.4719Z" fill="#323433"/>
<path d="M49.4371 82.6949C49.3877 82.6949 49.3312 82.6736 49.2889 82.6382C49.2041 82.5604 49.1971 82.4259 49.2818 82.341L50.1008 81.4775C50.1785 81.3926 50.3126 81.3855 50.3973 81.4704C50.4821 81.5483 50.4891 81.6828 50.4044 81.7677L49.5854 82.6312C49.5501 82.6736 49.4936 82.6949 49.4371 82.6949Z" fill="#323433"/>
<path d="M50.1715 83.5937C50.1221 83.5937 50.0656 83.5725 50.0232 83.5371C49.9385 83.4592 49.9315 83.3248 50.0162 83.2398L51.0188 82.1782C51.0964 82.0933 51.2306 82.0862 51.3153 82.1711C51.4 82.249 51.4071 82.3834 51.3224 82.4684L50.3198 83.53C50.2845 83.5654 50.228 83.5937 50.1715 83.5937Z" fill="#323433"/>
<path d="M39.1216 60.2448C39.0157 60.2448 38.924 60.1599 38.9098 60.0537C38.9028 59.9334 38.9875 59.8343 39.1005 59.8272L59.2791 58.0649C59.3921 58.0578 59.498 58.1427 59.5051 58.256C59.5121 58.3763 59.4274 58.4754 59.3144 58.4824L39.1358 60.2448C39.1358 60.2448 39.1287 60.2448 39.1216 60.2448Z" fill="#323433"/>
<path d="M21.9155 87.3872C20.8141 87.3872 19.7268 87.1395 18.7313 86.6511C17.2698 85.9292 16.0836 84.7189 15.3917 83.2468C13.909 80.0831 14.8904 76.3178 17.7216 74.2936C21.9579 71.2644 25.6787 68.7943 29.6185 66.1756C32.485 64.2717 35.4433 62.3041 38.8817 59.9473C37.0248 53.0183 36.2976 48.0852 35.641 41.5313C32.2873 42.1966 29.3149 43.1663 27.2532 44.2633C27.1897 44.2987 27.1191 44.2987 27.0555 44.2633C26.992 44.2279 26.9496 44.1713 26.9426 44.1005L26.8155 43.1238C26.8155 43.1167 26.8155 43.1096 26.8155 43.1096L25.6646 34.482C25.6505 34.3688 25.7282 34.2556 25.8482 34.2414C25.9612 34.2272 26.0741 34.3051 26.0882 34.4254L27.232 43.0389C27.232 43.046 27.232 43.053 27.232 43.053L27.3238 43.7466C29.4561 42.6638 32.4497 41.7154 35.7893 41.0642C35.8457 41.0501 35.9093 41.0642 35.9587 41.0996C36.0081 41.135 36.0364 41.1916 36.0434 41.2482C36.7283 48.0923 37.4202 52.8697 39.3336 59.9685C39.3548 60.0535 39.3265 60.1455 39.2489 60.2021C35.754 62.6014 32.7603 64.5973 29.8585 66.5224C25.9188 69.134 22.205 71.6041 17.9758 74.6263C15.307 76.5372 14.3891 80.076 15.78 83.0486C16.4296 84.4358 17.5522 85.5753 18.929 86.2548C20.3058 86.9342 21.8873 87.1253 23.3841 86.7927C32.2449 84.8251 38.3451 83.5157 47.9614 81.9728L46.4434 72.6233C46.4223 72.51 46.4999 72.3968 46.6199 72.3827C46.7329 72.3614 46.8459 72.4393 46.86 72.5596L48.4133 82.1214C48.4204 82.1781 48.4062 82.2347 48.378 82.2772C48.3427 82.3196 48.2933 82.355 48.2368 82.3621C38.5146 83.9262 32.3932 85.2356 23.4759 87.2102C22.9534 87.3306 22.4309 87.3872 21.9155 87.3872Z" fill="#323433"/>
<path d="M64.9417 117C64.8993 117 64.857 116.986 64.8217 116.965L48.5686 105.988C48.4768 105.924 48.4486 105.804 48.5051 105.704C48.7522 105.28 48.9993 104.855 49.2464 104.43C50.4043 102.442 51.7599 100.099 53.1014 97.8271C56.8575 91.4289 61.1856 84.1885 64.8287 79.0006C64.9558 78.8166 64.9982 78.5831 64.9488 78.3707C64.8923 78.1513 64.7511 77.9673 64.5534 77.8682C60.3666 75.6954 57.4012 73.8057 53.9698 71.5621L53.9628 71.555C53.9557 71.5479 53.9416 71.5408 53.9345 71.5338C53.638 71.3427 53.3344 71.1445 53.0308 70.9463C52.4024 70.5358 51.7599 70.1112 51.0892 69.6794C49.6136 68.7169 47.7496 68.6886 46.2316 69.5945C43.118 71.4559 39.736 73.1475 35.6057 75.115C35.4998 75.1646 35.3727 75.1221 35.3233 75.0159C35.2739 74.9098 35.3162 74.7824 35.4221 74.7328C39.5383 72.7723 42.9132 71.0879 46.0127 69.2335C47.6719 68.2427 49.7053 68.271 51.3222 69.3255C51.9929 69.7644 52.6354 70.1819 53.2638 70.5924C53.5674 70.7906 53.871 70.9888 54.1675 71.187L54.2028 71.2082C57.6271 73.4447 60.5784 75.3274 64.7511 77.4931C65.0617 77.6559 65.2806 77.939 65.3653 78.2716C65.4501 78.6114 65.3795 78.9652 65.1818 79.2483C61.5457 84.4221 57.2247 91.6554 53.4756 98.0394C52.1412 100.311 50.7785 102.654 49.6277 104.643C49.4159 105.011 49.2041 105.372 48.9922 105.74L64.8923 116.484C65.6689 115.096 65.7395 113.653 65.1112 111.968C64.7158 110.907 64.1086 109.901 63.5226 108.925C63.219 108.422 62.9295 107.941 62.6824 107.467C62.4282 106.986 62.2446 106.568 62.1246 106.2C61.8281 105.301 61.8634 104.537 62.2376 103.886L62.287 103.794C67.6317 94.3237 71.0207 88.6191 76.2172 80.3171C77.1633 78.8025 77.5375 77.0047 77.2621 75.2353C76.9868 73.473 76.0901 71.8664 74.7345 70.7127C69.3403 66.1335 63.9674 61.887 59.1945 58.4402C59.131 58.3977 59.1027 58.3199 59.1098 58.242C59.9782 50.2938 60.296 45.3254 59.7664 38.6016C59.7594 38.545 59.7805 38.4813 59.8229 38.4388C59.8653 38.3964 59.9147 38.3681 59.9782 38.3681C63.1766 38.3822 65.7395 38.6795 67.6105 39.2669V29.8891C67.6105 29.7688 67.7023 29.6768 67.8224 29.6768C67.9424 29.6768 68.0342 29.7688 68.0342 29.8891V39.5642C68.0342 39.635 67.9989 39.6987 67.9424 39.734C67.8859 39.7765 67.8153 39.7836 67.7518 39.7624C65.9443 39.1466 63.4096 38.8281 60.2042 38.7998C60.7055 45.4103 60.3877 50.3575 59.5405 58.1641C64.2992 61.6039 69.6439 65.8292 75.0028 70.3872C76.4361 71.6045 77.3892 73.3032 77.6787 75.1716C77.9682 77.0331 77.5728 78.944 76.5702 80.5436C71.3737 88.8385 67.9918 94.536 62.6471 103.999L62.5977 104.091C62.287 104.65 62.2588 105.273 62.52 106.065C62.633 106.412 62.8095 106.809 63.0495 107.269C63.2966 107.729 63.579 108.203 63.8826 108.705C64.4828 109.696 65.097 110.722 65.5065 111.82C66.2055 113.688 66.0784 115.351 65.1394 116.901C65.1112 116.951 65.0617 116.986 65.0053 117C64.977 116.993 64.9558 117 64.9417 117Z" fill="#323433"/>
<path d="M19.5151 18.43C15.1518 18.43 11.6074 14.8771 11.6074 10.5031C11.6074 6.12913 15.1518 2.57617 19.5151 2.57617C23.8784 2.57617 27.4228 6.12913 27.4228 10.5031C27.4228 14.87 23.8714 18.43 19.5151 18.43ZM19.5151 2.99375C15.3847 2.99375 12.031 6.36269 12.031 10.496C12.031 14.6364 15.3918 17.9983 19.5151 17.9983C23.6454 17.9983 26.9991 14.6293 26.9991 10.496C26.9991 6.36269 23.6384 2.99375 19.5151 2.99375Z" fill="#323433"/>
<path d="M19.515 20.9993C13.7396 20.9993 9.04444 16.2927 9.04444 10.5032C9.03738 4.70661 13.7396 0 19.515 0C25.2905 0 29.9856 4.70661 29.9856 10.4961C29.9856 16.2856 25.2905 20.9993 19.515 20.9993ZM19.515 0.424657C13.9726 0.424657 9.46101 4.94725 9.46101 10.4961C9.46101 16.052 13.9726 20.5675 19.508 20.5675C25.0504 20.5675 29.555 16.0449 29.555 10.4961C29.562 4.94725 25.0575 0.424657 19.515 0.424657Z" fill="#323433"/>
<path d="M19.5149 15.8537C16.5707 15.8537 14.1702 13.4544 14.1702 10.4959C14.1702 7.54457 16.5637 5.13818 19.5149 5.13818C22.4591 5.13818 24.8597 7.53749 24.8597 10.4959C24.8526 13.4544 22.4591 15.8537 19.5149 15.8537ZM19.5149 5.56992C16.8037 5.56992 14.5938 7.78521 14.5938 10.503C14.5938 13.2208 16.8037 15.4361 19.5149 15.4361C22.2261 15.4361 24.436 13.2208 24.436 10.503C24.429 7.77813 22.2261 5.56992 19.5149 5.56992Z" fill="#323433"/>
<path d="M19.515 13.2847C17.9829 13.2847 16.7402 12.039 16.7402 10.5032C16.7402 8.96734 17.9829 7.72168 19.515 7.72168C21.0471 7.72168 22.2897 8.96734 22.2897 10.5032C22.2897 12.032 21.0471 13.2847 19.515 13.2847ZM19.515 8.13926C18.2159 8.13926 17.1639 9.2009 17.1639 10.4961C17.1639 11.7984 18.2229 12.853 19.515 12.853C20.8141 12.853 21.8661 11.7913 21.8661 10.4961C21.8661 9.2009 20.807 8.13926 19.515 8.13926Z" fill="#323433"/>
<path d="M62.1176 113.178C62.0752 113.178 62.0329 113.164 61.9976 113.142L49.31 104.713C49.2959 104.706 49.2888 104.699 49.2817 104.685C49.197 104.6 49.197 104.465 49.2747 104.387C49.3523 104.31 49.4653 104.303 49.55 104.366L62.1176 112.718C63.0778 112.144 64.1651 111.784 65.2736 111.684C65.3937 111.677 65.5066 111.769 65.5066 111.897C65.5066 112.01 65.4219 112.102 65.3089 112.109C64.2216 112.208 63.1555 112.569 62.2306 113.15C62.1953 113.164 62.1529 113.178 62.1176 113.178Z" fill="#323433"/>
<path d="M62.4495 104.104C62.4072 104.104 62.3719 104.09 62.3366 104.069L53.1439 98.0954C53.045 98.0317 53.0168 97.9043 53.0803 97.8052C53.1439 97.7061 53.271 97.6778 53.3698 97.7415L53.391 97.7557L62.5625 103.722C62.6613 103.786 62.6896 103.92 62.626 104.012C62.5907 104.076 62.5201 104.104 62.4495 104.104Z" fill="#323433"/>
<path d="M61.3269 107.863C61.228 107.863 61.1363 107.792 61.1221 107.686C61.101 107.572 61.1786 107.459 61.2916 107.438L62.8166 107.155C62.9295 107.134 63.0425 107.211 63.0637 107.325C63.0849 107.438 63.0072 107.551 62.8942 107.572L61.3692 107.856C61.3481 107.863 61.341 107.863 61.3269 107.863Z" fill="#323433"/>
<path d="M61.094 106.575C60.9951 106.575 60.9033 106.504 60.8892 106.398C60.868 106.284 60.9457 106.171 61.0587 106.15L62.266 105.923C62.3789 105.902 62.4919 105.98 62.5131 106.093C62.5343 106.207 62.4566 106.32 62.3436 106.341L61.1363 106.568C61.1222 106.568 61.1081 106.575 61.094 106.575Z" fill="#323433"/>
<path d="M44.2405 32.5714C44.2264 32.5714 44.2193 32.5714 44.2052 32.5714C44.0922 32.5501 44.0146 32.444 44.0287 32.3236L44.9042 27.0154C43.9934 26.8102 43.3015 26.336 42.8567 25.607C41.4163 23.2431 42.8496 18.6993 43.6192 16.2575C43.7251 15.9248 43.8169 15.6346 43.8875 15.394C43.9228 15.2808 44.0357 15.2171 44.1487 15.2525C44.2617 15.2878 44.3252 15.4011 44.2899 15.5143C44.2193 15.762 44.1275 16.0522 44.0216 16.3849C43.2732 18.763 41.8753 23.1794 43.2167 25.3805C43.6333 26.067 44.2758 26.4775 45.1795 26.6333C45.2925 26.6545 45.3702 26.7606 45.356 26.8739L44.4452 32.3873C44.4311 32.5006 44.3464 32.5714 44.2405 32.5714Z" fill="#323433"/>
<path d="M50.8421 32.0049C50.835 32.0049 50.828 32.0049 50.828 32.0049C50.7079 31.9978 50.6232 31.8916 50.6373 31.7784L51.3222 23.2994C51.3292 23.2145 51.3857 23.1437 51.4634 23.1154C52.1059 22.8818 53.7298 22.075 53.4897 21.2044C53.4474 21.0487 53.3697 20.9426 53.2567 20.8718C52.7625 20.5745 51.6681 21.0275 51.2939 21.2257C51.2092 21.2681 51.1104 21.254 51.0398 21.1832C50.9762 21.1124 50.9621 21.0133 51.0115 20.9284C51.0327 20.893 52.8402 17.701 51.5128 16.5191C50.9268 15.9953 49.5077 16.0166 48.0108 16.0307C46.6058 16.0449 45.1443 16.0661 44.0429 15.6627C43.4851 15.4574 43.0686 15.1672 42.7791 14.778C41.8683 13.5394 42.2637 12.2513 42.9415 11.4586C43.7746 10.4748 45.0384 10.1421 46.0057 10.6446C47.8414 11.593 49.0064 12.1593 51.5905 12.7325C52.9955 13.051 54.0899 13.9711 54.5912 15.2663C55.2125 16.88 54.8736 18.8334 53.6592 20.6453C53.7722 20.7656 53.8569 20.9143 53.9063 21.0912C54.2523 22.351 52.2753 23.2499 51.7387 23.4622L51.068 31.8067C51.0468 31.9199 50.948 32.0049 50.8421 32.0049ZM48.7663 15.599C50.0442 15.599 51.188 15.6768 51.7741 16.2006C53.0026 17.2905 52.1341 19.5624 51.6399 20.6028C51.7317 20.5675 51.8305 20.5321 51.9364 20.5038C52.4942 20.3339 52.939 20.3056 53.2779 20.4259C54.4217 18.7273 54.7465 16.9083 54.1746 15.422C53.7227 14.2471 52.7625 13.4332 51.4775 13.1501C48.851 12.5627 47.6084 11.954 45.7939 11.0198C45.1443 10.6871 44.0711 10.765 43.2451 11.7346C42.6732 12.407 42.3413 13.4898 43.1039 14.5303C43.3439 14.8558 43.6899 15.0965 44.17 15.2734C45.2008 15.6485 46.6199 15.6344 47.9897 15.6131C48.2509 15.599 48.5121 15.599 48.7663 15.599Z" fill="#323433"/>
<path d="M45.6526 22.5141C45.6385 22.5141 45.6244 22.5141 45.6103 22.5071L44.6571 22.3018C44.3818 22.2452 44.177 21.9904 44.177 21.7073C44.177 21.6507 44.1841 21.6011 44.1982 21.5516C44.2405 21.3959 44.3465 21.2614 44.4877 21.1835C45.2078 20.7801 45.5609 20.2918 46.0551 19.032C46.0975 18.9258 46.2175 18.8692 46.3305 18.9116C46.4364 18.9541 46.4929 19.0744 46.4505 19.1877C45.921 20.5466 45.5114 21.0986 44.6924 21.5587C44.6501 21.5799 44.6218 21.6224 44.6077 21.6719C44.6006 21.6861 44.6006 21.7002 44.6006 21.7214C44.6006 21.8064 44.6571 21.8772 44.7418 21.8984L45.695 22.1036C45.808 22.1249 45.8856 22.2381 45.8574 22.3584C45.8362 22.4434 45.7515 22.5141 45.6526 22.5141Z" fill="#323433"/>
<path d="M48.1521 20.9423C48.1309 20.9423 48.1097 20.9423 48.0956 20.9353C47.7496 20.8928 47.5237 20.5035 47.5802 20.0505C47.6014 19.8453 47.6861 19.6613 47.799 19.5268C47.9332 19.3711 48.1168 19.2932 48.2933 19.3145C48.6392 19.3569 48.8652 19.7462 48.8087 20.1992C48.7804 20.4611 48.6604 20.6805 48.491 20.8149C48.3851 20.8999 48.265 20.9423 48.1521 20.9423ZM48.2297 19.7321C48.1944 19.7321 48.1521 19.7604 48.1168 19.8028C48.0532 19.8736 48.0109 19.9798 47.9967 20.1001C47.9685 20.3337 48.0673 20.5035 48.145 20.5106C48.1733 20.5177 48.2086 20.4964 48.2297 20.4823C48.2933 20.4327 48.3709 20.3195 48.3851 20.1496C48.4133 19.9161 48.3145 19.7462 48.2368 19.7391C48.2297 19.7321 48.2297 19.7321 48.2297 19.7321Z" fill="#323433"/>
<path d="M44.1698 20.1425C44.1275 20.1425 44.0851 20.1354 44.0427 20.1213C43.725 20.0293 43.5768 19.64 43.6897 19.2224C43.8097 18.8119 44.1487 18.5571 44.4593 18.6492C44.5864 18.6845 44.6923 18.7765 44.7629 18.8969C44.8618 19.0738 44.8829 19.3074 44.8123 19.5409C44.7488 19.7745 44.6076 19.9656 44.4311 20.0647C44.3463 20.1213 44.2546 20.1425 44.1698 20.1425ZM44.3252 19.0597C44.2616 19.0597 44.1416 19.1587 44.0922 19.3428C44.0357 19.548 44.0992 19.6966 44.1557 19.7108C44.1769 19.7179 44.2051 19.7037 44.2193 19.6966C44.2828 19.6612 44.3605 19.5763 44.4028 19.4277C44.4452 19.2861 44.424 19.1658 44.3887 19.1021C44.3816 19.0809 44.3605 19.0597 44.3393 19.0526C44.3393 19.0597 44.3322 19.0597 44.3252 19.0597Z" fill="#323433"/>
<path d="M48.9641 39.0825C48.9006 39.0825 48.83 39.0472 48.7947 38.9976L44.1418 32.5853L39.9903 32.9179C39.8985 32.925 39.8067 32.8684 39.7714 32.7835C39.7361 32.6915 39.7714 32.5924 39.842 32.5357L44.629 29.0252C44.7208 28.9545 44.8549 28.9757 44.9255 29.0748C44.9961 29.1668 44.975 29.3013 44.8761 29.372L40.6893 32.4367L44.2124 32.1536C44.283 32.1465 44.3607 32.1819 44.4031 32.2385L48.8653 38.3889L50.6304 31.7431C50.6516 31.6652 50.7151 31.6015 50.7928 31.5873L54.7325 30.8159L53.7793 30.3417C53.7793 30.3417 53.7723 30.3417 53.7723 30.3346L50.9834 28.9403C50.8775 28.8908 50.8351 28.7634 50.8916 28.6572C50.941 28.551 51.0681 28.5086 51.174 28.5652L53.9558 29.9524C53.9558 29.9524 53.9629 29.9524 53.9629 29.9595L55.4809 30.7168C55.5656 30.7593 55.608 30.8442 55.5939 30.9362C55.5797 31.0282 55.5162 31.099 55.4244 31.1131L50.9975 31.9766L49.1689 38.9268C49.1477 39.0047 49.0841 39.0684 49.0065 39.0825C48.9923 39.0825 48.9782 39.0825 48.9641 39.0825Z" fill="#323433"/>
<path d="M42.9977 46.4575C42.4188 46.4575 41.854 46.2664 41.388 45.8983C40.8373 45.4666 40.4842 44.8438 40.3995 44.1431L40.0535 41.3191C40.0394 41.2059 40.1241 41.0997 40.2371 41.0855L45.4477 40.4415C45.5607 40.4273 45.6666 40.5123 45.6807 40.6255L46.0337 43.4566C46.2102 44.8933 45.1865 46.2097 43.7461 46.3867L43.3225 46.4362C43.2166 46.4504 43.1107 46.4575 42.9977 46.4575ZM40.4983 41.4819L40.8161 44.0935C40.8867 44.681 41.1832 45.1976 41.6492 45.5657C42.1152 45.9266 42.6871 46.0894 43.2731 46.0187L43.6967 45.9691C44.9041 45.8205 45.7584 44.7164 45.6101 43.5061L45.2924 40.8945L40.4983 41.4819Z" fill="#323433"/>
</g>
<defs>
<clipPath id="clip0">
<rect width="104" height="117" fill="white"/>
</clipPath>
</defs>
</svg>
