<svg width="113" height="112" viewBox="0 0 113 112" fill="none" xmlns="http://www.w3.org/2000/svg">
<g clip-path="url(#clip0)">
<path d="M4.2854 21.3587L51.2977 27.2456V20.2536L4.32804 14.3667L0.213135 17.7246L4.2854 21.3587Z" fill="white"/>
<path d="M51.2977 27.4368C51.2764 27.4368 51.2764 27.4368 51.2764 27.4368L4.26415 21.5712C4.22151 21.5712 4.17887 21.5499 4.15755 21.5074L0.0639623 17.8732C0.0213208 17.8307 0 17.767 0 17.7032C0 17.6395 0.0213208 17.5757 0.085283 17.5545L4.20019 14.2178C4.24283 14.1753 4.30679 14.1541 4.34943 14.1753L51.3404 20.0622C51.447 20.0835 51.5323 20.1685 51.5323 20.2748V27.2455C51.5323 27.3093 51.5109 27.3518 51.4683 27.3943C51.4043 27.4368 51.3404 27.4368 51.2977 27.4368ZM4.39208 21.1461L51.0845 26.9905V20.4448L4.39208 14.6004L0.55434 17.7245L4.39208 21.1461Z" fill="black"/>
<path d="M8.44317 19.8074L26.3952 22.0601C27.1628 22.1664 27.8451 21.5501 27.8451 20.785C27.8451 20.1261 27.3547 19.5948 26.7151 19.5098L8.76298 17.2571C7.99543 17.1508 7.31317 17.7671 7.31317 18.5322C7.29185 19.1698 7.78223 19.7224 8.44317 19.8074Z" fill="#C4C4C4"/>
<path d="M31.6188 22.719L34.8169 23.144C35.5844 23.2503 36.2667 22.634 36.2667 21.8689C36.2667 21.2101 35.7763 20.6788 35.1367 20.5937L31.9386 20.1687C31.171 20.0624 30.4888 20.6788 30.4888 21.4438C30.4888 22.1027 30.9791 22.6552 31.6188 22.719Z" fill="#C4C4C4"/>
<path d="M22.6426 32.6226L47.5452 29.4985V36.4693L22.6852 39.5934L18.5703 36.2568L22.6426 32.6226Z" fill="white"/>
<path d="M22.6853 39.8269C22.6427 39.8269 22.5787 39.8056 22.5574 39.7843L18.4425 36.4477C18.3998 36.4052 18.3785 36.3415 18.3572 36.299C18.3572 36.2352 18.3785 36.1714 18.4211 36.1289L22.4934 32.4948C22.5147 32.4735 22.5574 32.4523 22.6 32.431L47.5027 29.3069C47.5666 29.2857 47.6306 29.3282 47.6732 29.3707C47.7159 29.4132 47.7372 29.4769 47.7372 29.5194V36.4902C47.7372 36.5965 47.6519 36.6815 47.5453 36.7028L22.6853 39.8269ZM18.9115 36.2565L22.7493 39.3806L47.3321 36.299V29.7532L22.7493 32.8561L18.9115 36.2565Z" fill="black"/>
<path d="M26.8214 36.2353L35.5416 35.2789C36.3091 35.1939 36.8208 34.5563 36.6503 33.9188C36.501 33.3875 35.8827 33.0474 35.2431 33.1112L26.5229 34.0675C25.7553 34.1525 25.2436 34.7689 25.4142 35.4064C25.5635 35.959 26.1818 36.299 26.8214 36.2353Z" fill="#C4C4C4"/>
<path d="M43.9421 2.18896H39.8699V111.532H43.9421V2.18896Z" fill="white"/>
<path d="M43.942 111.745H39.8697C39.7631 111.745 39.6565 111.639 39.6565 111.533V2.18909C39.6565 2.08282 39.7631 1.97656 39.8697 1.97656H43.942C44.0486 1.97656 44.1552 2.08282 44.1552 2.18909V111.533C44.1552 111.639 44.0699 111.745 43.942 111.745ZM40.0829 111.299H43.7288V2.40161H40.0829V111.299Z" fill="black"/>
<path d="M86.7541 0.850098L33.1111 7.56585V14.5791L86.7754 7.82088L90.8477 4.18672L86.7541 0.850098Z" fill="white"/>
<path d="M33.1112 14.813C33.0472 14.813 33.0046 14.7917 32.9619 14.7492C32.9193 14.7067 32.8979 14.6429 32.8979 14.6004V7.58715C32.8979 7.48089 32.9832 7.39588 33.0898 7.37463L86.7115 0.637628C86.7755 0.616376 86.8181 0.65888 86.8608 0.680133L90.9757 4.01676C91.0183 4.05926 91.0396 4.12302 91.061 4.16552C91.061 4.22928 91.0397 4.29304 90.997 4.33554L86.9248 7.9697C86.9034 7.99095 86.8608 8.0122 86.8181 8.03345L33.1538 14.813C33.1325 14.813 33.1325 14.813 33.1112 14.813ZM33.3244 7.75717V14.3454L86.6902 7.60841L90.528 4.18677L86.6902 1.06268L33.3244 7.75717Z" fill="black"/>
<path d="M78.3324 6.92819L51.0205 10.3711C50.189 10.4773 49.4641 9.83976 49.4641 9.01092C49.4641 8.30959 49.9758 7.73578 50.6581 7.65077L77.97 4.20788C78.8015 4.10162 79.5264 4.73919 79.5264 5.56804C79.5477 6.24811 79.036 6.84318 78.3324 6.92819Z" fill="#C4C4C4"/>
<path d="M45.2213 11.0297L41.2556 11.4973C40.4241 11.6036 39.6992 10.966 39.6992 10.1371C39.6992 9.43582 40.2109 8.86201 40.8932 8.777L44.8588 8.30945C45.6904 8.20318 46.4153 8.84076 46.4153 9.6696C46.4153 10.3709 45.9036 10.9447 45.2213 11.0297Z" fill="#C4C4C4"/>
<path d="M67.7146 97.7611L69.8254 107.303L73.4499 107.495L71.4457 97.166L67.7146 97.7611Z" fill="white"/>
<path d="M73.45 107.707L69.7828 107.516C69.6762 107.516 69.6123 107.452 69.5909 107.346L67.5015 97.8036C67.4802 97.7398 67.5015 97.6973 67.5228 97.6335C67.5441 97.591 67.6081 97.5485 67.6721 97.5485L71.4032 96.9535C71.5098 96.9322 71.6377 97.0172 71.6591 97.1235L73.6632 107.431C73.6845 107.495 73.6632 107.558 73.6206 107.622C73.5779 107.686 73.514 107.707 73.45 107.707ZM69.996 107.091L73.1942 107.261L71.2753 97.421L67.9706 97.9523L69.996 107.091Z" fill="black"/>
<path d="M68.5461 106.474C68.4395 107.218 68.2689 108.599 68.2476 109.853C68.2263 110.64 68.8233 111.299 69.6122 111.405C71.8082 111.702 76.7973 112 81.0401 111.596C81.3386 111.575 81.8503 111.362 81.9995 110.64C82.4686 108.196 78.2471 107.622 73.5778 105.858C73.3859 105.794 73.194 105.837 73.0448 105.964L72.5331 106.453C72.0214 106.942 71.2965 107.069 70.6355 106.793L69.1218 106.134C68.8872 106.028 68.5888 106.198 68.5461 106.474Z" fill="#8DD5E0"/>
<path d="M76.6054 112C73.7485 112 71.0834 111.809 69.5696 111.617C68.6741 111.511 68.0132 110.746 68.0132 109.853C68.0345 108.578 68.2051 107.176 68.3117 106.453C68.333 106.262 68.4609 106.07 68.6315 105.985C68.802 105.879 69.0153 105.879 69.1858 105.964L70.6996 106.623C71.2539 106.878 71.9149 106.729 72.3413 106.325L72.853 105.837C73.0662 105.645 73.3434 105.582 73.5992 105.688C74.6866 106.113 75.7313 106.432 76.7334 106.772C79.9954 107.834 82.5539 108.663 82.1488 110.725C81.9996 111.511 81.4452 111.83 80.9975 111.872C79.6117 111.957 78.0979 112 76.6054 112ZM68.9726 106.347C68.9513 106.347 68.9087 106.368 68.866 106.368C68.8021 106.389 68.7594 106.453 68.7594 106.517C68.6528 107.239 68.4822 108.621 68.4609 109.875C68.4396 110.533 68.9513 111.107 69.6336 111.192C71.8936 111.49 76.7973 111.787 81.0188 111.405C81.1254 111.384 81.6371 111.32 81.7651 110.618C82.1062 108.94 79.8035 108.196 76.6481 107.154C75.646 106.814 74.6013 106.474 73.4926 106.07C73.386 106.028 73.2794 106.049 73.1941 106.134L72.6824 106.623C72.1281 107.176 71.2753 107.324 70.5503 107.006L69.0366 106.347C69.0366 106.347 68.9939 106.347 68.9726 106.347Z" fill="black"/>
<path d="M68.2689 109.684C68.2689 109.684 68.2689 109.811 68.2689 109.875C68.2475 110.661 68.8445 111.32 69.6334 111.426C71.8294 111.724 76.8185 112.021 81.0613 111.618C81.3598 111.596 81.8715 111.384 82.0208 110.661C82.0634 110.449 82.0421 110.045 82.0421 110.045L81.7436 110.066C77.4581 110.279 73.1513 110.172 68.8872 109.769L68.2689 109.684Z" fill="white"/>
<path d="M76.6054 112C73.7485 112 71.0834 111.809 69.5696 111.617C68.6741 111.511 68.0132 110.746 68.0132 109.854C68.0132 109.79 68.0132 109.662 68.0132 109.662C68.0132 109.598 68.0345 109.556 68.0771 109.513C68.1198 109.471 68.1837 109.45 68.2264 109.45L68.8021 109.513C73.0449 109.939 77.373 110.024 81.6371 109.811L81.9356 109.79C82.0422 109.79 82.1488 109.875 82.1702 109.981C82.1702 110.024 82.1915 110.406 82.1488 110.661C81.9996 111.447 81.4452 111.766 80.9975 111.809C79.6117 111.957 78.0979 112 76.6054 112ZM68.4822 109.917C68.5036 110.576 68.9939 111.107 69.6549 111.192C71.9149 111.49 76.8187 111.787 81.0402 111.384C81.1468 111.362 81.6585 111.299 81.7864 110.597C81.8077 110.512 81.8077 110.364 81.8077 110.257H81.7224C77.4369 110.47 73.0875 110.364 68.8234 109.96L68.4822 109.917Z" fill="black"/>
<path d="M74.6439 108.706C74.5799 108.706 74.5373 108.685 74.4946 108.642C74.4093 108.557 74.4093 108.43 74.4946 108.345L76.1363 106.708C76.2216 106.623 76.3495 106.623 76.4348 106.708C76.5201 106.793 76.5201 106.921 76.4348 107.006L74.7931 108.642C74.7505 108.664 74.7078 108.706 74.6439 108.706Z" fill="black"/>
<path d="M76.243 108.876C76.179 108.876 76.1364 108.855 76.0937 108.812C76.0085 108.727 76.0085 108.6 76.0937 108.515L77.3943 107.155C77.4796 107.07 77.6075 107.07 77.6928 107.155C77.7781 107.24 77.7781 107.367 77.6928 107.452L76.3922 108.812C76.3496 108.855 76.307 108.876 76.243 108.876Z" fill="black"/>
<path d="M51.511 99.0361L50.5942 105.412H48.6327L48.5261 99.1636L51.511 99.0361Z" fill="white"/>
<path d="M50.5941 105.624H48.6326C48.526 105.624 48.4193 105.518 48.4193 105.412L48.3127 99.1635C48.3127 99.0573 48.398 98.951 48.5046 98.951L51.4895 98.8447C51.5535 98.8447 51.6175 98.866 51.6601 98.9085C51.7027 98.951 51.7241 99.0147 51.7241 99.0785L50.8073 105.454C50.7859 105.539 50.7007 105.624 50.5941 105.624ZM48.8244 105.178H50.3809L51.2337 99.2485L48.7178 99.3335L48.8244 105.178Z" fill="black"/>
<path d="M48.0357 111.596C46.8631 111.405 46.2235 110.576 46.1808 109.853C46.0742 107.707 46.6499 105.667 47.6946 104.285C47.8012 104.136 48.0357 104.136 48.1423 104.307L48.1636 104.328C48.3555 104.498 48.6327 104.477 48.8246 104.328C48.9738 104.2 49.187 104.115 49.3789 104.115H49.6774C50.0185 104.115 50.3383 104.307 50.5089 104.583C50.5942 104.71 50.7861 104.71 50.8927 104.604L51.0633 104.413C51.1699 104.307 51.3617 104.392 51.3617 104.54L51.5536 110.406C51.4683 111.532 49.5708 111.851 48.0357 111.596Z" fill="#8DD5E0"/>
<path d="M49.0378 111.894C48.6754 111.894 48.3342 111.872 48.0144 111.809C46.7352 111.596 46.0103 110.661 45.9676 109.854C45.861 107.665 46.4367 105.582 47.5454 104.158C47.652 104.03 47.8012 103.967 47.9505 103.967C48.0997 103.967 48.249 104.052 48.3342 104.158L48.3556 104.179C48.4622 104.264 48.6114 104.264 48.718 104.158C48.9099 103.988 49.1658 103.903 49.4216 103.903H49.7201C50.1252 103.903 50.5303 104.115 50.7435 104.455H50.7648L50.9354 104.264C51.042 104.158 51.2125 104.115 51.3618 104.179C51.511 104.243 51.6176 104.37 51.6176 104.54L51.8095 110.406V110.427C51.7882 110.789 51.6176 111.086 51.2978 111.341C50.7435 111.724 49.8693 111.894 49.0378 111.894ZM48.0571 111.384C49.2297 111.575 50.4237 111.405 50.978 110.98C51.1912 110.831 51.2978 110.619 51.3192 110.385L51.1486 104.625L51.042 104.732C50.9354 104.838 50.8075 104.88 50.6582 104.88C50.509 104.859 50.4024 104.795 50.3171 104.689C50.1892 104.477 49.912 104.328 49.6561 104.328H49.3576C49.2084 104.328 49.0378 104.392 48.9312 104.477C48.6541 104.71 48.2703 104.71 48.0144 104.477L47.9718 104.434L47.9505 104.413C47.9291 104.392 47.9078 104.392 47.9078 104.392C47.8865 104.392 47.8865 104.392 47.8652 104.413C46.8205 105.773 46.2661 107.75 46.3941 109.832C46.4154 110.449 47.0337 111.214 48.0571 111.384Z" fill="black"/>
<path d="M51.5109 108.812C51.4896 108.94 51.4256 109.067 51.3616 109.173C51.1058 109.535 50.3809 110.257 48.8458 110.13C47.0335 109.981 46.202 108.727 46.202 108.727C46.1807 109.088 46.1807 109.471 46.202 109.832C46.2233 110.555 46.9056 111.384 48.0569 111.575C49.592 111.83 51.4896 111.511 51.5749 110.363L51.5109 108.812Z" fill="white"/>
<path d="M49.0378 111.894C48.6754 111.894 48.3343 111.873 48.0144 111.809C46.7352 111.596 46.0103 110.661 45.9677 109.854C45.9463 109.471 45.9463 109.089 45.9677 108.706C45.9677 108.621 46.0316 108.536 46.1169 108.515C46.2022 108.494 46.3088 108.536 46.3514 108.6C46.3727 108.621 47.1616 109.79 48.846 109.917C50.2531 110.024 50.8928 109.429 51.1699 109.046C51.2339 108.961 51.2765 108.876 51.2978 108.749C51.3192 108.642 51.4258 108.579 51.5324 108.6C51.639 108.621 51.7243 108.706 51.7243 108.791L51.7669 110.364C51.7669 110.385 51.7669 110.385 51.7669 110.385C51.7456 110.746 51.575 111.044 51.2552 111.299C50.7435 111.724 49.8694 111.894 49.0378 111.894ZM46.3727 109.28C46.3727 109.471 46.3727 109.662 46.3941 109.832C46.4154 110.449 47.0337 111.193 48.0784 111.384C49.251 111.575 50.445 111.405 50.9994 110.98C51.2126 110.831 51.3192 110.619 51.3405 110.385L51.3192 109.556C50.9354 109.939 50.1678 110.47 48.8246 110.364C47.6093 110.257 46.7992 109.705 46.3727 109.28Z" fill="black"/>
<path d="M50.2529 107.409H48.1422C48.0356 107.409 47.929 107.303 47.929 107.197C47.929 107.091 48.0356 106.984 48.1422 106.984H50.2529C50.3595 106.984 50.4661 107.091 50.4661 107.197C50.4874 107.324 50.3808 107.409 50.2529 107.409Z" fill="black"/>
<path d="M50.4875 106.347H48.3768C48.2702 106.347 48.1636 106.241 48.1636 106.134C48.1636 106.028 48.2702 105.922 48.3768 105.922H50.4875C50.5941 105.922 50.7007 106.028 50.7007 106.134C50.7007 106.262 50.5941 106.347 50.4875 106.347Z" fill="black"/>
<path d="M66.542 57.19C66.542 57.19 70.3797 76.4022 70.4863 81.0564C70.5929 85.6894 73.258 103.095 73.258 103.095C73.258 103.095 70.6356 104.349 68.738 104.349C68.738 104.349 57.502 75.3608 56.8411 67.7312C56.1801 60.1016 58.3975 56.6162 58.3975 56.6162L66.542 57.19Z" fill="black"/>
<path d="M63.5786 55.9789C63.5786 55.9789 52.0654 89.8339 51.8735 102.479C51.8735 102.479 51.17 102.947 47.9292 102.415C47.9292 102.415 45.5839 65.0112 51.5964 55.2988L63.5786 55.9789Z" fill="black"/>
<path d="M71.9149 19.4458L65.3481 21.7411C65.007 21.8473 64.7938 22.2086 64.8577 22.5699C64.9217 22.9312 65.2415 23.1862 65.604 23.2075L72.5758 23.2925L71.9149 19.4458Z" fill="white"/>
<path d="M72.5758 23.5054L65.6039 23.4204C65.1349 23.4204 64.7298 23.0804 64.6445 22.6128C64.5805 22.1453 64.8364 21.699 65.2841 21.5289L71.8509 19.2337C71.9149 19.2124 71.9788 19.2124 72.0428 19.2549C72.1068 19.2762 72.1281 19.3399 72.1494 19.4037L72.8103 23.2504C72.8317 23.3141 72.789 23.3779 72.7677 23.4204C72.6824 23.4842 72.6185 23.5054 72.5758 23.5054ZM71.7443 19.7437L65.4334 21.954C65.1775 22.039 65.0283 22.294 65.0709 22.5491C65.1135 22.8041 65.3268 22.9954 65.6039 22.9954L72.32 23.0591L71.7443 19.7437Z" fill="black"/>
<path d="M97.0308 10.9448L72.1708 18.7444C71.915 18.8295 71.7444 19.0845 71.787 19.3395L72.2987 23.3137C72.3414 23.6112 72.5972 23.8238 72.8744 23.8025L99.1416 23.0799L97.0308 10.9448Z" fill="white"/>
<path d="M72.8318 24.0364C72.4481 24.0364 72.1069 23.7389 72.043 23.3564L71.5313 19.3822C71.4886 18.9996 71.7018 18.6596 72.0643 18.5533L96.9456 10.7537C97.0096 10.7325 97.0735 10.7325 97.1162 10.775C97.1801 10.7962 97.2015 10.86 97.2228 10.9237L99.2909 23.0588C99.3122 23.1226 99.2909 23.1863 99.2482 23.2288C99.2056 23.2714 99.1416 23.2926 99.099 23.2926L72.8318 24.0364C72.8532 24.0364 72.8318 24.0364 72.8318 24.0364ZM96.8603 11.2425L72.2135 18.9571C72.0643 18.9996 71.9577 19.1484 71.9577 19.3397L72.4694 23.3139C72.4907 23.4839 72.64 23.6114 72.8318 23.6114L98.8432 22.8888L96.8603 11.2425Z" fill="black"/>
<path d="M98.3739 24.1215C97.3931 24.2702 96.4976 23.5902 96.3484 22.5913L94.792 11.5826C94.6427 10.605 95.325 9.71238 96.3271 9.58486C97.3078 9.4361 98.2033 10.1162 98.3525 11.115L99.909 22.1238C100.058 23.0801 99.3759 23.9727 98.3739 24.1215Z" fill="#8DD5E0" stroke="black" stroke-width="0.5"/>
<path d="M89.1848 22.2089C89.0782 22.2089 88.9929 22.1239 88.9716 22.0176L88.1827 15.1318C88.1614 15.0256 88.2467 14.898 88.3746 14.8768C88.4812 14.8555 88.6091 14.9405 88.6304 15.0681L89.4193 21.9538C89.4406 22.0601 89.3553 22.1876 89.2274 22.2089C89.2061 22.1876 89.1848 22.2089 89.1848 22.2089Z" fill="black"/>
<path d="M59.8687 60.7816C59.8687 60.7816 55.4553 63.4806 48.6114 63.1406C48.3982 63.1193 48.2276 62.9493 48.2702 62.7155L48.6327 59.8252L59.8687 60.7816Z" fill="white"/>
<path d="M49.8266 63.3745C49.4429 63.3745 49.0378 63.3532 48.6327 63.3532C48.4834 63.332 48.3129 63.2682 48.2063 63.1407C48.0997 63.0132 48.057 62.8432 48.0783 62.6944L48.4408 59.8041C48.4621 59.6978 48.5474 59.6128 48.6753 59.6128L59.9113 60.5692C59.9966 60.5904 60.0819 60.6329 60.1032 60.7392C60.1246 60.8242 60.0819 60.9304 59.9966 60.9729C59.954 60.9942 55.967 63.3745 49.8266 63.3745ZM48.8459 60.0591L48.5047 62.7156C48.5047 62.7581 48.5047 62.8007 48.5261 62.8219C48.5474 62.8432 48.59 62.8857 48.6327 62.8857C53.8136 63.1407 57.6513 61.6105 59.1225 60.9092L48.8459 60.0591Z" fill="black"/>
<path d="M55.8176 60.4204C55.8176 60.4204 60.8707 64.4371 68.269 63.3532C68.4182 63.332 68.5248 63.2044 68.5248 63.0557L68.141 60.0591L55.8176 60.4204Z" fill="white"/>
<path d="M65.796 63.7569C59.7622 63.7569 55.7539 60.6328 55.7113 60.5903C55.6473 60.5265 55.6047 60.4415 55.6473 60.3565C55.6686 60.2715 55.7539 60.2077 55.8392 60.2077L68.1626 59.8677C68.2692 59.8677 68.3758 59.9314 68.3758 60.0589L68.7595 63.0555C68.7809 63.3106 68.6103 63.5656 68.3331 63.5868C67.459 63.7144 66.6061 63.7569 65.796 63.7569ZM56.5001 60.6328C57.9713 61.5891 62.3846 64.0119 68.2478 63.1618C68.2692 63.1618 68.3118 63.1405 68.3118 63.098L67.9494 60.2927L56.5001 60.6328Z" fill="black"/>
<path d="M77.1598 28.1384C77.1598 28.1384 76.8187 23.3353 76.6908 22.5915C76.5841 21.8477 77.0745 21.7201 77.2877 21.7839C77.5862 21.8902 77.8421 22.5277 77.9913 23.0378C78.0979 23.4203 78.4604 23.6966 78.8655 23.6541L80.5924 23.6329L79.4198 28.2234L77.1598 28.1384Z" fill="white"/>
<path d="M79.4197 28.4357L77.1597 28.3719C77.0531 28.3719 76.9678 28.2869 76.9678 28.1807C76.9678 28.1382 76.6267 23.3776 76.4988 22.655C76.4135 22.145 76.584 21.8687 76.7546 21.7412C76.9678 21.5712 77.2237 21.5712 77.3942 21.6349C77.714 21.7412 77.9912 22.1875 78.2257 23.0376C78.311 23.3351 78.5669 23.5264 78.8867 23.5051L80.6137 23.4839C80.6776 23.4839 80.7416 23.5051 80.7842 23.5689C80.8269 23.6327 80.8482 23.6752 80.8269 23.7602L79.6542 28.3507C79.6116 28.3719 79.5263 28.4357 79.4197 28.4357ZM77.3729 27.9256L79.2491 27.9894L80.2939 23.8452L78.8654 23.8664C78.3537 23.8877 77.9059 23.5689 77.778 23.0801C77.5648 22.3363 77.3516 22.0175 77.2237 21.975C77.181 21.9537 77.0744 21.9537 77.0105 22.0175C76.9039 22.1025 76.8612 22.2938 76.9039 22.5275C77.0105 23.2289 77.2876 27.0118 77.3729 27.9256Z" fill="black"/>
<path d="M45.7756 50.4321L48.8671 53.535C49.1656 53.8325 49.6134 53.8325 49.8905 53.535L50.9992 52.4936C51.2551 52.2386 51.7668 51.9623 52.1505 51.9623L53.3445 52.0686C54.5385 52.1748 54.9862 53.1737 54.9862 53.1737C55.1994 53.5562 55.0502 54.0875 54.6664 54.4063C54.6664 54.4063 54.1547 54.8101 53.707 54.8951C52.9181 55.0226 52.9181 55.0226 52.9181 55.0226C52.9181 55.0226 52.0866 55.2989 51.5109 55.724C50.9139 56.149 49.9971 56.5528 48.9524 56.5103H48.8245C48.1849 56.4678 47.5879 56.2128 47.0975 55.809L43.5796 52.7911L45.7756 50.4321Z" fill="white"/>
<path d="M49.1231 56.7012C49.0591 56.7012 48.9738 56.7012 48.8885 56.68H48.8032C48.121 56.6374 47.4814 56.3824 46.9483 55.9361L43.4304 52.9183C43.3878 52.8758 43.3665 52.8333 43.3665 52.7695C43.3665 52.7058 43.3878 52.6633 43.4304 52.6208L45.6051 50.283C45.6478 50.2405 45.7117 50.2192 45.7544 50.2192C45.797 50.2192 45.861 50.2405 45.9036 50.283L48.9951 53.3858C49.187 53.5771 49.5068 53.5771 49.72 53.3858L50.8287 52.3445C51.1272 52.0469 51.6602 51.7494 52.108 51.7494H52.1293L53.3232 51.8557C54.6025 51.9619 55.0929 52.982 55.1355 53.0883C55.3914 53.5771 55.2208 54.1934 54.7517 54.576C54.7304 54.5972 54.1974 55.0223 53.707 55.1073L52.9395 55.2348C52.8329 55.2773 52.108 55.5323 51.5963 55.8936C51.1485 56.1911 50.2531 56.7012 49.1231 56.7012ZM43.8995 52.7483L47.2468 55.6173C47.6946 55.9999 48.2489 56.2124 48.8459 56.2762H48.9312C50.0399 56.3399 50.9353 55.8511 51.3404 55.5323C51.9587 55.1073 52.7902 54.831 52.8115 54.8097C52.8329 54.8097 52.8329 54.8097 52.8329 54.7885L53.6217 54.661C54.0055 54.5972 54.4746 54.2359 54.4746 54.2147C54.7944 53.9597 54.901 53.5559 54.7304 53.2583V53.2371C54.7091 53.2158 54.3253 52.3445 53.2806 52.2595L52.108 52.1532C51.8095 52.1532 51.3617 52.4082 51.1272 52.6208L50.0185 53.6621C49.6561 54.0234 49.0591 54.0234 48.6966 53.6409L45.7544 50.708L43.8995 52.7483Z" fill="black"/>
<path fill-rule="evenodd" clip-rule="evenodd" d="M80.3578 27.7557C80.3578 27.7557 80.3578 30.6247 80.102 33.4513C79.9101 35.8953 78.8654 46.9678 75.0063 47.3929C72.4265 47.6692 70.3371 46.1815 68.738 45.0339C68.205 44.6513 67.7359 44.3325 67.3308 44.0988C67.3308 45.2039 67.3522 46.224 67.4588 47.1378C67.672 49.2843 68.1197 52.7272 68.5035 55.66C68.802 58.0403 69.0791 60.0805 69.1431 60.8244C69.1431 60.9731 69.0365 61.1219 68.8659 61.1219L47.8437 60.7606C47.6305 60.7606 47.4599 60.5693 47.4812 60.3568C47.5452 59.6342 47.801 58.0191 48.1422 55.9788C48.6539 52.7485 49.3575 48.498 49.6346 45.3314C49.7199 44.5025 49.6773 43.6737 49.5493 42.8874C49.528 42.8024 49.528 42.7173 49.5067 42.6111C49.4641 42.5048 49.4214 42.3986 49.3361 42.3136C48.7178 41.7185 47.5665 42.6961 47.5665 42.6961C45.0293 44.6938 46.0954 47.0103 46.0954 47.0103L48.398 52.1322L45.4558 55.4263C45.4558 55.4263 36.1599 49.8581 37.4178 42.9086C38.3346 37.8718 44.8588 33.9826 44.8588 33.9826C47.8437 31.9849 49.592 31.3261 52.1078 30.5185C54.6237 29.7321 61.0625 29.6259 64.2607 30.8585C66.4354 31.7086 68.2689 33.345 69.6974 34.6414C69.7827 34.7052 69.868 34.7902 69.932 34.854C70.5503 35.4065 71.531 35.279 71.9574 34.5564L76.2003 27.6494L80.3578 27.7557Z" fill="#EF5344"/>
<path d="M80.1234 33.4723L79.8036 33.451L80.1234 33.4723ZM80.3579 27.7554H80.6777V27.4366H80.3579V27.7554ZM75.0064 47.4138L75.0491 47.7326L75.0064 47.4138ZM68.7381 45.0548L68.93 44.7998L68.7381 45.0548ZM67.3309 44.1197L67.4802 43.8434L67.0111 43.5884V44.1197H67.3309ZM67.4589 47.1588L67.7787 47.1163L67.4589 47.1588ZM68.5036 55.6597L68.8234 55.6172L68.5036 55.6597ZM69.1432 60.8241H69.463V60.8028V60.7816L69.1432 60.8241ZM68.866 61.1216V61.4404V61.1216ZM47.8438 60.7603V60.4415V60.7603ZM47.4813 60.3565L47.1615 60.3353L47.4813 60.3565ZM48.1423 55.9785L47.8224 55.936L48.1423 55.9785ZM49.6347 45.3311L49.3149 45.3098L49.6347 45.3311ZM49.5494 42.8658L49.8692 42.8233L49.2296 42.8021L49.5494 42.8658ZM49.5494 42.8658L49.2296 42.8871L49.8692 42.9083L49.5494 42.8658ZM49.5494 42.8658L49.8692 42.8446L49.5494 42.8658ZM49.5068 42.5895L49.8266 42.5258V42.5045V42.4833L49.5068 42.5895ZM49.3362 42.292L49.5707 42.0582L49.3362 42.292ZM47.5666 42.6958L47.7585 42.9508L47.5666 42.6958ZM46.0955 46.9888L46.394 46.8613L46.0955 46.9888ZM48.3981 52.1106L48.6326 52.3231L48.7606 52.1743L48.6753 51.9831L48.3981 52.1106ZM45.4558 55.3835L45.2853 55.6597L45.5198 55.7872L45.6904 55.596L45.4558 55.3835ZM37.4179 42.8658L37.0981 42.8021L37.4179 42.8658ZM44.8802 33.9611L44.7096 33.706L44.4538 33.8761L44.603 34.1311L44.8802 33.9611ZM52.1292 30.4969L52.2145 30.7945L52.1292 30.4969ZM64.2821 30.837L64.3887 30.5394L64.2821 30.837ZM69.7189 34.6199L69.9321 34.3861L69.7189 34.6199ZM69.9747 34.8324L70.1879 34.5986L69.9747 34.8324ZM71.9789 34.5349L72.256 34.7049L71.9789 34.5349ZM76.2217 27.6279V27.3091H76.0298L75.9232 27.4578L76.2217 27.6279ZM80.4219 33.4935C80.5498 32.0696 80.6138 30.6245 80.6351 29.5618C80.6564 29.0305 80.6564 28.5842 80.6564 28.2654C80.6564 28.1167 80.6564 27.9892 80.6564 27.9041C80.6564 27.8616 80.6564 27.8191 80.6564 27.7979C80.6564 27.7766 80.6564 27.7766 80.6564 27.7766C80.6564 27.7766 80.6564 27.7766 80.3366 27.7766C80.0168 27.7766 80.0168 27.7766 80.0168 27.7766V27.7979C80.0168 27.8191 80.0168 27.8616 80.0168 27.8829C80.0168 27.9679 80.0168 28.0954 80.0168 28.2442C80.0168 28.563 79.9955 29.0093 79.9955 29.5406C79.9742 30.6032 79.9102 32.0271 79.7823 33.4298L80.4219 33.4935ZM75.0491 47.7326C76.1791 47.6051 77.0319 46.7125 77.6928 45.5436C78.3538 44.3747 78.8655 42.8446 79.2492 41.2506C80.0168 38.1053 80.3366 34.7049 80.4219 33.4723L79.7823 33.4298C79.6757 34.6411 79.3772 37.999 78.6096 41.1019C78.2258 42.6533 77.7355 44.1197 77.1172 45.2248C76.4775 46.3299 75.774 46.9888 74.9638 47.0738L75.0491 47.7326ZM68.5675 45.3098C70.1453 46.4362 72.32 48.0089 75.0491 47.7326L74.9851 47.095C72.5332 47.3501 70.5504 45.9474 68.93 44.7998L68.5675 45.3098ZM67.1817 44.396C67.5868 44.6085 68.0345 44.9273 68.5675 45.3098L68.9513 44.7998C68.4396 44.4385 67.9492 44.0772 67.5015 43.8434L67.1817 44.396ZM67.7787 47.1163C67.6721 46.2237 67.6507 45.2036 67.6507 44.1197H67.0111C67.0111 45.2248 67.0324 46.2662 67.1391 47.2013L67.7787 47.1163ZM68.8234 55.6172C68.4396 52.6844 68.0132 49.2628 67.7787 47.1163L67.1391 47.18C67.3523 49.3265 67.8 52.7694 68.1838 55.7022L68.8234 55.6172ZM69.463 60.8028C69.3991 60.059 69.1432 58.0187 68.8234 55.6385L68.1838 55.7235C68.4823 58.1038 68.7594 60.144 68.8234 60.8666L69.463 60.8028ZM68.866 61.4404C69.2285 61.4404 69.463 61.1428 69.463 60.8241H68.8234C68.8234 60.8241 68.8234 60.8241 68.8234 60.8028C68.8234 60.8028 68.8234 60.8028 68.8447 60.7816H68.866V61.4404ZM47.8438 61.0791L68.866 61.4404L68.8874 60.8028L47.8651 60.4415L47.8438 61.0791ZM47.1615 60.3353C47.1402 60.7178 47.4174 61.0791 47.8438 61.0791V60.4415C47.8224 60.4415 47.8224 60.4415 47.8224 60.4203C47.8224 60.4203 47.8011 60.399 47.8011 60.3778L47.1615 60.3353ZM47.8224 55.9148C47.5026 57.9337 47.2255 59.5702 47.1615 60.314L47.8011 60.3778C47.8651 59.6764 48.1209 58.0613 48.4407 56.021L47.8224 55.9148ZM49.3149 45.2886C49.0164 48.4552 48.3341 52.6844 47.8224 55.9148L48.4621 56.021C48.9738 52.7907 49.6774 48.5402 49.9758 45.3523L49.3149 45.2886ZM49.2296 42.9296C49.3575 43.7159 49.3789 44.5022 49.3149 45.3098L49.9545 45.3736C50.0398 44.5235 49.9972 43.6734 49.8692 42.8446L49.2296 42.9296ZM49.2509 42.8021L49.8692 42.9296L49.2509 42.8021ZM49.8692 42.8446L49.2296 42.9083L49.8692 42.8446ZM49.187 42.6533C49.2083 42.7383 49.2083 42.8233 49.2296 42.9083L49.8692 42.8021C49.8479 42.717 49.8479 42.6108 49.8266 42.5258L49.187 42.6533ZM49.8053 42.5045C49.7626 42.3558 49.6774 42.207 49.5494 42.0795L49.1017 42.5258C49.1443 42.5683 49.1657 42.6108 49.187 42.6958L49.8053 42.5045ZM49.5494 42.0582C49.0804 41.6119 48.4407 41.8032 48.0783 41.9732C47.8651 42.0795 47.6945 42.1857 47.5666 42.2707C47.5026 42.3132 47.46 42.3558 47.4174 42.377C47.396 42.3983 47.3747 42.3983 47.3747 42.4195C47.3747 42.4195 47.3747 42.4195 47.3534 42.4195C47.3534 42.4195 47.3534 42.4195 47.5666 42.6533C47.7798 42.8871 47.7798 42.8871 47.7798 42.8871L47.8011 42.8658C47.8224 42.8446 47.8651 42.8021 47.9291 42.7808C48.0357 42.6958 48.1849 42.6108 48.3341 42.547C48.6966 42.377 48.9311 42.377 49.1017 42.5258L49.5494 42.0582ZM47.3747 42.4408C46.0315 43.5034 45.6264 44.651 45.5624 45.5649C45.5411 46.0112 45.5838 46.3937 45.6477 46.67C45.6904 46.7975 45.7117 46.925 45.733 46.9888C45.7543 47.0313 45.7543 47.0525 45.7757 47.0738C45.7757 47.095 45.7757 47.095 45.797 47.095C45.797 47.095 45.797 47.095 46.0955 46.9675C46.394 46.84 46.394 46.84 46.394 46.84C46.394 46.84 46.394 46.84 46.394 46.8188C46.394 46.7975 46.3726 46.7762 46.3726 46.755C46.3513 46.6912 46.33 46.6062 46.2874 46.5C46.2234 46.2662 46.1807 45.9474 46.2021 45.5861C46.2447 44.8423 46.5858 43.8434 47.7585 42.9083L47.3747 42.4408ZM45.797 47.1163L48.0996 52.2381L48.6753 51.9831L46.3726 46.8613L45.797 47.1163ZM48.1636 51.8981L45.2213 55.1922L45.6904 55.6172L48.6326 52.3231L48.1636 51.8981ZM45.4558 55.3835C45.6264 55.1072 45.6264 55.1072 45.6264 55.1072C45.6264 55.1072 45.6264 55.1072 45.6051 55.0859C45.5838 55.0859 45.5624 55.0647 45.5198 55.0434C45.4558 55.0009 45.3492 54.9372 45.2426 54.8521C44.9868 54.6821 44.6457 54.4483 44.2192 54.1296C43.3877 53.5132 42.279 52.5994 41.1917 51.4943C39.0383 49.2415 37.1194 46.2237 37.7377 42.9083L37.0981 42.8021C36.4372 46.4362 38.5479 49.6666 40.7226 51.9406C41.8313 53.0882 42.9613 54.0233 43.8141 54.6609C44.2406 54.9797 44.603 55.2347 44.8589 55.4047C44.9868 55.4897 45.0934 55.5535 45.1574 55.596C45.2 55.6172 45.2213 55.6385 45.2426 55.6385C45.2426 55.6385 45.264 55.6385 45.264 55.6597C45.3066 55.6597 45.3066 55.6597 45.4558 55.3835ZM37.7377 42.9296C38.1641 40.5281 39.9764 38.3603 41.7034 36.7664C42.5562 35.98 43.409 35.3425 44.0274 34.8962C44.3472 34.6837 44.5817 34.5136 44.7736 34.3861C44.8589 34.3224 44.9228 34.2799 44.9868 34.2586C45.0081 34.2374 45.0294 34.2374 45.0294 34.2161C45.0294 34.2161 45.0294 34.2161 45.0507 34.2161C45.0507 34.2161 45.2 34.0248 45.1574 33.7911L44.603 34.1098C44.5817 33.8761 44.7096 33.6848 44.7096 33.6848C44.7096 33.6848 44.7096 33.6848 44.6883 33.6848C44.667 33.6848 44.6457 33.706 44.6243 33.7273C44.5817 33.7485 44.4964 33.8123 44.4111 33.8548C44.2192 33.9823 43.9634 34.1523 43.6436 34.3649C43.004 34.8112 42.1511 35.47 41.277 36.2776C39.5074 37.8928 37.5885 40.188 37.1194 42.8021L37.7377 42.9296ZM52.0226 30.1994C49.4641 31.007 47.6945 31.6658 44.6883 33.706L45.0507 34.2374C47.993 32.2609 49.72 31.6021 52.2145 30.8157L52.0226 30.1994ZM64.3887 30.5394C62.747 29.9019 60.2738 29.6256 57.9498 29.6043C55.6045 29.5831 53.3232 29.7956 52.0226 30.1994L52.2145 30.8157C53.4298 30.4332 55.6258 30.2207 57.9285 30.2419C60.2525 30.2632 62.5977 30.5607 64.1541 31.1345L64.3887 30.5394ZM69.9321 34.3861C68.5036 33.0897 66.6274 31.4108 64.3887 30.5394L64.1541 31.1345C66.2649 31.9633 68.0558 33.5573 69.5057 34.8537L69.9321 34.3861ZM70.1879 34.5986C70.1026 34.5349 70.0387 34.4499 69.9534 34.3861L69.527 34.8537C69.6123 34.9174 69.6975 35.0024 69.7615 35.0662L70.1879 34.5986ZM71.723 34.3861C71.4032 34.9174 70.657 35.0237 70.1879 34.5986L69.7615 35.0662C70.5291 35.7675 71.7443 35.5763 72.2774 34.7049L71.723 34.3861ZM75.9445 27.4578L71.7017 34.3649L72.256 34.7049L76.4989 27.7979L75.9445 27.4578ZM80.3792 27.4366L76.243 27.3091L76.2217 27.9467L80.3579 28.0742L80.3792 27.4366Z" fill="black"/>
<path d="M56.0949 30.1143L56.2228 23.5898L60.423 25.035L60.4443 30.0506C60.423 30.8582 59.7407 31.3257 59.7407 31.3257C58.9092 31.9633 57.6939 31.857 56.8411 31.2832L56.6279 31.1557C56.2654 30.9007 56.0735 30.5181 56.0949 30.1143Z" fill="white"/>
<path d="M58.3762 31.9634C57.8219 31.9634 57.2249 31.7934 56.6919 31.4534L56.5 31.3259C56.0949 31.0496 55.8604 30.6033 55.8817 30.1145L56.0096 23.59C56.0096 23.5262 56.031 23.4625 56.0949 23.42C56.1589 23.3775 56.2228 23.3775 56.2868 23.3987L60.487 24.8439C60.5723 24.8651 60.6362 24.9501 60.6362 25.0352L60.6576 30.0507C60.6362 30.9646 59.89 31.4746 59.8687 31.4959C59.421 31.8147 58.9093 31.9634 58.3762 31.9634ZM56.4361 23.8875L56.3294 30.1357C56.3081 30.4758 56.4787 30.7945 56.7559 30.9646L56.9477 31.0921C57.8006 31.6659 58.8879 31.6872 59.6128 31.1558C59.6342 31.1346 60.2098 30.7308 60.2098 30.0507L60.1885 25.2052L56.4361 23.8875Z" fill="black"/>
<path d="M63.4933 17.8096C62.4059 17.5545 63.5786 18.9147 59.7408 17.0232C58.2057 16.2794 58.6961 18.2771 58.291 18.0646C56.8412 17.342 56.4361 17.1507 55.6259 17.2358C55.1142 17.2783 53.8776 18.0646 53.9203 18.7659C54.0695 21.0399 55.1569 20.6361 55.4767 22.6551C55.7112 24.0578 56.0097 24.5466 56.5214 24.8229C57.0331 25.1204 57.5661 24.4616 58.1418 24.7591C58.888 25.1204 58.4829 26.438 59.1652 27.1606C59.5916 27.6069 60.6789 27.9682 62.6618 27.4156C62.9816 27.3306 63.1948 27.0331 63.1522 26.6931C63.1095 26.268 63.0669 25.7367 62.9603 25.2479C62.5125 22.8464 61.7876 22.1876 62.1927 21.6563C62.7897 20.8487 64.4101 21.6775 64.8365 20.9762C65.3056 20.2536 64.9644 18.1709 63.4933 17.8096Z" fill="black"/>
<path d="M58.9731 20.9973L59.165 21.6348C59.2716 21.9324 59.3356 22.2299 59.3996 22.5487C59.5062 23.1225 59.7407 24.1214 59.8473 24.6739C60.2311 26.4591 62.619 25.014 62.619 25.014L62.8535 24.5889L63.152 24.5252C63.216 24.5039 63.2586 24.5039 63.3013 24.4614C63.4079 24.3551 63.4505 24.2064 63.3865 24.0789C63.088 23.3775 62.4484 21.8686 62.3631 20.5722C62.3845 20.551 60.6788 19.7859 58.9731 20.9973Z" fill="white"/>
<path d="M60.9347 25.7791C60.7428 25.7791 60.5509 25.7579 60.3804 25.6729C59.9966 25.5241 59.7834 25.2053 59.6768 24.7165C59.6554 24.5677 59.6128 24.3765 59.5702 24.1852C59.4636 23.6751 59.3143 23.0163 59.229 22.5913C59.1651 22.2937 59.1011 21.9962 58.9945 21.7199L58.8026 21.0823C58.7813 20.9973 58.8026 20.8911 58.8879 20.8273C60.6788 19.5522 62.4272 20.3385 62.5124 20.3598C62.5764 20.381 62.619 20.466 62.6404 20.551C62.7256 21.8262 63.3866 23.3563 63.6424 23.9727C63.749 24.1852 63.6851 24.4402 63.5145 24.589C63.4505 24.6527 63.3653 24.6952 63.2587 24.7165L63.0668 24.759L62.8962 25.099C62.8749 25.1203 62.8536 25.1628 62.8322 25.184C62.7043 25.2053 61.7875 25.7791 60.9347 25.7791ZM59.229 21.0823L59.3783 21.5499C59.4849 21.8474 59.5702 22.1662 59.6341 22.485C59.6981 22.91 59.8473 23.5476 59.9753 24.0789C60.0179 24.2702 60.0605 24.4615 60.0819 24.6102C60.1458 24.9503 60.2951 25.1628 60.5296 25.2691C61.1053 25.5241 62.086 25.0778 62.4911 24.844L62.7043 24.4615C62.7256 24.3977 62.7896 24.3552 62.8536 24.3552L63.1521 24.2914C63.1734 24.2914 63.1947 24.2702 63.216 24.2702C63.2587 24.2489 63.2587 24.1852 63.2373 24.1427C62.8962 23.3988 62.3205 21.9749 62.2139 20.721C61.7875 20.5723 60.5509 20.2322 59.229 21.0823Z" fill="black"/>
<path d="M59.0585 23.0801C59.0585 23.0801 58.5468 21.5499 57.9072 21.9325C57.2676 22.315 57.8646 23.9727 59.0585 23.0801Z" fill="white"/>
<path d="M110.42 23.5688C110.335 23.5688 110.271 23.5263 110.207 23.4412L109.909 22.8249C109.845 22.7187 109.909 22.5911 110.015 22.5274C110.122 22.4636 110.25 22.5274 110.314 22.6337L110.612 23.25C110.676 23.3562 110.612 23.4838 110.506 23.5475C110.463 23.5688 110.442 23.5688 110.42 23.5688Z" fill="black"/>
<path d="M111.827 26.5443C111.742 26.5443 111.678 26.5018 111.636 26.4168L111.337 25.8005C111.273 25.6942 111.337 25.5667 111.444 25.503C111.55 25.4392 111.678 25.503 111.742 25.6092L112.041 26.2256C112.105 26.3318 112.041 26.4593 111.934 26.5231C111.891 26.5231 111.849 26.5443 111.827 26.5443Z" fill="black"/>
<path d="M109.162 25.5879C109.077 25.5879 109.013 25.5454 108.97 25.4603C108.906 25.3541 108.97 25.2266 109.077 25.1628L109.695 24.8653C109.802 24.8015 109.93 24.8653 109.994 24.9715C110.058 25.0778 109.994 25.2053 109.887 25.2691L109.269 25.5666C109.226 25.5879 109.205 25.5879 109.162 25.5879Z" fill="black"/>
<path d="M112.147 24.1855C112.062 24.1855 111.998 24.143 111.934 24.058C111.87 23.9517 111.934 23.8242 112.041 23.7605L112.659 23.4629C112.765 23.3992 112.893 23.4629 112.957 23.5692C113.021 23.6755 112.957 23.803 112.851 23.8667L112.232 24.1643C112.211 24.1855 112.19 24.1855 112.147 24.1855Z" fill="black"/>
<path d="M9.53035 6.99211C9.50903 6.99211 9.50903 6.99211 9.48771 6.99211L8.80545 6.88585C8.69884 6.86459 8.61356 6.75833 8.63488 6.63082C8.6562 6.52456 8.76281 6.43955 8.89073 6.4608L9.57299 6.56706C9.6796 6.58831 9.76488 6.69457 9.74356 6.82209C9.72224 6.9071 9.63696 6.99211 9.53035 6.99211Z" fill="black"/>
<path d="M12.7923 7.5661C12.771 7.5661 12.771 7.5661 12.7497 7.5661L12.0674 7.43858C11.9608 7.41733 11.8755 7.31107 11.8968 7.18355C11.9182 7.07729 12.0248 6.99228 12.1527 7.01353L12.835 7.11979C12.9416 7.14105 13.0268 7.24731 13.0055 7.37482C12.9842 7.48109 12.8989 7.5661 12.7923 7.5661Z" fill="black"/>
<path d="M10.4684 9.15967C10.4471 9.15967 10.4471 9.15967 10.4258 9.15967C10.3192 9.13842 10.2339 9.03216 10.2552 8.90464L10.3618 8.22457C10.3832 8.1183 10.4898 8.0333 10.6177 8.05455C10.7243 8.0758 10.8096 8.18206 10.7883 8.30958L10.6603 8.98965C10.6603 9.09591 10.5751 9.15967 10.4684 9.15967Z" fill="black"/>
<path d="M11.0656 5.9292C11.0443 5.9292 11.0443 5.9292 11.023 5.9292C10.9164 5.90795 10.8311 5.80169 10.8524 5.67418L10.959 4.9941C10.9803 4.88784 11.0869 4.80283 11.2149 4.82408C11.3215 4.84533 11.4068 4.95159 11.3854 5.07911L11.2788 5.75919C11.2362 5.86545 11.1509 5.9292 11.0656 5.9292Z" fill="black"/>
<path d="M107.542 18.6807C107.393 18.6807 107.201 18.6594 107.052 18.5957C106.668 18.4681 106.391 18.1919 106.22 17.8518C106.05 17.5118 106.028 17.108 106.156 16.7467C106.433 16.0029 107.265 15.5991 108.032 15.8754C108.416 16.0029 108.693 16.2792 108.864 16.6192C109.035 16.9592 109.056 17.363 108.928 17.7243C108.715 18.2981 108.139 18.6807 107.542 18.6807ZM106.561 16.8742C106.476 17.1292 106.497 17.4055 106.604 17.6606C106.711 17.9156 106.945 18.0856 107.201 18.1919C107.734 18.3831 108.331 18.1069 108.523 17.5755C108.608 17.3205 108.587 17.0442 108.48 16.7892C108.374 16.5342 108.139 16.3642 107.883 16.2579C107.35 16.0666 106.753 16.3429 106.561 16.8742Z" fill="black"/>
<path d="M85.0059 63.6718C84.8779 63.6718 84.7287 63.6506 84.6008 63.6081C84.3023 63.5018 84.0464 63.268 83.9185 62.9917C83.7906 62.6942 83.7693 62.3967 83.8759 62.0779C84.0891 61.4616 84.7927 61.1428 85.411 61.3553C85.7095 61.4616 85.9653 61.6953 86.0932 61.9716C86.2211 62.2692 86.2425 62.5667 86.1359 62.8855C85.944 63.353 85.4963 63.6718 85.0059 63.6718ZM84.281 62.2054C84.217 62.3967 84.217 62.5879 84.3023 62.7792C84.3876 62.9705 84.5581 63.098 84.7287 63.1618C85.1338 63.3105 85.5602 63.098 85.7095 62.6942C85.7734 62.5029 85.7734 62.3117 85.6881 62.1204C85.6029 61.9291 85.4323 61.8016 85.2617 61.7379C84.8566 61.6103 84.4302 61.8229 84.281 62.2054Z" fill="black"/>
<path d="M15.9053 3.12397C15.6494 3.12397 15.4149 3.06021 15.1804 2.93269C14.8392 2.74142 14.5834 2.42264 14.4768 2.06135C14.3702 1.6788 14.4128 1.29626 14.6047 0.956223C15.0098 0.254895 15.9053 -0.000133187 16.6089 0.403662C16.95 0.594933 17.2058 0.913719 17.3124 1.27501C17.4191 1.6363 17.3764 2.04009 17.1845 2.38013C16.9074 2.86894 16.417 3.12397 15.9053 3.12397ZM15.0098 1.16875C14.8819 1.40252 14.8392 1.6788 14.9032 1.95508C14.9672 2.21011 15.1591 2.44389 15.3936 2.5714C15.884 2.84768 16.5236 2.67767 16.8008 2.18886C16.9287 1.95508 16.9713 1.6788 16.9074 1.40252C16.8434 1.12624 16.6728 0.913719 16.417 0.764952C15.9053 0.509924 15.287 0.679943 15.0098 1.16875Z" fill="black"/>
</g>
<defs>
<clipPath id="clip0">
<rect width="113" height="112" fill="white"/>
</clipPath>
</defs>
</svg>
