<svg width="111" height="111" viewBox="0 0 111 111" fill="none" xmlns="http://www.w3.org/2000/svg">
<path d="M92.2398 109.388L12.0971 109.139C10.5684 109.139 9.38858 107.859 9.47166 106.331L16.0353 2.74175C16.135 1.34594 17.2649 0.265853 18.6607 0.265853L99.0194 0.0166016C100.548 0.0166016 101.961 1.56196 101.844 3.07409L95.2806 106.63C95.1809 108.042 93.619 109.388 92.2398 109.388Z" fill="#EF5344"/>
<path d="M89.8967 109.122H9.32196C7.79322 109.122 6.61343 107.843 6.69652 106.314L13.2601 2.74152C13.3598 1.34571 14.5064 0.265625 15.8856 0.265625H96.4437C97.9724 0.265625 99.1522 1.54512 99.0691 3.07386L92.5055 106.63C92.4224 108.042 91.2925 109.122 89.8967 109.122Z" fill="white"/>
<path d="M95.3138 63.2434C95.2972 63.2434 95.2972 63.2434 95.3138 63.2434C95.1975 63.2267 95.0978 63.1437 95.1144 63.0273L98.8698 3.07403C98.903 2.39274 98.687 1.74469 98.2218 1.24618C97.7565 0.747679 97.1251 0.48181 96.4604 0.48181H15.9023C14.6228 0.48181 13.5593 1.47882 13.4763 2.77492L11.1333 39.6974C11.1167 39.7971 11.0336 39.8968 10.9173 39.8802C10.8176 39.8636 10.7179 39.7805 10.7345 39.6642L13.0608 2.74169C13.1605 1.24618 14.3902 0.0830078 15.8857 0.0830078H96.4438C97.2248 0.0830078 97.9725 0.398726 98.5042 0.980314C99.0526 1.5619 99.3185 2.30966 99.2686 3.10726L95.48 63.044C95.4966 63.1603 95.4135 63.2434 95.3138 63.2434Z" fill="black"/>
<path d="M8.98955 70.3884C8.87323 70.3718 8.77353 70.2887 8.79015 70.1724L10.4352 44.2004C10.4518 44.1007 10.5349 44.0176 10.6512 44.0176C10.7509 44.0342 10.8506 44.1173 10.834 44.2336L9.18895 70.2056C9.18895 70.3053 9.10587 70.3884 8.98955 70.3884Z" fill="black"/>
<path d="M89.8967 109.322H9.32198C8.54099 109.322 7.79324 109.006 7.2615 108.424C6.71315 107.843 6.44728 107.095 6.49713 106.297L7.32797 93.1535C7.34459 93.0538 7.42767 92.9541 7.54399 92.9707C7.64369 92.9873 7.74339 93.0704 7.72677 93.1867L6.89593 106.331C6.8627 107.012 7.07872 107.66 7.54399 108.158C8.00926 108.657 8.64069 108.923 9.30536 108.923H89.8635C91.1429 108.923 92.2064 107.926 92.2895 106.63L93.6687 85.0279C93.6853 84.9282 93.7684 84.8285 93.8847 84.8451C93.9844 84.8617 94.0841 84.9448 94.0675 85.0611L92.6883 106.663C92.6218 108.158 91.3756 109.322 89.8967 109.322Z" fill="black"/>
<path d="M87.2711 105.101H12.6619C11.2661 105.101 10.1527 103.905 10.2358 102.492L16.3009 6.58022C16.384 5.30073 17.4475 4.28711 18.727 4.28711H93.3363C94.7321 4.28711 95.8454 5.48352 95.7623 6.89594L89.6806 102.808C89.6141 104.104 88.5506 105.101 87.2711 105.101Z" fill="#C4C4C4"/>
<path d="M26.8361 28.2319H18.993C18.6108 28.2319 18.2951 27.9162 18.3283 27.5174L18.8435 19.7906C18.8767 19.4417 19.1592 19.1592 19.5081 19.1592H27.3512C27.7334 19.1592 28.0491 19.4749 28.0159 19.8737L27.5008 27.6005C27.4676 27.9661 27.1851 28.2319 26.8361 28.2319Z" fill="white"/>
<path d="M37.3378 28.2319H29.4947C29.1125 28.2319 28.7968 27.9162 28.83 27.5174L29.3452 19.7906C29.3784 19.4417 29.6443 19.1592 30.0098 19.1592H37.8529C38.2351 19.1592 38.5508 19.4749 38.5176 19.8737L38.0025 27.6005C37.9859 27.9661 37.7034 28.2319 37.3378 28.2319Z" fill="white"/>
<path d="M47.873 28.2319H40.0299C39.6477 28.2319 39.332 27.9162 39.3652 27.5174L39.8803 19.7906C39.9136 19.4417 40.1794 19.1592 40.545 19.1592H48.3881C48.7703 19.1592 49.086 19.4749 49.0528 19.8737L48.5377 27.6005C48.521 27.9661 48.2219 28.2319 47.873 28.2319Z" fill="white"/>
<path d="M58.3913 28.2319H50.5482C50.166 28.2319 49.8503 27.9162 49.8835 27.5174L50.3986 19.7906C50.4319 19.4417 50.6977 19.1592 51.0633 19.1592H58.9064C59.2886 19.1592 59.6043 19.4749 59.5711 19.8737L59.0559 27.6005C59.0393 27.9661 58.7568 28.2319 58.3913 28.2319Z" fill="white"/>
<path d="M68.9264 28.2319H61.0833C60.7011 28.2319 60.3854 27.9162 60.4187 27.5174L60.9338 19.7906C60.967 19.4417 61.2329 19.1592 61.5985 19.1592H69.4416C69.8237 19.1592 70.1395 19.4749 70.1062 19.8737L69.5911 27.6005C69.5579 27.9661 69.2588 28.2319 68.9264 28.2319Z" fill="white"/>
<path d="M26.1215 38.7837H18.2784C17.8962 38.7837 17.5805 38.468 17.6137 38.0692L18.1289 30.3424C18.1621 29.9934 18.428 29.7109 18.7935 29.7109H26.6366C27.0188 29.7109 27.3345 30.0267 27.3013 30.4255L26.7862 38.1523C26.7696 38.5178 26.4705 38.7837 26.1215 38.7837Z" fill="white"/>
<path d="M36.6401 38.7837H28.797C28.4148 38.7837 28.0991 38.468 28.1323 38.0692L28.6474 30.3424C28.6806 29.9934 28.9631 29.7109 29.3121 29.7109H37.1552C37.5374 29.7109 37.8531 30.0267 37.8199 30.4255L37.3047 38.1523C37.2715 38.5178 36.989 38.7837 36.6401 38.7837Z" fill="white"/>
<path d="M47.1584 38.7837H39.3153C38.9331 38.7837 38.6174 38.468 38.6506 38.0692L39.1657 30.3424C39.1989 29.9934 39.4814 29.7109 39.8304 29.7109H47.6735C48.0557 29.7109 48.3714 30.0267 48.3382 30.4255L47.823 38.1523C47.8064 38.5178 47.5073 38.7837 47.1584 38.7837Z" fill="white"/>
<path d="M57.677 38.7837H49.8338C49.4516 38.7837 49.1359 38.468 49.1692 38.0692L49.6843 30.3424C49.7175 29.9934 49.9834 29.7109 50.3489 29.7109H58.1921C58.5743 29.7109 58.89 30.0267 58.8567 30.4255L58.3416 38.1523C58.325 38.5178 58.0259 38.7837 57.677 38.7837Z" fill="white"/>
<path d="M68.2119 38.7837H60.3687C59.9866 38.7837 59.6708 38.468 59.7041 38.0692L60.2192 30.3424C60.2524 29.9934 60.5183 29.7109 60.8839 29.7109H68.727C69.1092 29.7109 69.4249 30.0267 69.3916 30.4255L68.8765 38.1523C68.8599 38.5178 68.5608 38.7837 68.2119 38.7837Z" fill="white"/>
<path d="M25.4069 49.3349H17.5638C17.1816 49.3349 16.8659 49.0192 16.8991 48.6204L17.4143 40.8936C17.4475 40.5447 17.7134 40.2622 18.0789 40.2622H25.922C26.3042 40.2622 26.6199 40.5779 26.5867 40.9767L26.0716 48.7035C26.055 49.0691 25.7559 49.3349 25.4069 49.3349Z" fill="white"/>
<path d="M35.9255 49.3349H28.0824C27.7002 49.3349 27.3845 49.0192 27.4177 48.6204L27.9328 40.8936C27.966 40.5447 28.2319 40.2622 28.5975 40.2622H36.4406C36.8228 40.2622 37.1385 40.5779 37.1053 40.9767L36.5901 48.7035C36.5735 49.0691 36.2744 49.3349 35.9255 49.3349Z" fill="white"/>
<path d="M46.4604 49.3349H38.6173C38.2351 49.3349 37.9194 49.0192 37.9526 48.6204L38.4677 40.8936C38.501 40.5447 38.7668 40.2622 39.1324 40.2622H46.9755C47.3577 40.2622 47.6734 40.5779 47.6402 40.9767L47.1251 48.7035C47.0918 49.0691 46.8093 49.3349 46.4604 49.3349Z" fill="white"/>
<path d="M57.5938 49.3354H48.4214L49.003 40.2793H58.1754L57.5938 49.3354Z" fill="white"/>
<path d="M67.4973 49.3349H59.6541C59.272 49.3349 58.9562 49.0192 58.9895 48.6204L59.5046 40.8936C59.5378 40.5447 59.8203 40.2622 60.1693 40.2622H68.0124C68.3946 40.2622 68.7103 40.5779 68.677 40.9767L68.1619 48.7035C68.1287 49.0691 67.8462 49.3349 67.4973 49.3349Z" fill="white"/>
<path d="M24.6926 59.8867H16.8494C16.4673 59.8867 16.1515 59.571 16.1848 59.1722L16.6999 51.4454C16.7331 51.0965 16.999 50.814 17.3646 50.814H25.2077C25.5899 50.814 25.9056 51.1297 25.8723 51.5285L25.3572 59.2553C25.3406 59.6209 25.0581 59.8867 24.6926 59.8867Z" fill="white"/>
<path d="M35.2275 59.8867H27.3844C27.0022 59.8867 26.6865 59.571 26.7197 59.1722L27.2348 51.4454C27.268 51.0965 27.5339 50.814 27.8995 50.814H35.726C36.1082 50.814 36.4239 51.1297 36.3906 51.5285L35.8755 59.2553C35.8589 59.6209 35.5764 59.8867 35.2275 59.8867Z" fill="white"/>
<path d="M45.7292 59.8867H37.8861C37.5039 59.8867 37.1882 59.571 37.2214 59.1722L37.7365 51.4454C37.7698 51.0965 38.0356 50.814 38.4012 50.814H46.2443C46.6265 50.814 46.9422 51.1297 46.909 51.5285L46.3939 59.2553C46.3772 59.6209 46.0948 59.8867 45.7292 59.8867Z" fill="white"/>
<path d="M56.8958 59.8867H47.7234L48.305 50.8306H57.4774L56.8958 59.8867Z" fill="white"/>
<path d="M66.7829 59.8867H58.9398C58.5576 59.8867 58.2419 59.571 58.2751 59.1722L58.7902 51.4454C58.8235 51.0965 59.0893 50.814 59.4549 50.814H67.298C67.6802 50.814 67.9959 51.1297 67.9627 51.5285L67.4476 59.2553C67.4143 59.6209 67.1485 59.8867 66.7829 59.8867Z" fill="white"/>
<path d="M79.4281 28.2319H71.585C71.2029 28.2319 70.8871 27.9162 70.9204 27.5174L71.4355 19.7906C71.4687 19.4417 71.7512 19.1592 72.1002 19.1592H79.9433C80.3254 19.1592 80.6412 19.4749 80.6079 19.8737L80.0928 27.6005C80.0762 27.9661 79.7771 28.2319 79.4281 28.2319Z" fill="white"/>
<path d="M89.9465 28.2319H82.1034C81.7212 28.2319 81.4055 27.9162 81.4387 27.5174L81.9538 19.7906C81.987 19.4417 82.2529 19.1592 82.6185 19.1592H90.4616C90.8438 19.1592 91.1595 19.4749 91.1263 19.8737L90.6111 27.6005C90.5945 27.9661 90.2954 28.2319 89.9465 28.2319Z" fill="white"/>
<path d="M78.7136 38.7837H70.8704C70.4883 38.7837 70.1725 38.468 70.2058 38.0692L70.7209 30.3424C70.7541 29.9934 71.02 29.7109 71.3856 29.7109H79.2287C79.6109 29.7109 79.9266 30.0267 79.8933 30.4255L79.3782 38.1523C79.3616 38.5178 79.0791 38.7837 78.7136 38.7837Z" fill="white"/>
<path d="M89.2487 38.7837H81.4056C81.0234 38.7837 80.7077 38.468 80.7409 38.0692L81.2561 30.3424C81.2893 29.9934 81.5552 29.7109 81.9207 29.7109H89.7638C90.146 29.7109 90.4617 30.0267 90.4285 30.4255L89.9134 38.1523C89.8801 38.5178 89.581 38.7837 89.2487 38.7837Z" fill="white"/>
<path d="M77.9992 49.3349H70.1561C69.7739 49.3349 69.4582 49.0192 69.4914 48.6204L70.0065 40.8936C70.0398 40.5447 70.3223 40.2622 70.6712 40.2622H78.5143C78.8965 40.2622 79.2122 40.5779 79.179 40.9767L78.6639 48.7035C78.6473 49.0691 78.3482 49.3349 77.9992 49.3349Z" fill="white"/>
<path d="M88.5341 49.3349H80.691C80.3088 49.3349 79.9931 49.0192 80.0263 48.6204L80.5415 40.8936C80.5747 40.5447 80.8572 40.2622 81.2061 40.2622H89.0492C89.4314 40.2622 89.7471 40.5779 89.7139 40.9767L89.1988 48.7035C89.1822 49.0691 88.8831 49.3349 88.5341 49.3349Z" fill="white"/>
<path d="M77.3012 59.8867H69.4581C69.0759 59.8867 68.7602 59.571 68.7934 59.1722L69.3085 51.4454C69.3418 51.0965 69.6076 50.814 69.9732 50.814H77.8163C78.1985 50.814 78.5142 51.1297 78.481 51.5285L77.9659 59.2553C77.9326 59.6209 77.6501 59.8867 77.3012 59.8867Z" fill="white"/>
<path d="M87.8195 59.8867H79.9764C79.5942 59.8867 79.2785 59.571 79.3117 59.1722L79.8269 51.4454C79.8601 51.0965 80.126 50.814 80.4915 50.814H88.318C88.7002 50.814 89.0159 51.1297 88.9827 51.5285L88.4676 59.2553C88.4676 59.6209 88.1685 59.8867 87.8195 59.8867Z" fill="white"/>
<path d="M81.954 37.3212H72.5655C72.1833 37.3212 71.8676 37.0055 71.9008 36.6067L72.499 27.3346C72.5323 26.9856 72.7981 26.7031 73.1637 26.7031H82.5522C82.9344 26.7031 83.2501 27.0188 83.2169 27.4176L82.6187 36.6898C82.5688 37.0388 82.2863 37.3212 81.954 37.3212Z" fill="white"/>
<path d="M81.9538 37.5208H72.5654C72.3327 37.5208 72.1001 37.4211 71.9339 37.2549C71.7678 37.0888 71.6847 36.8395 71.7013 36.6069L72.2995 27.3347C72.3327 26.8861 72.7149 26.5205 73.1636 26.5205H82.552C82.7847 26.5205 83.0173 26.6202 83.1835 26.7864C83.3496 26.9525 83.4327 27.2018 83.4161 27.4344L82.8179 36.7066C82.7681 37.1552 82.4025 37.5208 81.9538 37.5208ZM73.147 26.9193C72.9143 26.9193 72.6983 27.1021 72.6817 27.368L72.0835 36.6401C72.0669 36.7731 72.1167 36.8894 72.1998 36.9891C72.2995 37.0888 72.4158 37.1386 72.5321 37.1386H81.9206C82.1532 37.1386 82.3692 36.9558 82.3859 36.69L82.9841 27.4178C83.0007 27.2849 82.9508 27.1686 82.8678 27.0689C82.7681 26.9692 82.6517 26.9193 82.5354 26.9193H73.147Z" fill="black"/>
<path d="M80.2922 35.8755C80.7409 35.8755 81.1065 35.51 81.1065 35.0447C81.1065 34.5794 80.7409 34.2139 80.2922 34.2139C79.8436 34.2139 79.478 34.5794 79.478 35.0447C79.478 35.51 79.8436 35.8755 80.2922 35.8755Z" fill="#EF5344"/>
<path d="M77.135 35.8755C77.5837 35.8755 77.9492 35.51 77.9492 35.0447C77.9492 34.5794 77.5837 34.2139 77.135 34.2139C76.6864 34.2139 76.3208 34.5794 76.3208 35.0447C76.3208 35.51 76.6864 35.8755 77.135 35.8755Z" fill="#EF5344"/>
<path d="M80.8239 29.8437H74.5096C74.0609 29.8437 73.712 29.4615 73.7286 29.0129C73.7618 28.5975 74.0942 28.2817 74.5096 28.2817H80.8239C81.2726 28.2817 81.6215 28.6639 81.6049 29.1126C81.5717 29.528 81.2394 29.8437 80.8239 29.8437Z" fill="#EF5344"/>
<path d="M80.6079 32.685H74.2935C73.8449 32.685 73.4959 32.3028 73.5125 31.8542C73.5458 31.4388 73.8781 31.123 74.2935 31.123H80.6079C81.0565 31.123 81.4055 31.5052 81.3889 31.9539C81.3556 32.3693 81.0067 32.685 80.6079 32.685Z" fill="#EF5344"/>
<path d="M30.1928 26.8862H20.8043C20.4221 26.8862 20.1064 26.5704 20.1396 26.1716L20.7378 16.9161C20.7711 16.5672 21.0535 16.2847 21.4025 16.2847H30.791C31.1731 16.2847 31.4889 16.6004 31.4556 16.9992L30.8574 26.2713C30.8408 26.6037 30.5417 26.8862 30.1928 26.8862Z" fill="white"/>
<path d="M30.1926 27.0852H20.8041C20.5715 27.0852 20.3389 26.9855 20.1727 26.8194C20.0065 26.6532 19.9235 26.404 19.9401 26.1713L20.5383 16.9158C20.5715 16.4671 20.9537 16.1016 21.4024 16.1016H30.7908C31.0235 16.1016 31.2561 16.2013 31.4223 16.3674C31.5884 16.5336 31.6715 16.7828 31.6549 17.0155L31.0567 26.271C31.0401 26.7363 30.6579 27.0852 30.1926 27.0852ZM21.4024 16.4837C21.1697 16.4837 20.9537 16.6665 20.9371 16.9324L20.3389 26.1879C20.3223 26.3209 20.3721 26.4372 20.4552 26.5369C20.5549 26.6366 20.6712 26.6864 20.7875 26.6864H30.1926C30.4253 26.6864 30.6413 26.5037 30.6579 26.2378L31.2561 16.9656C31.2727 16.8327 31.2229 16.7164 31.1398 16.6167C31.0401 16.517 30.9238 16.4671 30.8074 16.4671H21.4024V16.4837Z" fill="black"/>
<path d="M28.5476 25.4405C28.9963 25.4405 29.3618 25.0749 29.3618 24.6096C29.3618 24.1444 28.9963 23.7788 28.5476 23.7788C28.099 23.7788 27.7334 24.1444 27.7334 24.6096C27.7334 25.0749 28.099 25.4405 28.5476 25.4405Z" fill="#EF5344"/>
<path d="M25.407 25.4405C25.8556 25.4405 26.2212 25.0749 26.2212 24.6096C26.2212 24.1444 25.8556 23.7788 25.407 23.7788C24.9583 23.7788 24.5928 24.1444 24.5928 24.6096C24.5928 25.0749 24.9417 25.4405 25.407 25.4405Z" fill="#EF5344"/>
<path d="M23.197 24.6096C23.197 25.0583 22.8149 25.4405 22.3828 25.4405C21.9342 25.4405 21.5686 25.0583 21.5686 24.6096C21.5686 24.161 21.9508 23.7788 22.3828 23.7788C22.8315 23.7954 23.197 24.161 23.197 24.6096Z" fill="#EF5344"/>
<path d="M29.0793 19.4253H22.765C22.3163 19.4253 21.9674 19.0431 21.984 18.5944C22.0172 18.179 22.3495 17.8633 22.765 17.8633H29.0793C29.528 17.8633 29.8769 18.2455 29.8603 18.6941C29.8271 19.0929 29.4947 19.4253 29.0793 19.4253Z" fill="#EF5344"/>
<path d="M28.8633 22.2666H22.5489C22.1002 22.2666 21.7513 21.8844 21.7679 21.4357C21.8011 21.0203 22.1335 20.7046 22.5489 20.7046H28.8633C29.3119 20.7046 29.6609 21.0868 29.6442 21.5354C29.611 21.9508 29.2787 22.2666 28.8633 22.2666Z" fill="#EF5344"/>
<path d="M39.0993 48.1884H29.7108C29.3286 48.1884 29.0129 47.8727 29.0461 47.4739L29.6443 38.2017C29.6775 37.8528 29.9434 37.5703 30.309 37.5703H39.6975C40.0796 37.5703 40.3954 37.886 40.3621 38.2848L39.7639 47.557C39.7307 47.9226 39.4482 48.1884 39.0993 48.1884Z" fill="white"/>
<path d="M39.0994 48.388H29.7109C29.4783 48.388 29.2456 48.2883 29.0794 48.1221C28.9133 47.956 28.8302 47.7067 28.8468 47.4741L29.445 38.2019C29.4782 37.7533 29.8604 37.3877 30.3091 37.3877H39.7142C39.9468 37.3877 40.1794 37.4874 40.3456 37.6536C40.5118 37.8197 40.5949 38.069 40.5783 38.3016L39.98 47.5738C39.9302 48.039 39.548 48.388 39.0994 48.388ZM30.3091 37.7865C30.0765 37.7865 29.8604 37.9693 29.8438 38.2352L29.2456 47.5073C29.229 47.6402 29.2788 47.7566 29.3619 47.8563C29.4616 47.956 29.5779 48.0058 29.6943 48.0058H39.0827C39.3154 48.0058 39.5314 47.823 39.548 47.5572L40.1462 38.285C40.1628 38.1521 40.113 38.0357 40.0299 37.936C39.9302 37.8363 39.8139 37.7865 39.6976 37.7865H30.3091Z" fill="black"/>
<path d="M37.7532 43.6187C38.2018 43.6187 38.5674 43.2531 38.5674 42.7879C38.5674 42.3226 38.2018 41.957 37.7532 41.957C37.3045 41.957 36.939 42.3226 36.939 42.7879C36.939 43.2531 37.3045 43.6187 37.7532 43.6187Z" fill="#EF5344"/>
<path d="M37.9692 40.7275H31.6548C31.2062 40.7275 30.8572 40.3453 30.8739 39.8967C30.9071 39.4812 31.2394 39.1655 31.6548 39.1655H37.9692C38.4179 39.1655 38.7668 39.5477 38.7502 39.9964C38.717 40.4118 38.3846 40.7275 37.9692 40.7275Z" fill="#EF5344"/>
<path d="M34.8787 43.5522H31.4556C31.007 43.5522 30.658 43.17 30.6746 42.7214C30.7079 42.306 31.0402 41.9902 31.4556 41.9902H34.8787C35.3273 41.9902 35.6763 42.3724 35.6597 42.8211C35.6264 43.2365 35.2941 43.5522 34.8787 43.5522Z" fill="#EF5344"/>
<path d="M35.9754 102.36C36.2412 100.98 36.3575 100.698 37.0222 99.651C37.5207 98.87 36.3243 97.6736 35.7261 97.5739C34.7291 97.3579 34.8786 97.6736 33.7321 99.1691L32.8348 100.282C32.8182 100.282 35.7261 103.556 35.9754 102.36Z" fill="white"/>
<path d="M35.7094 102.825C34.8785 102.825 33.2002 101.013 32.6685 100.415C32.602 100.349 32.602 100.232 32.6685 100.166L33.516 99.1024C33.8483 98.6538 34.0643 98.3214 34.1972 98.0888C34.2471 97.9891 34.3634 97.9725 34.4797 98.0223C34.5794 98.0722 34.596 98.1885 34.5462 98.3048C34.3634 98.6039 34.164 98.9529 33.8317 99.3683L33.0839 100.299C34.0975 101.429 35.377 102.525 35.7094 102.442C35.7426 102.442 35.7426 102.409 35.7592 102.343C35.9919 101.096 36.0916 100.731 36.6067 99.8668C36.6565 99.7671 36.7728 99.7505 36.8892 99.8003C36.9889 99.8502 37.0055 99.9665 36.9556 100.083C36.4737 100.897 36.3907 101.213 36.158 102.426C36.1082 102.725 35.9254 102.808 35.8091 102.841C35.7758 102.808 35.7426 102.825 35.7094 102.825Z" fill="black"/>
<path d="M36.1249 101.828L34.9617 100.066C34.4133 99.2356 33.2668 99.1193 32.5523 99.8172L31.2229 100.947C31.2229 100.947 30.9737 101.728 31.0568 102.21C31.1565 102.858 31.3559 103.789 31.7713 104.703C32.3861 106.115 34.1142 108.956 34.7124 109.953C34.8454 110.169 35.1611 110.369 35.3771 110.269C35.643 110.153 35.9089 109.937 36.1747 109.688C36.5901 109.305 36.4406 107.494 36.291 106.231C36.1913 105.434 36.2578 103.373 36.3077 102.509C36.3243 102.276 36.2578 102.044 36.1249 101.828Z" fill="#EF5344"/>
<path d="M35.2441 110.501C34.945 110.501 34.6625 110.269 34.5296 110.053C33.8483 108.923 32.1866 106.181 31.5718 104.769C31.1564 103.821 30.9404 102.858 30.8407 102.226C30.741 101.678 31.0068 100.897 31.0234 100.864L31.0401 100.814L32.4193 99.6507C32.8014 99.2685 33.3166 99.1023 33.8317 99.1522C34.3468 99.202 34.8287 99.5011 35.1112 99.9332L36.2744 101.695C36.4405 101.927 36.507 102.21 36.507 102.492C36.4738 103.34 36.4073 105.383 36.4904 106.164C36.8061 108.939 36.5402 109.554 36.3076 109.787C35.9919 110.086 35.7094 110.302 35.4601 110.402C35.3937 110.485 35.3272 110.501 35.2441 110.501ZM31.4056 101.046C31.3558 101.213 31.1896 101.794 31.2561 102.176C31.3558 102.791 31.5552 103.722 31.9706 104.619C32.602 106.032 34.38 108.973 34.8952 109.853C34.9949 110.003 35.2109 110.136 35.3106 110.086C35.5266 109.986 35.7758 109.804 36.0583 109.538C36.158 109.438 36.4405 108.956 36.1248 106.248C36.0251 105.433 36.0916 103.356 36.1414 102.509C36.158 102.309 36.1082 102.11 35.9753 101.927L34.8121 100.166C34.5794 99.8168 34.2305 99.6008 33.8151 99.5676C33.4163 99.5344 33.0175 99.6673 32.7184 99.9498L32.7017 99.9664L31.4056 101.046Z" fill="black"/>
<path d="M36.2578 104.054C36.2411 104.054 36.2245 104.054 36.2079 104.038L34.945 103.689C34.8453 103.655 34.7789 103.556 34.8121 103.456C34.8453 103.356 34.945 103.29 35.0447 103.323L36.3076 103.672C36.4073 103.705 36.4738 103.805 36.4406 103.905C36.4406 103.988 36.3575 104.054 36.2578 104.054Z" fill="black"/>
<path d="M36.1748 105.168C36.1581 105.168 36.1415 105.168 36.1249 105.151L34.862 104.802C34.7623 104.769 34.6959 104.669 34.7291 104.569C34.7623 104.47 34.862 104.403 34.9617 104.436L36.2246 104.785C36.3243 104.819 36.3908 104.918 36.3575 105.018C36.3409 105.118 36.2578 105.168 36.1748 105.168Z" fill="black"/>
<path d="M34.8785 110.369C35.0114 110.369 35.1278 110.335 35.2441 110.319C35.6263 110.186 36.5568 109.903 36.4405 108.557C36.3408 107.162 35.2773 106.447 34.4963 105.517C33.9147 104.819 33.9646 101.878 33.7818 101.313C33.4495 100.282 31.954 100.116 31.2062 100.93C30.7243 101.445 30.6745 102.559 30.7243 103.39C30.8074 104.935 31.7213 107.992 32.8513 109.471C33.4162 110.203 34.2803 110.369 34.8785 110.369Z" fill="white"/>
<path d="M34.8785 110.568C34.3467 110.568 33.3497 110.451 32.6851 109.604C31.4887 108.059 30.608 104.901 30.5249 103.406C30.4917 102.691 30.4917 101.412 31.0566 100.797C31.5053 100.332 32.1866 100.116 32.8346 100.249C33.3996 100.365 33.815 100.731 33.9646 101.246C34.031 101.462 34.0643 101.927 34.1141 102.509C34.1806 103.489 34.2969 104.968 34.6458 105.383C34.812 105.583 35.028 105.799 35.2108 105.981C35.8589 106.663 36.5402 107.377 36.6399 108.524C36.7396 109.986 35.7259 110.335 35.3271 110.468L35.2939 110.485C35.1776 110.551 35.028 110.568 34.8785 110.568ZM32.4358 100.614C32.0204 100.614 31.6216 100.78 31.3557 101.063C31.0234 101.428 30.8572 102.259 30.9237 103.373C31.0068 104.802 31.8542 107.843 33.0008 109.355C33.5491 110.069 34.3966 110.169 34.8785 110.169C34.9782 110.169 35.0779 110.152 35.1776 110.119L35.2108 110.102C35.6096 109.969 36.3408 109.72 36.2577 108.557C36.1746 107.56 35.5764 106.929 34.9283 106.264C34.7455 106.065 34.5461 105.865 34.3467 105.632C33.9147 105.117 33.815 103.688 33.7153 102.525C33.6821 102.01 33.6322 101.528 33.5824 101.345C33.4661 100.98 33.1503 100.714 32.7349 100.631C32.6685 100.631 32.5521 100.614 32.4358 100.614Z" fill="black"/>
<path d="M34.8785 110.568C34.7124 110.568 34.5794 110.552 34.4299 110.535C34.3302 110.518 34.2471 110.419 34.2637 110.302C34.2803 110.203 34.38 110.12 34.4964 110.136C34.6293 110.153 34.7622 110.169 34.8952 110.169C35.1278 110.169 35.3438 110.07 35.4767 109.937C35.5765 109.804 35.6429 109.638 35.6097 109.455C35.4269 108.126 34.7124 107.444 33.8815 106.63C33.1504 105.916 32.9676 103.722 32.8845 102.542C32.8513 102.26 32.8513 101.994 32.8347 101.928C32.7682 101.662 32.3528 101.346 31.9041 101.279C31.6383 101.246 31.2561 101.313 31.0401 101.745C30.9902 101.844 30.8739 101.878 30.7742 101.828C30.6745 101.778 30.6413 101.662 30.6911 101.562C30.9404 101.063 31.4056 100.814 31.954 100.881C32.5356 100.947 33.1172 101.363 33.2335 101.811C33.2667 101.911 33.2667 102.11 33.3 102.493C33.383 103.539 33.5492 105.733 34.1806 106.331C35.0281 107.145 35.8091 107.91 36.0251 109.372C36.0583 109.671 35.9919 109.953 35.7925 110.169C35.5764 110.419 35.2441 110.568 34.8785 110.568Z" fill="black"/>
<path d="M51.1795 102.226L50.7475 106.779C50.7309 106.912 50.8139 107.012 50.9303 107.028L53.1735 107.161C53.2732 107.161 53.3563 107.095 53.3729 106.978L53.7884 102.841L51.1795 102.226Z" fill="white"/>
<path d="M53.2068 107.377C53.1901 107.377 53.1901 107.377 53.1735 107.377L50.9303 107.245C50.8306 107.245 50.7309 107.195 50.6644 107.112C50.5813 107.012 50.5647 106.896 50.5647 106.779L50.9967 102.226C50.9967 102.176 51.03 102.127 51.0798 102.077C51.1297 102.043 51.1795 102.043 51.246 102.043L53.8714 102.675C53.9711 102.708 54.0376 102.791 54.021 102.891L53.6056 107.028C53.5557 107.228 53.3895 107.377 53.2068 107.377ZM51.3623 102.492L50.9635 106.829C50.9635 106.862 50.9635 106.862 50.9801 106.862L53.1901 106.995L53.5889 103.04L51.3623 102.492Z" fill="black"/>
<path d="M50.3988 105.616C50.2492 106.148 49.9335 107.677 49.8006 108.59C49.7175 109.172 50.0831 109.704 50.6314 109.853C52.1768 110.285 55.9155 110.252 59.0063 110.402C59.2223 110.418 59.6045 110.302 59.7873 109.787C60.3688 108.042 57.112 107.494 53.9049 105.716C53.8384 105.683 53.772 105.683 53.7055 105.732C53.6723 105.766 53.6224 105.782 53.5726 105.832C53.0076 106.198 52.0771 106.198 51.5121 105.849L50.8641 105.467C50.6979 105.317 50.4652 105.417 50.3988 105.616Z" fill="#EF5344"/>
<path d="M59.0394 110.585C59.0228 110.585 59.0062 110.585 59.0062 110.585C58.2252 110.551 57.3778 110.518 56.5469 110.502C54.0876 110.419 51.7613 110.352 50.5815 110.036C49.9335 109.87 49.518 109.222 49.6011 108.557C49.7341 107.643 50.0498 106.131 50.1993 105.566C50.2326 105.4 50.3655 105.284 50.4984 105.234C50.648 105.184 50.8141 105.201 50.9471 105.267L51.5951 105.649C52.1103 105.965 52.9411 105.965 53.4396 105.633C53.4894 105.6 53.5393 105.566 53.5725 105.533C53.6888 105.433 53.855 105.433 53.9879 105.5C54.9517 106.032 55.9321 106.464 56.8128 106.829C58.84 107.71 60.4519 108.408 59.9866 109.804C59.7872 110.385 59.3718 110.585 59.0394 110.585ZM50.7144 105.583C50.6978 105.583 50.6812 105.583 50.6812 105.6C50.6646 105.616 50.6314 105.633 50.6147 105.683C50.4652 106.231 50.1495 107.76 50.0332 108.624C49.9667 109.089 50.2658 109.554 50.7144 109.671C51.8444 109.986 54.2538 110.053 56.5802 110.119C57.3944 110.153 58.2584 110.169 59.0394 110.202C59.1059 110.202 59.4549 110.202 59.621 109.721C59.9534 108.724 58.7736 108.159 56.6799 107.228C55.8158 106.846 54.8188 106.414 53.8384 105.882C53.8052 105.915 53.7553 105.932 53.7055 105.982C53.0906 106.364 52.077 106.381 51.429 105.998L50.7809 105.616C50.7311 105.583 50.7144 105.583 50.7144 105.583Z" fill="black"/>
<path d="M49.7174 108.989C49.7174 109.006 49.7174 109.023 49.7174 109.023C49.6343 109.604 50.166 109.953 50.6977 110.186C52.2265 110.9 58.4245 110.485 58.6572 110.485H58.6738C58.7569 110.485 59.5379 110.485 59.7705 109.986C59.8037 109.92 59.8037 109.837 59.8204 109.754C59.837 109.621 59.837 109.488 59.7871 109.355C59.7539 109.255 59.6708 109.189 59.5545 109.205C58.4079 109.505 55.716 109.588 53.0407 109.305C51.2627 109.106 50.4817 108.724 50.0663 108.458C49.9666 108.391 49.8171 108.458 49.7838 108.591C49.7672 108.724 49.7506 108.857 49.7174 108.989Z" fill="white"/>
<path d="M54.7523 110.817C53.074 110.817 51.3458 110.718 50.5981 110.369C50.083 110.136 49.4017 109.721 49.518 108.99C49.518 108.973 49.518 108.956 49.5346 108.956L49.6177 108.574C49.6509 108.458 49.7174 108.342 49.8503 108.292C49.9667 108.242 50.0996 108.258 50.2159 108.325C50.6479 108.574 51.4123 108.956 53.1072 109.139C55.8656 109.455 58.4911 109.322 59.5545 109.039C59.6542 109.006 59.7705 109.023 59.8536 109.073C59.9533 109.123 60.0198 109.222 60.0198 109.322C60.053 109.488 60.053 109.638 60.053 109.787C60.0364 109.904 60.0198 110.003 59.9866 110.07C59.7207 110.651 58.8732 110.684 58.7237 110.668C58.3249 110.701 56.5801 110.817 54.7523 110.817ZM49.9833 108.657L49.9168 109.023V109.056C49.867 109.405 50.1328 109.704 50.7809 110.003C51.9773 110.568 56.4472 110.435 58.6572 110.269H58.6905C58.9231 110.269 59.4548 110.203 59.6044 109.887C59.621 109.87 59.6376 109.82 59.6376 109.721C59.6542 109.621 59.6542 109.521 59.621 109.405C58.5077 109.687 55.8324 109.82 53.0408 109.505C51.2628 109.322 50.4319 108.94 49.9833 108.657Z" fill="black"/>
<path d="M54.1208 107.311C54.0543 107.311 54.0044 107.278 53.9546 107.228C53.8881 107.128 53.9047 107.012 53.9878 106.945L54.9184 106.231C55.0181 106.164 55.1344 106.181 55.2009 106.264C55.2673 106.364 55.2507 106.48 55.1676 106.547L54.2371 107.261C54.2038 107.294 54.1706 107.311 54.1208 107.311Z" fill="black"/>
<path d="M55.3671 107.826C55.3006 107.826 55.2508 107.793 55.2009 107.743C55.1345 107.643 55.1511 107.527 55.2342 107.461L56.065 106.846C56.1647 106.779 56.281 106.796 56.3475 106.879C56.4139 106.979 56.3973 107.095 56.3142 107.161L55.4834 107.776C55.4502 107.826 55.4169 107.826 55.3671 107.826Z" fill="black"/>
<path fill-rule="evenodd" clip-rule="evenodd" d="M42.107 67.4809C42.7052 63.6922 44.4998 60.103 44.4998 60.103L52.3263 60.7511C52.3263 60.7511 52.4426 60.4686 52.1768 62.1303L57.1286 62.4958C61.2329 75.4237 55.4004 100.631 54.7025 103.423C54.6527 103.606 54.5031 103.755 54.3037 103.805C53.2402 103.988 51.6783 103.838 50.8308 103.705C50.4985 103.672 50.2492 103.34 50.2991 102.991C50.864 98.6539 50.2326 85.9255 49.0196 78.3482C44.9319 93.4196 37.903 99.3186 37.903 99.3186C37.903 99.3186 37.4875 99.6842 37.2383 99.8005C37.1552 99.8337 37.0887 99.8836 37.0057 99.9168C36.6567 100.1 36.4241 100.216 35.9588 100.116C34.563 99.8171 33.8983 98.4379 34.4799 97.1252C39.1991 86.1747 41.2928 72.6653 41.9907 68.1954C42.0239 67.9295 42.0738 67.6969 42.107 67.4809Z" fill="#FFE300"/>
<path d="M44.4995 60.1029L44.5328 59.7705L44.3002 59.7539L44.2004 59.9533L44.4995 60.1029ZM42.1067 67.4807L42.4391 67.5305L42.1067 67.4807ZM52.326 60.7675L52.2928 61.0999L52.5421 61.1165L52.6251 60.8838L52.326 60.7675ZM52.1765 62.1467L51.8442 62.0969L51.7943 62.4458L52.1599 62.4791L52.1765 62.1467ZM57.1283 62.5123L57.444 62.4126L57.3775 62.1966L57.1615 62.18L57.1283 62.5123ZM54.7189 103.439L55.0346 103.522L54.7189 103.439ZM54.3201 103.822L54.3699 104.154L54.3201 103.822ZM50.8472 103.722L50.897 103.39L50.8472 103.722ZM50.2988 103.024L49.9665 102.974L50.2988 103.024ZM49.0193 78.3813L49.3516 78.3314L48.7036 78.2982L49.0193 78.3813ZM37.9027 99.335L37.6867 99.0858L37.9027 99.335ZM37.238 99.8169L37.0885 99.5178L37.238 99.8169ZM37.0054 99.9332L36.8558 99.6341L37.0054 99.9332ZM35.9585 100.149L35.8921 100.482L35.9585 100.149ZM34.4796 97.1582L34.7787 97.2912L34.4796 97.1582ZM41.9904 68.2118L42.3228 68.2617L41.9904 68.2118ZM44.4995 60.1029C44.2004 59.9533 44.2004 59.9533 44.2004 59.9533C44.2004 59.9533 44.2004 59.9533 44.2004 59.9699C44.2004 59.9699 44.1838 59.9865 44.1838 60.0032C44.1672 60.0364 44.1506 60.0696 44.1174 60.1195C44.0675 60.2192 44.0011 60.3853 43.9014 60.5847C43.7186 60.9835 43.4693 61.5651 43.2201 62.2464C42.6883 63.6256 42.0901 65.5033 41.7744 67.4142L42.4391 67.5139C42.7382 65.6529 43.3198 63.825 43.8349 62.4791C44.1007 61.7978 44.3334 61.2328 44.5162 60.8506C44.5993 60.6512 44.6823 60.5017 44.7322 60.402C44.7488 60.3521 44.782 60.3189 44.782 60.2856C44.782 60.269 44.7987 60.269 44.7987 60.2524C44.7987 60.2524 44.7987 60.2524 44.4995 60.1029ZM52.3593 60.4352L44.5328 59.7871L44.4829 60.4518L52.3094 61.0999L52.3593 60.4352ZM52.5088 62.1966C52.6418 61.3657 52.675 61.0002 52.675 60.834C52.675 60.8008 52.675 60.7509 52.675 60.7011C52.675 60.6844 52.6584 60.6346 52.6251 60.5681C52.6085 60.5349 52.5753 60.485 52.5088 60.4518C52.4424 60.402 52.3593 60.3853 52.2762 60.402C52.1433 60.4186 52.0768 60.5017 52.0602 60.5183C52.0436 60.5515 52.0269 60.5681 52.0103 60.5847C52.0103 60.6014 51.9937 60.618 51.9937 60.618C51.9937 60.618 51.9937 60.618 51.9937 60.6346C51.9937 60.6346 51.9937 60.6346 52.3094 60.7509C52.6251 60.8672 52.6251 60.8672 52.6251 60.8672C52.6251 60.8672 52.6251 60.8838 52.6085 60.8838C52.6085 60.8838 52.5919 60.9171 52.5753 60.9337C52.5753 60.9503 52.5088 61.0168 52.3759 61.05C52.2928 61.0666 52.2263 61.05 52.1599 61.0002C52.0934 60.9669 52.0602 60.9171 52.0436 60.8838C52.0103 60.834 52.0103 60.7841 52.0103 60.7841C52.0103 60.7675 52.0103 60.7509 52.0103 60.7841C52.0103 60.9005 51.9771 61.2162 51.8442 62.0636L52.5088 62.1966ZM57.1615 62.18L52.2097 61.8144L52.1599 62.4791L57.1117 62.8446L57.1615 62.18ZM55.0346 103.522C55.3835 102.11 57.012 95.0978 58.0422 86.8226C59.0724 78.5475 59.5211 68.9596 57.444 62.4126L56.8126 62.612C58.8398 68.9928 58.4244 78.4644 57.3942 86.7395C56.3639 94.9981 54.7355 101.977 54.3865 103.373L55.0346 103.522ZM54.3865 104.154C54.7189 104.087 54.9515 103.838 55.0346 103.539L54.4031 103.356C54.3865 103.439 54.3201 103.489 54.2536 103.489L54.3865 104.154ZM50.7973 104.054C51.6448 104.171 53.2566 104.337 54.3699 104.154L54.2536 103.506C53.2566 103.689 51.7445 103.539 50.8804 103.406L50.7973 104.054ZM49.9831 102.974C49.9166 103.489 50.2822 103.988 50.8139 104.054L50.897 103.39C50.7641 103.373 50.6311 103.223 50.6478 103.057L49.9831 102.974ZM48.687 78.4311C49.2852 82.2032 49.7504 87.2713 49.9997 91.9406C50.2323 96.6099 50.2489 100.847 49.9831 102.991L50.6478 103.074C50.9302 100.88 50.9136 96.5766 50.6644 91.9073C50.4317 87.238 49.9665 82.1367 49.3516 78.3314L48.687 78.4311ZM37.9027 99.335C38.1187 99.5843 38.1187 99.5843 38.1187 99.5843C38.1187 99.5843 38.1353 99.5843 38.1353 99.5677C38.152 99.5511 38.1686 99.5344 38.2018 99.5178C38.2516 99.468 38.3347 99.4015 38.4344 99.3018C38.6338 99.1024 38.9329 98.8199 39.2985 98.4045C40.0296 97.6069 41.0433 96.3773 42.1898 94.699C44.4829 91.3091 47.2745 86.0416 49.3184 78.4644L48.6704 78.2982C46.6431 85.7924 43.8681 91.01 41.6249 94.3334C40.4949 95.9951 39.4979 97.1915 38.8 97.9725C38.4511 98.3546 38.152 98.6371 37.9692 98.8365C37.8695 98.9362 37.803 99.0027 37.7531 99.0359C37.7365 99.0526 37.7033 99.0692 37.7033 99.0858L37.6867 99.1024C37.6867 99.0858 37.6867 99.0858 37.9027 99.335ZM37.3876 100.133C37.5537 100.05 37.7365 99.9166 37.8861 99.8169C37.9525 99.7671 38.019 99.7172 38.0689 99.6674C38.0855 99.6508 38.1021 99.6341 38.1187 99.6175L38.1353 99.6009C38.1353 99.6009 38.1353 99.6009 37.9193 99.3517C37.7033 99.1024 37.7033 99.1024 37.7033 99.1024C37.7033 99.1024 37.7033 99.1024 37.6867 99.119C37.6701 99.1356 37.6534 99.1356 37.6368 99.1523C37.6036 99.1855 37.5371 99.2353 37.4707 99.2852C37.3377 99.3849 37.1882 99.4846 37.1051 99.5344L37.3876 100.133ZM37.1716 100.232C37.238 100.199 37.3211 100.166 37.3876 100.116L37.0885 99.5178C37.0054 99.5677 36.9223 99.6009 36.8558 99.6341L37.1716 100.232ZM35.8921 100.465C36.1746 100.531 36.3906 100.515 36.6066 100.465C36.806 100.415 36.9888 100.315 37.1549 100.232L36.8558 99.6508C36.6731 99.7505 36.5567 99.8003 36.4404 99.8335C36.3407 99.8668 36.2078 99.8668 36.025 99.8335L35.8921 100.465ZM34.1639 97.0253C33.5159 98.5374 34.2802 100.116 35.8755 100.482L36.025 99.8335C34.8452 99.5677 34.2802 98.4377 34.7787 97.2912L34.1639 97.0253ZM41.6581 68.162C40.9602 72.6485 38.8665 86.1081 34.1639 97.0253L34.7787 97.2912C39.5145 86.2909 41.6249 72.7482 42.3228 68.2783L41.6581 68.162ZM41.7744 67.4308C41.7412 67.6302 41.7079 67.8795 41.6581 68.162L42.3228 68.2617C42.3726 67.9792 42.4058 67.7466 42.4391 67.5305L41.7744 67.4308Z" fill="black"/>
<path d="M48.9861 78.9464C48.8864 78.9464 48.8033 78.8633 48.7867 78.7636C48.7867 78.7304 48.6206 76.3376 47.4906 73.6457C47.125 72.7982 46.8758 71.8012 46.7262 70.6713C46.7096 70.5716 46.7927 70.4553 46.8924 70.4387C46.9921 70.422 47.1084 70.5051 47.1251 70.6048C47.2746 71.7015 47.5239 72.6653 47.8562 73.4795C49.036 76.2379 49.1855 78.6307 49.1855 78.7304C49.1855 78.8301 49.1024 78.9298 48.9861 78.9464Z" fill="black"/>
<path d="M51.7113 72.4324C51.3292 72.4324 50.9304 72.3161 50.598 72.0669L49.4016 71.1862C48.9696 70.8704 48.7203 70.4052 48.6871 69.8734L48.4877 66.0184C48.4711 65.8356 48.5542 65.6362 48.7037 65.5032C48.8533 65.3703 49.036 65.3205 49.2188 65.3371C50.2657 65.4866 52.3262 65.7193 54.5362 65.47C54.7024 65.4534 54.9018 65.5032 55.0347 65.6362C55.1676 65.7525 55.2507 65.9187 55.2507 66.1014L55.367 69.7904C55.4003 70.5049 54.9849 71.1197 54.3534 71.4188L52.4923 72.2663C52.2265 72.3826 51.9606 72.4324 51.7113 72.4324ZM49.1191 65.7525C49.0693 65.7525 49.0028 65.7857 48.953 65.819C48.9031 65.8688 48.8699 65.9353 48.8699 66.0017L49.0693 69.8568C49.1025 70.2556 49.2853 70.6212 49.6176 70.8538L50.814 71.7345C51.2461 72.0502 51.811 72.1167 52.2929 71.8841L54.154 71.0366C54.6525 70.8206 54.935 70.3221 54.935 69.7737L54.8187 66.0848C54.8187 66.0184 54.7854 65.9519 54.7356 65.9187C54.6857 65.8854 54.6193 65.8522 54.5528 65.8688C52.3095 66.1014 50.1992 65.8854 49.1358 65.7359C49.1358 65.7525 49.1357 65.7525 49.1191 65.7525Z" fill="black"/>
<path d="M42.7216 71.5519C42.5887 71.5519 42.4558 71.5187 42.3394 71.4356L41.8576 71.1199C41.7579 71.0534 41.7412 70.9371 41.8077 70.8374C41.8742 70.7377 41.9905 70.7211 42.0902 70.7875L42.5721 71.1199C42.6552 71.1697 42.7382 71.1864 42.8379 71.1531L44.8984 70.1063C44.9815 70.073 45.0313 70.0066 45.0313 69.9069L45.4966 65.6197C45.5132 65.4868 45.4135 65.3705 45.2806 65.3373L43.3364 65.0215C43.2367 65.0049 43.1537 64.9052 43.1703 64.7889C43.1869 64.6892 43.2866 64.6061 43.4029 64.6227L45.3471 64.9385C45.696 64.9883 45.9287 65.3206 45.8954 65.653L45.4301 69.9401C45.3969 70.1727 45.264 70.3555 45.0812 70.4552L43.0373 71.5021C42.921 71.5353 42.8047 71.5519 42.7216 71.5519Z" fill="black"/>
<path d="M54.8352 39.066C54.8352 39.066 54.0542 38.6839 54.237 37.4044V37.3878L54.7521 34.4133L51.6116 33.5991L51.0134 36.856C50.8472 37.6869 50.2988 38.4014 49.5178 38.7171C49.3184 38.8002 49.0692 38.8666 48.8366 38.9165C48.5707 38.9663 48.4378 39.2322 48.7369 39.4649C50.4151 40.7277 53.2732 40.2458 54.7687 39.7806C55.1675 39.6643 55.234 39.2821 54.8352 39.066Z" fill="white"/>
<path d="M51.6284 40.4953C50.5649 40.4953 49.4516 40.2959 48.6041 39.6478C48.3217 39.4318 48.3217 39.2158 48.3549 39.1161C48.3881 38.9333 48.5543 38.8003 48.7703 38.7339C49.0029 38.684 49.219 38.6176 49.4184 38.5345C50.1329 38.252 50.648 37.6039 50.7976 36.823L51.3958 33.5661C51.4124 33.5162 51.429 33.4664 51.4955 33.4331C51.5453 33.3999 51.5952 33.3999 51.6616 33.3999L54.8022 34.2141C54.9019 34.2474 54.9684 34.3304 54.9518 34.4468L54.4366 37.3547C54.4366 37.3713 54.4366 37.3879 54.4366 37.4045C54.2705 38.5345 54.9019 38.8502 54.9351 38.8668C54.9351 38.8668 54.9351 38.8668 54.9518 38.8668C55.201 38.9997 55.3339 39.2158 55.3173 39.4484C55.2841 39.681 55.1013 39.8971 54.8188 39.9635C54.4034 40.1297 53.0741 40.4953 51.6284 40.4953ZM51.7447 33.8652L51.1797 36.906C51.0136 37.82 50.3988 38.5843 49.5513 38.9167C49.3353 38.9997 49.1026 39.0828 48.8368 39.1327C48.7537 39.1493 48.7371 39.1825 48.7371 39.1991C48.7371 39.2158 48.7537 39.2656 48.8368 39.3321C50.6979 40.7445 54.0378 39.814 54.6693 39.6146C54.7856 39.5813 54.8853 39.5149 54.8853 39.4484C54.8853 39.3819 54.8354 39.3155 54.7357 39.2656C54.636 39.2324 53.8384 38.7671 54.0212 37.4544C54.0212 37.4212 54.0212 37.4212 54.0212 37.3879L54.5031 34.6129L51.7447 33.8652Z" fill="black"/>
<path d="M54.3203 27.2512C53.0574 27.4174 52.8912 28.8464 51.3957 29.0126C50.7144 29.0957 50.3655 28.8464 49.7507 29.1289C49.3519 29.3283 48.7537 29.7936 48.6872 30.4084C48.6041 31.1894 49.4682 31.3722 50.3655 32.9009C50.9803 33.9644 51.0135 34.6789 51.512 34.762C52.0105 34.8451 52.2266 34.1472 52.7749 34.197C53.4894 34.2469 53.5725 35.4599 54.3203 35.8089C54.7855 36.0415 55.7826 35.975 57.1784 34.9448C57.411 34.7786 57.4775 34.4629 57.3445 34.2136C57.1784 33.8979 56.9623 33.4825 56.7463 33.1003C55.6496 31.3057 54.8686 31.0066 55.0348 30.4583C55.2674 29.6108 56.8128 29.777 56.9125 29.0957C57.062 28.3479 55.6164 27.0851 54.3203 27.2512Z" fill="black"/>
<path d="M52.2764 30.9074L52.6087 30.7413C52.6087 30.7413 53.6888 33.0178 54.1208 33.5827C54.5529 34.1643 56.4306 32.9845 56.4306 32.9845L56.4638 32.5691L56.6964 32.4196C56.7629 32.3863 56.8127 32.3032 56.8127 32.2201C56.8294 32.1371 56.7795 32.054 56.7297 31.9875C56.281 31.5389 55.3006 30.5086 54.8353 29.495C54.852 29.495 53.2568 29.3953 52.2764 30.9074Z" fill="white"/>
<path d="M52.4259 30.7743C52.4592 30.7245 52.4758 30.6746 52.4758 30.6248C52.4758 30.5915 52.4924 30.5749 52.509 30.5583C52.6087 30.5085 52.7417 30.5417 52.7915 30.6414C53.0075 31.0734 53.2235 31.4889 53.4396 31.9209C53.6556 32.3529 53.8882 32.7683 54.1042 33.1838C54.1541 33.2835 54.2206 33.3832 54.287 33.4662C54.3203 33.4995 54.3701 33.5161 54.4532 33.5327C54.6194 33.5493 54.852 33.4995 55.068 33.433C55.5 33.2835 55.9155 33.0508 56.3309 32.8348L56.2312 32.9844C56.2478 32.8514 56.2644 32.7019 56.281 32.5689V32.5357C56.2977 32.4859 56.3143 32.436 56.3641 32.4194C56.4306 32.3862 56.5137 32.3529 56.5968 32.3197C56.6134 32.3197 56.63 32.3031 56.63 32.3031H56.6466C56.6632 32.3031 56.6632 32.2865 56.6798 32.2865C56.6965 32.2698 56.7131 32.2532 56.7131 32.2366C56.7297 32.2034 56.7131 32.1535 56.6798 32.1203L56.5137 31.9541C56.281 31.7215 56.065 31.4722 55.8324 31.2396C55.3837 30.7411 54.9849 30.226 54.6858 29.6112L54.852 29.7275C54.7523 29.7275 54.6194 29.7441 54.503 29.7607C54.3867 29.7773 54.2704 29.7939 54.1541 29.8272C53.9215 29.8936 53.7054 29.9767 53.4894 30.093C53.2734 30.1927 53.0906 30.3423 52.9078 30.5085C52.8247 30.5915 52.7417 30.6746 52.6752 30.7577C52.642 30.791 52.5921 30.8574 52.5755 30.8906L52.5589 30.9073C52.5589 30.8906 52.5589 30.874 52.5589 30.874C52.5256 30.8076 52.4758 30.7743 52.4259 30.7743ZM52.1435 31.0402C52.1268 30.9904 52.1102 30.9073 52.1435 30.8076C52.1601 30.7743 52.1767 30.7245 52.1933 30.6912C52.2099 30.6746 52.2265 30.658 52.2265 30.658L52.2432 30.6248C52.2764 30.5749 52.3262 30.5251 52.3595 30.4586C52.4426 30.3589 52.5256 30.2592 52.642 30.1595C52.8414 29.9767 53.0574 29.8106 53.29 29.6776C53.5227 29.5447 53.7885 29.445 54.0544 29.3785C54.1873 29.3453 54.3203 29.3287 54.4532 29.2954C54.5861 29.2788 54.7191 29.2622 54.8686 29.2622C54.9517 29.2622 55.0015 29.3121 55.0348 29.3785C55.1677 29.661 55.3339 29.9435 55.5 30.2094C55.6662 30.4752 55.8656 30.7245 56.065 30.9904C56.2644 31.2396 56.4804 31.4889 56.7131 31.7049L56.7962 31.8046L56.8294 31.8378L56.8626 31.871C56.8792 31.8877 56.8959 31.9043 56.8959 31.9043C56.9789 32.004 56.9956 32.1369 56.9789 32.2532C56.9623 32.3031 56.9457 32.3695 56.9125 32.4194C56.8959 32.4526 56.8792 32.4692 56.8626 32.5025C56.846 32.5191 56.8294 32.5357 56.8294 32.5357L56.7962 32.5689C56.7297 32.6188 56.6798 32.6686 56.6134 32.7351L56.7131 32.5856C56.6965 32.7351 56.6798 32.868 56.6798 33.001C56.6798 33.0674 56.6466 33.1173 56.5801 33.1505C56.1481 33.3998 55.7327 33.6324 55.2508 33.7986C55.0182 33.8817 54.7689 33.9648 54.4698 33.9481C54.3867 33.9315 54.3036 33.9149 54.2372 33.8983C54.1541 33.8651 54.071 33.7986 54.0045 33.7321C53.9215 33.6158 53.855 33.5161 53.7885 33.4164C53.5393 32.9844 53.3232 32.5689 53.1072 32.1369C52.8912 31.7049 52.6752 31.2728 52.4758 30.8408L52.7583 30.9405C52.6752 30.9737 52.5755 31.0236 52.4592 31.0402C52.293 31.0402 52.2099 31.0402 52.1435 31.0402Z" fill="black"/>
<path d="M52.9907 32.5687C52.9907 32.5687 52.1267 31.5052 51.7279 31.9871C51.3291 32.5022 52.3095 33.6488 52.9907 32.5687Z" fill="white"/>
<path d="M34.3136 77.8498L24.8752 72.7485L30.4751 63.7422L39.9134 68.8435L34.3136 77.8498Z" fill="white"/>
<path d="M34.3137 78.0488C34.2804 78.0488 34.2472 78.0322 34.214 78.0155L24.7757 72.9142C24.7258 72.881 24.6926 72.8477 24.676 72.7979C24.6593 72.748 24.676 72.6982 24.7092 72.6317L30.309 63.6254C30.3589 63.5257 30.4752 63.5091 30.5749 63.559L40.0298 68.6603C40.0797 68.6935 40.1129 68.7268 40.1295 68.7766C40.1462 68.8265 40.1295 68.8763 40.0963 68.9428L34.4798 77.9491C34.4466 78.0155 34.3801 78.0488 34.3137 78.0488ZM25.1412 72.6649L34.2472 77.5835L39.631 68.9262L30.5251 64.0076L25.1412 72.6649Z" fill="black"/>
<path d="M36.4073 70.3556L30.8573 67.348C30.4419 67.1153 30.309 66.6002 30.5582 66.2014C30.7909 65.8358 31.2395 65.7195 31.6217 65.9189L37.1717 68.91C37.5871 69.1426 37.7201 69.6577 37.4708 70.0565C37.2382 70.4387 36.7895 70.555 36.4073 70.3556Z" fill="white"/>
<path d="M36.7896 70.6543C36.6234 70.6543 36.4739 70.621 36.3243 70.5379L30.7743 67.5469C30.5417 67.414 30.3423 67.1814 30.2758 66.9155C30.2093 66.6496 30.2426 66.3505 30.3921 66.1179C30.6746 65.6692 31.2396 65.5363 31.7215 65.7689L37.2715 68.76C37.5041 68.8929 37.7035 69.1255 37.77 69.3914C37.8364 69.6573 37.8032 69.9564 37.6537 70.189C37.4376 70.4881 37.1219 70.6543 36.7896 70.6543ZM36.5071 70.1724C36.7896 70.3219 37.1385 70.2222 37.2881 69.973C37.3878 69.8234 37.4044 69.6573 37.3712 69.4911C37.3379 69.3249 37.2216 69.1754 37.0721 69.1089L31.5221 66.1179C31.2396 65.9683 30.8906 66.068 30.7411 66.3173C30.6414 66.4668 30.6248 66.633 30.658 66.7992C30.6912 66.9653 30.8075 67.1149 30.9571 67.1814L36.5071 70.1724Z" fill="black"/>
<path d="M34.7621 73.0143L29.2121 70.0233C28.7967 69.7906 28.6637 69.2755 28.913 68.8767C29.1456 68.5111 29.5943 68.3948 29.9764 68.5942L35.5264 71.5852C35.9419 71.8179 36.0748 72.333 35.8256 72.7318C35.6095 73.0974 35.1443 73.2303 34.7621 73.0143Z" fill="white"/>
<path d="M35.1612 73.313C34.995 73.313 34.8455 73.2797 34.6959 73.1967L29.1459 70.2056C28.9133 70.0727 28.7139 69.8401 28.6474 69.5742C28.5809 69.3083 28.6142 69.0092 28.7637 68.7766C29.0462 68.3279 29.6112 68.195 30.0931 68.4276L35.6431 71.4187C35.8757 71.5516 36.0751 71.7842 36.1416 72.0501C36.208 72.316 36.1748 72.6151 36.0252 72.8477C35.8092 73.1634 35.4935 73.313 35.1612 73.313ZM29.6112 68.7101C29.4118 68.7101 29.2124 68.8098 29.096 68.9926C28.9963 69.1422 28.9797 69.3083 29.013 69.4745C29.0462 69.6407 29.1625 69.7902 29.3121 69.8567L34.8621 72.8477C35.1446 72.9973 35.4935 72.8976 35.6431 72.6483C35.7428 72.4988 35.7594 72.3326 35.7261 72.1664C35.6929 72.0002 35.5766 71.8673 35.427 71.7842L29.877 68.7932C29.7939 68.7267 29.7109 68.7101 29.6112 68.7101Z" fill="black"/>
<path d="M28.8799 72.0003C28.8799 72.4489 28.4977 72.8311 28.0657 72.8311C27.617 72.8311 27.2515 72.4489 27.2515 72.0003C27.2515 71.5516 27.6337 71.1694 28.0657 71.1694C28.5143 71.1694 28.8799 71.535 28.8799 72.0003Z" fill="white"/>
<path d="M28.0656 73.0141C27.5007 73.0141 27.052 72.5654 27.052 71.9839C27.052 71.4189 27.5007 70.9536 28.0656 70.9536C28.6306 70.9536 29.0792 71.4023 29.0792 71.9839C29.0959 72.5488 28.6306 73.0141 28.0656 73.0141ZM28.0656 71.369C27.7167 71.369 27.4508 71.6515 27.4508 72.0005C27.4508 72.3494 27.7333 72.6319 28.0656 72.6319C28.4146 72.6319 28.6804 72.3494 28.6804 72.0005C28.6804 71.6515 28.4146 71.369 28.0656 71.369Z" fill="black"/>
<path d="M31.6883 73.4627C31.6883 73.9113 31.3061 74.2935 30.874 74.2935C30.4254 74.2935 30.0598 73.9113 30.0598 73.4627C30.0598 73.014 30.442 72.6318 30.874 72.6318C31.3061 72.6318 31.6883 73.014 31.6883 73.4627Z" fill="white"/>
<path d="M30.8574 74.4931C30.2924 74.4931 29.8438 74.0445 29.8438 73.4629C29.8438 72.8979 30.2924 72.4326 30.8574 72.4326C31.4223 72.4326 31.871 72.8813 31.871 73.4629C31.8876 74.0278 31.4057 74.4931 30.8574 74.4931ZM30.8574 72.8314C30.5084 72.8314 30.2426 73.1139 30.2426 73.4629C30.2426 73.8118 30.525 74.0943 30.8574 74.0943C31.2063 74.0943 31.4722 73.8118 31.4722 73.4629C31.4722 73.1139 31.2063 72.8314 30.8574 72.8314Z" fill="black"/>
<path d="M37.5207 62.8112C37.5207 62.8112 35.9088 62.3792 35.4934 62.7614C35.3937 62.8611 35.726 64.9714 35.6097 65.0711C35.0614 65.5862 34.1973 66.2343 34.0145 66.6995C33.732 67.4307 33.9314 68.6271 34.1142 69.5908C34.2139 70.0894 34.8952 70.1724 35.078 69.6905C35.1278 69.5576 35.4269 68.3778 35.4768 68.0953C35.51 67.979 35.5765 67.8627 35.6596 67.7796C35.8922 67.6135 36.3907 67.1316 36.7231 67.1149C36.7563 67.1149 37.4376 67.4805 37.4376 67.4805C37.4376 67.4805 37.9028 66.2841 37.5207 65.3203C37.4376 65.1376 37.4376 64.9215 37.4376 64.7221L37.5207 62.8112Z" fill="white"/>
<path d="M34.6127 70.2225C34.5795 70.2225 34.5629 70.2225 34.5296 70.2225C34.2139 70.1892 33.9481 69.9566 33.8982 69.6409C33.6822 68.4943 33.516 67.3976 33.8151 66.6499C33.9813 66.2344 34.5296 65.7692 35.0448 65.3039C35.1777 65.2042 35.294 65.0713 35.4269 64.9882C35.4436 64.822 35.3937 64.2903 35.3439 63.9247C35.2275 62.8612 35.2442 62.7283 35.3439 62.6286C35.8091 62.2132 37.2714 62.5787 37.5539 62.6452C37.6536 62.6784 37.7034 62.7449 37.7034 62.8446L37.637 64.7722C37.637 64.9383 37.637 65.1377 37.7034 65.2873C38.1189 66.3175 37.6536 67.5472 37.637 67.597C37.6037 67.6469 37.5705 67.6967 37.5207 67.7133C37.4708 67.7299 37.421 67.7299 37.3545 67.6967C37.0886 67.5638 36.7895 67.3976 36.7064 67.3644C36.507 67.3976 36.1747 67.6801 35.9753 67.8463C35.9088 67.8961 35.8424 67.946 35.7925 67.9958C35.7427 68.029 35.6928 68.0955 35.6928 68.162C35.643 68.4445 35.3439 69.6409 35.2774 69.7904C35.1611 70.0563 34.9118 70.2225 34.6127 70.2225ZM35.6596 62.8778C35.6596 63.044 35.6928 63.5093 35.7427 63.8582C35.859 64.9549 35.859 65.1211 35.7427 65.2208C35.6097 65.3371 35.4768 65.4534 35.3272 65.603C34.8786 65.9852 34.3302 66.4671 34.1973 66.7994C33.9314 67.5139 34.1641 68.7436 34.297 69.5744C34.3302 69.7406 34.4632 69.807 34.5795 69.8237C34.6293 69.8237 34.8121 69.8403 34.8952 69.6575C34.9284 69.5578 35.2275 68.3946 35.2774 68.1121C35.3106 67.946 35.3937 67.7964 35.5433 67.6801C35.5765 67.6469 35.643 67.597 35.7094 67.5472C35.9919 67.3145 36.3907 66.9822 36.7231 66.9656C36.7729 66.9656 36.8061 66.9656 37.3379 67.2481C37.4376 66.8659 37.6037 66.1015 37.3379 65.4368C37.2382 65.2042 37.2382 64.9383 37.2382 64.7389L37.288 62.9775C36.7397 62.828 35.9421 62.7449 35.6596 62.8778Z" fill="black"/>
<path d="M70.804 37.2546C70.7873 37.238 70.7873 37.2214 70.804 37.2048L71.5185 36.4736C72.0668 35.9751 72.2496 34.9117 72.2496 34.9117C72.3493 34.5128 72.5653 34.1473 72.8811 33.8814L75.9385 31.3224C76.1878 31.123 76.57 31.2892 76.5866 31.6049C76.6032 31.8375 76.5035 32.1367 76.1878 32.4524L75.3902 33.1669C75.224 33.3164 75.1908 33.5491 75.3071 33.7319C75.4899 34.0476 75.7225 34.5627 75.573 35.1609C75.2573 36.5069 73.6787 37.022 73.2799 37.1217C73.23 37.1383 72.4324 38.4344 72.2662 38.7003C72.2496 38.7335 72.233 38.7335 72.1998 38.7003L70.804 37.2546Z" fill="white"/>
<path d="M72.2166 38.8998C72.1501 38.8998 72.0837 38.8666 72.0504 38.8167L70.6546 37.3711C70.5549 37.2714 70.5549 37.1384 70.6546 37.0387L71.3691 36.3076C71.8842 35.8589 72.0504 34.8619 72.0504 34.8453C72.1501 34.3967 72.3994 33.9979 72.7483 33.6988L75.8058 31.1398C75.972 30.9902 76.2212 30.9736 76.4372 31.0401C76.6366 31.1398 76.7696 31.3226 76.7862 31.5552C76.8028 31.9042 76.6533 32.2365 76.3209 32.5522L75.5233 33.2667C75.4236 33.3498 75.4236 33.4827 75.4735 33.5658C75.6895 33.9314 75.9221 34.4964 75.7726 35.1444C75.4569 36.5402 73.9447 37.0886 73.413 37.2381C73.3133 37.3877 72.9145 37.9859 72.4492 38.7336C72.416 38.8001 72.3495 38.8333 72.2831 38.8333C72.2498 38.8998 72.2332 38.8998 72.2166 38.8998ZM71.0534 37.2049L72.1834 38.3847C73.0807 36.9224 73.1139 36.9224 73.2136 36.9058C73.5293 36.8227 75.0581 36.3408 75.3572 35.0946C75.4735 34.5795 75.2907 34.1142 75.1245 33.8317C74.9584 33.5658 75.0248 33.2169 75.2408 33.0175L76.0384 32.303C76.2711 32.0703 76.3874 31.8543 76.3708 31.6217C76.3708 31.522 76.2877 31.4721 76.2711 31.4555C76.2046 31.4223 76.1215 31.4223 76.0717 31.4887L73.0142 34.0477C72.7317 34.2804 72.5323 34.6127 72.4658 34.9616C72.4658 34.9949 72.2664 36.0916 71.6848 36.6399L71.0534 37.2049Z" fill="black"/>
<path d="M72.1998 38.7007L70.4384 36.9228C70.2722 36.8231 70.0562 36.8729 69.9233 37.0058C65.9186 40.8942 63.2267 40.2461 60.0197 39.4319C60.0197 39.4319 56.7129 38.6509 55.8156 38.5844C55.1177 38.518 53.2899 38.0527 49.0028 38.5346C47.3245 38.7174 45.7126 39.2325 44.2504 40.0301L44.0177 40.1464C44.0177 40.1464 31.8875 46.9925 34.8453 63.5096C34.8785 63.6924 35.0281 63.8419 35.2275 63.8419H37.6535C37.8529 63.8419 38.0357 63.6757 38.0357 63.4597C38.1354 61.7482 38.8167 55.1513 42.2231 51.047C42.6053 50.5984 43.3364 50.7313 43.5026 51.2796C43.7685 52.1437 43.8516 54.0048 43.1204 57.9263C43.0872 58.0427 42.2065 62.6621 42.2065 62.6621C42.2065 62.6621 51.7113 64.2906 55.0014 63.709C57.6269 63.2437 58.4079 62.579 58.6239 62.3298C58.6737 62.2799 58.6903 62.1969 58.6903 62.1138L58.3082 58.7406C58.1752 57.5275 57.8429 55.2344 58.2251 52.3431C58.7734 48.3385 61.1496 48.4216 61.1496 48.4216C64.1739 48.2222 69.2254 49.1028 72.3659 39.1494C72.449 38.9998 72.3659 38.8004 72.1998 38.7007Z" fill="black"/>
<path d="M96.2111 71.4357C96.2443 69.4583 95.995 66.3842 94.2835 63.3268C90.7275 56.9625 82.9343 54.4036 82.1699 55.4172C81.6049 56.1649 84.463 59.2058 89.6807 64.8555C92.3227 67.697 94.6159 69.9236 96.2111 71.4357Z" fill="#FFE300"/>
<path d="M96.2111 71.6347C96.1613 71.6347 96.1114 71.6181 96.0782 71.5849C93.8515 69.4912 91.6581 67.2645 89.5478 64.988C83.3331 58.2915 81.3889 56.1313 82.0204 55.3004C82.1866 55.0678 82.5687 54.9681 83.1171 55.0013C85.4767 55.1675 91.4255 57.8096 94.4663 63.2267C95.8123 65.6527 96.477 68.3945 96.4105 71.4353C96.4105 71.5184 96.3607 71.5849 96.2942 71.6181C96.261 71.6181 96.2277 71.6347 96.2111 71.6347ZM82.9011 55.4002C82.5687 55.4002 82.386 55.4666 82.3361 55.5331C82.2364 55.6826 82.3029 56.2144 83.9147 58.1585C85.2108 59.7039 87.238 61.9139 89.8303 64.6889C91.8243 66.8491 93.9014 68.9428 96.0117 70.9368C95.9951 68.1618 95.3636 65.6361 94.1174 63.3928C91.2925 58.3579 85.5265 55.5331 83.1005 55.3669C83.0174 55.4002 82.9509 55.4002 82.9011 55.4002Z" fill="black"/>
<path d="M97.0254 71.4855C96.7928 67.4974 97.1085 64.2572 97.4408 62.0471C98.7203 53.6557 101.861 49.3519 102.575 48.4048C103.091 47.7069 105.65 44.3503 106.746 44.882C107.693 45.3307 107.145 48.438 106.298 53.0575C105.517 57.3446 105.118 59.4882 104.304 61.4988C103.406 63.7421 101.429 67.6802 97.0254 71.4855Z" fill="#FFE300"/>
<path d="M97.0254 71.6847C96.9922 71.6847 96.9755 71.6847 96.9423 71.6681C96.8758 71.6349 96.826 71.5684 96.826 71.502C96.6266 68.3115 96.7761 65.1045 97.2414 62.0138C98.4378 54.2205 101.246 49.8171 102.409 48.2883C104.503 45.5133 105.998 44.3003 106.813 44.6991C107.876 45.1976 107.411 47.9228 106.48 53.0906C105.699 57.3777 105.301 59.5545 104.47 61.5817C102.941 65.3704 100.482 68.7436 97.1417 71.6515C97.1085 71.6681 97.0752 71.6847 97.0254 71.6847ZM106.497 45.0314C106.098 45.0314 105.068 45.4801 102.742 48.5376C101.595 50.0497 98.82 54.3867 97.6402 62.0802C97.1916 65.0214 97.0586 68.0457 97.1916 71.0699C100.332 68.2783 102.675 65.0214 104.121 61.4322C104.918 59.4382 105.317 57.2946 106.098 53.0241C106.846 48.953 107.494 45.4635 106.663 45.0647C106.63 45.0481 106.563 45.0314 106.497 45.0314Z" fill="black"/>
<path d="M96.2276 72.3326C95.1641 71.319 92.4722 69.0093 88.8497 69.1422C87.1714 69.1921 85.0611 69.7903 85.0611 70.4217C85.0445 71.2692 88.7168 72.0501 90.9434 72.316C93.1368 72.5819 94.9813 72.4822 96.2276 72.3326Z" fill="#FFE300"/>
<path d="M93.652 72.6819C92.738 72.6819 91.8241 72.632 90.9102 72.5157C90.8437 72.4991 84.8285 71.7513 84.8617 70.422C84.8949 69.4914 87.5038 68.9929 88.8497 68.9597C92.3226 68.8434 95.0478 70.9537 96.3771 72.2C96.427 72.2498 96.4602 72.3329 96.427 72.416C96.3937 72.4991 96.3273 72.5323 96.2608 72.5489C95.3801 72.6154 94.516 72.6819 93.652 72.6819ZM89.1322 69.3253C89.0325 69.3253 88.966 69.3253 88.8663 69.3253C87.0884 69.3751 85.2771 70.0066 85.2605 70.4054C85.2439 70.9205 88.0189 71.7347 90.9601 72.1003C92.5553 72.2831 94.1671 72.3163 95.7623 72.1667C94.4496 70.9703 92.09 69.3253 89.1322 69.3253Z" fill="black"/>
<path d="M97.9724 74.1274C98.4543 74.8918 99.1356 75.9054 100.05 77.0354C100.498 77.5837 101.794 79.1955 103.29 80.4917C105.649 82.5189 109.604 84.7788 110.418 83.9147C111.199 83.0839 109.305 79.1623 106.297 77.1849C105.3 76.5369 104.27 76.1547 102.476 75.49C100.664 74.8087 99.1024 74.3933 97.9724 74.1274Z" fill="#FFE300"/>
<path d="M109.887 84.2969C108.258 84.2969 104.902 82.1367 103.173 80.6412C102.143 79.7439 101.03 78.5808 99.8999 77.1683C99.1521 76.2378 98.4376 75.2574 97.8228 74.2438C97.7895 74.1773 97.7895 74.0776 97.8228 74.0111C97.8726 73.9447 97.9557 73.9114 98.0388 73.9281C99.5675 74.2936 101.096 74.7589 102.575 75.2906C104.353 75.9387 105.417 76.3375 106.43 77.0022C108.806 78.5475 110.618 81.389 110.817 83.0507C110.867 83.4993 110.784 83.8317 110.601 84.0311C110.435 84.2138 110.186 84.2969 109.887 84.2969ZM98.421 74.4432C98.9859 75.2906 99.5841 76.1215 100.216 76.9191C101.346 78.3149 102.426 79.4781 103.456 80.3421C106.115 82.6353 109.704 84.4299 110.319 83.7818C110.418 83.6821 110.468 83.4329 110.418 83.1338C110.252 81.8044 108.674 78.9796 106.214 77.3677C105.234 76.7197 104.237 76.3707 102.426 75.6894C101.113 75.1909 99.7669 74.7755 98.421 74.4432Z" fill="black"/>
<path d="M98.2715 99.7839C98.1552 99.7839 98.0721 99.6842 98.0721 99.5678C98.6371 85.3439 96.7428 72.8315 96.7428 72.7151C96.7261 72.6154 96.7926 72.4991 96.9089 72.4825C97.0086 72.4659 97.1249 72.5324 97.1416 72.6487C97.1582 72.765 99.0359 85.3273 98.4709 99.5844C98.4709 99.7008 98.3878 99.7839 98.2715 99.7839Z" fill="black"/>
<path d="M97.2413 99.7835C97.1416 99.7835 97.0585 99.7005 97.0419 99.6008C97.0253 99.4678 95.9618 85.6759 91.7578 77.2346C91.7079 77.1349 91.7412 77.0186 91.8575 76.9687C91.9572 76.9189 92.0735 76.9521 92.1234 77.0684C96.344 85.5762 97.4241 99.4512 97.4407 99.5841C97.4573 99.6838 97.3576 99.7669 97.2413 99.7835Z" fill="black"/>
<path d="M91.5417 79.8105C91.8574 80.1429 93.2865 81.7547 93.2865 84.214C93.2865 86.64 91.8906 88.9664 91.309 88.8335C90.8105 88.7171 90.6111 86.7896 91.5417 79.8105Z" fill="white"/>
<path d="M91.0266 77.8496C89.5644 79.5944 87.238 81.9872 83.8648 83.9313C80.126 86.1081 75.0745 87.7864 74.4929 86.7894C74.0111 85.9752 76.6199 83.5492 77.9492 82.4525C79.8934 80.8739 83.9811 78.1986 91.0266 77.8496Z" fill="white"/>
<path d="M90.6446 76.3708C89.2155 74.6759 86.8227 72.3329 83.2834 70.7709C75.7393 67.4144 67.082 69.3253 66.9491 70.7876C66.866 71.5686 69.3086 71.5686 76.1215 74.7257C80.6579 76.8195 82.4525 78.1488 85.5266 77.9826C87.7367 77.8829 89.498 77.0521 90.6446 76.3708Z" fill="white"/>
<path d="M92.0569 76.2378C93.8349 74.4598 96.909 71.9507 101.296 70.7377C104.054 69.9733 108.458 69.4416 108.906 70.6047C109.372 71.851 105.317 75.1245 100.98 76.3541C97.2745 77.3844 93.9678 76.7696 92.0569 76.2378Z" fill="#FFE300"/>
<path d="M96.7927 77.1017C95.2307 77.1017 93.6189 76.8691 92.0071 76.4204C91.9406 76.4038 91.8908 76.354 91.8742 76.2709C91.8575 76.2044 91.8741 76.1213 91.924 76.0881C94.6824 73.3463 97.8229 71.4686 101.263 70.5215C103.489 69.9067 108.557 69.0592 109.106 70.5049C109.205 70.7541 109.156 71.0698 108.989 71.4354C108.208 72.9974 104.752 75.4733 101.047 76.5201C99.6674 76.9189 98.255 77.1017 96.7927 77.1017ZM92.4557 76.1213C95.3969 76.8857 98.2384 76.9023 100.947 76.138C104.436 75.1409 107.876 72.7481 108.624 71.2526C108.74 71.0034 108.79 70.804 108.724 70.6544C108.391 69.7571 104.486 70.0728 101.362 70.9203C98.0888 71.8176 95.0978 73.5624 92.4557 76.1213Z" fill="black"/>
<path d="M97.6568 110.801C94.4996 110.801 91.9573 108.242 91.9573 105.068V99.335H103.373V105.068C103.373 108.225 100.814 110.801 97.6568 110.801Z" fill="#EF5344"/>
<path d="M97.6568 111C94.3999 111 91.7578 108.341 91.7578 105.068V99.3351C91.7578 99.2354 91.8575 99.1357 91.9572 99.1357H103.373C103.473 99.1357 103.572 99.2354 103.572 99.3351V105.068C103.572 108.341 100.914 111 97.6568 111ZM92.1566 99.5345V105.068C92.1566 108.109 94.6325 110.601 97.6568 110.601C100.681 110.601 103.157 108.109 103.157 105.068V99.5345H92.1566Z" fill="black"/>
<path d="M5.98205 72.0836L5.05151 72.6486C4.81888 72.7815 4.7358 73.0474 4.81888 73.2966L5.25092 74.5927C5.31738 74.7921 5.26753 75.0248 5.10136 75.1743C4.9352 75.3405 4.76903 75.49 4.61948 75.6728C4.46993 75.839 4.25391 75.8888 4.05451 75.839L2.74178 75.4568C2.49253 75.3737 2.22666 75.49 2.09373 75.7227L1.56199 76.6864C1.44568 76.9191 1.47891 77.2015 1.67831 77.3677L2.69193 78.2816C2.8581 78.4312 2.92457 78.6472 2.8581 78.8466C2.79163 79.0792 2.74178 79.2953 2.69193 79.5113C2.6587 79.7273 2.49253 79.8935 2.27651 79.9433L0.947173 80.259C0.697921 80.3255 0.515137 80.5581 0.515137 80.8074L0.531754 81.9041C0.531754 82.1533 0.714538 82.386 0.980406 82.4358L2.30975 82.7183C2.52577 82.7515 2.69193 82.9177 2.74178 83.1337C2.79163 83.3664 2.8581 83.5824 2.92457 83.7984C2.99103 83.9978 2.94118 84.2304 2.77502 84.38L1.77801 85.3105C1.59523 85.4767 1.54538 85.7758 1.67831 85.9918L2.24328 86.939C2.37621 87.1716 2.64208 87.2547 2.89133 87.1716L4.18744 86.7396C4.38684 86.6731 4.61948 86.723 4.76903 86.8891C4.9352 87.0553 5.08475 87.2215 5.26753 87.371C5.4337 87.5206 5.48355 87.7366 5.4337 87.936L5.05151 89.2487C4.98505 89.4979 5.08475 89.7638 5.31738 89.8968L6.26454 90.4285C6.49717 90.5448 6.77966 90.5116 6.94583 90.3122L7.85975 89.2986C8.0093 89.1324 8.22532 89.0659 8.42472 89.1324C8.65735 89.1989 8.87337 89.2487 9.08939 89.2986C9.30541 89.3318 9.47157 89.498 9.50481 89.714L9.82053 91.0433C9.88699 91.2926 10.103 91.4753 10.3689 91.4753L11.4656 91.4587C11.7148 91.4587 11.9475 91.2759 11.9973 91.0101L12.2798 89.6807C12.313 89.4647 12.4792 89.2985 12.6952 89.2487C12.9279 89.1988 13.1439 89.1324 13.3599 89.0659C13.5593 88.9994 13.7919 89.0493 13.9415 89.2155L14.872 90.2125C15.0382 90.3953 15.3373 90.4451 15.5533 90.3122L16.4838 89.7472C16.7165 89.6143 16.7996 89.3484 16.7165 89.0991L16.2844 87.803C16.218 87.6036 16.2678 87.371 16.434 87.2215C16.6002 87.0553 16.7663 86.9057 16.9159 86.723C17.0654 86.5568 17.2815 86.5069 17.4809 86.5568L18.777 86.939C19.0262 87.0221 19.2921 86.9057 19.425 86.6731L19.9568 85.7093C20.0731 85.4767 20.0398 85.1942 19.8404 85.028L18.8268 84.1141C18.6606 83.9646 18.5942 83.7485 18.6606 83.5491C18.7271 83.3165 18.777 83.1005 18.8268 82.8845C18.86 82.6685 19.0262 82.5023 19.2422 82.4524L20.5716 82.1367C20.8208 82.0703 21.0036 81.8376 21.0036 81.5884L20.987 80.4917C20.987 80.2424 20.8042 80.0098 20.5383 79.9599L19.209 79.6774C18.993 79.6442 18.8268 79.478 18.777 79.262C18.7271 79.0294 18.6606 78.8134 18.5942 78.5974C18.5277 78.398 18.5776 78.1653 18.7437 78.0158L19.7241 77.0852C19.9069 76.9191 19.9568 76.62 19.8238 76.4039L19.2589 75.4568C19.1259 75.2242 18.86 75.1411 18.6108 75.2242L17.3147 75.6562C17.1153 75.7227 16.8827 75.6728 16.7331 75.5066C16.5669 75.3405 16.4174 75.1743 16.2346 75.0248C16.0684 74.8752 16.0186 74.6592 16.0684 74.4598L16.4506 73.1471C16.5171 72.8978 16.4174 72.6319 16.1847 72.499L15.2376 71.9673C15.005 71.851 14.7225 71.8842 14.5563 72.0836L13.6424 73.0972C13.4928 73.2634 13.2768 73.3298 13.0774 73.2634C12.8448 73.1969 12.6288 73.1471 12.4127 73.0972C12.1967 73.064 12.0306 72.8978 11.9973 72.6818L11.6816 71.3524C11.6151 71.1032 11.3991 70.9204 11.1333 70.9204L10.0365 70.937C9.78729 70.937 9.55466 71.1198 9.50481 71.3857L9.22232 72.715C9.18909 72.931 9.02292 73.0972 8.8069 73.1471C8.57427 73.1969 8.35825 73.2634 8.14223 73.3298C7.94283 73.3963 7.7102 73.3465 7.56065 73.1803L6.63011 72.1833C6.49717 72.0005 6.21469 71.9506 5.98205 72.0836ZM15.0714 78.481C16.65 80.9902 15.7859 84.3301 13.1439 85.7426C10.8009 86.9888 7.85975 86.1912 6.46394 83.948C4.88535 81.4388 5.74942 78.0989 8.39148 76.6864C10.7178 75.4236 13.659 76.2212 15.0714 78.481Z" fill="white"/>
<path d="M10.0865 92.6383C9.75418 92.6383 9.4717 92.4057 9.38861 92.09L9.05628 90.6941C9.02304 90.5778 8.93996 90.4947 8.82364 90.4615C8.57439 90.4117 8.32514 90.3452 8.07589 90.2787C7.97619 90.2455 7.84325 90.2787 7.77679 90.3784L6.82963 91.4419C6.59699 91.6911 6.24804 91.7576 5.96556 91.5915L4.95193 91.0099C4.65283 90.8437 4.5199 90.4947 4.6196 90.179L5.03502 88.7832C5.06825 88.6835 5.03502 88.6004 4.96855 88.534C4.75253 88.3512 4.55313 88.1518 4.37035 87.9524C4.30388 87.8859 4.20418 87.8527 4.1211 87.8859L2.69205 88.3512C2.39295 88.4509 2.09385 88.3179 1.92768 88.0687L1.27963 86.9886C1.11346 86.7227 1.17993 86.407 1.37933 86.191L2.47604 85.1442C2.5425 85.0777 2.57574 84.978 2.5425 84.8949C2.4428 84.629 2.37634 84.3465 2.30987 84.0807C2.27663 83.981 2.21017 83.9145 2.12708 83.8979L0.648192 83.5822C0.34909 83.5157 0.133072 83.2665 0.133072 82.9507L0.116455 81.6879C0.116455 81.3721 0.315856 81.1063 0.614958 81.0398L2.07723 80.6742C2.17693 80.641 2.2434 80.5745 2.26002 80.4915C2.30987 80.209 2.37634 79.9431 2.45942 79.6772C2.49265 79.5775 2.45942 79.4944 2.37634 79.428L1.2464 78.4144C1.01376 78.215 0.96391 77.8826 1.11346 77.6168L1.72828 76.5034C1.87783 76.2376 2.17693 76.1046 2.47604 76.1877L3.87184 76.6031C3.98816 76.6364 4.1211 76.6031 4.20418 76.5034C4.37035 76.3206 4.53652 76.1379 4.7193 75.9717C4.819 75.8886 4.83562 75.7391 4.80238 75.6227L4.37035 74.2934C4.27065 73.9611 4.40358 73.6121 4.68607 73.4459L5.66646 72.8644C5.96556 72.6982 6.33113 72.748 6.58038 72.9807L7.54415 73.9943C7.64385 74.094 7.76017 74.1272 7.87649 74.094C8.10912 74.0109 8.34176 73.9445 8.59101 73.8946C8.70732 73.8614 8.80702 73.7617 8.82364 73.6454L9.10613 72.2828C9.17259 71.9504 9.4717 71.7012 9.82065 71.7012L10.9506 71.6846H10.9672C11.2995 71.6846 11.5986 71.9172 11.6817 72.2495L11.9974 73.6121C12.0307 73.7284 12.1304 73.8447 12.2467 73.8447C12.4793 73.8946 12.7286 73.9445 12.9612 74.0275C13.0775 74.0608 13.2105 74.0275 13.2936 73.9278L14.2241 72.881C14.4567 72.6317 14.8223 72.5653 15.1214 72.7314L16.1184 73.2798C16.4175 73.4459 16.5671 73.7949 16.4674 74.1272L16.0852 75.4566C16.0519 75.5895 16.0852 75.7224 16.1849 75.8221C16.351 75.9883 16.5338 76.1379 16.7 76.3373C16.7997 76.437 16.9326 76.4702 17.0656 76.437L18.3617 76.0049C18.694 75.9052 19.0596 76.0382 19.2424 76.3373L19.8073 77.2844C19.9901 77.6001 19.9403 77.9657 19.6744 78.215L18.694 79.1621C18.5943 79.2618 18.5611 79.3947 18.5943 79.5277C18.6774 79.7603 18.7439 79.9763 18.7937 80.2256C18.8269 80.3585 18.9266 80.4582 19.0596 80.4748L20.3889 80.7573C20.7379 80.8238 20.9705 81.1395 20.9871 81.4718L21.0037 82.5852C21.0037 82.9507 20.7711 83.2332 20.4221 83.3329L19.0928 83.6486C18.9599 83.6819 18.8602 83.7816 18.8269 83.9145C18.7771 84.1471 18.7272 84.3798 18.6608 84.6124C18.6275 84.7453 18.6608 84.8783 18.7605 84.978L19.7741 85.8919C20.04 86.1245 20.1064 86.5067 19.9403 86.8224L19.4085 87.7862C19.2424 88.0853 18.8768 88.2349 18.5445 88.1518L17.2483 87.7696C17.1154 87.7364 16.9825 87.7696 16.8828 87.8693C16.7166 88.0355 16.5671 88.2183 16.3843 88.3844C16.2846 88.4841 16.2513 88.617 16.2846 88.75L16.7166 90.0461C16.8163 90.3784 16.6834 90.7606 16.3843 90.9268L15.4537 91.4917C15.1546 91.6745 14.7558 91.6247 14.5232 91.3588L13.5927 90.3618C13.493 90.2621 13.36 90.2289 13.2271 90.2621C12.9945 90.3452 12.7784 90.4117 12.5458 90.4615C12.4129 90.4947 12.3132 90.5944 12.2965 90.7274L11.9642 92.0567C11.8977 92.3891 11.6153 92.6217 11.2829 92.6217L10.0865 92.6383ZM8.00942 89.8799C8.07589 89.8799 8.14235 89.8965 8.20882 89.9132C8.44146 89.9796 8.67409 90.0461 8.92334 90.0793C9.18921 90.1292 9.40523 90.3452 9.45508 90.6111L9.78741 92.0069C9.82065 92.1564 9.95358 92.2395 10.0865 92.2395L11.2497 92.2229C11.3992 92.2229 11.5156 92.1232 11.5488 91.9902L11.8313 90.6111C11.8811 90.3286 12.1138 90.0959 12.3962 90.0295C12.6123 89.9796 12.8449 89.9132 13.0443 89.8467C13.3102 89.747 13.6259 89.8301 13.8253 90.0461L14.7558 91.0431C14.8721 91.1594 15.0549 91.1926 15.2045 91.1096L16.135 90.5446C16.2846 90.4615 16.3344 90.2953 16.3012 90.1292L15.8692 88.8331C15.7695 88.5506 15.8525 88.2515 16.0686 88.0521C16.2347 87.8859 16.3843 87.7364 16.5338 87.5702C16.7166 87.3542 17.0323 87.2545 17.3148 87.3542L18.6109 87.7364C18.7771 87.7862 18.9266 87.7031 19.0263 87.5702L19.5581 86.6064C19.6412 86.4569 19.6079 86.2741 19.4916 86.1578L18.478 85.2438C18.262 85.0444 18.1789 84.7453 18.262 84.4629C18.3284 84.2468 18.3783 84.0142 18.4281 83.8148C18.478 83.5323 18.7106 83.2997 18.9931 83.2332L20.3224 82.9175C20.4886 82.8843 20.5883 82.7347 20.5883 82.5685L20.5717 81.4552C20.5717 81.2891 20.4554 81.1395 20.2892 81.1229L18.9599 80.8404C18.6774 80.7906 18.4448 80.5579 18.3783 80.2754C18.3284 80.0594 18.262 79.8268 18.1955 79.6274C18.0958 79.3615 18.1789 79.0458 18.3949 78.8464L19.3753 77.8992C19.4916 77.7829 19.5248 77.6001 19.4251 77.4506L18.8602 76.5034C18.7771 76.3539 18.6109 76.304 18.4448 76.3373L17.1486 76.7693C16.8662 76.869 16.5671 76.7859 16.3677 76.5699C16.2015 76.4037 16.0519 76.2542 15.8858 76.088C15.6698 75.9052 15.5867 75.5895 15.6698 75.307L16.0519 73.9777C16.0852 73.8281 16.0353 73.662 15.8858 73.5955L14.8888 73.0471C14.7558 72.9641 14.5897 72.9973 14.49 73.1136L13.5594 74.1605C13.3766 74.3765 13.0775 74.4596 12.8117 74.3765C12.579 74.31 12.363 74.2602 12.1304 74.2103C11.8645 74.1605 11.6319 73.9444 11.5654 73.662L11.2497 72.2994C11.2165 72.1498 11.0835 72.0501 10.934 72.0501L9.80403 72.0668C9.63786 72.0668 9.52155 72.1665 9.48831 72.3326L9.20583 73.6952C9.15598 73.9777 8.93996 74.1937 8.67409 74.2602C8.44146 74.31 8.22544 74.3765 7.9928 74.4596C7.72693 74.5593 7.42783 74.4762 7.22843 74.2768L6.26466 73.2632C6.16496 73.1635 5.98217 73.1302 5.84924 73.2133L4.86885 73.7949C4.73592 73.878 4.68607 74.0275 4.7193 74.1771L5.15134 75.5064C5.25104 75.7723 5.16795 76.0714 4.96855 76.2708C4.80238 76.437 4.63622 76.6031 4.47005 76.7859C4.28726 77.0019 3.98816 77.085 3.72229 77.0019L2.3431 76.5699C2.2434 76.5367 2.11047 76.5865 2.06062 76.6862L1.4458 77.7995C1.39595 77.8992 1.41256 78.0322 1.49565 78.1153L2.62559 79.1289C2.80837 79.295 2.89146 79.5609 2.80837 79.7936C2.72529 80.0428 2.65882 80.3087 2.60897 80.5745C2.55912 80.8072 2.37634 81.0232 2.12708 81.073L0.664808 81.4386C0.548491 81.4718 0.482024 81.5715 0.482024 81.6879L0.498641 82.9507C0.498641 83.0671 0.581725 83.1668 0.698042 83.1834L2.16032 83.4825C2.39295 83.5323 2.60897 83.7151 2.65882 83.9644C2.70867 84.2136 2.79175 84.4795 2.89146 84.7453C2.97454 84.978 2.90807 85.2438 2.72529 85.4266L1.62858 86.4735C1.5455 86.5566 1.52888 86.6895 1.59535 86.7726L2.2434 87.8527C2.29325 87.9524 2.40957 88.0022 2.5425 87.9524L3.97155 87.4871C4.20418 87.404 4.48667 87.4705 4.63622 87.6533C4.819 87.8527 5.0184 88.0355 5.2178 88.2183C5.40059 88.3844 5.46705 88.6503 5.40059 88.8829L4.98517 90.2787C4.95193 90.4283 5.00178 90.5778 5.13472 90.6443L6.14834 91.2259C6.26466 91.2923 6.43083 91.2591 6.53053 91.1594L7.47768 90.0959C7.61062 89.963 7.81002 89.8799 8.00942 89.8799ZM10.5352 87.4705C8.77379 87.4705 7.02903 86.5898 6.04864 84.9946C5.26765 83.7317 5.03502 82.203 5.40059 80.7906C5.78277 79.3449 6.72993 78.1651 8.04265 77.4672C10.4687 76.1711 13.5262 76.9853 14.9885 79.3283C15.7695 80.5912 16.0021 82.1199 15.6365 83.5323C15.2543 84.978 14.3072 86.1578 12.9945 86.8557C12.2301 87.2711 11.3826 87.4705 10.5352 87.4705ZM10.5186 77.2346C9.73756 77.2346 8.97319 77.4174 8.24205 77.7995C7.02903 78.4476 6.16496 79.5443 5.79939 80.8736C5.45044 82.203 5.66646 83.6154 6.38098 84.7786C7.72694 86.9388 10.5684 87.6865 12.7951 86.5067C14.0081 85.8587 14.8721 84.762 15.2377 83.4326C15.5867 82.1033 15.3706 80.6909 14.6561 79.5277C13.7422 78.0654 12.147 77.2346 10.5186 77.2346Z" fill="black"/>
<path d="M76.8691 96.8757C76.6531 96.8757 76.4371 96.8093 76.2543 96.693C75.7724 96.3606 75.6561 95.6959 75.9884 95.1974C76.1546 94.9648 76.4038 94.8153 76.6863 94.7488C76.9688 94.6989 77.2513 94.7654 77.4839 94.915C77.9658 95.2473 78.0821 95.912 77.7498 96.4105C77.5836 96.6431 77.3344 96.7927 77.0519 96.8591C77.002 96.8757 76.9356 96.8757 76.8691 96.8757ZM76.3207 95.4135C76.1047 95.7292 76.1878 96.128 76.4869 96.344C76.6365 96.4437 76.8026 96.4936 76.9854 96.4437C77.1516 96.4105 77.3177 96.3108 77.4174 96.1612C77.6335 95.8621 77.5504 95.4467 77.2513 95.2307C77.1017 95.131 76.9356 95.0811 76.7528 95.131C76.5866 95.1642 76.4204 95.2639 76.3207 95.4135Z" fill="black"/>
<path d="M65.0047 10.0198C64.9549 10.0198 64.905 9.98657 64.8552 9.95333C64.7887 9.87025 64.7887 9.73732 64.8884 9.67085L65.5364 9.1225C65.6195 9.05603 65.7525 9.05603 65.8189 9.15573C65.8854 9.23881 65.8854 9.37175 65.7857 9.43821L65.1376 9.98657C65.1044 10.0032 65.0379 10.0198 65.0047 10.0198Z" fill="black"/>
<path d="M62.961 11.7649C62.9112 11.7649 62.8613 11.7317 62.8115 11.6985C62.745 11.6154 62.745 11.4824 62.8447 11.416L63.4927 10.8676C63.5758 10.8011 63.7088 10.8011 63.7752 10.9008C63.8417 10.9839 63.8417 11.1169 63.742 11.1833L63.0939 11.7317C63.0607 11.7649 63.0109 11.7649 62.961 11.7649Z" fill="black"/>
<path d="M63.7088 9.92028C63.659 9.92028 63.6091 9.88705 63.5593 9.85381L63.0109 9.20576C62.9445 9.12268 62.9445 8.98974 63.0442 8.92328C63.1272 8.85681 63.2602 8.85681 63.3266 8.95651L63.875 9.58795C63.9415 9.67103 63.9415 9.80396 63.8418 9.87043C63.8085 9.90366 63.7587 9.92028 63.7088 9.92028Z" fill="black"/>
<path d="M65.4369 11.9642C65.387 11.9642 65.3372 11.931 65.2873 11.8978L64.739 11.2497C64.6725 11.1666 64.6725 11.0337 64.7722 10.9672C64.8553 10.9008 64.9882 10.9008 65.0547 11.0005L65.603 11.6485C65.6695 11.7316 65.6695 11.8645 65.5698 11.931C65.5366 11.9642 65.5033 11.9642 65.4369 11.9642Z" fill="black"/>
<path d="M68.1121 90.1624C68.0623 90.1624 68.0124 90.1291 67.9626 90.0959C67.8961 90.0128 67.8961 89.8799 67.9958 89.8134L68.6439 89.2651C68.727 89.1986 68.8599 89.1986 68.9264 89.2983C68.9928 89.3814 68.9928 89.5143 68.8931 89.5808L68.2451 90.1291C68.2118 90.1458 68.1786 90.1624 68.1121 90.1624Z" fill="black"/>
<path d="M66.0848 91.8904C66.0349 91.8904 65.9851 91.8572 65.9352 91.8239C65.8688 91.7409 65.8688 91.6079 65.9685 91.5415L66.6165 90.9931C66.6996 90.9266 66.8325 90.9266 66.899 91.0263C66.9655 91.1094 66.9655 91.2424 66.8658 91.3088L66.2177 91.8572C66.1845 91.8904 66.118 91.8904 66.0848 91.8904Z" fill="black"/>
<path d="M66.8326 90.0463C66.7827 90.0463 66.7329 90.013 66.683 89.9798L66.1347 89.3317C66.0682 89.2487 66.0682 89.1157 66.1679 89.0493C66.251 88.9828 66.3839 88.9828 66.4504 89.0825L66.9988 89.7305C67.0652 89.8136 67.0652 89.9466 66.9655 90.013C66.9323 90.0463 66.8824 90.0463 66.8326 90.0463Z" fill="black"/>
<path d="M68.5775 92.0902C68.5276 92.0902 68.4778 92.057 68.4279 92.0237L67.8796 91.3757C67.8131 91.2926 67.8131 91.1597 67.9128 91.0932C67.9959 91.0267 68.1288 91.0267 68.1953 91.1264L68.7436 91.7745C68.8101 91.8576 68.8101 91.9905 68.7104 92.057C68.6439 92.0902 68.6107 92.0902 68.5775 92.0902Z" fill="black"/>
</svg>
