<svg width="132" height="107" viewBox="0 0 132 107" fill="none" xmlns="http://www.w3.org/2000/svg">
<g clip-path="url(#clip0)">
<path d="M129.788 93.9536H131.707C130.012 93.9536 128.635 95.3287 128.635 97.0218V98.6375C128.635 100.331 130.012 101.706 131.707 101.706H119.789C118.094 101.706 116.718 100.331 116.718 98.6375V97.0218C116.718 95.3287 118.094 93.9536 119.789 93.9536H129.788Z" fill="#FDFDFD"/>
<path d="M117.94 88.0493H129.78C128.962 88.0493 128.222 88.3759 127.689 88.9173C127.155 89.4502 126.828 90.1893 126.828 91.0058C126.828 92.6387 128.154 93.9536 129.78 93.9536H119.79H117.94C116.305 93.9536 114.988 92.6301 114.988 91.0058C114.988 90.1893 115.315 89.4502 115.857 88.9173C116.391 88.3759 117.122 88.0493 117.94 88.0493Z" fill="#FDFDFD"/>
<path d="M93.2432 97.8214V101.697H91.6254C91.4189 101.697 91.2124 101.68 91.0145 101.637H91.0059C89.6033 101.354 88.5535 100.116 88.5535 98.6292V97.0135C88.5535 95.3204 89.9303 93.9453 91.6254 93.9453H98.3631H117.939H119.789C118.094 93.9453 116.717 95.3204 116.717 97.0135V98.6292C116.717 100.322 118.094 101.697 119.789 101.697H98.2254V97.8214H93.2432Z" fill="#FDFDFD"/>
<path d="M117.94 93.9536H98.3634C96.7284 93.9536 95.4119 92.6301 95.4119 91.0058C95.4119 90.1893 95.7389 89.4502 96.281 88.9173C96.8145 88.3845 97.5545 88.0493 98.372 88.0493H99.9467H107.777H117.948C117.131 88.0493 116.391 88.3759 115.857 88.9173C115.324 89.4502 114.988 90.1893 114.988 91.0058C114.988 92.6301 116.313 93.9536 117.94 93.9536Z" fill="#323433"/>
<path d="M106.925 81.0537C107.803 83.4429 108.044 85.815 107.777 88.0495H99.9467C96.7972 85.7376 93.6134 83.4343 90.1284 81.0537H106.925Z" fill="#8DD5E0"/>
<path d="M66.6885 62.3524L58.8408 59.5249C60.8028 54.1276 62.7647 48.4123 64.7955 42.147C65.8797 38.8124 68.7193 36.3544 72.1699 35.7442C73.9253 35.4348 75.7324 35.1168 77.5824 34.7731C76.9026 36.1396 75.8959 38.9327 79.2518 38.4686C83.3133 37.9186 86.2992 35.8989 88.6828 32.6245C91.2815 32.1002 93.9577 31.5502 96.7026 30.9658C102.115 29.8227 106.77 34.9192 105.127 40.2047C103.896 44.1667 102.683 47.8537 101.418 51.4204C99.0776 58.0552 99.4304 65.3433 102.425 71.7031C103.526 74.0494 104.774 76.5675 106.125 79.2318C106.435 79.8334 106.693 80.4436 106.917 81.0452H90.1199C88.9324 80.2373 87.7191 79.4123 86.4541 78.5786C84.105 77.0316 81.403 76.2409 78.6839 76.2152C79.1916 75.8714 79.6562 75.476 80.0865 75.0291C84.2943 70.6202 87.8051 66.3316 92.555 60.6851L82.6077 52.2283C79.1227 57.8576 76.6531 62.1462 73.3574 66.4691C72.9357 67.0192 72.3936 67.4661 71.7741 67.7841C71.6364 67.8528 71.5073 67.9216 71.3782 67.9903C70.0187 66.2715 67.4888 64.862 66.8262 62.954C66.766 62.765 66.7144 62.5587 66.6885 62.3524Z" fill="#323433"/>
<path d="M98.3718 93.9537H91.6342C89.939 93.9537 88.5622 95.3289 88.5622 97.0219V98.6377C88.5622 100.116 89.612 101.354 91.0146 101.646C88.5622 101.422 86.0668 100.563 83.6746 98.9385C80.5854 96.8329 77.892 94.9335 75.715 93.2662C75.6203 91.9255 74.6652 90.7824 73.3314 90.4644L69.1236 89.4675L68.3147 89.2784C65.9742 88.7284 63.625 90.198 63.1173 92.5529C63.0141 93.0256 62.9194 93.4897 62.8334 93.9537C60.054 94.6843 57.1369 95.3632 54.0133 96.0336C53.4712 96.1539 52.9205 96.2656 52.3698 96.3774L50.1669 95.2687C49.6248 94.9937 49.3494 94.3921 49.4957 93.8076L50.6832 88.9604C50.8209 88.4018 51.3716 88.0494 51.9309 88.1611C52.5505 88.2815 53.1786 88.4619 53.8842 88.7456C54.194 88.8745 54.5468 88.7885 54.7705 88.5393C54.9857 88.2986 55.0287 87.9635 54.891 87.6713C54.6329 87.1298 54.4091 86.6313 54.2284 86.1415C55.872 85.4023 57.4725 84.689 59.0386 83.9843C62.8248 82.274 66.4216 80.6153 69.9927 78.862L75.8269 77.5041C76.8595 77.2635 77.8404 76.8337 78.7095 76.2407C79.5442 76.2493 80.3789 76.3267 81.1963 76.4814C83.055 76.8251 84.8535 77.5299 86.4798 78.6042C87.7447 79.4378 88.958 80.2543 90.1455 81.0708C93.6219 83.4514 96.8143 85.7547 99.9637 88.0666H98.389C97.5716 88.0666 96.8316 88.4018 96.298 88.9346C95.7645 89.4675 95.4289 90.2066 95.4289 91.0231C95.4117 92.6302 96.7369 93.9537 98.3718 93.9537Z" fill="#8DD5E0"/>
<path d="M81.1877 76.4643C80.8263 76.851 80.4649 77.2292 80.1035 77.6159C79.6818 78.0628 79.2085 78.4582 78.7009 78.8019C77.8318 79.395 76.8508 79.8247 75.8182 80.0653L69.984 81.4232L59.0127 83.9672C62.7989 82.2569 66.3958 80.5982 69.9668 78.8449L75.801 77.487C76.8336 77.2464 77.8145 76.8166 78.6837 76.2236C79.5269 76.2322 80.3616 76.3096 81.1877 76.4643Z" fill="#323433"/>
<path d="M98.2255 101.697V106.699L95.6612 105.144L93.2432 106.699V101.697V97.8213H98.2255V101.697Z" fill="#C4C4C4"/>
<path d="M82.6161 52.2451L92.5634 60.702C87.8049 66.3485 84.2941 70.6371 80.0949 75.046C79.6646 75.4929 79.1999 75.8882 78.6922 76.232C77.8231 76.825 76.8422 77.2547 75.8096 77.4954L69.9754 78.8533L54.5812 82.42C54.1423 82.5231 53.7293 82.7036 53.3593 82.9614C53.2904 83.0044 53.2302 83.0474 53.1699 83.0989C51.5952 84.3451 48.7384 85.1186 45.4771 85.6772C44.2724 85.8835 43.0075 86.064 41.7254 86.2187C42.5772 87.0609 43.4291 87.4047 44.651 87.8516C44.6769 87.8602 44.7027 87.8688 44.7285 87.8774C45.1243 88.0235 45.1845 88.5563 44.8317 88.7798C44.5908 88.9345 44.3585 89.0806 44.1347 89.2267C43.2915 89.751 42.56 90.1635 41.7168 90.576C41.6823 90.5932 41.6565 90.6104 41.6221 90.619C41.0542 90.894 40.383 90.8682 39.8323 90.5588C39.8151 90.5502 39.7978 90.5417 39.7806 90.5245C38.9374 90.0432 38.2231 89.5533 37.5433 88.9775C37.1217 88.6251 36.9152 88.0923 36.9582 87.5594C36.9668 87.4391 36.9926 87.3102 37.0357 87.1898L37.681 85.0756C37.2766 85.5225 36.5452 86.0984 35.6675 86.7343C34.3337 87.7141 32.6729 88.8314 31.4338 89.8455L30.8401 88.3329C31.778 87.4992 32.8536 86.5539 33.9035 85.6085C35.3491 84.3107 36.7603 83.013 37.6896 82.0332C38.6964 80.9761 40.0818 80.3573 41.5447 80.3315L47.9381 80.194L48.2135 80.1854C48.5921 80.1768 48.9621 80.0823 49.2977 79.919C54.7705 77.1602 59.0729 74.7194 63.2377 72.3989C65.9225 70.9035 68.5556 69.451 71.4038 67.99C71.5329 67.9213 71.6706 67.8525 71.7997 67.7837C72.4192 67.4658 72.9613 67.0274 73.383 66.4688C76.6615 62.1544 79.1311 57.8744 82.6161 52.2451Z" fill="#FDFDFD"/>
<path d="M88.6913 32.633C86.3077 35.9075 83.3218 37.9271 79.2603 38.4772C75.8957 38.9327 76.9111 36.1481 77.5909 34.7816C78.1588 34.6785 78.7354 34.5667 79.3119 34.4636L79.6045 31.7048C78.0986 32.0314 76.6358 32.3236 75.0697 32.6072C72.557 33.0627 70.2251 31.1806 70.1476 28.628C70.0788 26.2302 70.0358 24.0128 70.0186 21.7955C71.5072 21.4861 73.0819 21.2283 74.9062 20.9962C76.5325 18.4781 77.9351 16.9139 79.7938 15.2466C80.0175 17.7046 80.0261 20.5665 79.7422 24.0816C79.7422 24.0816 83.2186 17.6272 85.1719 18.5554C87.1252 19.475 83.6488 23.5402 83.6488 23.5402C84.2426 24.1675 85.2924 25.8263 86.2045 27.4076L86.695 33.0283C87.3489 32.8994 88.0201 32.7705 88.6913 32.633Z" fill="#FDFDFD"/>
<path d="M87.1251 1.01423C89.5861 2.5956 90.111 6.14507 88.3126 8.92965C87.7705 9.7633 87.0821 10.4423 86.3076 10.9321C85.6106 9.55704 84.4662 8.51712 82.6677 8.13897C81.2307 7.83816 79.8281 7.778 78.4599 7.92411C78.1415 6.4115 78.4341 4.69262 79.4065 3.18861C81.2135 0.404029 84.6641 -0.567135 87.1251 1.01423Z" fill="#323433"/>
<path d="M86.3164 10.9323C88.089 14.4217 87.0134 20.0853 86.3422 22.7582C86.0755 23.8239 85.9894 24.9326 86.0841 26.0327L86.2045 27.4164C85.301 25.8264 84.2426 24.1763 83.6489 23.5489C83.6489 23.5489 87.1253 19.4837 85.172 18.5641C83.2186 17.6445 79.7422 24.0903 79.7422 24.0903C80.0348 20.5752 80.0176 17.7133 79.7939 15.2553C77.9438 16.9226 76.5412 18.4782 74.9062 21.0049C73.082 21.237 71.5073 21.4862 70.0186 21.8042C67.7125 22.2855 65.6301 22.9043 63.1863 23.7723C64.477 20.4033 65.5957 18.0743 68.0739 14.774L63.4616 18.3923C66.9122 13.3645 72.2817 8.56888 78.4687 7.9243C79.8369 7.77819 81.2395 7.83836 82.6765 8.13916C84.4663 8.51731 85.6108 9.55723 86.3164 10.9323Z" fill="#323433"/>
<path d="M75.7065 93.2577C75.7151 93.4038 75.7151 93.5585 75.7065 93.7132C75.543 95.8188 75.1472 97.7268 74.5964 99.9785C74.1232 101.904 72.1957 103.09 70.2595 102.634L68.4353 102.204C66.198 101.405 64.8212 98.9988 65.1482 96.5923C65.3289 95.2946 65.5526 94.0828 65.828 92.8108C66.198 91.1005 67.5145 89.8457 69.1151 89.459L73.3229 90.4559C74.6567 90.7739 75.6118 91.9256 75.7065 93.2577Z" fill="#FDFDFD"/>
<path d="M54.5813 82.42L69.9755 78.8447C64.933 81.3199 59.8389 83.606 54.2113 86.1328C53.824 85.11 53.5745 84.1389 53.3594 82.9614C53.7294 82.7036 54.1424 82.5231 54.5813 82.42Z" fill="#8DD5E0"/>
<path d="M68.2976 89.2782L69.1065 89.4673C67.5146 89.8541 66.198 91.1089 65.8194 92.8191C65.544 94.0911 65.3203 95.3029 65.1396 96.6007C64.8126 98.9985 66.1894 101.414 68.4267 102.213L66.1894 101.689C64.9675 101.396 63.9521 100.674 63.2723 99.7118C62.5839 98.7321 62.2569 97.5031 62.429 96.2397C62.5323 95.4576 62.6614 94.7099 62.8076 93.9536C62.8937 93.4895 62.9884 93.0254 63.0916 92.5527C63.6165 90.1978 65.9571 88.7196 68.2976 89.2782Z" fill="#323433"/>
<path d="M66.8348 62.9541C65.699 66.0308 64.5115 69.1162 63.2207 72.4079C59.056 74.7369 54.7535 77.1691 49.2807 79.9279C48.9451 80.0998 48.5751 80.1858 48.1965 80.1944L47.9211 80.203C49.2377 78.0887 50.124 76.2066 52.0085 74.3588C52.0859 74.2814 52.172 74.2041 52.2494 74.1267C53.2648 73.1814 54.0565 72.0211 54.5728 70.7234C56.0184 67.0965 57.4296 63.3924 58.8322 59.5249L66.6799 62.3525C66.7144 62.5587 66.766 62.765 66.8348 62.9541Z" fill="#FDFDFD"/>
<path d="M62.8162 93.9536C62.6699 94.7013 62.5495 95.4576 62.4376 96.2397C62.2655 97.5031 62.5925 98.7321 63.2809 99.7118C59.8303 98.5774 56.9821 97.2538 53.9875 96.0335C57.1111 95.3631 60.0368 94.6755 62.8162 93.9536Z" fill="#8DD5E0"/>
<path d="M54.8739 87.6628C55.0116 87.9465 54.9599 88.2902 54.7534 88.5309C54.5297 88.7801 54.1769 88.8575 53.8671 88.7371C53.1701 88.4535 52.5333 88.273 51.9138 88.1527C51.3544 88.041 50.8037 88.402 50.666 88.952L49.4786 93.7992C49.3323 94.3836 49.6162 94.9938 50.1498 95.2689L52.3526 96.3775C52.301 97.0737 49.186 97.9073 46.5185 98.0277C45.3138 98.0878 44.1951 97.9933 43.5067 97.6839C43.3862 97.6323 43.2744 97.5636 43.1883 97.4948C42.0783 96.6697 42.7925 93.4469 43.3518 91.4959C43.4465 91.1693 43.5325 90.8857 43.61 90.6451L44.1435 89.2184C44.3672 89.0809 44.5995 88.9348 44.8405 88.7715C45.1933 88.5395 45.1331 88.0066 44.7372 87.8691C44.7114 87.8605 44.6856 87.8519 44.6598 87.8433L45.4773 85.6689C48.7385 85.1103 51.5954 84.3368 53.1701 83.0906C53.2303 83.0391 53.2906 82.9961 53.3594 82.9531C53.5745 84.1306 53.8241 85.1017 54.2113 86.1244C54.392 86.6143 54.6071 87.1214 54.8739 87.6628Z" fill="#FDFDFD"/>
<path d="M54.8825 101.611V101.68C54.8825 102.093 54.5469 102.428 54.1339 102.428H35.5472H35.5128C35.0998 102.428 34.7642 102.093 34.7642 101.68V101.611C34.7642 101.379 34.8674 101.173 35.0395 101.036C35.1686 100.933 35.3407 100.864 35.5128 100.864H54.1253C54.5469 100.864 54.8825 101.199 54.8825 101.611Z" fill="#FDFDFD"/>
<path d="M52.0168 74.3589C50.1323 76.2153 49.246 78.0889 47.9294 80.2031L41.5359 80.3406C40.0731 80.375 38.6791 80.9852 37.6809 82.0423C36.7516 83.0306 35.3404 84.3198 33.8947 85.6175L28.3962 82.111L27.7852 80.5468C27.6734 80.2718 27.4066 80.0913 27.114 80.0913H25.7803C25.0575 79.3264 24.4551 78.4412 23.999 77.4787C20.8238 70.7149 27.7594 63.6417 34.6004 66.6583L52.0168 74.3589Z" fill="#8DD5E0"/>
<path d="M46.5097 98.0272C45.6406 98.646 43.6701 99.4968 39.3676 99.4968C37.5692 99.4968 36.0805 99.1875 34.8672 98.6718L31.9243 91.1431C33.869 90.6103 37.1217 90.5071 39.772 90.5329C39.7892 90.5415 39.8065 90.5501 39.8237 90.5673C40.3744 90.8767 41.0456 90.9025 41.6135 90.6274C41.6479 90.6103 41.6737 90.5931 41.7081 90.5845C42.3707 90.6103 42.93 90.6274 43.3517 90.6532C43.4291 90.6618 43.5152 90.6618 43.5926 90.6532C43.5152 90.8853 43.4291 91.1775 43.3345 91.5041C41.6565 91.6502 38.3866 92.226 38.5243 94.4863C38.662 96.6865 40.8563 97.6748 43.4894 97.6834C44.1864 97.9928 45.305 98.0788 46.5097 98.0272Z" fill="#323433"/>
<path d="M45.4685 85.6777L44.651 87.8521C43.4291 87.4052 42.5772 87.0614 41.7253 86.2192C42.9989 86.0559 44.2638 85.884 45.4685 85.6777Z" fill="#FDFDFD"/>
<path d="M44.1348 89.2266L43.6013 90.6532C43.5238 90.6532 43.4378 90.6532 43.3603 90.6532C42.9473 90.6361 42.3794 90.6103 41.7168 90.5845C42.5601 90.1634 43.2915 89.7508 44.1348 89.2266Z" fill="#FDFDFD"/>
<path d="M43.4981 97.6837C40.865 97.6752 38.6707 96.6868 38.533 94.4866C38.3954 92.2263 41.6566 91.6505 43.3432 91.5044C42.7839 93.4553 42.0697 96.6782 43.1797 97.5033C43.2658 97.5634 43.3776 97.6236 43.4981 97.6837Z" fill="white"/>
<path d="M37.664 85.0928L37.0186 87.207C36.9756 87.3273 36.9583 87.4562 36.9411 87.5766L35.6504 86.7515C36.5281 86.1069 37.2681 85.5311 37.664 85.0928Z" fill="#FDFDFD"/>
<path d="M35.5126 102.436H8.59628C8.16604 102.436 7.81323 102.084 7.81323 101.654C7.81323 101.439 7.89928 101.242 8.04557 101.096C8.19185 100.958 8.38116 100.864 8.60489 100.864C8.61349 100.864 8.6221 100.864 8.63931 100.864H34.9447C34.9705 100.864 34.9963 100.864 35.0221 100.855L35.0479 101.035C34.8844 101.173 34.7726 101.379 34.7726 101.611V101.68C34.7639 102.101 35.0995 102.436 35.5126 102.436Z" fill="#FDFDFD"/>
<path d="M35.4353 100.125C35.5643 100.451 35.3492 100.812 35.005 100.855C34.9792 100.864 34.9534 100.864 34.9276 100.864H8.62224C8.61364 100.864 8.60503 100.864 8.58782 100.864C8.30386 100.855 8.04571 100.675 7.94245 100.408L0.284042 80.8304C0.146362 80.4781 0.404511 80.0913 0.791734 80.0913H25.7633H27.1057C27.4069 80.0913 27.6736 80.2718 27.7769 80.5468L28.3878 82.111L30.823 88.3419L31.4168 89.8545L31.9158 91.1351L34.8587 98.6638L35.4353 100.125Z" fill="#FDFDFD"/>
<path d="M47.9297 80.4604C47.8867 80.4604 47.8351 80.4519 47.792 80.4175C47.6716 80.3401 47.6371 80.1854 47.706 80.0651C47.9986 79.5924 48.2739 79.1369 48.5321 78.69C49.4614 77.1172 50.3391 75.639 51.8278 74.178C51.9052 74.1006 51.9913 74.0147 52.0773 73.9373C53.0583 73.0177 53.8413 71.8747 54.3318 70.6285C55.8032 66.9329 57.1972 63.2717 58.5913 59.4386C60.5704 54.007 62.5151 48.3261 64.5459 42.0694C65.6645 38.6316 68.5644 36.1135 72.1268 35.4947C73.8823 35.1853 75.7065 34.8587 77.5394 34.5235L77.5996 34.5149C78.0901 34.4204 78.5806 34.3344 79.071 34.2399L79.312 32.0225C77.9782 32.3062 76.6358 32.5726 75.1128 32.8476C73.8392 33.0797 72.5313 32.7445 71.5331 31.9366C70.5263 31.1201 69.924 29.9169 69.8896 28.6192C69.8207 26.3417 69.7777 24.1673 69.7605 21.7866C69.7605 21.6405 69.8723 21.5288 70.0186 21.5288C70.1563 21.5288 70.2768 21.6405 70.2768 21.7866C70.294 24.1673 70.337 26.3331 70.4059 28.6106C70.4403 29.7536 70.9738 30.8193 71.8601 31.5413C72.7464 32.2632 73.8995 32.5554 75.0267 32.3491C76.6703 32.0483 78.1073 31.7647 79.5529 31.4467C79.6304 31.4295 79.7164 31.4553 79.7766 31.5069C79.8369 31.5584 79.8713 31.6444 79.8627 31.7303L79.5701 34.4891C79.5615 34.6009 79.4755 34.6954 79.3636 34.7126C78.8043 34.8157 78.2536 34.9188 77.7029 35.022L77.6426 35.0306C75.8098 35.3743 73.9855 35.7009 72.2215 36.0017C68.8484 36.5862 66.1034 38.9754 65.045 42.2241C63.0142 48.4808 61.0609 54.1702 59.0817 59.6105C57.6877 63.4522 56.2937 67.1134 54.8223 70.8176C54.2974 72.1325 53.4799 73.3357 52.4387 74.3069C52.3613 74.3842 52.2752 74.4616 52.1978 74.5389C50.7521 75.957 49.8916 77.4094 48.9795 78.9478C48.7128 79.3947 48.4374 79.8588 48.1448 80.3315C48.0932 80.4175 48.0158 80.4604 47.9297 80.4604Z" fill="#323433"/>
<path d="M107.777 88.3072C107.768 88.3072 107.76 88.3072 107.742 88.3072C107.605 88.29 107.502 88.161 107.519 88.0235C107.794 85.7203 107.519 83.4084 106.684 81.148C106.46 80.5464 106.202 79.9448 105.901 79.3604C104.378 76.3524 103.208 73.9632 102.201 71.8317C100.695 68.6346 99.8432 65.2227 99.6711 61.6904C99.499 58.1667 100.007 54.686 101.186 51.3514C102.39 47.9394 103.604 44.2782 104.894 40.1443C105.634 37.7551 105.075 35.2197 103.388 33.3719C101.702 31.5155 99.2236 30.7249 96.7712 31.2405C93.9488 31.8335 91.2468 32.3922 88.7514 32.8992C88.0802 33.0367 87.409 33.1657 86.7464 33.3032C86.6776 33.3204 86.6001 33.3032 86.5399 33.2602C86.4797 33.2172 86.4452 33.1485 86.4366 33.0797L85.9548 27.5106C84.948 25.7487 83.9756 24.2705 83.4679 23.7376C83.3733 23.6431 83.3733 23.497 83.4593 23.3939C84.1047 22.6375 85.731 20.4288 85.4901 19.3287C85.4385 19.0881 85.3008 18.9248 85.0684 18.813C83.8035 18.22 81.2737 21.8211 79.9743 24.2361C79.9141 24.3478 79.7936 24.3994 79.6731 24.365C79.5527 24.3306 79.4752 24.2189 79.4924 24.0986C79.7506 21.0046 79.7764 18.2888 79.5871 15.8222C78.0812 17.2145 76.7216 18.7099 75.1297 21.1679C75.0867 21.2281 75.0179 21.271 74.949 21.2796C73.0904 21.5117 71.5415 21.7695 70.0786 22.0703C67.8671 22.5344 65.8364 23.1188 63.2807 24.0298C63.1861 24.0642 63.0828 24.0384 63.0053 23.9697C62.9365 23.9009 62.9107 23.7892 62.9451 23.6947C64.0379 20.8327 65.0103 18.7271 66.8001 16.123L63.6249 18.624C63.5216 18.7013 63.384 18.6927 63.2893 18.6068C63.1947 18.5208 63.1774 18.3747 63.2549 18.2716C65.148 15.5214 67.4111 13.1236 69.7947 11.3359C72.6171 9.22173 75.5256 8.00133 78.4512 7.69193C79.8883 7.53723 81.3253 7.61458 82.7365 7.91538C84.4661 8.27635 85.7482 9.2647 86.5485 10.8461C87.3401 12.4102 87.6671 14.5416 87.5036 17.1973C87.3746 19.3889 86.9357 21.4859 86.5915 22.8524C86.3334 23.8923 86.2473 24.958 86.342 26.0409L86.4624 27.416V27.4246L86.9271 32.7531C87.495 32.6414 88.0716 32.5211 88.6481 32.4094C91.1435 31.9109 93.8455 31.3522 96.6679 30.7506C99.301 30.192 101.96 31.0514 103.776 33.0367C105.591 35.022 106.194 37.7465 105.393 40.3076C104.103 44.4415 102.889 48.1199 101.685 51.5318C100.532 54.8063 100.032 58.2183 100.196 61.6732C100.368 65.1367 101.203 68.4799 102.674 71.6169C103.681 73.7483 104.851 76.1375 106.366 79.137C106.675 79.7472 106.942 80.366 107.166 80.9848C108.026 83.3224 108.319 85.7203 108.026 88.1009C108.018 88.2126 107.906 88.3072 107.777 88.3072ZM83.9928 23.5314C84.5005 24.1244 85.2061 25.2159 85.8515 26.2902L85.8343 26.0495C85.731 24.9151 85.8257 23.7806 86.101 22.6891C86.6862 20.3428 87.8651 14.5159 86.0924 11.0437C85.361 9.60847 84.1993 8.71466 82.6332 8.38807C81.2737 8.10446 79.8883 8.02711 78.5115 8.17321C76.1537 8.42245 70.3368 9.78896 64.7608 17.034L67.9102 14.5588C68.0134 14.4815 68.1597 14.4901 68.2544 14.576C68.349 14.6706 68.3576 14.8081 68.2802 14.9112C65.9396 18.0396 64.8296 20.2655 63.6335 23.3251C65.9741 22.5086 67.893 21.9672 69.9754 21.5289C71.421 21.2281 72.9441 20.9788 74.7683 20.7468C76.4893 18.0997 77.9608 16.5527 79.6301 15.0487C79.699 14.98 79.8022 14.9628 79.8969 14.9971C79.9915 15.0315 80.0518 15.1175 80.0604 15.212C80.2755 17.5411 80.2841 20.085 80.0862 22.9641C80.4476 22.3625 80.9553 21.5718 81.5146 20.8069C83.0721 18.7099 84.337 17.8677 85.275 18.306C85.6536 18.4865 85.9031 18.7873 85.9806 19.1826C86.2817 20.5749 84.5177 22.8782 83.9928 23.5314Z" fill="#323433"/>
<path d="M91.0145 101.895C91.0059 101.895 90.9973 101.895 90.9887 101.895C88.3642 101.654 85.8515 100.726 83.5196 99.1446C80.1981 96.8843 77.5908 95.0279 75.5428 93.4637C75.4309 93.3777 75.4051 93.2145 75.4912 93.1027C75.5772 92.991 75.7407 92.9652 75.8526 93.0512C77.8919 94.6067 80.4906 96.4631 83.8036 98.7149C86.0581 100.253 88.4933 101.147 91.0231 101.379C91.1608 101.396 91.2727 101.517 91.2554 101.663C91.2554 101.792 91.1436 101.895 91.0145 101.895Z" fill="#323433"/>
<path d="M52.3439 96.6265C52.2235 96.6265 52.1202 96.5406 52.0944 96.4203C52.0686 96.2827 52.1546 96.1452 52.2923 96.1195C52.8344 96.0077 53.3851 95.896 53.9359 95.7757C57.2058 95.0795 60.0884 94.4006 62.7473 93.7044C62.885 93.67 63.0227 93.7474 63.0657 93.8849C63.1002 94.0224 63.0227 94.1599 62.885 94.2029C60.2175 94.899 57.3348 95.578 54.0477 96.2827C53.497 96.4031 52.9377 96.5148 52.3956 96.6265C52.3784 96.6265 52.3612 96.6265 52.3439 96.6265Z" fill="#323433"/>
<path d="M39.3677 99.7463C37.6553 99.7463 36.1064 99.4627 34.764 98.9041C34.635 98.8525 34.5747 98.6978 34.6263 98.5689C34.678 98.44 34.8329 98.3798 34.9619 98.4314C36.2355 98.9642 37.7155 99.2392 39.3677 99.2392C41.235 99.2392 44.6253 99.0588 46.3635 97.8212C46.4754 97.7352 46.6389 97.7696 46.7249 97.8813C46.811 98.0017 46.7766 98.1563 46.6647 98.2423C45.6837 98.9298 43.6271 99.7463 39.3677 99.7463Z" fill="#323433"/>
<path d="M31.9244 91.4011C31.8126 91.4011 31.7093 91.3238 31.6749 91.2121C31.6405 91.0746 31.7179 90.937 31.8556 90.8941C33.8778 90.344 37.2767 90.2495 39.7808 90.2753C39.927 90.2753 40.0389 90.3956 40.0389 90.5331C40.0389 90.6706 39.9184 90.7909 39.7808 90.7909C36.2441 90.7566 33.5508 90.9628 32.0019 91.3926C31.9675 91.4011 31.9416 91.4011 31.9244 91.4011Z" fill="#323433"/>
<path d="M43.5154 90.9114C43.4551 90.9114 43.3949 90.9114 43.3347 90.9028C42.7925 90.877 42.2418 90.8512 41.6997 90.834C41.5534 90.8254 41.4416 90.7137 41.4502 90.5676C41.4588 90.4215 41.5706 90.3184 41.7169 90.3184C42.2676 90.3355 42.8184 90.3613 43.3605 90.3871C43.4293 90.3871 43.5068 90.3957 43.5842 90.3871C43.7305 90.3785 43.8424 90.4988 43.851 90.6363C43.851 90.7824 43.7391 90.8942 43.6014 90.9028C43.5756 90.9028 43.5412 90.9114 43.5154 90.9114Z" fill="#323433"/>
<path d="M54.2111 86.3903C54.1165 86.3903 54.0218 86.3302 53.9788 86.2356C53.9186 86.1067 53.9788 85.952 54.1079 85.8919C59.5892 83.4339 64.7608 81.1134 69.8635 78.6124C69.9926 78.5523 70.1475 78.6038 70.2077 78.7327C70.268 78.8616 70.2163 79.0163 70.0873 79.0765C64.9845 81.5775 59.8043 83.9066 54.3144 86.3646C54.28 86.3817 54.2455 86.3903 54.2111 86.3903Z" fill="#323433"/>
<path d="M99.9465 88.3075C99.8949 88.3075 99.8433 88.2904 99.7916 88.256C97.236 86.3738 93.8112 83.8814 89.982 81.2687C88.7257 80.4093 87.5296 79.6014 86.3163 78.8108C84.0446 77.3153 81.4028 76.5075 78.6837 76.4903C78.5374 76.4903 78.4255 76.37 78.4255 76.2324C78.4255 76.0863 78.546 75.9746 78.6837 75.9746C81.5061 75.9918 84.2425 76.8255 86.5916 78.381C87.8049 79.1803 89.001 79.9882 90.2573 80.8476C94.0951 83.4689 97.5199 85.9699 100.076 87.852C100.187 87.938 100.213 88.1013 100.127 88.213C100.101 88.2732 100.024 88.3075 99.9465 88.3075Z" fill="#323433"/>
<path d="M63.212 72.6657C63.1776 72.6657 63.1518 72.6571 63.1174 72.6485C62.9883 72.5969 62.9195 72.4508 62.9711 72.3133C64.3995 68.6693 65.544 65.6612 66.5852 62.8681C66.6368 62.7306 66.7831 62.6704 66.9208 62.7134C67.0585 62.7649 67.1187 62.911 67.0757 63.0486C66.0431 65.8503 64.89 68.8498 63.4616 72.5024C63.4186 72.6055 63.3153 72.6657 63.212 72.6657Z" fill="#323433"/>
<path d="M71.3868 68.2567C71.3093 68.2567 71.2319 68.2223 71.1803 68.1622C70.6726 67.5176 69.967 66.8902 69.2872 66.2886C68.1685 65.3003 67.0155 64.2775 66.5852 63.0485C66.5078 62.8337 66.4562 62.6102 66.4303 62.3954C66.4131 62.2578 66.5164 62.1289 66.6541 62.1117C66.7917 62.0945 66.9208 62.1977 66.938 62.3352C66.9639 62.5157 67.0069 62.6962 67.0671 62.8852C67.4543 63.9939 68.5558 64.9651 69.6228 65.9105C70.3198 66.5293 71.0426 67.1652 71.5761 67.8442C71.6622 67.9559 71.6449 68.1192 71.5331 68.2052C71.4987 68.2395 71.4384 68.2567 71.3868 68.2567Z" fill="#323433"/>
<path d="M66.6885 62.6098C66.5594 62.6098 66.4476 62.5152 66.4304 62.3863C66.4131 62.2574 66.4045 62.1371 66.4045 62.0082C66.4045 60.1862 66.8434 58.3384 67.2306 56.714C67.5404 55.4163 67.8071 54.299 67.8071 53.4224C67.8071 53.2763 67.919 53.1646 68.0653 53.1646C68.2116 53.1646 68.3234 53.2763 68.3234 53.4224C68.3234 54.3592 68.0481 55.5022 67.7383 56.8258C67.3597 58.4243 66.9294 60.2377 66.9294 62.0082C66.9294 62.1113 66.938 62.2144 66.9467 62.3176C66.9639 62.4551 66.8606 62.584 66.7229 62.6012C66.7057 62.6098 66.6971 62.6098 66.6885 62.6098Z" fill="#323433"/>
<path d="M40.779 91.0748C40.409 91.0748 40.039 90.9802 39.7034 90.7912C39.6862 90.7826 39.669 90.774 39.6518 90.7654C38.7913 90.2755 38.0685 89.777 37.3715 89.1926C36.8982 88.7887 36.6401 88.1785 36.7003 87.5597C36.7089 87.4222 36.7433 87.2761 36.7863 87.13L37.1478 85.9353C36.8122 86.219 36.3733 86.5541 35.814 86.9581C35.4096 87.2589 34.9793 87.5597 34.5318 87.8777C33.5079 88.6082 32.4494 89.3559 31.5889 90.0606C31.4771 90.1466 31.3136 90.138 31.2275 90.0263C31.1415 89.9145 31.1501 89.7513 31.262 89.6653C32.1397 88.952 33.1981 88.1957 34.2307 87.4565C34.6781 87.1386 35.1084 86.8292 35.5128 86.537C36.2098 86.0299 37.0617 85.3853 37.4833 84.9126C37.5608 84.8267 37.6985 84.8009 37.8017 84.861C37.905 84.9212 37.9566 85.0415 37.9222 85.1619L37.2768 87.2761C37.2424 87.3878 37.2252 87.4909 37.2166 87.5941C37.1736 88.0496 37.3629 88.4965 37.7071 88.7973C38.3783 89.3645 39.0753 89.8458 39.9013 90.3185C39.9185 90.3271 39.9358 90.3357 39.953 90.3529C40.4262 90.6193 41.0114 90.6365 41.5019 90.4044C41.5191 90.3958 41.5363 90.3872 41.5535 90.3786L41.5965 90.3615C41.5965 90.3615 41.6051 90.3615 41.6051 90.3529C42.414 89.9575 43.1282 89.5536 43.9887 89.0207C44.2124 88.8832 44.4534 88.7285 44.6857 88.5824C44.7631 88.5308 44.8062 88.4363 44.7976 88.3418C44.7889 88.2472 44.7287 88.1699 44.6341 88.1355C44.6169 88.1269 44.5996 88.1183 44.5824 88.1183L44.5566 88.1097C43.3089 87.6542 42.4226 87.2847 41.5363 86.4166C41.4674 86.3479 41.4416 86.2447 41.476 86.1502C41.5105 86.0557 41.5879 85.9869 41.6912 85.9783C43.111 85.8064 44.3329 85.6259 45.4257 85.4369C49.1861 84.7923 51.6643 83.9672 53.0067 82.9101C53.0669 82.8586 53.1358 82.807 53.2132 82.764C53.609 82.489 54.0479 82.2913 54.5212 82.1882L75.7496 77.255C76.7564 77.023 77.6943 76.6104 78.5462 76.026C79.0367 75.6908 79.5013 75.3041 79.9058 74.8744C83.4596 71.1444 86.4714 67.5606 90.2747 63.0313C90.8943 62.2922 91.5397 61.5273 92.2023 60.7366L82.6766 52.6407C82.057 53.6463 81.4719 54.6002 80.8953 55.537C78.3913 59.628 76.2229 63.1602 73.5639 66.6496C73.1251 67.2254 72.5485 67.6981 71.8946 68.0333C71.7569 68.102 71.6278 68.1708 71.4987 68.2395C68.5472 69.7521 65.8453 71.2476 63.3412 72.6484C62.9196 72.8805 62.498 73.1211 62.0763 73.3532C58.2643 75.4846 54.3232 77.6933 49.3926 80.1771C49.0226 80.3662 48.6182 80.4693 48.2051 80.4779L47.9298 80.4865L41.5363 80.624C40.1509 80.6498 38.8085 81.2428 37.862 82.2484C36.8552 83.3141 35.2977 84.7321 34.0586 85.8408C33.482 86.3565 32.8969 86.8807 32.329 87.3792C31.8643 87.7917 31.4169 88.1871 30.9952 88.5652C30.8919 88.6598 30.7285 88.6512 30.6338 88.548C30.5391 88.4449 30.5478 88.2816 30.651 88.1871C31.0727 87.8089 31.5201 87.405 31.9848 87.001C32.5527 86.5026 33.1292 85.9783 33.7058 85.4627C34.9363 84.354 36.4852 82.9531 37.4747 81.896C38.5159 80.7959 39.9874 80.1427 41.5191 80.1084L48.1879 79.9708C48.5235 79.9623 48.8591 79.8763 49.1603 79.7302C54.0823 77.255 58.0148 75.0463 61.8268 72.9235C62.2484 72.6828 62.6701 72.4508 63.0917 72.2187C65.6043 70.8178 68.3063 69.3138 71.2664 67.8012C71.3955 67.7325 71.5332 67.6637 71.6622 67.5949C72.2474 67.2941 72.7637 66.8644 73.1509 66.3574C75.8012 62.8852 77.9525 59.3701 80.4565 55.2878C81.0761 54.2823 81.7128 53.2337 82.3926 52.1337C82.4356 52.0735 82.4959 52.0305 82.5733 52.0133C82.6508 52.0047 82.7196 52.0219 82.7798 52.0735L92.7272 60.5304C92.839 60.6249 92.8476 60.7882 92.7616 60.8913C92.0388 61.7508 91.3418 62.5844 90.662 63.3837C86.85 67.9215 83.8469 71.5054 80.2758 75.2439C79.8369 75.6994 79.3551 76.112 78.8302 76.4643C77.9266 77.0745 76.9285 77.5129 75.8615 77.7621L54.633 82.6953C54.2286 82.7898 53.85 82.9531 53.4972 83.1937C53.4369 83.2367 53.3767 83.2797 53.3251 83.3227C51.888 84.4485 49.4098 85.2822 45.5118 85.9525C44.5566 86.1158 43.5068 86.2705 42.3193 86.4252C42.9991 86.9753 43.7219 87.2589 44.7373 87.6284L44.7545 87.637C44.7717 87.6456 44.7976 87.6542 44.8148 87.6628C45.0901 87.7574 45.2794 88.0066 45.3139 88.2988C45.3483 88.591 45.2106 88.866 44.9697 89.0293C44.7287 89.184 44.4964 89.3301 44.2641 89.4762C43.3863 90.0263 42.6549 90.4302 41.8202 90.8427C41.8202 90.8427 41.8116 90.8427 41.8116 90.8513L41.7858 90.8599C41.7686 90.8685 41.7428 90.8771 41.7256 90.8857C41.4244 91.006 41.0974 91.0748 40.779 91.0748Z" fill="#323433"/>
<path d="M34.9275 101.121H8.62214C8.60493 101.121 8.58772 101.121 8.57911 101.121C8.19189 101.104 7.85629 100.863 7.71001 100.502L0.0516054 80.9245C-0.0430491 80.6753 -0.0172342 80.4002 0.137655 80.1854C0.283939 79.9705 0.533483 79.833 0.800236 79.833H27.1056C27.51 79.833 27.8714 80.0736 28.0177 80.4518L35.6761 100.03C35.7621 100.262 35.7449 100.511 35.6245 100.726C35.504 100.932 35.2889 101.078 35.0565 101.113C35.0135 101.121 34.9705 101.121 34.9275 101.121ZM0.800236 80.3487C0.705582 80.3487 0.619532 80.3916 0.567902 80.469C0.516273 80.5463 0.507668 80.6409 0.542087 80.7268L8.20049 100.305C8.26933 100.477 8.43283 100.588 8.61353 100.597C8.62214 100.597 8.62214 100.597 8.63074 100.597H8.63935H34.9447C34.9619 100.597 34.9705 100.597 34.9791 100.597H34.9877C35.0737 100.588 35.1426 100.537 35.1942 100.46C35.22 100.417 35.2545 100.322 35.2114 100.21L27.553 80.6323C27.4842 80.4518 27.3121 80.3401 27.1228 80.3401L0.800236 80.3487Z" fill="#323433"/>
<path d="M54.1337 102.694H35.5471C35.5385 102.694 35.5385 102.694 35.5298 102.694C35.5212 102.694 35.5212 102.694 35.5126 102.694C34.9533 102.694 34.5059 102.239 34.5059 101.689V101.62C34.5059 101.319 34.6349 101.035 34.8673 100.846C35.048 100.7 35.2803 100.614 35.5126 100.614H54.1251C54.6845 100.614 55.1319 101.07 55.1319 101.62V101.689C55.1405 102.239 54.6845 102.694 54.1337 102.694ZM35.5126 101.121C35.4008 101.121 35.2889 101.164 35.2029 101.233C35.091 101.328 35.0222 101.465 35.0222 101.611V101.68C35.0222 101.955 35.2459 102.17 35.5126 102.17C35.5212 102.17 35.5212 102.17 35.5298 102.17C35.5385 102.17 35.5385 102.17 35.5471 102.17H54.1251C54.3919 102.17 54.6156 101.946 54.6156 101.68V101.611C54.6156 101.336 54.3919 101.121 54.1251 101.121H35.5126Z" fill="#323433"/>
<path d="M35.5471 102.694H8.59638C8.01984 102.694 7.55518 102.23 7.55518 101.654C7.55518 101.379 7.66704 101.113 7.86495 100.915C8.06287 100.717 8.32962 100.605 8.60498 100.605C8.75126 100.605 8.86313 100.717 8.86313 100.863C8.86313 101.009 8.75126 101.121 8.60498 101.121C8.4673 101.121 8.32962 101.173 8.23497 101.276C8.13171 101.379 8.08008 101.508 8.08008 101.645C8.08008 101.938 8.32102 102.17 8.60498 102.17H35.5643C35.7106 102.17 35.8225 102.281 35.8225 102.427C35.8225 102.574 35.6934 102.694 35.5471 102.694Z" fill="#323433"/>
<path d="M66.6883 62.6102C66.6625 62.6102 66.6281 62.6016 66.6023 62.593L58.7545 59.7655C58.6169 59.7139 58.548 59.5678 58.5997 59.4389C58.6513 59.3014 58.7976 59.2326 58.9266 59.2842L66.7658 62.1118C66.869 62.1461 66.9465 62.2407 66.9465 62.3524C66.9465 62.4985 66.8346 62.6102 66.6883 62.6102Z" fill="#323433"/>
<path d="M25.7717 80.3487C25.7029 80.3487 25.634 80.323 25.5824 80.2714C24.8338 79.4807 24.2142 78.5783 23.7582 77.5899C22.9837 75.9398 22.76 74.1694 23.0956 72.4591C23.414 70.8691 24.1884 69.4081 25.3501 68.2221C26.5118 67.036 27.966 66.2282 29.5407 65.8758C31.2445 65.4976 33.0257 65.6953 34.6865 66.4258L52.1201 74.1264C52.2492 74.1866 52.3094 74.3327 52.2492 74.4702C52.1889 74.5991 52.0427 74.6593 51.905 74.5991L34.4713 66.8985C32.9052 66.211 31.2359 66.0305 29.644 66.3829C28.1639 66.7094 26.7957 67.4743 25.7029 68.583C24.6101 69.7003 23.8786 71.0754 23.5861 72.5622C23.2677 74.1608 23.4828 75.8281 24.2142 77.3751C24.6531 78.3119 25.2382 79.1713 25.9524 79.919C26.0471 80.0222 26.0471 80.1854 25.9438 80.28C25.8922 80.323 25.832 80.3487 25.7717 80.3487Z" fill="#323433"/>
<path d="M33.8861 85.8752C33.8345 85.8752 33.7915 85.858 33.7485 85.8322L28.2499 82.3343C28.1294 82.257 28.095 82.1023 28.1725 81.9819C28.2499 81.8616 28.4048 81.8272 28.5253 81.9046L34.0238 85.4111C34.1443 85.4884 34.1787 85.6432 34.1013 85.7635C34.0582 85.8322 33.9722 85.8752 33.8861 85.8752Z" fill="#323433"/>
<path d="M36.9496 87.8259C36.8979 87.8259 36.8549 87.8087 36.8119 87.7829L35.5211 86.9578C35.4007 86.8805 35.3663 86.7258 35.4437 86.6055C35.5211 86.4851 35.676 86.4508 35.7965 86.5281L37.0873 87.3532C37.2077 87.4305 37.2421 87.5852 37.1647 87.7056C37.1217 87.7915 37.0356 87.8259 36.9496 87.8259Z" fill="#323433"/>
<path d="M63.2809 99.9611C63.2551 99.9611 63.2293 99.9611 63.2034 99.9439C60.6908 99.1188 58.4879 98.1821 56.3453 97.2797C55.545 96.9445 54.7104 96.5921 53.8929 96.2569C53.7638 96.2054 53.695 96.0507 53.7552 95.9217C53.8068 95.7928 53.9617 95.7241 54.0908 95.7842C54.9169 96.1194 55.7516 96.4718 56.5518 96.807C58.6772 97.7094 60.8801 98.6376 63.3669 99.454C63.5046 99.497 63.5734 99.6431 63.5304 99.7806C63.496 99.8923 63.3927 99.9611 63.2809 99.9611Z" fill="#323433"/>
<path d="M45.8559 98.2939C45.0126 98.2939 44.0574 98.208 43.3948 97.9072C43.2572 97.847 43.1281 97.7697 43.0248 97.6923C41.8373 96.8157 42.4053 93.7991 43.0937 91.4184C43.1711 91.1434 43.2572 90.877 43.3518 90.5676C43.3518 90.559 43.3518 90.559 43.3604 90.5504L43.8939 89.1238C43.9456 88.9862 44.0918 88.9261 44.2295 88.9777C44.3672 89.0292 44.4274 89.1753 44.3758 89.3128L43.8423 90.7309C43.7476 91.0317 43.6616 91.2981 43.5928 91.5646C42.7064 94.6671 42.6118 96.747 43.3346 97.2798C43.412 97.3314 43.5067 97.3915 43.61 97.4345C44.2037 97.7009 45.2277 97.8127 46.5012 97.7525C47.7403 97.6923 49.1602 97.4775 50.3046 97.1595C51.3286 96.8759 51.8019 96.618 51.9912 96.4634L50.0379 95.475C49.3839 95.1484 49.0569 94.4265 49.229 93.7217L50.4165 88.8745C50.5886 88.1784 51.2684 87.7401 51.9654 87.8776C52.6538 88.0151 53.3077 88.2127 53.9617 88.4792C54.1682 88.5651 54.4092 88.505 54.5555 88.3417C54.7017 88.1784 54.7276 87.9549 54.6415 87.7572C54.3748 87.2072 54.151 86.7001 53.9703 86.2103C53.6003 85.2305 53.3422 84.2679 53.1098 82.996C53.084 82.8585 53.1787 82.7209 53.3163 82.6952C53.454 82.6694 53.5917 82.7639 53.6175 82.9014C53.8413 84.1476 54.0994 85.0758 54.4522 86.0298C54.6329 86.5025 54.848 87.0009 55.1062 87.5424C55.2869 87.9205 55.2267 88.376 54.9427 88.694C54.6501 89.0206 54.1768 89.1323 53.7638 88.9691C53.127 88.7112 52.5247 88.5307 51.8621 88.4018C51.4319 88.3159 51.0188 88.5823 50.9156 89.012L49.7281 93.8593C49.6076 94.3319 49.8313 94.8132 50.2702 95.0367L52.4731 96.1454C52.5677 96.1883 52.6194 96.2915 52.6107 96.3946C52.5333 97.4689 48.6697 98.1908 46.5356 98.2854C46.3119 98.2939 46.0882 98.2939 45.8559 98.2939Z" fill="#323433"/>
<path d="M44.6511 88.1095C44.6167 88.1095 44.5909 88.1009 44.5564 88.0923C44.4188 88.0408 44.3585 87.8946 44.4102 87.7571L45.2276 85.5828C45.2793 85.4538 45.4255 85.3851 45.5632 85.4367C45.7009 85.4882 45.7611 85.6343 45.7095 85.7718L44.892 87.9462C44.849 88.0408 44.7544 88.1095 44.6511 88.1095Z" fill="#323433"/>
<path d="M43.4982 97.9416C40.3573 97.9244 38.404 96.6438 38.2749 94.5039C38.1889 93.1288 39.2473 92.3639 40.1508 91.9685C41.1834 91.513 42.4484 91.3239 43.3175 91.2466C43.4637 91.238 43.5842 91.3411 43.6014 91.4786C43.61 91.6248 43.5068 91.7451 43.3691 91.7623C41.9493 91.8912 38.6708 92.3982 38.7998 94.4781C38.9117 96.3173 40.6757 97.4259 43.5068 97.4345C43.653 97.4345 43.7649 97.5548 43.7649 97.6924C43.7563 97.8213 43.6358 97.9416 43.4982 97.9416Z" fill="#323433"/>
<path d="M71.0854 102.995C70.7929 102.995 70.5003 102.961 70.1991 102.892L66.1376 101.938C64.8899 101.646 63.8056 100.907 63.0742 99.8581C62.3256 98.7924 62.0072 97.4947 62.1879 96.2055C62.2912 95.4492 62.4116 94.6929 62.5665 93.9108C62.6612 93.4209 62.7558 92.9654 62.8591 92.5013C63.1259 91.2981 63.8401 90.2668 64.8899 89.6136C65.9311 88.9604 67.1702 88.7542 68.3749 89.0378L73.3916 90.2238C74.8372 90.5676 75.8784 91.7794 75.973 93.2576C75.9816 93.4123 75.9816 93.5842 75.973 93.7475C75.8009 95.8961 75.4051 97.8212 74.8544 100.056C74.4155 101.8 72.8236 102.995 71.0854 102.995ZM67.2993 89.4159C66.542 89.4159 65.802 89.6308 65.148 90.0433C64.2187 90.6277 63.5819 91.5387 63.3496 92.6045C63.2463 93.06 63.1603 93.5155 63.0656 93.9967C62.9193 94.7702 62.7989 95.5179 62.6956 96.2657C62.5407 97.4259 62.8247 98.5947 63.4959 99.5573C64.1584 100.503 65.1394 101.164 66.2581 101.431L70.3196 102.385C72.1008 102.806 73.9079 101.697 74.3467 99.9183C74.8888 97.7095 75.2846 95.8016 75.4481 93.6959C75.4567 93.5498 75.4567 93.4123 75.4481 93.2834C75.3621 92.0372 74.4844 91.0059 73.2625 90.7137L68.2458 89.5277C67.9274 89.4503 67.6176 89.4159 67.2993 89.4159Z" fill="#323433"/>
<path d="M68.9343 102.617C68.917 102.617 68.8912 102.617 68.874 102.609C68.6933 102.566 68.5212 102.514 68.3491 102.454C66.0344 101.629 64.5457 99.0935 64.8899 96.5667C65.0534 95.3377 65.2771 94.1345 65.5697 92.768C65.9569 91.0062 67.2821 89.6396 69.0461 89.2185C69.1838 89.1841 69.3215 89.2701 69.3559 89.4076C69.3903 89.5451 69.3043 89.6826 69.1666 89.717C67.6005 90.0951 66.413 91.307 66.0774 92.8711C65.7848 94.2204 65.5697 95.4151 65.4062 96.6269C65.0964 98.9216 66.4388 101.208 68.5298 101.955C68.6847 102.007 68.8396 102.059 69.0031 102.093C69.1408 102.127 69.2268 102.265 69.1924 102.402C69.158 102.531 69.0547 102.617 68.9343 102.617Z" fill="#323433"/>
<path d="M106.925 81.3116H90.1283C89.982 81.3116 89.8701 81.1998 89.8701 81.0537C89.8701 80.9076 89.982 80.7959 90.1283 80.7959H106.925C107.071 80.7959 107.183 80.9076 107.183 81.0537C107.183 81.1998 107.071 81.3116 106.925 81.3116Z" fill="#323433"/>
<path d="M86.3163 11.19C86.2302 11.19 86.1442 11.147 86.1011 11.0697C86.0237 10.9494 86.0581 10.7861 86.1786 10.7173C86.9358 10.236 87.5984 9.57425 88.1061 8.79216C89.8271 6.1279 89.328 2.74172 86.9961 1.2377C84.6641 -0.266313 81.3598 0.670475 79.6388 3.33473C78.7353 4.70983 78.4083 6.35995 78.7267 7.86397C78.7525 8.00148 78.6665 8.13899 78.5288 8.17337C78.3911 8.19915 78.2534 8.11321 78.219 7.9757C77.8748 6.34276 78.2362 4.54654 79.2 3.05112C81.0759 0.154812 84.6985 -0.859325 87.2714 0.79939C89.8443 2.45811 90.4122 6.17088 88.5363 9.06718C87.9942 9.90943 87.2714 10.6228 86.4539 11.147C86.4109 11.1728 86.3593 11.19 86.3163 11.19Z" fill="#323433"/>
<path d="M73.7616 28.2151C73.753 28.2151 73.7444 28.2151 73.7358 28.2151L72.2127 28.0604C72.0664 28.0432 71.9374 27.9573 71.8599 27.8284C71.7911 27.6995 71.7825 27.5448 71.8513 27.4073L72.1181 26.8572C72.1611 26.7627 72.1869 26.6596 72.1869 26.565C72.1955 25.3962 72.1353 24.6657 71.7481 23.7031C71.6964 23.5742 71.7567 23.4195 71.8943 23.3679C72.0234 23.3163 72.1783 23.3765 72.2299 23.514C72.643 24.5625 72.7118 25.336 72.7032 26.5736C72.7032 26.7541 72.6602 26.926 72.5827 27.0893L72.359 27.5534L73.796 27.6995C73.9337 27.7167 74.0456 27.837 74.0284 27.9831C74.0025 28.1206 73.8907 28.2151 73.7616 28.2151Z" fill="#323433"/>
<path d="M75.0439 24.2791C74.9837 24.2791 74.9234 24.2791 74.8632 24.2705C74.5448 24.2361 74.2522 24.0986 74.0199 23.8837C73.9166 23.7892 73.908 23.6259 74.0027 23.5228C74.0973 23.4196 74.2608 23.411 74.3641 23.5056C74.519 23.6517 74.7169 23.7376 74.9234 23.7634C75.0697 23.7806 75.2246 23.7634 75.3709 23.7204C75.5688 23.6517 75.7323 23.5313 75.8614 23.3681C75.9474 23.2563 76.1109 23.2305 76.2228 23.3251C76.3346 23.411 76.3604 23.5743 76.2658 23.686C76.0765 23.9353 75.8269 24.1158 75.5344 24.2103C75.5344 24.2103 75.5344 24.2103 75.5258 24.2103C75.3795 24.2533 75.2074 24.2791 75.0439 24.2791Z" fill="#323433"/>
<path d="M78.589 38.7864C77.8059 38.7864 77.2552 38.563 76.9368 38.1247C76.3086 37.248 76.8163 35.7612 77.3671 34.6697C77.4273 34.5408 77.5822 34.4892 77.7113 34.5494C77.8403 34.6096 77.892 34.7643 77.8317 34.8932C77.1605 36.2425 76.9884 37.3082 77.3584 37.8238C77.6424 38.2192 78.2706 38.3567 79.2343 38.2192C83.0807 37.6949 86.0236 35.8729 88.4847 32.4782C88.5707 32.3664 88.7256 32.3406 88.8461 32.418C88.9579 32.5039 88.9837 32.6586 88.9063 32.779C86.385 36.2425 83.2442 38.1934 79.3032 38.7263C79.045 38.7692 78.8127 38.7864 78.589 38.7864Z" fill="#323433"/>
<path d="M119.79 101.955H98.2257C98.0794 101.955 97.9675 101.843 97.9675 101.697C97.9675 101.551 98.0794 101.439 98.2257 101.439H119.79C119.936 101.439 120.048 101.551 120.048 101.697C120.048 101.843 119.936 101.955 119.79 101.955Z" fill="#323433"/>
<path d="M93.2433 101.955H91.6255C91.4018 101.955 91.1781 101.929 90.9716 101.886C90.9629 101.886 90.9629 101.886 90.9543 101.886C89.4141 101.568 88.2954 100.202 88.2954 98.6288V97.0131C88.2954 95.1824 89.7927 93.687 91.6255 93.687H119.79C119.936 93.687 120.048 93.7987 120.048 93.9448C120.048 94.0909 119.936 94.2027 119.79 94.2027H91.6255C90.0766 94.2027 88.8117 95.4661 88.8117 97.0131V98.6288C88.8117 99.9523 89.7496 101.113 91.049 101.379C91.0576 101.379 91.0576 101.379 91.0662 101.379C91.2469 101.413 91.4362 101.439 91.6255 101.439H93.2433C93.3895 101.439 93.5014 101.551 93.5014 101.697C93.5014 101.843 93.3895 101.955 93.2433 101.955Z" fill="#323433"/>
<path d="M131.707 101.955H119.79C117.957 101.955 116.459 100.459 116.459 98.6288V97.0131C116.459 95.1824 117.957 93.687 119.79 93.687H131.707C131.854 93.687 131.966 93.7987 131.966 93.9448C131.966 94.0909 131.854 94.2027 131.707 94.2027C130.159 94.2027 128.894 95.4661 128.894 97.0131V98.6288C128.894 100.176 130.159 101.439 131.707 101.439C131.854 101.439 131.966 101.551 131.966 101.697C131.966 101.843 131.854 101.955 131.707 101.955ZM119.79 94.2113C118.241 94.2113 116.976 95.4747 116.976 97.0216V98.6374C116.976 100.184 118.241 101.448 119.79 101.448H129.926C128.997 100.855 128.377 99.8148 128.377 98.6374V97.0216C128.377 95.8442 128.997 94.8043 129.926 94.2113H119.79Z" fill="#323433"/>
<path d="M98.3718 94.2117C96.5991 94.2117 95.1621 92.7679 95.1621 91.006C95.1621 90.1466 95.4977 89.3387 96.1001 88.7371C96.711 88.1269 97.5113 87.8003 98.3718 87.8003H117.948C118.094 87.8003 118.206 87.912 118.206 88.0581C118.206 88.2042 118.094 88.316 117.948 88.316H98.3718C97.6489 88.316 96.9778 88.5996 96.4701 89.1066C95.9624 89.6137 95.6784 90.2927 95.6784 91.006C95.6784 92.4928 96.8917 93.696 98.3718 93.696C98.518 93.696 98.6299 93.8078 98.6299 93.9539C98.6299 94.1 98.5094 94.2117 98.3718 94.2117Z" fill="#323433"/>
<path d="M129.789 94.2117C128.016 94.2117 126.579 92.7679 126.579 91.006C126.579 90.1466 126.915 89.3473 127.517 88.7371C127.68 88.5738 127.852 88.4363 128.042 88.316H117.948C117.225 88.316 116.554 88.5996 116.046 89.1066C115.539 89.6137 115.255 90.2927 115.255 91.006C115.255 92.4928 116.468 93.696 117.948 93.696C118.094 93.696 118.206 93.8078 118.206 93.9539C118.206 94.1 118.094 94.2117 117.948 94.2117C116.176 94.2117 114.739 92.7679 114.739 91.006C114.739 90.1466 115.074 89.3387 115.676 88.7371C116.287 88.1269 117.088 87.8003 117.948 87.8003H129.789C129.935 87.8003 130.047 87.912 130.047 88.0581C130.047 88.2042 129.935 88.316 129.789 88.316C129.066 88.316 128.395 88.5996 127.878 89.1066C127.371 89.6137 127.087 90.2927 127.087 91.006C127.087 92.4928 128.3 93.696 129.78 93.696C129.926 93.696 130.038 93.8078 130.038 93.9539C130.038 94.1 129.926 94.2117 129.789 94.2117Z" fill="#323433"/>
<path d="M93.2433 106.957C93.2002 106.957 93.1572 106.949 93.1228 106.923C93.0367 106.88 92.9851 106.794 92.9851 106.699V97.8213C92.9851 97.6752 93.097 97.5635 93.2433 97.5635H98.2256C98.3718 97.5635 98.4837 97.6752 98.4837 97.8213V106.699C98.4837 106.794 98.4321 106.88 98.3546 106.923C98.2772 106.966 98.1739 106.966 98.0965 106.914L95.6785 105.436L93.3982 106.914C93.3465 106.949 93.2949 106.957 93.2433 106.957ZM95.6613 104.886C95.7043 104.886 95.7559 104.894 95.799 104.92L97.9674 106.244V98.0791H93.5014V106.227L95.5236 104.92C95.5666 104.894 95.6182 104.886 95.6613 104.886Z" fill="#323433"/>
<path d="M100.179 98.0792H98.2257C98.0794 98.0792 97.9675 97.9674 97.9675 97.8213C97.9675 97.6752 98.0794 97.5635 98.2257 97.5635H100.179C100.325 97.5635 100.437 97.6752 100.437 97.8213C100.437 97.9674 100.317 98.0792 100.179 98.0792Z" fill="#323433"/>
<path d="M93.2433 98.0792H91.3846C91.2383 98.0792 91.1265 97.9674 91.1265 97.8213C91.1265 97.6752 91.2383 97.5635 91.3846 97.5635H93.2433C93.3895 97.5635 93.5014 97.6752 93.5014 97.8213C93.5014 97.9674 93.3895 98.0792 93.2433 98.0792Z" fill="#323433"/>
<path d="M24.1197 50.4146C22.0459 50.4146 20.3679 52.0905 20.3679 54.1617C20.3679 56.2329 22.0459 57.9089 24.1197 57.9089C26.1935 57.9089 27.8714 56.2329 27.8714 54.1617C27.8714 52.0905 26.1935 50.4146 24.1197 50.4146ZM24.1197 55.9665C23.1215 55.9665 22.3126 55.1587 22.3126 54.1617C22.3126 53.1648 23.1215 52.3569 24.1197 52.3569C25.1179 52.3569 25.9267 53.1648 25.9267 54.1617C25.9267 55.1587 25.1179 55.9665 24.1197 55.9665Z" fill="#C4C4C4"/>
<path d="M15.9449 47.4925C15.9019 47.4925 15.8589 47.4754 15.8245 47.441L12.6234 44.2439C12.5546 44.1751 12.5546 44.072 12.6234 44.0032C12.6922 43.9345 12.7955 43.9345 12.8643 44.0032L16.0654 47.2003C16.1342 47.2691 16.1342 47.3722 16.0654 47.441C16.031 47.4754 15.9879 47.4925 15.9449 47.4925Z" fill="#323433"/>
<path d="M12.7353 47.4925C12.6923 47.4925 12.6493 47.4754 12.6149 47.441C12.546 47.3722 12.546 47.2691 12.6149 47.2003L15.8159 44.0032C15.8847 43.9345 15.988 43.9345 16.0568 44.0032C16.1257 44.072 16.1257 44.1751 16.0568 44.2439L12.8558 47.441C12.83 47.4754 12.7784 47.4925 12.7353 47.4925Z" fill="#323433"/>
<path d="M44.9781 64.4406C44.9093 64.4406 44.849 64.3976 44.8232 64.3375L43.5583 61.2865L40.2884 61.7506C40.2109 61.7592 40.1335 61.7162 40.1077 61.6474L38.8428 58.5964L35.5729 59.0605C35.4782 59.0777 35.3922 59.009 35.375 58.9144C35.3577 58.8199 35.4266 58.7339 35.5212 58.7168L38.9202 58.2355C38.9976 58.2269 39.0751 58.2698 39.1009 58.3386L40.3658 61.3896L43.6357 60.9255C43.7132 60.9169 43.7906 60.9599 43.8164 61.0286L45.0814 64.0796L48.3512 63.6156C48.4459 63.5984 48.5319 63.6671 48.5492 63.7617C48.5664 63.8562 48.4975 63.9421 48.4029 63.9593L44.9953 64.4406C44.9953 64.4406 44.9867 64.4406 44.9781 64.4406Z" fill="#323433"/>
<path d="M14.0863 63.9679C14.0432 63.9679 14.0002 63.9507 13.9658 63.9163L11.2122 61.1661C11.1692 61.1232 11.152 61.0544 11.1692 60.9942C11.1864 60.9341 11.238 60.8911 11.2983 60.8739L14.8349 60.0832C14.8951 60.0747 14.9554 60.0918 14.9898 60.1262C15.0328 60.1692 15.05 60.2294 15.0328 60.2809L14.2412 63.8132C14.2239 63.8734 14.1809 63.9249 14.1207 63.9421C14.1207 63.9679 14.1035 63.9679 14.0863 63.9679ZM11.6855 61.1489L13.9916 63.4522L14.6542 60.4872L11.6855 61.1489Z" fill="#323433"/>
<path d="M125.693 86.5027C125.624 86.5027 125.555 86.4597 125.529 86.3909C124.583 84.0017 123.576 81.9906 122.457 79.8076H114.747C113.629 81.9906 112.622 84.0017 111.675 86.3909C111.641 86.4769 111.538 86.5199 111.452 86.4855C111.365 86.4511 111.322 86.348 111.357 86.262C112.321 83.8298 113.345 81.7844 114.489 79.5584C114.515 79.4982 114.575 79.4639 114.644 79.4639H122.569C122.638 79.4639 122.69 79.4982 122.724 79.5584C123.868 81.7844 124.892 83.8298 125.856 86.262C125.891 86.348 125.848 86.4511 125.762 86.4855C125.736 86.4941 125.71 86.5027 125.693 86.5027Z" fill="#323433"/>
<path d="M118.611 79.8071C118.516 79.8071 118.438 79.7298 118.438 79.6352V47.9478C118.438 47.8532 118.516 47.7759 118.611 47.7759C118.705 47.7759 118.783 47.8532 118.783 47.9478V79.6438C118.783 79.7298 118.705 79.8071 118.611 79.8071Z" fill="#323433"/>
<path d="M120.074 69.8808C120.031 69.8808 119.988 69.8636 119.953 69.8293C119.919 69.7949 119.893 69.7347 119.902 69.6832C120.254 67.2595 120.865 65.3774 122.784 63.4608C124.772 61.4755 127.689 59.9114 130.03 59.5676C130.081 59.559 130.141 59.5762 130.176 59.6191C130.21 59.6535 130.236 59.7137 130.228 59.7653C129.883 62.1115 128.317 65.0164 126.329 67.0017C124.411 68.9183 122.526 69.5199 120.099 69.8808C120.091 69.8808 120.082 69.8808 120.074 69.8808ZM129.849 59.9457C127.612 60.3497 124.901 61.8365 123.025 63.7101C121.235 65.4977 120.624 67.2681 120.28 69.5027C123.301 69.0214 124.746 68.0932 126.08 66.7611C127.956 64.8875 129.444 62.1803 129.849 59.9457Z" fill="#323433"/>
<path d="M117.501 74.5391C116.141 74.4531 115.1 74.1953 114.102 73.1983C113.069 72.167 112.321 70.6028 112.243 69.2879C112.243 69.2363 112.26 69.1934 112.295 69.159C112.329 69.1246 112.381 69.1074 112.424 69.1074C113.732 69.1934 115.307 69.9411 116.339 70.9638C117.337 71.9608 117.595 73.0007 117.681 74.35C117.681 74.4016 117.664 74.4445 117.63 74.4789C117.587 74.5133 117.544 74.5391 117.501 74.5391ZM112.596 69.4684C112.734 70.6544 113.413 72.0295 114.343 72.9577C115.22 73.8343 116.141 74.0922 117.311 74.1867C117.182 72.6053 116.744 71.8748 116.081 71.2216C115.169 70.2849 113.783 69.6059 112.596 69.4684Z" fill="#323433"/>
<path d="M120.728 60.4787C120.684 60.4787 120.641 60.4615 120.607 60.4272C120.573 60.3928 120.555 60.3412 120.555 60.2982C120.641 58.9489 120.9 57.909 121.898 56.9121C122.93 55.8807 124.496 55.133 125.813 55.0557C125.865 55.0557 125.908 55.0729 125.942 55.1072C125.977 55.1416 125.994 55.1932 125.994 55.2361C125.908 56.5425 125.159 58.1153 124.135 59.1466C123.137 60.1435 122.096 60.4014 120.745 60.4873C120.736 60.4787 120.736 60.4787 120.728 60.4787ZM125.632 55.408C124.445 55.5455 123.068 56.2245 122.139 57.1527C121.261 58.0293 121.003 58.9489 120.908 60.1178C122.492 59.9888 123.223 59.5505 123.877 58.8888C124.806 57.9778 125.495 56.6027 125.632 55.408Z" fill="#323433"/>
<path d="M117.01 58.1927C115.384 58.0895 114.136 57.7801 112.94 56.5941C111.71 55.3651 110.815 53.4829 110.711 51.9188C110.711 51.8672 110.729 51.8242 110.763 51.7898C110.797 51.7555 110.849 51.7383 110.892 51.7383C112.458 51.8414 114.343 52.7352 115.573 53.9642C116.769 55.1589 117.07 56.3964 117.174 58.0208C117.174 58.0723 117.157 58.1153 117.122 58.1497C117.105 58.1755 117.062 58.1927 117.01 58.1927ZM111.073 52.0906C111.228 53.5345 112.062 55.2276 113.19 56.3449C114.257 57.4106 115.384 57.72 116.83 57.8317C116.675 55.898 116.141 54.9956 115.341 54.1963C114.214 53.079 112.527 52.2453 111.073 52.0906Z" fill="#323433"/>
<path d="M118.619 51.7293C118.568 51.7293 118.525 51.7121 118.49 51.6691C117.415 50.4487 116.752 49.3572 116.752 47.6727C116.752 45.9281 117.449 43.9685 118.49 42.7911C118.525 42.7567 118.568 42.731 118.619 42.731C118.671 42.731 118.714 42.7481 118.748 42.7911C119.789 43.9685 120.486 45.9367 120.486 47.6727C120.486 49.3572 119.824 50.4573 118.748 51.6691C118.714 51.7121 118.671 51.7293 118.619 51.7293ZM118.619 43.1693C117.707 44.3037 117.096 46.0828 117.096 47.6727C117.096 49.1853 117.673 50.1995 118.619 51.291C119.884 49.8127 120.142 48.7986 120.142 47.6727C120.142 46.0828 119.531 44.3037 118.619 43.1693Z" fill="#323433"/>
<path d="M116.864 66.8385C114.833 66.7096 113.275 66.3314 111.787 64.836C110.246 63.2976 109.128 60.9427 108.999 58.9832C108.999 58.9316 109.016 58.8887 109.05 58.8543C109.085 58.8199 109.136 58.8027 109.179 58.8027C111.141 58.9316 113.491 60.0489 115.039 61.5873C116.528 63.0741 116.907 64.6297 117.044 66.6494C117.044 66.701 117.027 66.7439 116.993 66.7783C116.95 66.8213 116.907 66.8385 116.864 66.8385ZM109.352 59.1637C109.532 61.0029 110.591 63.1601 112.028 64.5953C113.396 65.9618 114.833 66.34 116.683 66.4775C116.494 63.9937 115.814 62.8507 114.799 61.828C113.353 60.4013 111.193 59.3442 109.352 59.1637Z" fill="#323433"/>
<path d="M118.611 71.2389C118.568 71.2389 118.525 71.2217 118.49 71.1873C118.421 71.1186 118.421 71.0155 118.49 70.9467L123.989 65.4549C124.057 65.3861 124.161 65.3861 124.23 65.4549C124.298 65.5236 124.298 65.6268 124.23 65.6955L118.731 71.1873C118.697 71.2217 118.654 71.2389 118.611 71.2389Z" fill="#323433"/>
<path d="M118.611 68.6863C118.568 68.6863 118.525 68.6691 118.49 68.6347L113.104 63.2546C113.035 63.1859 113.035 63.0827 113.104 63.014C113.172 62.9452 113.276 62.9452 113.345 63.014L118.731 68.3941C118.8 68.4628 118.8 68.5659 118.731 68.6347C118.697 68.6691 118.654 68.6863 118.611 68.6863Z" fill="#323433"/>
<path d="M118.611 75.6307C118.568 75.6307 118.525 75.6135 118.49 75.5791L114.833 71.9265C114.764 71.8577 114.764 71.7546 114.833 71.6858C114.902 71.6171 115.005 71.6171 115.074 71.6858L118.731 75.3385C118.8 75.4072 118.8 75.5104 118.731 75.5791C118.697 75.6135 118.654 75.6307 118.611 75.6307Z" fill="#323433"/>
<path d="M118.611 59.6791C118.568 59.6791 118.525 59.6619 118.49 59.6275L113.887 55.0295C113.818 54.9608 113.818 54.8576 113.887 54.7889C113.955 54.7201 114.059 54.7201 114.128 54.7889L118.731 59.3869C118.8 59.4556 118.8 59.5588 118.731 59.6275C118.697 59.6619 118.654 59.6791 118.611 59.6791Z" fill="#323433"/>
<path d="M118.611 62.653C118.568 62.653 118.525 62.6358 118.49 62.6015C118.421 62.5327 118.421 62.4296 118.49 62.3608L123.188 57.6683C123.257 57.5995 123.361 57.5995 123.429 57.6683C123.498 57.737 123.498 57.8402 123.429 57.9089L118.731 62.6015C118.697 62.6444 118.654 62.653 118.611 62.653Z" fill="#323433"/>
</g>
<defs>
<clipPath id="clip0">
<rect width="132" height="107" fill="white"/>
</clipPath>
</defs>
</svg>
