<svg width="116" height="119" viewBox="0 0 116 119" fill="none" xmlns="http://www.w3.org/2000/svg">
<path d="M30.0479 91.8385C29.9757 91.8385 29.9034 91.8025 29.8492 91.7306C29.795 91.6228 29.813 91.497 29.9215 91.4251L32.9028 89.6994C33.0112 89.6454 33.1377 89.6634 33.2099 89.7713C33.2641 89.8791 33.2461 90.005 33.1377 90.0769L30.1563 91.8025C30.1202 91.8205 30.0841 91.8385 30.0479 91.8385Z" fill="black"/>
<path d="M62.2461 55.2221C41.7021 56.1388 21.0859 56.1388 0.56008 55.24L0.379395 55.2221C2.24045 41.3986 2.54762 27.5033 1.3551 13.6619L0.379395 2.35514C20.9775 1.16873 41.666 1.16873 62.2641 2.35514L60.9813 11.2352C58.8492 25.8855 59.2828 40.6437 62.2461 55.2221Z" fill="white"/>
<path d="M31.2947 56.1208C21.0137 56.1208 10.7327 55.9051 0.523979 55.4557L0.343293 55.4378C0.289088 55.4378 0.216814 55.4018 0.180677 55.3659C0.14454 55.3299 0.126471 55.258 0.14454 55.1861C1.98753 41.4166 2.33083 27.4494 1.12024 13.6619L0.14454 2.35512C0.14454 2.3012 0.162608 2.22929 0.198745 2.19334C0.252951 2.15739 0.307156 2.12144 0.361362 2.12144C20.9053 0.95301 41.7202 0.95301 62.2642 2.12144C62.3184 2.12144 62.3906 2.15739 62.4268 2.19334C62.4629 2.22929 62.481 2.3012 62.4629 2.3731L61.1801 11.2532C59.0841 25.8495 59.5177 40.6257 62.4629 55.1501C62.481 55.2041 62.4629 55.276 62.4268 55.3299C62.3906 55.3659 62.3184 55.4198 62.2642 55.4198C51.9832 55.8871 41.648 56.1208 31.2947 56.1208ZM0.614321 55.0063C20.9776 55.9051 41.5938 55.9051 61.957 55.0063C59.048 40.5178 58.6324 25.7956 60.7283 11.2172L61.9751 2.57083C41.6118 1.42038 20.9776 1.42038 0.614321 2.57083L1.57195 13.6439C2.76448 27.3775 2.43924 41.2908 0.614321 55.0063Z" fill="black"/>
<path d="M40.4193 39.8882H20.6342C19.7308 39.8882 18.99 39.1512 18.99 38.2524V38.2344C18.99 37.3356 19.7308 36.5986 20.6342 36.5986H40.4193C41.3227 36.5986 42.0635 37.3356 42.0635 38.2344V38.2524C42.0454 39.1512 41.3227 39.8882 40.4193 39.8882Z" fill="#C4C4C4"/>
<path d="M35.9924 47.7798H25.0429C24.1395 47.7798 23.3987 47.0428 23.3987 46.144V46.126C23.3987 45.2272 24.1395 44.4902 25.0429 44.4902H35.9924C36.8959 44.4902 37.6367 45.2272 37.6367 46.126V46.144C37.6186 47.0428 36.8959 47.7798 35.9924 47.7798Z" fill="#C4C4C4"/>
<path d="M46.9782 9.23961L33.1738 7.0106C32.686 6.9387 32.3246 7.46 32.5776 7.89142L34.8361 11.5585L16.2797 22.8114C16.0087 22.9731 15.9184 23.3327 16.081 23.6203L20.4174 30.6668C20.5801 30.9364 20.9414 31.0263 21.2305 30.8645L39.7508 19.6117L42.0093 23.2787C42.2623 23.6922 42.9128 23.6203 43.0754 23.1529L47.4299 10.0126C47.5383 9.67103 47.3396 9.31151 46.9782 9.23961Z" fill="#FFE300"/>
<path d="M18.8635 82.5807C17.942 82.5807 17.2192 81.8437 17.2192 80.9449C17.2192 80.0281 17.9781 79.3091 18.8635 79.3091C18.99 79.3091 19.0803 79.4169 19.0803 79.5248C19.0803 79.6506 18.9719 79.7405 18.8635 79.7405C18.1949 79.7405 17.671 80.2798 17.671 80.9269C17.671 81.592 18.213 82.1133 18.8635 82.1133C19.532 82.1133 20.056 81.5741 20.056 80.9269C20.056 80.8011 20.1644 80.7112 20.2728 80.7112C20.3993 80.7112 20.4896 80.8191 20.4896 80.9269C20.5438 81.8437 19.785 82.5807 18.8635 82.5807Z" fill="black"/>
<path d="M86.9095 71.238C86.512 71.238 86.1145 71.1481 85.7351 70.9864C84.8136 70.5729 84.2173 69.728 84.1089 68.7394C84.0186 67.9484 83.5488 67.2654 82.8261 66.9058C82.1033 66.5463 81.2722 66.5643 80.5675 66.9598L74.3519 70.5729C74.2435 70.6268 74.117 70.6089 74.0447 70.501C73.9905 70.3932 74.0086 70.2673 74.117 70.1954L80.3326 66.6003C81.1637 66.1149 82.1575 66.0969 83.0067 66.5283C83.856 66.9598 84.4161 67.7687 84.5245 68.7034C84.6148 69.5303 85.1208 70.2314 85.8977 70.5909C86.6566 70.9324 87.5419 70.8605 88.2285 70.3752L104.075 59.4279C104.183 59.356 104.31 59.3919 104.382 59.4818C104.454 59.5897 104.418 59.7155 104.328 59.7874L88.4815 70.7347C88.0298 71.0762 87.4697 71.238 86.9095 71.238Z" fill="black"/>
<path d="M7.66097 22.5417C7.5887 22.5417 7.51642 22.5057 7.46222 22.4338C7.40801 22.326 7.42608 22.2002 7.53449 22.1282L18.7731 15.2794C18.8815 15.2255 19.008 15.2435 19.0803 15.3514C19.1345 15.4592 19.1164 15.585 19.008 15.6569L7.76938 22.5057C7.75131 22.5417 7.69711 22.5417 7.66097 22.5417Z" fill="black"/>
<path d="M31.4574 29.2109C31.3851 29.2109 31.3128 29.1749 31.2586 29.103C31.2044 28.9952 31.2225 28.8694 31.3309 28.7975L35.1975 26.4606C35.306 26.4067 35.4324 26.4246 35.5047 26.5325C35.5589 26.6404 35.5409 26.7662 35.4324 26.8381L31.5658 29.1749C31.5296 29.1929 31.4754 29.2109 31.4574 29.2109Z" fill="black"/>
<path d="M14.0753 14.3808C14.003 14.3808 13.9307 14.3449 13.8765 14.273C13.8223 14.1651 13.8404 14.0393 13.9488 13.9674L19.8572 10.3722C19.9656 10.3183 20.0921 10.3363 20.1644 10.4441C20.2186 10.552 20.2005 10.6778 20.0921 10.7497L14.1837 14.3449C14.1476 14.3629 14.0933 14.3808 14.0753 14.3808Z" fill="black"/>
<path d="M15.286 89.0524C15.2137 89.0524 15.1414 89.0164 15.0872 88.9445C15.033 88.8366 15.0511 88.7108 15.1595 88.6389L21.1402 85.1696C21.2486 85.1157 21.3751 85.1336 21.4473 85.2415C21.5015 85.3493 21.4835 85.4752 21.3751 85.5471L15.3944 89.0164C15.3582 89.0344 15.3221 89.0524 15.286 89.0524Z" fill="black"/>
<path d="M30.0479 109.976C29.9757 109.976 29.9034 109.94 29.8492 109.868C29.795 109.76 29.813 109.635 29.9215 109.563L32.9028 107.837C33.0112 107.783 33.1377 107.801 33.2099 107.909C33.2641 108.017 33.2461 108.143 33.1377 108.215L30.1563 109.94C30.1202 109.958 30.0841 109.976 30.0479 109.976Z" fill="black"/>
<path d="M104.761 110.408C104.707 110.408 104.653 110.39 104.617 110.354C104.526 110.264 104.526 110.138 104.617 110.048L105.322 109.311C105.412 109.221 105.538 109.221 105.629 109.311C105.719 109.401 105.719 109.527 105.629 109.617L104.924 110.354C104.87 110.39 104.816 110.408 104.761 110.408Z" fill="black"/>
<path d="M102.268 112.996C102.214 112.996 102.16 112.978 102.123 112.942C102.033 112.852 102.033 112.726 102.123 112.636L102.828 111.899C102.918 111.81 103.045 111.81 103.135 111.899C103.226 111.989 103.226 112.115 103.135 112.205L102.431 112.942C102.394 112.978 102.322 112.996 102.268 112.996Z" fill="black"/>
<path d="M102.973 110.462C102.918 110.462 102.846 110.444 102.81 110.408L102.087 109.707C101.997 109.617 101.997 109.491 102.087 109.401C102.178 109.311 102.304 109.311 102.394 109.401L103.117 110.102C103.208 110.192 103.208 110.318 103.117 110.408C103.081 110.444 103.045 110.462 102.973 110.462Z" fill="black"/>
<path d="M105.484 112.924C105.43 112.924 105.358 112.906 105.322 112.87L104.599 112.169C104.508 112.08 104.508 111.954 104.599 111.864C104.689 111.774 104.816 111.774 104.906 111.864L105.629 112.565C105.719 112.655 105.719 112.781 105.629 112.87C105.611 112.906 105.538 112.924 105.484 112.924Z" fill="black"/>
<path d="M77.2431 11.1091C77.1889 11.1091 77.1167 11.0911 77.0805 11.0552L76.412 10.3901C76.3217 10.3002 76.3217 10.1744 76.412 10.0845C76.5023 9.99462 76.6288 9.99462 76.7192 10.0845L77.3877 10.7496C77.478 10.8395 77.478 10.9653 77.3877 11.0552C77.3696 11.1091 77.2973 11.1091 77.2431 11.1091Z" fill="black"/>
<path d="M79.5195 13.4099C79.4653 13.4099 79.393 13.3919 79.3569 13.356L78.6884 12.6909C78.598 12.601 78.598 12.4752 78.6884 12.3853C78.7787 12.2954 78.9052 12.2954 78.9955 12.3853L79.664 13.0504C79.7544 13.1403 79.7544 13.2661 79.664 13.356C79.646 13.3739 79.5918 13.4099 79.5195 13.4099Z" fill="black"/>
<path d="M76.5746 13.4099C76.5204 13.4099 76.4481 13.3919 76.412 13.356C76.3217 13.2661 76.3217 13.1403 76.412 13.0504L77.0805 12.3853C77.1709 12.2954 77.2973 12.2954 77.3877 12.3853C77.478 12.4752 77.478 12.601 77.3877 12.6909L76.7192 13.356C76.7011 13.3739 76.6469 13.4099 76.5746 13.4099Z" fill="black"/>
<path d="M78.8874 11.1091C78.8331 11.1091 78.7609 11.0911 78.7247 11.0552C78.6344 10.9653 78.6344 10.8395 78.7247 10.7496L79.3933 10.0845C79.4836 9.99462 79.6101 9.99462 79.7004 10.0845C79.7908 10.1744 79.7908 10.3002 79.7004 10.3901L79.0319 11.0552C78.9777 11.1091 78.9416 11.1091 78.8874 11.1091Z" fill="black"/>
<path d="M83.1332 84.7741C82.9886 84.7741 82.8441 84.7381 82.6995 84.7022C82.3924 84.5764 82.1575 84.3606 82.031 84.0371C81.76 83.4259 82.049 82.6889 82.6453 82.4193C82.9525 82.2934 83.2596 82.2934 83.5668 82.3833C83.874 82.5091 84.1089 82.7248 84.2353 83.0484C84.5064 83.6596 84.2173 84.3966 83.621 84.6662C83.4584 84.7381 83.2958 84.7741 83.1332 84.7741ZM82.826 82.8327C82.4285 83.0125 82.2659 83.4619 82.4285 83.8573C82.5188 84.0551 82.6634 84.1989 82.8441 84.2708C83.0248 84.3427 83.2416 84.3247 83.4223 84.2528C83.8198 84.073 83.9824 83.6236 83.8198 83.2282C83.7294 83.0304 83.5849 82.8866 83.4042 82.8147C83.2235 82.7608 83.0067 82.7608 82.826 82.8327Z" fill="black"/>
<path d="M106.876 14.7942C110.525 14.7942 113.489 11.8642 113.489 8.23305C113.489 4.60194 110.525 1.67188 106.876 1.67188C103.226 1.67188 100.262 4.60194 100.262 8.23305C100.262 11.8642 103.226 14.7942 106.876 14.7942Z" fill="white"/>
<path d="M106.876 15.0098C103.099 15.0098 100.046 11.9539 100.046 8.23294C100.046 4.49397 103.117 1.45605 106.876 1.45605C110.652 1.45605 113.705 4.51195 113.705 8.23294C113.705 11.9719 110.652 15.0098 106.876 15.0098ZM106.876 1.90545C103.37 1.90545 100.497 4.74563 100.497 8.23294C100.497 11.7203 103.37 14.5604 106.876 14.5604C110.381 14.5604 113.254 11.7203 113.254 8.23294C113.254 4.74563 110.399 1.90545 106.876 1.90545Z" fill="black"/>
<path d="M97.5337 8.44854C97.4072 8.44854 97.3169 8.34069 97.3169 8.23283C97.3169 4.92528 99.0153 1.88736 101.852 0.143705C101.961 0.0897776 102.087 0.107753 102.159 0.215608C102.213 0.323463 102.195 0.449294 102.087 0.521198C99.3767 2.19295 97.7505 5.08706 97.7505 8.23283C97.7505 8.35866 97.6421 8.44854 97.5337 8.44854Z" fill="black"/>
<path d="M106.875 17.742C104.382 17.742 102.015 16.7893 100.226 15.0636C100.136 14.9737 100.136 14.8479 100.226 14.758C100.317 14.6682 100.443 14.6682 100.533 14.758C102.25 16.3938 104.49 17.2926 106.875 17.2926C110.471 17.2926 113.76 15.1895 115.223 11.9179C115.259 11.792 115.404 11.7561 115.53 11.792C115.657 11.828 115.693 11.9718 115.657 12.0976C114.085 15.531 110.67 17.742 106.875 17.742Z" fill="black"/>
<path d="M115.657 5.24895C115.566 5.24895 115.476 5.19502 115.44 5.10514C114.988 3.90076 114.265 2.76828 113.362 1.85151C113.272 1.76163 113.272 1.6358 113.362 1.54592C113.452 1.45605 113.579 1.45605 113.669 1.54592C114.627 2.51662 115.386 3.70302 115.855 4.94336C115.892 5.06919 115.837 5.17704 115.729 5.23097C115.729 5.24895 115.693 5.24895 115.657 5.24895Z" fill="black"/>
<path d="M105.177 8.57456L106.731 10.48L108.881 5.73438L105.177 8.57456Z" fill="white"/>
<path d="M106.713 10.6955C106.659 10.6955 106.586 10.6596 106.532 10.6057L104.978 8.70022C104.906 8.61034 104.924 8.46653 105.014 8.39463C105.105 8.32272 105.249 8.3407 105.321 8.43058L106.64 10.0484L108.646 5.62635C108.682 5.50052 108.827 5.46457 108.953 5.50052C109.08 5.53647 109.116 5.68028 109.08 5.80611L106.948 10.5517C106.912 10.6236 106.839 10.6776 106.767 10.6776C106.749 10.6955 106.731 10.6955 106.713 10.6955Z" fill="black"/>
<path d="M76.4842 94.9126C75.7795 91.7668 75.2917 88.7109 75.2917 88.7109L49.3272 96.854C48.2973 99.802 48.8755 108.898 49.1827 112.727C49.2911 114.075 49.526 116.106 49.8512 118.497C53.5372 118.82 57.4761 118.964 61.5415 118.713C61.6499 116.52 61.6138 114.704 61.6861 113.859C61.9029 111.019 62.7883 107.604 62.7883 107.604C63.5833 109.167 64.3422 113.913 64.8661 118.497C69.1122 118.101 73.4306 117.454 77.6045 116.448C77.5502 115.926 77.8213 100.755 76.4842 94.9126Z" fill="black"/>
<path d="M72.9968 96.6021C71.2441 96.6021 69.8348 95.7752 69.0578 94.2293C69.0036 94.1214 69.0398 93.9956 69.1662 93.9237C69.2747 93.8698 69.4011 93.9057 69.4734 94.0315C70.5214 96.1707 72.8342 96.7459 75.6529 95.5775C75.7793 95.5415 75.8877 95.5775 75.96 95.7033C75.9962 95.8291 75.96 95.937 75.8335 96.0089C74.8398 96.4044 73.8821 96.6021 72.9968 96.6021Z" fill="white"/>
<path d="M61.8486 101.509C61.7763 101.509 61.7221 101.473 61.6679 101.419C60.7283 100.053 60.8006 98.0219 60.8187 97.932C60.8187 97.8062 60.9451 97.7163 61.0536 97.7163C61.18 97.7163 61.2704 97.8242 61.2704 97.95C61.2704 97.968 61.18 99.9453 62.0473 101.186C62.1196 101.294 62.0835 101.419 61.9931 101.491C61.9389 101.491 61.9028 101.509 61.8486 101.509Z" fill="white"/>
<path d="M89.8547 31.2599C90.1619 31.4576 90.3245 31.8351 90.2342 32.2306C89.5656 35.3584 86.1868 47.9235 74.4423 56.1025C71.208 58.3494 69.5096 62.2142 70.0336 66.097C70.7021 71.0404 72.3102 78.4824 76.1588 88.2792C76.1407 88.2972 76.1046 88.3151 76.0865 88.3331C75.96 88.423 75.7794 88.5668 75.5445 88.7286C75.0747 89.0701 74.37 89.5555 73.5027 90.1127C71.7681 91.2452 69.3289 92.7012 66.5463 94.0315C63.7638 95.3617 60.6379 96.5481 57.5121 97.1413C54.4223 97.7165 51.3688 97.7165 48.6223 96.7099V96.6559C48.6223 96.5481 48.6223 96.3683 48.6223 96.1706C48.6223 95.7571 48.6223 95.146 48.6223 94.4269C48.6223 92.9889 48.6404 91.0654 48.6404 89.142C48.6404 87.2186 48.6404 85.3132 48.6223 83.8931C48.6223 83.1741 48.6043 82.5988 48.6043 82.1854C48.6043 81.9877 48.5862 81.8259 48.5862 81.718C48.5862 81.6641 48.5862 81.6281 48.5681 81.5922C48.5681 81.5742 48.5681 81.5562 48.5501 81.5203C48.5501 81.5203 48.532 81.5023 48.532 81.4843C48.5139 81.4664 48.4959 81.4484 48.4417 81.4304C48.3875 81.4124 48.3332 81.4124 48.2971 81.4484C48.261 81.4664 48.2429 81.4843 48.2248 81.5023C47.0323 83.2999 45.6591 83.8931 43.8161 84.5942C42.208 85.2053 40.3831 84.702 39.3171 83.3358C36.6429 79.9025 35.884 74.9591 36.0286 70.537C36.1009 68.326 36.39 66.2408 36.7875 64.5691C37.185 62.8793 37.6728 61.6031 38.1065 60.9919C39.1544 59.5179 40.6541 58.1697 41.9009 57.181C42.5152 56.6957 43.0753 56.3002 43.4728 56.0306C43.6716 55.8868 43.8342 55.7789 43.9426 55.725C43.9968 55.689 44.0329 55.6531 44.0691 55.6351C44.0871 55.6171 44.0871 55.6171 44.1052 55.6171L45.0267 55.1857C46.6709 54.3948 48.1164 53.2263 49.2005 51.7703L50.0317 50.6378L55.5968 49.0919L57.1326 49.5053C57.9999 49.739 58.9395 49.721 59.8248 49.4334C64.0348 48.0133 77.261 42.6745 85.2653 29.3724C85.5364 28.923 86.1326 28.7792 86.5663 29.0668L89.8547 31.2599Z" fill="#8DD5E0" stroke="black" stroke-width="0.5"/>
<path d="M53.501 60.291C53.3745 60.291 53.2842 60.1831 53.2842 60.0753V56.0487C53.2842 55.9229 53.3926 55.833 53.501 55.833C53.6275 55.833 53.7178 55.9409 53.7178 56.0487V60.0753C53.7359 60.1831 53.6275 60.291 53.501 60.291Z" fill="black"/>
<path d="M54.603 55.168C54.603 54.8983 54.8198 54.6826 55.0909 54.6826C55.3619 54.6826 55.5787 54.8983 55.5787 55.168C55.5787 55.4376 55.3619 55.6533 55.0909 55.6533C54.8198 55.6533 54.603 55.4376 54.603 55.168Z" fill="black"/>
<path d="M86.5482 29.5883C86.4217 29.3726 86.4217 29.103 86.5482 28.8693C86.7108 28.5637 87.018 28.0784 87.4336 27.3414C88.1744 26.0651 88.8429 23.7462 89.8006 22.7935C90.7582 21.8407 94.3719 18.7489 95.1669 18.8568C95.9619 18.9826 95.9077 19.8814 95.1127 20.6543C94.3177 21.4453 93.2516 22.3441 93.2516 22.3441C93.2516 22.3441 93.9202 22.0565 94.7152 22.6856C95.5102 23.2968 94.9139 23.872 95.3476 24.1596C95.9077 24.5371 96.0161 25.1663 95.7812 25.5258C95.2934 26.3527 94.0467 25.4898 93.8479 26.892C93.7214 27.8806 92.8722 28.7794 90.9389 29.8939C90.4149 30.1995 89.9632 30.595 89.5837 31.0624C89.4392 31.2601 89.1862 31.35 88.9333 31.314C88.337 31.2241 87.2348 30.8466 86.5482 29.5883Z" fill="white"/>
<path d="M89.0598 31.5474C89.0237 31.5474 88.9514 31.5474 88.9153 31.5294C88.2829 31.4036 87.1084 31.0261 86.3676 29.6959C86.205 29.3903 86.205 29.0308 86.3857 28.7612C86.5483 28.4735 86.8374 27.9882 87.253 27.2332C87.5059 26.7658 87.7589 26.1906 88.0299 25.5615C88.5178 24.447 89.0237 23.2785 89.6561 22.6314C90.0536 22.2359 94.1732 18.497 95.2031 18.6408C95.5645 18.6767 95.8175 18.8744 95.9259 19.18C96.0704 19.6474 95.8355 20.2766 95.2754 20.8158C94.8237 21.2652 94.2997 21.7506 93.9022 22.0741C94.1732 22.1101 94.4985 22.2359 94.8418 22.5056C95.3838 22.919 95.3838 23.3684 95.3838 23.656C95.3838 23.8717 95.3838 23.9257 95.4742 23.9616C96.1427 24.393 96.2511 25.148 95.9801 25.6154C95.7271 26.0648 95.2754 26.1187 94.914 26.1726C94.4623 26.2266 94.1552 26.2805 94.0648 26.9276C93.9203 28.0241 92.9988 28.9589 91.0293 30.0914C90.5414 30.379 90.0897 30.7565 89.7464 31.2059C89.5838 31.4396 89.3308 31.5474 89.0598 31.5474ZM86.747 29.4982C87.3975 30.6846 88.4274 31.0261 88.9875 31.116C89.1502 31.1519 89.3128 31.08 89.4212 30.9542C89.8187 30.4689 90.3066 30.0374 90.8305 29.7318C92.6555 28.6713 93.5047 27.8264 93.6312 26.8917C93.7577 25.903 94.39 25.8311 94.8598 25.7772C95.2212 25.7412 95.438 25.6873 95.6006 25.4536C95.7271 25.2199 95.7271 24.7166 95.2212 24.393C94.9321 24.1953 94.9321 23.9257 94.9321 23.7099C94.9321 23.4583 94.9321 23.2066 94.5707 22.919C93.9022 22.3977 93.3601 22.6134 93.324 22.6134C93.2156 22.6494 93.1072 22.6134 93.053 22.5235C92.9988 22.4337 93.0168 22.3078 93.0891 22.2359C93.1072 22.218 94.1732 21.3371 94.9321 20.5642C95.42 20.0788 95.5464 19.6294 95.4742 19.3778C95.438 19.2519 95.3115 19.1621 95.1309 19.1441C94.5527 19.0722 91.2642 21.7146 89.9452 23.0089C89.367 23.5841 88.8791 24.7166 88.4093 25.7951C88.1383 26.4423 87.8854 27.0355 87.5963 27.5208C87.1807 28.2758 86.8916 28.7612 86.7109 29.0488C86.6567 29.1386 86.6567 29.3184 86.747 29.4982Z" fill="black"/>
<path d="M60.0598 81.3944L49.4716 84.5222C49.038 84.6481 48.5682 84.3964 48.4417 83.965L44.2498 69.9798C44.1233 69.5484 44.3763 69.081 44.828 68.9552L55.4161 65.8274C55.8498 65.7015 56.3196 65.9532 56.4461 66.3846L60.638 80.3698C60.7644 80.8012 60.5115 81.2686 60.0598 81.3944Z" fill="white"/>
<path d="M51.9831 81.4666L50.8809 81.7901C50.7183 81.8261 50.5557 81.7542 50.5015 81.5744L50.1943 80.5318C50.1582 80.37 50.2305 80.2083 50.4112 80.1543L51.5133 79.8308C51.676 79.7948 51.8386 79.8667 51.8928 80.0465L52.2 81.0891C52.2542 81.2688 52.1458 81.4306 51.9831 81.4666Z" fill="#C4C4C4"/>
<path d="M54.513 80.6935L53.4108 81.0171C53.2482 81.053 53.0856 80.9811 53.0314 80.8014L51.9834 77.314C51.9473 77.1523 52.0195 76.9905 52.2002 76.9366L53.3024 76.613C53.465 76.577 53.6276 76.6489 53.6818 76.8287L54.7298 80.316C54.7659 80.4958 54.6756 80.6576 54.513 80.6935Z" fill="#C4C4C4"/>
<path d="M57.0603 79.9565L55.9582 80.2801C55.7955 80.316 55.6329 80.2441 55.5787 80.0643L52.5974 70.1417C52.5613 69.9799 52.6335 69.8181 52.8142 69.7642L53.9164 69.4406C54.079 69.4047 54.2416 69.4766 54.2959 69.6563L57.2772 79.579C57.3133 79.7408 57.2229 79.9026 57.0603 79.9565Z" fill="#C4C4C4"/>
<path d="M43.8704 72.9643C44.4486 72.2813 44.9004 72.2094 44.9004 72.2094L45.2798 73.3958C45.2798 73.3958 48.8393 69.2973 50.6462 71.8139C51.7664 73.3598 47.972 76.2719 46.8879 77.9796C46.2916 78.9323 45.3701 80.3345 43.9608 80.2266C42.967 80.1547 42.5334 79.8311 42.2804 79.0402C41.9371 78.0156 42.9128 77.0628 42.8586 75.7686C42.7863 74.2227 43.1296 73.8092 43.8704 72.9643Z" fill="white"/>
<path d="M44.1235 80.4599C44.0693 80.4599 43.997 80.4599 43.9609 80.4599C42.8948 80.388 42.3709 80.0105 42.0818 79.1297C41.8649 78.5185 42.0818 77.9433 42.2986 77.3321C42.4793 76.8468 42.6599 76.3434 42.6238 75.7862C42.5515 74.1504 42.949 73.665 43.6899 72.8202C44.3223 72.1011 44.792 71.9933 44.8643 71.9753C44.9727 71.9573 45.0811 72.0113 45.1173 72.1191L45.3702 72.946C46.0207 72.2809 47.7191 70.699 49.2369 70.7709C49.8693 70.8069 50.4113 71.0945 50.8089 71.6877C51.6942 72.91 50.05 74.7256 48.5684 76.3255C47.954 76.9906 47.3758 77.6017 47.0687 78.123C46.5266 78.9859 45.587 80.4599 44.1235 80.4599ZM44.7559 72.4966C44.5933 72.5865 44.3403 72.7662 44.0332 73.1078C43.3104 73.9526 43.0032 74.2942 43.0755 75.7682C43.1117 76.4333 42.8948 76.9906 42.7142 77.4939C42.5154 78.0511 42.3347 78.5185 42.4973 78.9859C42.7322 79.6869 43.1117 79.9386 43.9789 80.0105C45.2799 80.1184 46.1652 78.7162 46.6892 77.8534C47.0325 77.3141 47.6288 76.667 48.2431 75.9839C49.526 74.5998 51.1341 72.8561 50.4475 71.9214C50.1223 71.454 49.7067 71.2203 49.2188 71.2023C49.1827 71.2023 49.1646 71.2023 49.1465 71.2023C47.4842 71.2023 45.4606 73.4853 45.4606 73.5212C45.4064 73.5752 45.3341 73.6111 45.2437 73.5931C45.1715 73.5752 45.0992 73.5212 45.0811 73.4493L44.7559 72.4966Z" fill="black"/>
<path d="M56.1391 63.6527C56.103 63.6527 56.0849 63.6527 56.0668 63.6347C55.9404 63.5988 55.8862 63.455 55.9404 63.3471L57.1329 60.2013C57.169 60.0755 57.3136 60.0216 57.422 60.0755C57.5485 60.1115 57.6027 60.2553 57.5485 60.3631L56.3559 63.5089C56.3198 63.5988 56.2295 63.6527 56.1391 63.6527Z" fill="white"/>
<path d="M57.4037 64.9285C57.3495 64.9285 57.2772 64.8926 57.241 64.8566C57.1507 64.7667 57.1688 64.6229 57.2591 64.551L62.2822 59.9492C62.3725 59.8593 62.5171 59.8773 62.5893 59.9672C62.6797 60.0571 62.6616 60.2009 62.5713 60.2728L57.5482 64.8746C57.5301 64.9105 57.4759 64.9285 57.4037 64.9285Z" fill="white"/>
<path d="M54.4765 53.3521L53.537 53.6577C53.4105 53.6936 53.6273 56.2102 53.5008 56.2462C52.4167 56.408 49.0018 56.426 49.9052 53.2083C50.1581 52.2735 50.1401 51.3028 49.851 50.4041L48.5681 46.3775L54.332 44.5439L56.1569 50.1884C56.5183 51.5006 55.7955 52.9207 54.4765 53.3521Z" fill="white"/>
<path d="M52.6518 56.5158C51.8387 56.5158 50.6642 56.372 49.9957 55.599C49.4898 55.0238 49.3633 54.1969 49.6524 53.1543C49.8873 52.2735 49.8692 51.3388 49.5982 50.458L48.3153 46.4314C48.2973 46.3774 48.2973 46.3055 48.3334 46.2696C48.3695 46.2157 48.4057 46.1797 48.4599 46.1617L54.2237 44.3282C54.3502 44.2922 54.4586 44.3641 54.5128 44.472L56.3378 50.1164C56.5546 50.8175 56.5004 51.5725 56.1571 52.2016C55.8138 52.8667 55.2356 53.3341 54.5309 53.5678L53.7178 53.8194C53.6998 54.0351 53.7178 54.5744 53.7359 54.9339C53.772 56.2102 53.772 56.39 53.5191 56.4439C53.4107 56.4619 53.0854 56.5158 52.6518 56.5158ZM48.7851 46.5212L50.0138 50.3321C50.3209 51.2848 50.339 52.3095 50.068 53.2802C49.815 54.161 49.9054 54.8441 50.3029 55.3114C50.9714 56.0664 52.4169 56.1383 53.2661 56.0484C53.2842 55.8327 53.2661 55.3474 53.248 54.9699C53.2119 53.6936 53.2119 53.5138 53.4287 53.4419L54.3683 53.1364C54.9465 52.9386 55.4343 52.5431 55.7234 52.0039C56.0125 51.4466 56.0487 50.8354 55.868 50.2602L54.1153 44.8315L48.7851 46.5212Z" fill="black"/>
<path d="M55.4163 46.5753L49.2368 48.5526L47.5022 43.1958C46.7976 41.0207 48.0082 38.7019 50.1945 38.0008L52.8325 37.1559C53.5733 36.9223 54.3502 37.3177 54.5851 38.0547L56.5907 44.3103C56.8979 45.2451 56.3739 46.2697 55.4163 46.5753Z" fill="white"/>
<path d="M49.2367 48.7686C49.1464 48.7686 49.056 48.7147 49.0199 48.6248L47.2853 43.25C46.9239 42.1535 47.0323 40.9671 47.5744 39.9245C48.1164 38.8999 49.0199 38.1089 50.1401 37.7674L52.7781 36.9225C53.6274 36.6529 54.5308 37.1203 54.8199 37.9651L56.8255 44.2207C56.9881 44.742 56.952 45.2813 56.699 45.7666C56.446 46.252 56.0305 46.6115 55.5065 46.7733L53.266 47.4923C52.5071 47.726 51.7121 47.7979 50.9171 47.708C50.7906 47.6901 50.7002 47.5822 50.7183 47.4564C50.7364 47.3305 50.8448 47.2407 50.9713 47.2586C51.7121 47.3305 52.4348 47.2766 53.1395 47.0429L55.38 46.3239C55.7775 46.1981 56.1208 45.9284 56.3196 45.533C56.5183 45.1555 56.5364 44.724 56.428 44.3286L54.3862 38.091C54.1875 37.4798 53.537 37.1562 52.9227 37.336L50.2847 38.1808C49.2728 38.4864 48.4597 39.1875 47.99 40.1043C47.5021 41.039 47.4118 42.0996 47.737 43.0882L49.4716 48.445C49.5077 48.5709 49.4354 48.6787 49.327 48.7327C49.2728 48.7686 49.2367 48.7686 49.2367 48.7686Z" fill="black"/>
<path d="M48.5502 46.3057L47.0325 44.8677C46.5266 44.3823 46.1291 43.8071 45.9122 43.142C45.9122 43.124 45.8942 43.124 45.8942 43.106C45.5509 42.1353 45.3521 41.1107 45.4063 40.0861C45.587 36.8504 47.8456 35.5562 50.0861 35.6101H50.1041C50.9172 35.6281 51.6941 35.2506 52.182 34.6034L52.706 33.9024C53.0854 33.417 53.8082 33.3991 54.1876 33.8664C54.6754 34.4596 55.1633 35.3764 54.8923 36.5089L54.549 37.4976L49.4537 39.0435C49.02 39.1693 48.749 39.6007 48.8032 40.0501L49.0923 42.3151C49.1104 42.4409 49.0381 42.5488 48.9116 42.6027L48.4237 42.7825L47.4661 42.6566L48.5502 46.3057Z" fill="black"/>
<path d="M48.4237 42.7645L47.972 42.5129C47.5925 42.2972 47.1228 42.441 46.924 42.8185C46.7795 43.0701 46.7975 43.3937 46.9782 43.6454L47.2854 44.0588C47.5383 44.4183 47.9178 44.67 48.3153 44.8138L48.8031 44.9935L48.4237 42.7645Z" fill="white"/>
</svg>
