<svg width="125" height="125" viewBox="0 0 125 125" fill="none" xmlns="http://www.w3.org/2000/svg">
<g clip-path="url(#clip0)">
<path d="M22.9854 63.5173C30.3155 61.5551 34.6359 53.997 32.6699 46.6569C30.7039 39.3168 23.1553 34.9321 15.8495 36.8701C8.54366 38.808 4.199 46.3904 6.16502 53.7305C8.13104 61.0706 15.6553 65.4553 22.9854 63.5173Z" fill="#C4C4C4"/>
<path d="M22.4029 63.4688C29.5146 60.8525 33.1554 52.9552 30.534 45.8089C27.9126 38.6626 20 34.9804 12.8884 37.5725C5.77671 40.1888 2.13594 48.086 4.75729 55.2324C7.37865 62.4029 15.267 66.0851 22.4029 63.4688Z" fill="white"/>
<path d="M17.7183 64.5592C16.5775 64.5592 15.4125 64.4139 14.2717 64.1232C10.6309 63.2026 7.57269 60.9013 5.63095 57.6794C1.67464 51.0175 3.83483 42.3935 10.4368 38.4691C13.6407 36.5553 17.3785 35.9981 20.995 36.9187C24.6358 37.8392 27.694 40.1406 29.6358 43.3625C33.5921 50.0243 31.4319 58.6483 24.83 62.5728C22.6212 63.9051 20.194 64.5592 17.7183 64.5592ZM17.5484 36.9914C15.1455 36.9914 12.7911 37.6212 10.6795 38.9051C4.296 42.7084 2.20862 51.0418 6.04357 57.4613C7.88823 60.5863 10.8494 62.7908 14.3688 63.6871C17.8397 64.5834 21.4562 64.0505 24.5387 62.1852C30.9222 58.3819 33.0096 50.0485 29.1746 43.629C27.33 40.504 24.3688 38.2995 20.8494 37.4032C19.7814 37.1125 18.6649 36.9914 17.5484 36.9914Z" fill="black"/>
<path d="M25.1215 54.8209C25.0972 54.8209 25.0487 54.7967 25.0001 54.7967L17.8642 50.945C17.5729 50.7996 17.3788 50.5332 17.2574 50.2182L15.3399 44.4285C15.2914 44.3074 15.3642 44.162 15.5098 44.1136C15.6312 44.0651 15.7768 44.1378 15.8254 44.2832L17.7428 50.0729C17.8157 50.2667 17.937 50.412 18.1312 50.5089L25.2671 54.3607C25.3885 54.4333 25.437 54.5787 25.3642 54.6998C25.2914 54.7725 25.2186 54.8209 25.1215 54.8209Z" fill="black"/>
<path d="M12.7183 40.6976C12.961 41.1094 12.8397 41.6424 12.427 41.9089C12.0144 42.1511 11.4804 42.03 11.2377 41.5939C10.995 41.1821 11.1164 40.6492 11.529 40.3827C11.9173 40.1404 12.4756 40.2858 12.7183 40.6976Z" fill="#C4C4C4"/>
<path d="M8.4708 44.4525C8.90769 44.6947 9.05332 45.2277 8.8106 45.6395C8.59215 46.0755 8.0339 46.2209 7.62128 45.9786C7.18439 45.7364 7.03876 45.2034 7.28148 44.7916C7.52419 44.3798 8.05817 44.2102 8.4708 44.4525Z" fill="#C4C4C4"/>
<path d="M6.79615 49.7578C7.28159 49.7578 7.69421 50.1454 7.69421 50.6299C7.69421 51.1144 7.30586 51.5262 6.82042 51.5262C6.33498 51.5262 5.92236 51.1386 5.92236 50.6541C5.92236 50.1696 6.31071 49.7578 6.79615 49.7578Z" fill="#C4C4C4"/>
<path d="M7.86423 55.4262C8.27685 55.184 8.81083 55.3051 9.05355 55.7411C9.29627 56.1529 9.17491 56.6859 8.76229 56.9524C8.34967 57.1946 7.81569 57.0735 7.57297 56.6374C7.30598 56.2256 7.45161 55.6685 7.86423 55.4262Z" fill="#C4C4C4"/>
<path d="M12.7669 60.8526C13.2281 60.6831 13.4465 60.1744 13.2766 59.7141C13.1067 59.2538 12.597 59.0116 12.1601 59.1811C11.6989 59.3507 11.4805 59.8594 11.6504 60.3197C11.8203 60.78 12.33 60.998 12.7669 60.8526Z" fill="#C4C4C4"/>
<path d="M17.0874 61.3856C17.0874 60.9011 17.4758 60.4893 17.9612 60.4893C18.4466 60.4893 18.8592 60.8769 18.8592 61.3614C18.8592 61.8459 18.4709 62.2577 17.9855 62.2577C17.5 62.2819 17.0874 61.8701 17.0874 61.3856Z" fill="#C4C4C4"/>
<path d="M22.6457 60.2468C22.403 59.835 22.5243 59.3021 22.9369 59.0356C23.3496 58.7933 23.8835 58.9145 24.1263 59.3505C24.369 59.7623 24.2476 60.2953 23.835 60.5617C23.4467 60.804 22.8884 60.6829 22.6457 60.2468Z" fill="#C4C4C4"/>
<path d="M26.8933 56.492C26.4564 56.2497 26.3107 55.7168 26.5534 55.305C26.7719 54.8689 27.3301 54.7236 27.7428 54.9658C28.1797 55.2081 28.3253 55.741 28.0826 56.1528C27.8399 56.5889 27.3059 56.7342 26.8933 56.492Z" fill="#C4C4C4"/>
<path d="M28.568 51.2113C28.0825 51.2113 27.6699 50.8237 27.6699 50.3392C27.6699 49.8547 28.0583 49.4429 28.5437 49.4429C29.0291 49.4429 29.4418 49.8305 29.4418 50.315C29.4418 50.7995 29.0534 51.1871 28.568 51.2113Z" fill="#C4C4C4"/>
<path d="M27.4271 45.6155C27.0144 45.8577 26.4804 45.7366 26.2377 45.3005C25.995 44.8887 26.1164 44.3558 26.529 44.0893C26.9416 43.847 27.4756 43.9682 27.7183 44.4042C27.961 44.8403 27.8397 45.3732 27.4271 45.6155Z" fill="#C4C4C4"/>
<path d="M23.6409 41.3516C23.4225 41.7876 22.8642 41.933 22.4516 41.6907C22.0147 41.4485 21.8691 40.9155 22.1118 40.5037C22.3302 40.0677 22.8885 39.9223 23.3011 40.1646C23.738 40.4068 23.8836 40.9397 23.6409 41.3516Z" fill="#C4C4C4"/>
<path d="M18.2767 39.5591C18.2767 40.0436 17.8884 40.4554 17.4029 40.4554C16.9175 40.4554 16.5049 40.0678 16.5049 39.5833C16.5049 39.0988 16.8932 38.687 17.3787 38.687C17.8641 38.687 18.2767 39.0746 18.2767 39.5591Z" fill="#C4C4C4"/>
<path d="M66.5291 16.7634C66.4806 15.8186 65.7281 15.0434 64.7815 14.9707C64.199 14.9465 63.6408 15.1645 63.2767 15.5521C63.1796 15.649 63.0582 15.7217 62.9126 15.7217C62.6456 15.7217 62.4029 15.5037 62.4029 15.213V15.1161V11.3128H58.5679H58.4708C58.2039 11.3128 57.9611 11.5308 57.9611 11.8215C57.9611 11.9426 58.0097 12.1122 58.131 12.1849C58.5194 12.5725 58.7621 13.1054 58.7136 13.6868C58.6407 14.6316 57.8883 15.3826 56.9174 15.431C55.8252 15.4795 54.9514 14.6074 54.9514 13.5415C54.9514 13.0085 55.1699 12.4998 55.5582 12.1607C55.6553 12.0638 55.7281 11.9426 55.7281 11.7973C55.7281 11.5066 55.5097 11.2886 55.2184 11.2886H55.1213H51.2864V21.0027C51.2864 21.7295 51.8932 22.3593 52.6213 22.3593H62.3786V18.556V18.4591C62.3786 18.1684 62.5971 17.9504 62.8883 17.9504C63.0097 17.9504 63.1796 17.9988 63.2524 18.12C63.5922 18.5076 64.1019 18.7256 64.6359 18.7256C65.7039 18.7256 66.5776 17.8535 66.5291 16.7634Z" fill="white"/>
<path d="M62.3787 22.626H52.6456C51.7476 22.626 51.0437 21.8993 51.0437 21.0272V11.313C51.0437 11.1919 51.1651 11.0708 51.2864 11.0708H55.1214C55.1456 11.0708 55.1456 11.0708 55.1456 11.0708H55.2185C55.6311 11.0708 55.9709 11.4099 55.9709 11.8218C55.9709 12.0398 55.8981 12.2336 55.7524 12.3547C55.4126 12.6696 55.2185 13.0815 55.2185 13.5417C55.2185 14.002 55.3884 14.4138 55.7282 14.7287C56.068 15.0437 56.4806 15.2132 56.9418 15.189C57.7913 15.1648 58.4466 14.5107 58.4952 13.6629C58.5194 13.1784 58.3253 12.6696 57.9612 12.3547C57.8156 12.2094 57.7427 12.0156 57.7427 11.8218C57.7427 11.4099 58.0825 11.0708 58.4952 11.0708H58.568C58.5923 11.0708 58.5922 11.0708 58.5922 11.0708H62.4272C62.5486 11.0708 62.6699 11.1919 62.6699 11.313V15.0921C62.6699 15.1163 62.6699 15.1163 62.6699 15.1163V15.2132C62.6699 15.3586 62.7913 15.4797 62.9369 15.4797C63.0097 15.4797 63.0583 15.4555 63.1068 15.407C63.5437 14.9225 64.1748 14.6803 64.8058 14.7287C65.8981 14.8014 66.7476 15.6735 66.7961 16.7636C66.8204 17.345 66.6262 17.9022 66.2136 18.3382C65.801 18.7743 65.267 18.9923 64.6602 18.9923C64.0777 18.9923 63.4952 18.7501 63.1068 18.314C63.0583 18.2656 62.9855 18.2413 62.9369 18.2413C62.7913 18.2413 62.6699 18.3625 62.6699 18.5078V18.6047C62.6699 18.6289 62.6699 18.6289 62.6699 18.6289V22.408C62.6214 22.5291 62.5243 22.626 62.3787 22.626ZM51.5534 11.5553V21.0272C51.5534 21.6328 52.0388 22.1173 52.6456 22.1173H62.1359V18.5563C62.1359 18.532 62.1359 18.532 62.1359 18.532V18.4836C62.1359 18.0718 62.4757 17.7326 62.8884 17.7326C63.1068 17.7326 63.301 17.8053 63.4223 17.9506C63.7379 18.2898 64.1748 18.4836 64.6117 18.4836C65.0728 18.4836 65.4855 18.314 65.801 17.9749C66.1165 17.6357 66.2864 17.2239 66.2622 16.7636C66.2379 15.9158 65.5825 15.2617 64.733 15.2132C64.2476 15.189 63.7379 15.3586 63.4223 15.7462C63.2767 15.8915 63.0825 15.9642 62.8884 15.9642C62.4757 15.9642 62.1359 15.6251 62.1359 15.2132V15.1648C62.1359 15.1406 62.1359 15.1406 62.1359 15.1406V11.5553H58.5922C58.568 11.5553 58.568 11.5553 58.568 11.5553H58.4709C58.3253 11.5553 58.2039 11.6764 58.2039 11.8218C58.2039 11.8944 58.2282 11.9429 58.2767 11.9913C58.7622 12.4274 59.0049 13.0572 58.9563 13.6871C58.8835 14.7772 58.0097 15.6251 56.9418 15.6735C56.3592 15.6977 55.801 15.5039 55.3641 15.0921C54.9272 14.6803 54.7088 14.1474 54.7088 13.5417C54.7088 12.9603 54.9515 12.3789 55.3884 11.9913C55.4369 11.9429 55.4612 11.8702 55.4612 11.8218C55.4612 11.6764 55.3398 11.5553 55.1942 11.5553H55.0971C55.0728 11.5553 55.0728 11.5553 55.0728 11.5553H51.5534Z" fill="black"/>
<path d="M69.4418 11.3132C69.2233 11.2648 69.0534 11.071 69.0534 10.8287C69.0534 10.7076 69.102 10.538 69.2233 10.4653C69.6117 10.0777 69.8544 9.54479 69.8058 8.9634C69.733 8.01863 68.9563 7.26766 68.0097 7.21921C66.9175 7.17076 66.0437 8.04285 66.0437 9.10875C66.0437 9.64169 66.2622 10.1504 66.6505 10.4896C66.7476 10.5865 66.8204 10.7076 66.8204 10.8529C66.8204 11.071 66.6505 11.289 66.4321 11.3374H62.4029V15.1649V15.2618C62.4029 15.5525 62.6214 15.7706 62.9126 15.7706C63.034 15.7706 63.1796 15.7221 63.2767 15.601C63.6651 15.2134 64.199 14.9712 64.7816 15.0196C65.7282 15.0923 66.4806 15.8675 66.5291 16.8122C66.5777 17.9024 65.7039 18.7744 64.6359 18.7744C64.102 18.7744 63.5923 18.5564 63.2524 18.1688C63.1554 18.0719 63.034 17.9993 62.8884 17.9993C62.6214 17.9993 62.3787 18.2173 62.3787 18.508V18.6049V22.4324H72.1117C72.8398 22.4324 73.4466 21.8268 73.4466 21.0758V11.3132H69.4418Z" fill="white"/>
<path d="M72.1117 22.6261H62.3787C62.2573 22.6261 62.136 22.505 62.136 22.3839V18.5563C62.136 18.5321 62.136 18.5321 62.136 18.5321V18.4837C62.136 18.0718 62.4758 17.7327 62.8884 17.7327C63.1069 17.7327 63.301 17.8054 63.4224 17.9507C63.7379 18.2899 64.1748 18.4837 64.6117 18.4837C65.0729 18.4837 65.4855 18.3141 65.801 17.9749C66.1166 17.6358 66.2865 17.224 66.2622 16.7637C66.2379 15.9158 65.5826 15.2618 64.7331 15.2133C64.2476 15.1891 63.7379 15.3587 63.4224 15.7463C63.2768 15.8916 63.0826 15.9643 62.8884 15.9643C62.4758 15.9643 62.136 15.6251 62.136 15.2133V15.1649C62.136 15.1406 62.136 15.1406 62.136 15.1406V11.3131C62.136 11.192 62.2573 11.0709 62.3787 11.0709H66.3836C66.4806 11.0466 66.5535 10.9497 66.5535 10.8286C66.5535 10.7559 66.5292 10.7075 66.4806 10.659C66.0438 10.2472 65.801 9.69006 65.801 9.10866C65.801 8.52726 66.0195 7.97009 66.4564 7.55827C66.8933 7.14645 67.4515 6.92843 68.034 6.97688C69.1263 7.02533 69.9758 7.8732 70.0729 8.96331C70.1214 9.59316 69.8787 10.223 69.3933 10.659C69.3447 10.7075 69.3205 10.7802 69.3205 10.8286C69.3205 10.9497 69.3933 11.0224 69.4904 11.0709H73.4952C73.6166 11.0709 73.7379 11.192 73.7379 11.3131V21.0273C73.6894 21.8994 72.9855 22.6261 72.1117 22.6261ZM62.6214 22.1416H72.1117C72.7185 22.1416 73.2039 21.6571 73.2039 21.0515V11.5554H69.4175C69.3933 11.5554 69.3933 11.5554 69.3447 11.5554C69.0049 11.4827 68.7865 11.1678 68.7865 10.8286C68.7865 10.6106 68.8593 10.4168 69.0049 10.2957C69.369 9.95653 69.5632 9.47203 69.5389 8.98754C69.4904 8.13967 68.8107 7.50982 67.9855 7.46137C67.5243 7.43715 67.0874 7.60672 66.7719 7.92165C66.4321 8.23657 66.2622 8.64839 66.2622 9.10866C66.2622 9.56893 66.4564 10.005 66.7962 10.2957C66.9418 10.441 67.0146 10.6348 67.0146 10.8286C67.0146 11.1678 66.7962 11.4585 66.4564 11.5554C66.4321 11.5554 66.4321 11.5554 66.3836 11.5554H62.6214V15.0922C62.6214 15.1164 62.6214 15.1164 62.6214 15.1164V15.2133C62.6214 15.3587 62.7428 15.4798 62.8884 15.4798C62.9612 15.4798 63.0098 15.4556 63.0583 15.4071C63.4952 14.9226 64.1263 14.6804 64.7573 14.7288C65.8496 14.8015 66.6991 15.6736 66.7476 16.7637C66.7719 17.3451 66.5777 17.9023 66.1651 18.3383C65.7525 18.7744 65.2185 18.9924 64.6117 18.9924C64.0292 18.9924 63.4467 18.7501 63.0583 18.3141C63.0098 18.2656 62.937 18.2414 62.8884 18.2414C62.7428 18.2414 62.6214 18.3625 62.6214 18.5079V18.6048C62.6214 18.629 62.6214 18.629 62.6214 18.629V22.1416Z" fill="black"/>
<path d="M72.1118 0.242188H62.3788V4.23928C62.3302 4.4573 62.136 4.6511 61.8933 4.6511C61.772 4.6511 61.6021 4.60265 61.5293 4.48153C61.1409 4.09393 60.6069 3.85168 60.0244 3.90013C59.0778 3.97281 58.3254 4.748 58.2768 5.69277C58.2283 6.78289 59.1021 7.65498 60.17 7.65498C60.704 7.65498 61.2137 7.43696 61.5535 7.04936C61.6506 6.95246 61.772 6.87978 61.9176 6.87978C62.1603 6.87978 62.3545 7.04936 62.403 7.29161V11.3129H66.4322C66.6506 11.2645 66.8205 11.0707 66.8205 10.8284C66.8205 10.7073 66.772 10.5377 66.6506 10.4651C66.2623 10.1259 66.0438 9.61719 66.0438 9.08424C66.0438 8.01835 66.9419 7.14626 68.0098 7.19471C68.9564 7.24316 69.7331 7.99413 69.8059 8.93889C69.8302 9.52029 69.6118 10.0775 69.2234 10.4408C69.1263 10.5377 69.0535 10.6589 69.0535 10.8042C69.0535 11.0222 69.2234 11.2402 69.4419 11.2887H73.471V1.59878C73.4467 0.847808 72.8642 0.242188 72.1118 0.242188Z" fill="white"/>
<path d="M73.4465 11.5552H69.4174C69.3931 11.5552 69.3931 11.5552 69.3445 11.5552C69.0047 11.4826 68.7863 11.1676 68.7863 10.8285C68.7863 10.6105 68.8591 10.4167 69.0047 10.2955C69.3688 9.9564 69.563 9.4719 69.5387 8.9874C69.4902 8.13953 68.8106 7.50969 67.9853 7.46124C67.5242 7.43702 67.0873 7.60659 66.7717 7.92151C66.4319 8.23643 66.262 8.64826 66.262 9.10853C66.262 9.5688 66.4562 10.0048 66.796 10.2955C66.9416 10.4409 67.0144 10.6347 67.0144 10.8285C67.0144 11.1676 66.796 11.4583 66.4562 11.5552C66.4319 11.5552 66.4319 11.5552 66.3834 11.5552H62.3542C62.2329 11.5552 62.1115 11.4341 62.1115 11.313V7.34012C62.0873 7.21899 61.9902 7.14632 61.8688 7.14632C61.796 7.14632 61.7475 7.17054 61.6989 7.21899C61.2863 7.65504 60.728 7.89729 60.1455 7.89729C59.563 7.89729 59.0047 7.67926 58.5921 7.24322C58.1795 6.80717 57.9853 6.25 58.0096 5.6686C58.0581 4.57849 58.9076 3.7064 59.9999 3.65795C60.6309 3.6095 61.262 3.85174 61.6989 4.33624C61.7475 4.38469 61.8203 4.40892 61.8688 4.40892C61.9902 4.40892 62.0873 4.33624 62.1115 4.21512V0.242248C62.1115 0.121124 62.2329 0 62.3542 0H72.0873C72.9853 0 73.6892 0.726744 73.6892 1.59884V11.313C73.6892 11.4583 73.5921 11.5552 73.4465 11.5552ZM69.4659 11.0707H73.228V1.59884C73.228 0.993217 72.7426 0.508721 72.1358 0.508721H62.6212V4.26357C62.6212 4.28779 62.6212 4.28779 62.6212 4.31202C62.5484 4.67539 62.2329 4.91764 61.8931 4.91764C61.6746 4.91764 61.4805 4.84496 61.3591 4.69961C61.0193 4.33624 60.5339 4.14244 60.0484 4.16667C59.2232 4.21512 58.5678 4.89341 58.5193 5.71705C58.495 6.17733 58.6649 6.61337 58.9805 6.9283C59.296 7.26744 59.7086 7.43702 60.1698 7.43702C60.6309 7.43702 61.0678 7.24322 61.3591 6.90407C61.5047 6.75872 61.6989 6.68605 61.8931 6.68605C62.2572 6.68605 62.5727 6.95252 62.6212 7.29167C62.6212 7.31589 62.6212 7.31589 62.6212 7.34012V11.095H66.3591C66.4562 11.0707 66.529 10.9738 66.529 10.8527C66.529 10.78 66.5047 10.7316 66.4562 10.6831C66.0193 10.2713 65.7766 9.71415 65.7766 9.13275C65.7766 8.55136 65.995 7.99419 66.4319 7.58236C66.8688 7.17054 67.4271 6.95252 68.0096 7.00097C69.1018 7.04942 69.9513 7.89729 70.0484 8.9874C70.097 9.61725 69.8542 10.2471 69.3688 10.6831C69.3203 10.7316 69.296 10.8043 69.296 10.8527C69.296 10.9496 69.3688 11.0465 69.4659 11.0707Z" fill="black"/>
<path d="M60 3.90013C60.5825 3.87591 61.1407 4.09393 61.5048 4.48153C61.6019 4.57843 61.7233 4.6511 61.8689 4.6511C62.1116 4.6511 62.3058 4.48153 62.3543 4.23928V0.242188H52.6213C51.8932 0.242188 51.2864 0.847808 51.2864 1.59878V11.3129H55.1213H55.2184C55.5097 11.3129 55.7281 11.5309 55.7281 11.8216C55.7281 11.9428 55.6796 12.1123 55.5582 12.185C55.1699 12.5242 54.9514 13.0329 54.9514 13.5658C54.9514 14.6317 55.8495 15.5038 56.9174 15.4554C57.864 15.4069 58.6407 14.6559 58.7135 13.7112C58.7378 13.1298 58.5194 12.5726 58.131 12.2092C58.0339 12.1123 57.9611 11.9912 57.9611 11.8459C57.9611 11.5552 58.1796 11.3371 58.4708 11.3371H58.5679H62.3786V7.31583C62.33 7.09781 62.1359 6.90401 61.8932 6.90401C61.7718 6.90401 61.6019 6.95246 61.5291 7.07358C61.1893 7.46118 60.7038 7.6792 60.1456 7.6792C59.0776 7.6792 58.2038 6.78288 58.2524 5.71699C58.3009 4.748 59.0534 3.97281 60 3.90013Z" fill="#EF5344"/>
<path d="M56.8447 15.6977C56.2864 15.6977 55.7767 15.4797 55.3641 15.1163C54.9272 14.7045 54.7088 14.1715 54.7088 13.5659C54.7088 12.9845 54.9515 12.4031 55.3884 12.0155C55.4369 11.9671 55.4612 11.8944 55.4612 11.8459C55.4612 11.7006 55.3398 11.5795 55.1942 11.5795H55.0971C55.0728 11.5795 55.0728 11.5795 55.0728 11.5795H51.2864C51.1651 11.5795 51.0437 11.4583 51.0437 11.3372V1.59884C51.0437 0.702519 51.7719 0 52.6456 0H62.3787C62.5 0 62.6214 0.121124 62.6214 0.242248V4.23934C62.6214 4.26357 62.6214 4.26357 62.6214 4.28779C62.5486 4.65116 62.233 4.89341 61.8932 4.89341C61.6748 4.89341 61.4806 4.82074 61.3592 4.67539C61.0194 4.31202 60.534 4.11822 60.0486 4.14244C59.2233 4.19089 58.568 4.86919 58.5194 5.69283C58.4952 6.1531 58.6651 6.58915 58.9806 6.90407C59.2961 7.24322 59.7088 7.41279 60.1699 7.41279C60.6311 7.41279 61.068 7.21899 61.3592 6.87984C61.5049 6.7345 61.6991 6.66182 61.8932 6.66182C62.2573 6.66182 62.5728 6.92829 62.6214 7.26744C62.6214 7.29167 62.6214 7.29167 62.6214 7.31589V11.313C62.6214 11.4341 62.5 11.5552 62.3787 11.5552H58.5923C58.568 11.5552 58.568 11.5552 58.568 11.5552H58.4709C58.3253 11.5552 58.2039 11.6764 58.2039 11.8217C58.2039 11.8944 58.2282 11.9428 58.2767 11.9913C58.7622 12.4273 59.0049 13.0572 58.9563 13.687C58.8835 14.7771 58.0097 15.625 56.9418 15.6734C56.8932 15.6977 56.8689 15.6977 56.8447 15.6977ZM55.1456 11.0707H55.2185C55.6311 11.0707 55.9709 11.4099 55.9709 11.8217C55.9709 12.0397 55.8981 12.2335 55.7524 12.3547C55.4126 12.6696 55.2185 13.0814 55.2185 13.5417C55.2185 14.0019 55.3884 14.4138 55.7282 14.7287C56.068 15.0436 56.4806 15.2132 56.9418 15.189C57.767 15.1647 58.4466 14.5107 58.4952 13.6628C58.5194 13.1783 58.3253 12.6696 57.9612 12.3547C57.8156 12.2093 57.7427 12.0155 57.7427 11.8217C57.7427 11.4099 58.0825 11.0707 58.4952 11.0707H58.568C58.5923 11.0707 58.5923 11.0707 58.5923 11.0707H62.1602V7.34012C62.1359 7.21899 62.0389 7.14632 61.9175 7.14632C61.8447 7.14632 61.7961 7.17054 61.7476 7.21899C61.335 7.65504 60.7767 7.89729 60.1942 7.89729C59.6117 7.89729 59.0534 7.67926 58.6408 7.24322C58.2282 6.80717 58.034 6.25 58.0583 5.6686C58.1068 4.57849 58.9563 3.7064 60.0486 3.65795C60.6796 3.6095 61.3107 3.85174 61.7476 4.33624C61.7961 4.38469 61.869 4.40892 61.9175 4.40892C62.0389 4.40892 62.1359 4.33624 62.1602 4.21512V0.484496H52.6699C52.0631 0.484496 51.5777 0.968992 51.5777 1.57461V11.0465H55.1456C55.1214 11.0707 55.1456 11.0707 55.1456 11.0707Z" fill="black"/>
<path d="M90.9465 88.5661C90.9465 88.5661 87.9611 70.4217 86.1892 65.3587C85.1455 62.3306 72.7184 57.0739 72.7184 57.0739C72.7184 57.0739 72.0145 55.3297 70.4611 54.9178C68.9319 54.506 63.8834 54.2153 63.8834 54.2153C63.8834 54.2153 58.0096 54.506 56.5048 54.9178C54.9756 55.3297 54.2475 57.0739 54.2475 57.0739C54.2475 57.0739 41.8446 62.3306 40.7766 65.3587C39.0533 70.3975 36.0679 88.5661 36.0679 88.5661L44.9756 93.508C44.9756 93.508 44.2475 100.824 45.4611 101.575C46.4319 102.18 48.4222 102.616 52.9125 103.634C52.9611 103.658 72.5727 103.925 72.6213 103.852C74.3446 103.416 80.4125 102.253 81.5533 101.551C82.7426 100.8 82.0387 93.4837 82.0387 93.4837L90.9465 88.5661Z" fill="#FFE300"/>
<path d="M71.9659 104.142C70.9223 104.142 68.5193 104.118 62.7669 104.046C58.2766 103.997 52.9368 103.924 52.864 103.9L51.7475 103.634C47.9611 102.762 46.2378 102.374 45.3397 101.793C44.1261 101.017 44.5873 95.2035 44.7329 93.6531L35.9708 88.7839C35.8737 88.7354 35.8252 88.6385 35.8494 88.5174C35.8737 88.3478 38.8592 70.2761 40.6067 65.2858C41.6504 62.3062 52.8883 57.437 54.1019 56.904C54.2718 56.5165 55.0485 55.063 56.4562 54.6996C58.0096 54.2878 63.6407 53.9971 63.8834 53.9971C63.9077 53.9971 63.9077 53.9971 63.9077 53.9971C64.1261 54.0213 69.0048 54.2878 70.5339 54.6996C71.9659 55.0872 72.7184 56.5407 72.8883 56.904C74.1019 57.437 85.3397 62.3062 86.3834 65.2858C88.131 70.2761 91.1164 88.3478 91.1407 88.5174C91.165 88.6143 91.1164 88.7112 91.0193 88.7839L82.2572 93.6531C82.4028 95.2035 82.864 101.042 81.6504 101.793C80.7523 102.35 77.1601 103.149 74.5388 103.706C73.7621 103.876 73.0582 104.021 72.6455 104.142C72.6213 104.118 72.4271 104.142 71.9659 104.142ZM52.9611 103.391C53.5922 103.416 71.8203 103.658 72.6213 103.634C73.0582 103.537 73.7135 103.391 74.5145 103.198C76.8203 102.713 80.6553 101.865 81.4562 101.357C82.1844 100.872 82.1116 96.4874 81.8203 93.5077C81.796 93.4108 81.8446 93.3139 81.9417 93.2655L90.7038 88.3963C90.3883 86.5552 87.6213 70.1066 85.9951 65.407C84.9999 62.5242 72.7912 57.3159 72.6698 57.2674C72.597 57.2432 72.5485 57.1947 72.5485 57.1463C72.5485 57.1221 71.8689 55.499 70.4611 55.1114C69.0048 54.7238 64.2475 54.4331 63.9562 54.4331C63.6407 54.4573 58.0825 54.7238 56.6261 55.1114C55.2184 55.499 54.563 57.1221 54.5388 57.1463C54.5145 57.219 54.4659 57.2674 54.4174 57.2674C54.296 57.3159 42.1116 62.5242 41.0922 65.407C39.4417 70.1066 36.699 86.5552 36.3834 88.3963L45.1456 93.2655C45.2184 93.3139 45.2669 93.4108 45.2669 93.5077C44.9757 96.4874 44.8786 100.896 45.631 101.357C46.4805 101.89 48.2766 102.301 51.8931 103.149L52.9611 103.391Z" fill="black"/>
<path d="M46.2137 92.5143C46.1895 92.5143 46.1895 92.5143 46.1652 92.5143C46.0438 92.4901 45.9468 92.3448 45.971 92.2236L49.3691 75.6297C49.3934 75.5085 49.539 75.4116 49.6604 75.4359C49.7817 75.4601 49.8788 75.6054 49.8545 75.7266L46.4565 92.3205C46.4322 92.4174 46.3351 92.5143 46.2137 92.5143Z" fill="black"/>
<path d="M80.8252 92.5143C80.7038 92.5143 80.6067 92.4417 80.5825 92.3205L77.1844 75.7266C77.1601 75.6054 77.2572 75.4601 77.3786 75.4359C77.4999 75.4116 77.6456 75.5085 77.6698 75.6297L81.0679 92.2236C81.0922 92.3448 80.9951 92.4901 80.8737 92.5143C80.8495 92.5143 80.8495 92.5143 80.8252 92.5143Z" fill="black"/>
<path d="M57.5727 56.5407C57.5727 56.5407 55.364 57.1221 55.4125 59.7142C55.461 62.3304 56.8445 94.4283 52.9368 103.658C52.9368 103.658 60.4853 106.856 72.6455 104.288C72.6455 104.288 69.6601 93.7743 69.0047 84.4719C68.3494 75.1696 71.4319 59.6657 69.7814 57.6793C68.1067 55.6686 57.5727 56.5407 57.5727 56.5407Z" fill="#C4C4C4"/>
<path d="M63.471 105.523C56.8205 105.523 52.8885 103.9 52.8399 103.876C52.7186 103.827 52.67 103.682 52.7186 103.537C54.3448 99.685 56.1166 89.1472 55.2186 60.8284C55.1943 60.2954 55.1943 59.9078 55.1943 59.714C55.1457 56.9524 57.5244 56.2983 57.5487 56.2983C57.5729 56.2983 57.5729 56.2983 57.5972 56.2983C58.0341 56.2741 68.2768 55.4505 70.0001 57.5338C70.9467 58.6724 70.5098 63.2993 69.9758 69.1617C69.4904 74.2731 68.9807 80.0629 69.2962 84.4718C69.9516 93.6288 72.9127 104.142 72.937 104.239C72.9613 104.312 72.9613 104.36 72.9127 104.433C72.8885 104.506 72.8157 104.53 72.7428 104.554C69.2234 105.257 66.1409 105.523 63.471 105.523ZM53.2525 103.512C54.5875 103.997 61.6991 106.274 72.3545 104.094C71.8933 102.422 69.369 92.902 68.7865 84.496C68.471 80.0629 69.005 74.2489 69.4661 69.1132C69.9516 63.808 70.4127 58.8177 69.5875 57.8245C68.3011 56.2741 60.5341 56.5406 57.6215 56.7586C57.403 56.8313 55.6069 57.4127 55.6554 59.6898C55.6554 59.8836 55.6797 60.2712 55.6797 60.8041C56.3836 82.9941 55.5584 97.747 53.2525 103.512Z" fill="black"/>
<path d="M58.6408 49.2246L57.9612 57.0734C57.1845 57.461 56.6506 58.1151 56.335 59.0356C56.068 59.8593 56.1894 60.7556 56.6506 61.4824L61.5535 69.1616C62.136 70.0579 63.4224 70.0579 64.0049 69.1858L69.0292 61.4824C69.7574 60.3438 69.636 58.8661 68.6894 57.8971C68.4224 57.6306 68.1069 57.3884 67.6943 57.2188L67.3544 49.2488H58.6408V49.2246Z" fill="white"/>
<path d="M62.7913 70.058C62.2088 70.058 61.6505 69.7673 61.335 69.2828L56.4321 61.6036C55.9224 60.8041 55.801 59.8351 56.0923 58.9388C56.4321 57.9941 56.9661 57.2915 57.7185 56.9039L58.3738 49.2004C58.3981 49.0793 58.4952 48.9824 58.6166 48.9824H67.3301C67.4515 48.9824 67.5729 49.0793 67.5729 49.2004L67.9127 57.0251C68.2525 57.1946 68.5437 57.4127 68.835 57.6791C69.8544 58.6966 70.0243 60.3196 69.2234 61.5551L64.1991 69.2828C63.9078 69.7673 63.3738 70.058 62.7913 70.058ZM58.8593 49.4669L58.2282 57.0735C58.2282 57.1462 58.1554 57.2431 58.0826 57.2673C57.3787 57.6065 56.8933 58.1879 56.5777 59.06C56.335 59.7867 56.4321 60.6103 56.869 61.2886L61.7719 68.9679C61.9903 69.3071 62.3787 69.5251 62.7913 69.5251C63.2039 69.5251 63.568 69.3071 63.8107 68.9679L68.835 61.2644C69.5146 60.2227 69.369 58.8419 68.5195 57.9941C68.2282 57.7276 67.9369 57.5096 67.5971 57.3642C67.5243 57.34 67.4515 57.2431 67.4515 57.1462L67.1117 49.3942H58.8836V49.4669H58.8593Z" fill="black"/>
<path d="M68.5678 45.4217V41.1582C68.5678 41.1582 68.1309 38.1543 64.7572 38.1543C61.3591 38.1543 57.9853 40.383 57.9853 40.383C58.0096 40.9644 57.6941 45.3975 57.6941 45.3975C57.6941 45.3975 57.063 45.1068 56.5776 45.446C56.0921 45.7851 56.3591 48.4498 57.9853 48.8132L59.029 51.9624C59.296 52.8345 60.0242 53.4886 60.8979 53.7066L61.3834 53.8277C62.3057 54.07 63.2766 54.0942 64.1989 53.8762L65.4368 53.6097C66.4077 53.3917 67.1843 52.6649 67.4513 51.696L68.3009 48.6679C68.3009 48.6679 69.4902 48.6921 69.6115 47.4808C69.7329 46.3907 69.9999 44.8403 68.5678 45.4217Z" fill="white"/>
<path d="M62.8885 54.3362C62.3546 54.3362 61.8206 54.2636 61.2866 54.1424L60.8011 54.0213C59.8303 53.7791 59.0536 53.0523 58.738 52.1075L57.7429 49.0794C56.9419 48.8372 56.3351 48.0378 56.1167 46.9477C55.9953 46.3178 56.0196 45.5426 56.3837 45.3004C56.7477 45.0581 57.1361 45.0824 57.4274 45.1308C57.5002 44.1134 57.7186 40.9399 57.6943 40.4312C57.6943 40.3585 57.7186 40.2616 57.8157 40.2132C57.9613 40.1163 61.3109 37.936 64.7332 37.936C68.3012 37.936 68.7866 41.1095 68.7866 41.1579C68.7866 41.1822 68.7866 41.1822 68.7866 41.1822V45.0581C69.1264 44.9855 69.3691 45.0339 69.5633 45.1793C70.0487 45.5668 69.9516 46.4632 69.8303 47.3595L69.806 47.5775C69.6847 48.5707 68.9322 48.9099 68.4225 48.9583L67.6458 51.8168C67.3546 52.8585 66.505 53.6579 65.4371 53.9002L64.1992 54.1667C63.8109 54.2878 63.3497 54.3362 62.8885 54.3362ZM57.1118 45.5669C56.9905 45.5669 56.8206 45.5911 56.6749 45.688C56.6021 45.7364 56.4808 46.1725 56.6264 46.875C56.6992 47.2141 57.0147 48.3769 58.0099 48.6192C58.0827 48.6434 58.1555 48.6918 58.1798 48.7887L59.2235 51.938C59.4905 52.7132 60.1215 53.3188 60.9225 53.5368L61.4079 53.6579C62.306 53.876 63.2283 53.9002 64.1264 53.7064L65.3643 53.4399C66.2623 53.2461 66.9662 52.592 67.1846 51.6957L68.0099 48.6676C68.0342 48.5465 68.1313 48.4981 68.2283 48.4981C68.3497 48.4981 69.1749 48.4738 69.2963 47.5291L69.3206 47.311C69.3934 46.6812 69.4905 45.7849 69.2478 45.5669C69.1021 45.4457 68.8109 45.5426 68.6167 45.6395C68.5439 45.6637 68.4468 45.6637 68.3982 45.6153C68.3254 45.5668 68.2769 45.4942 68.2769 45.4215V41.1822C68.2526 40.9399 67.7429 38.4205 64.7089 38.4205C61.772 38.4205 58.7623 40.1647 58.1798 40.5281C58.1555 41.4729 57.9128 45.2762 57.8885 45.4215C57.8885 45.4942 57.84 45.5668 57.7672 45.6153C57.6943 45.6395 57.5973 45.6637 57.5487 45.6395C57.5487 45.6395 57.3545 45.5669 57.1118 45.5669Z" fill="black"/>
<path d="M59.5874 40.0436C59.5874 40.0436 57.3787 42.9506 57.6699 45.4457C57.6699 45.4457 55 41.8847 58.5194 38.905C58.5194 38.905 55.9466 36.2403 57.7913 35.2713C59.6359 34.2781 60.4126 37.1124 62.0146 36.6279C63.6165 36.1434 65.0971 36.1192 66.4806 36.531C67.8641 36.9186 67.8156 38.8808 68.3738 39.3169C68.9321 39.7529 71.1165 40.9641 68.568 45.47C68.568 45.47 67.6699 43.7258 67.5728 41.9816C67.4757 40.2616 68.1068 39.6318 66.2864 39.874C64.466 40.0921 60.0728 40.7946 59.5874 40.0436Z" fill="black"/>
<path d="M30.8008 110.95C21.6504 102.495 26.3834 97.0687 26.3834 97.0687C26.3834 97.0687 30.461 90.4311 44.8542 99.1036C59.2232 107.752 73.1309 104.554 76.2863 103.246C79.4416 101.962 90.4125 93.7742 96.6261 93.3139C100.073 93.0474 104.199 95.6395 100.582 102.64C93.0824 117.103 72.7911 118.75 72.7911 118.75C72.7911 118.75 62.9368 120.591 52.8154 118.823C52.7669 118.847 39.9756 119.38 30.8008 110.95Z" fill="black"/>
<path d="M68.568 112.669C68.4952 112.669 68.4466 112.645 68.3981 112.597L67.9127 112.064C67.8641 112.015 67.8398 111.942 67.8398 111.894C67.8398 111.846 67.8641 111.773 67.9369 111.724L83.0826 100.048C83.2039 99.9755 83.3496 99.9755 83.4224 100.097C83.4952 100.218 83.4952 100.363 83.3738 100.436L68.4709 111.918L68.7622 112.257C68.835 112.354 68.835 112.524 68.7379 112.597C68.6894 112.645 68.6408 112.669 68.568 112.669Z" fill="white"/>
<path d="M54.8058 112.136C54.7815 112.136 54.7815 112.136 54.7572 112.136C54.6359 112.112 54.5388 111.967 54.563 111.846L54.7572 110.853C54.0776 110.32 50.5339 107.51 44.9029 103.367C38.665 98.7644 37.3058 97.8438 37.2815 97.8438C37.1601 97.7711 37.1359 97.6258 37.2087 97.5047C37.2815 97.3835 37.4271 97.3593 37.5485 97.432C37.5728 97.4562 38.932 98.3768 45.1941 102.979C51.4562 107.582 55.1456 110.538 55.1698 110.562C55.2427 110.634 55.2669 110.707 55.2427 110.804L55.0242 111.943C55.0242 112.04 54.9271 112.136 54.8058 112.136Z" fill="white"/>
<path d="M68.4952 113.299C68.4952 113.299 60.2428 116.57 56.8933 116.836C53.568 117.078 47.67 118.629 47.0146 118.895C46.335 119.186 46.5292 120.591 47.5001 120.906C47.5001 120.906 47.2331 122.093 48.1069 122.505C48.1069 122.505 48.0341 123.74 49.2477 123.91C49.2477 123.91 48.8593 124.564 50.437 124.709C52.0146 124.855 55.1214 124.346 56.5535 123.716C58.0098 123.086 63.3739 119.38 63.3739 119.38L70.9224 117.078L68.4952 113.299Z" fill="white"/>
<path d="M50.9953 125C50.7768 125 50.5584 125 50.3642 124.976C49.6118 124.903 49.1749 124.71 48.9807 124.395C48.9322 124.298 48.9079 124.225 48.9079 124.128C48.0827 123.91 47.8399 123.183 47.8157 122.699C47.1361 122.287 47.1361 121.463 47.1846 121.1C46.6263 120.809 46.3594 120.204 46.3351 119.695C46.3108 119.211 46.5293 118.847 46.8691 118.702C47.5001 118.435 53.3982 116.861 56.8205 116.619C60.0972 116.376 68.2768 113.13 68.3496 113.106C68.471 113.057 68.5681 113.106 68.6409 113.203L71.0438 116.982C71.0924 117.055 71.0924 117.127 71.0681 117.2C71.0438 117.273 70.9953 117.321 70.8982 117.345L63.3739 119.647C62.8885 119.986 57.9613 123.377 56.5535 123.983C55.3157 124.54 52.6943 125 50.9953 125ZM68.3982 113.615C67.1118 114.123 60.0001 116.861 56.8933 117.103C53.5681 117.345 47.6943 118.896 47.0875 119.162C46.8691 119.259 46.8448 119.598 46.8448 119.695C46.8691 120.083 47.0632 120.567 47.5487 120.737C47.67 120.785 47.7186 120.906 47.7186 121.027C47.6943 121.052 47.5001 122.045 48.1797 122.36C48.2768 122.408 48.3254 122.481 48.3254 122.578C48.3254 122.675 48.3011 123.595 49.2477 123.716C49.3205 123.741 49.3933 123.789 49.4176 123.838C49.4419 123.91 49.4419 124.007 49.4176 124.056C49.4176 124.056 49.3933 124.104 49.4419 124.177C49.4662 124.249 49.6361 124.443 50.437 124.516C51.9419 124.637 55.0244 124.152 56.4322 123.547C57.8399 122.941 63.1555 119.259 63.204 119.211C63.2283 119.186 63.2526 119.186 63.2768 119.186L70.5098 116.982L68.3982 113.615Z" fill="black"/>
<path d="M48.1554 120.809C48.034 120.809 47.937 120.736 47.9127 120.615C47.8884 120.494 47.9855 120.349 48.1069 120.324L49.1991 120.106C49.3205 120.082 49.4661 120.179 49.4904 120.3C49.5146 120.421 49.4175 120.567 49.2962 120.591L48.2039 120.809C48.1797 120.809 48.1554 120.809 48.1554 120.809Z" fill="black"/>
<path d="M54.1989 113.299C54.1989 113.299 62.4513 116.57 65.8009 116.836C69.1261 117.078 75.0242 118.629 75.6795 118.895C76.3591 119.186 76.1649 120.591 75.1941 120.906C75.1941 120.906 75.4611 122.093 74.5873 122.505C74.5873 122.505 74.6601 123.74 73.4465 123.91C73.4465 123.91 73.8349 124.564 72.2572 124.709C70.6795 124.855 67.5727 124.346 66.1407 123.716C64.6844 123.086 59.3203 119.38 59.3203 119.38L51.7717 117.078L54.1989 113.299Z" fill="white"/>
<path d="M71.6749 125C69.9759 125 67.3788 124.54 66.0681 123.958C64.6603 123.353 59.7089 119.937 59.2477 119.622L51.7234 117.321C51.6506 117.297 51.6021 117.248 51.5535 117.176C51.5293 117.103 51.5293 117.03 51.5778 116.957L53.9807 113.178C54.0535 113.082 54.1506 113.033 54.272 113.082C54.3448 113.106 62.5487 116.352 65.8011 116.594C69.2234 116.836 75.1215 118.411 75.7526 118.677C76.1166 118.823 76.3108 119.21 76.2865 119.671C76.2623 120.155 75.9953 120.785 75.437 121.076C75.4613 121.463 75.4613 122.263 74.806 122.675C74.7817 123.159 74.539 123.886 73.7137 124.104C73.7137 124.177 73.6894 124.273 73.6409 124.37C73.471 124.709 73.0098 124.903 72.2574 124.952C72.1361 124.976 71.9176 125 71.6749 125ZM52.1846 116.957L59.4176 119.162C59.4419 119.162 59.4662 119.186 59.4904 119.186C59.539 119.21 64.8545 122.917 66.2623 123.522C67.67 124.128 70.7526 124.613 72.2574 124.491C73.0341 124.419 73.204 124.201 73.2526 124.152C73.2768 124.104 73.2526 124.055 73.2526 124.031C73.2283 123.958 73.204 123.862 73.2526 123.813C73.2768 123.74 73.3739 123.692 73.4225 123.692C74.3933 123.571 74.3691 122.602 74.3448 122.553C74.3448 122.457 74.3933 122.36 74.4904 122.335C75.17 122.02 74.9759 121.027 74.9516 121.003C74.9273 120.882 74.9759 120.761 75.1215 120.737C75.5827 120.567 75.8011 120.083 75.8254 119.695C75.8254 119.598 75.8254 119.259 75.5826 119.162C74.9759 118.92 69.0778 117.369 65.7768 117.103C62.67 116.885 55.5584 114.123 54.272 113.614L52.1846 116.957Z" fill="black"/>
<path d="M74.5389 120.809C74.5146 120.809 74.5146 120.809 74.4903 120.809L73.3981 120.591C73.2768 120.567 73.1797 120.445 73.2039 120.3C73.2282 120.179 73.3738 120.082 73.4952 120.106L74.5874 120.324C74.7088 120.349 74.8059 120.47 74.7816 120.615C74.7573 120.76 74.6603 120.809 74.5389 120.809Z" fill="black"/>
<path d="M27.5972 86.3372L41.7234 89.7044C44.8545 90.4312 46.7962 93.5319 46.1409 96.6812C45.5584 99.3701 42.5729 100.775 40.1457 99.467L27.1118 92.4903C25.7768 91.7635 24.1506 91.7393 22.7671 92.4176L16.2622 95.591C16.2622 95.591 16.1894 94.5978 17.2088 93.5319C18.2525 92.4903 20.3399 91.6182 20.3399 91.6182C20.3399 91.6182 14.369 93.6046 12.1846 91.061C12.1846 91.061 12.67 90.1162 14.3448 90.1162L12.1846 88.6627C12.1846 88.6627 12.67 87.1366 14.3205 87.6695C15.971 88.2025 19.6846 87.5 19.6846 87.5C19.6846 87.5 16.1652 86.4341 16.8448 83.0426C17.5244 79.6511 20.5341 80.1356 20.5341 80.1356L20.5584 80.4263C20.6069 81.2015 20.3399 81.9282 19.8545 82.5339C19.6846 82.7519 19.5875 83.091 19.7088 83.624C20.0001 85.1259 20.5826 85.6589 21.6991 85.3924C23.2283 85.029 22.937 83.9631 22.4516 83.1637C21.9176 82.2674 21.5535 81.3226 21.4321 80.3052L21.4079 80.1598C21.4079 80.1598 23.204 78.8759 24.5147 82.1947C24.8787 83.1395 25.1457 83.8178 25.3399 84.3507C25.7283 85.3682 26.5535 86.0949 27.5972 86.3372Z" fill="white"/>
<path d="M42.1117 100.194C41.4079 100.194 40.704 100.024 40.0486 99.6611L27.0146 92.6844C25.7282 92.0061 24.1991 91.9818 22.9127 92.6117L16.4079 95.7851C16.335 95.8093 16.2379 95.8093 16.1894 95.7851C16.1166 95.7609 16.068 95.664 16.068 95.5913C16.068 95.5429 15.9952 94.4528 17.0875 93.3384C17.4515 92.975 17.9127 92.6359 18.3739 92.3452C16.3836 92.7086 13.471 92.8782 12.0146 91.2066C11.9418 91.134 11.9418 91.0371 11.9904 90.9159C12.0146 90.8917 12.4273 90.1165 13.6651 89.8985L12.0632 88.8326C11.9661 88.7599 11.9418 88.663 11.9661 88.5419C11.9904 88.5177 12.2088 87.8152 12.8884 87.4518C13.3253 87.2338 13.835 87.2095 14.4176 87.4033C15.5098 87.7667 17.6457 87.5245 18.835 87.3791C17.7913 86.822 16.1166 85.4896 16.602 82.9944C17.3059 79.4092 20.5341 79.8937 20.5826 79.8937C20.704 79.9179 20.7768 80.0148 20.8011 80.1117L20.8253 80.4024C20.8739 81.1776 20.6069 82.0012 20.0486 82.7037C19.903 82.8975 19.8787 83.1882 19.9273 83.6001C20.0972 84.3995 20.3156 84.884 20.6554 85.102C20.8739 85.2473 21.2137 85.2716 21.6263 85.1747C22.1117 85.0535 22.403 84.8597 22.5244 84.5933C22.6943 84.2057 22.4515 83.6727 22.2331 83.3094C21.6748 82.3888 21.335 81.3956 21.1894 80.3297L21.1166 80.1844C21.0923 80.0875 21.1409 80.0148 21.2137 79.9663C21.2379 79.9421 21.869 79.5061 22.6943 79.7483C23.4952 79.9906 24.1748 80.79 24.6845 82.0981C25.0244 82.946 25.2913 83.6485 25.5341 84.2541C25.8739 85.1747 26.6748 85.853 27.6214 86.0952L41.7477 89.4625C45.0244 90.2376 47.0632 93.4353 46.335 96.7057C46.068 98.0623 45.1457 99.1766 43.9078 99.7822C43.3739 100.049 42.7428 100.194 42.1117 100.194ZM24.8787 91.6669C25.704 91.6669 26.5049 91.8607 27.2331 92.2483L40.2671 99.225C41.3593 99.8064 42.6214 99.8549 43.7379 99.3219C44.8545 98.789 45.6311 97.82 45.8981 96.6088C46.5292 93.5807 44.6603 90.6495 41.6506 89.9227L27.5001 86.5797C26.3836 86.3132 25.4612 85.5138 25.0729 84.4479C24.8545 83.8665 24.5632 83.1156 24.2477 82.2919C23.7865 81.1534 23.204 80.4266 22.5972 80.2328C22.1845 80.1117 21.8205 80.2086 21.6506 80.3055C21.7719 81.2745 22.1117 82.2192 22.6457 83.0671C23.0583 83.7454 23.1797 84.351 22.9855 84.8113C22.8156 85.2473 22.403 85.5138 21.7477 85.6834C21.1894 85.8045 20.7525 85.7561 20.4127 85.538C19.9515 85.2473 19.6603 84.6659 19.4661 83.7212C19.3447 83.1882 19.4418 82.728 19.6603 82.4373C20.0001 82.0012 20.3884 81.3472 20.3156 80.4751V80.4024C19.6845 80.3782 17.6214 80.4508 17.0875 83.1156C16.4564 86.2406 19.636 87.258 19.7574 87.2822C19.8787 87.3064 19.9273 87.4033 19.9273 87.5245C19.9273 87.6456 19.8545 87.7425 19.7331 87.7425C19.5875 87.7667 15.9467 88.445 14.2719 87.8878C13.835 87.7425 13.4467 87.7425 13.1312 87.9121C12.7913 88.0816 12.6214 88.3723 12.5244 88.5419L14.5389 89.8985C14.6117 89.9712 14.6603 90.0681 14.636 90.1892C14.6117 90.3103 14.5146 90.3588 14.4176 90.3588H14.3933C13.2768 90.3588 12.7671 90.7948 12.5729 91.0371C14.7574 93.2173 20.2913 91.4247 20.3399 91.3762C20.4612 91.3278 20.6069 91.4004 20.6554 91.5216C20.704 91.6427 20.6312 91.788 20.5341 91.8365C20.5098 91.8607 18.471 92.6844 17.5001 93.6776C16.9418 94.259 16.7234 94.7919 16.6506 95.1311L22.7671 92.1514C23.3739 91.8123 24.1263 91.6669 24.8787 91.6669Z" fill="black"/>
<path d="M99.4417 86.3372L85.3155 89.7044C82.1844 90.4312 80.2427 93.5319 80.898 96.6812C81.4805 99.3701 84.466 100.775 86.8932 99.467L99.9271 92.4903C101.262 91.7635 102.888 91.7393 104.272 92.4176L110.777 95.591C110.777 95.591 110.849 94.5978 109.83 93.5319C108.786 92.4903 106.699 91.6182 106.699 91.6182C106.699 91.6182 112.67 93.6046 114.854 91.061C114.854 91.061 114.369 90.1162 112.694 90.1162L114.854 88.6627C114.854 88.6627 114.369 87.1366 112.718 87.6695C111.068 88.2025 107.354 87.5 107.354 87.5C107.354 87.5 110.874 86.4341 110.194 83.0426C109.515 79.6511 106.505 80.1356 106.505 80.1356L106.481 80.4263C106.432 81.2015 106.699 81.9282 107.184 82.5339C107.354 82.7519 107.451 83.091 107.33 83.624C107.039 85.1259 106.456 85.6589 105.34 85.3924C103.811 85.029 104.102 83.9631 104.587 83.1637C105.121 82.2674 105.485 81.2984 105.607 80.3052L105.631 80.1598C105.631 80.1598 103.835 78.8759 102.524 82.1947C102.16 83.1395 101.893 83.8178 101.699 84.3507C101.335 85.3682 100.485 86.0949 99.4417 86.3372Z" fill="white"/>
<path d="M84.9514 100.194C84.3203 100.194 83.6892 100.073 83.1067 99.7822C81.8446 99.2008 80.9465 98.0865 80.6795 96.7057C79.9999 93.4111 82.0145 90.2376 85.2669 89.4625L99.3931 86.0952C100.34 85.8772 101.141 85.1747 101.48 84.2541C101.699 83.6485 101.99 82.9218 102.33 82.0981C102.864 80.7658 103.519 79.9906 104.32 79.7483C105.146 79.5061 105.777 79.9421 105.801 79.9663C105.874 80.0148 105.922 80.1117 105.898 80.1844L105.874 80.3297C105.728 81.3714 105.388 82.3646 104.83 83.3094C104.612 83.697 104.369 84.2057 104.539 84.5933C104.66 84.8597 104.951 85.0535 105.437 85.1747C105.849 85.2716 106.165 85.2473 106.408 85.102C106.747 84.884 106.966 84.3995 107.136 83.6001C107.209 83.2125 107.184 82.8975 107.014 82.7037C106.456 82.0012 106.189 81.2018 106.238 80.4024L106.262 80.1117C106.262 79.9906 106.359 79.8937 106.48 79.8937C106.505 79.8937 109.757 79.4092 110.461 82.9944C110.947 85.5138 109.272 86.822 108.228 87.3791C109.393 87.5487 111.529 87.7667 112.646 87.4033C113.228 87.2095 113.738 87.2338 114.175 87.4518C114.854 87.7909 115.097 88.4935 115.097 88.5419C115.121 88.6388 115.097 88.7599 115 88.8326L113.398 89.8985C114.636 90.1165 115.048 90.8675 115.073 90.9159C115.121 90.9886 115.097 91.1097 115.048 91.2066C113.592 92.8782 110.68 92.7086 108.689 92.3452C109.175 92.6359 109.636 92.975 109.976 93.3384C111.068 94.4528 111.019 95.5429 110.995 95.5913C110.995 95.664 110.946 95.7367 110.874 95.7851C110.801 95.8093 110.704 95.8336 110.655 95.7851L104.175 92.6359C102.888 92.0061 101.359 92.0303 100.073 92.7086L87.0387 99.6853C86.3591 100.024 85.6552 100.194 84.9514 100.194ZM99.5145 86.5797L85.3882 89.9469C82.3785 90.6737 80.5096 93.5807 81.1407 96.633C81.3834 97.8442 82.1844 98.8375 83.3009 99.3462C84.4174 99.8791 85.6795 99.8307 86.7717 99.2493L99.8057 92.2725C101.213 91.5216 102.937 91.4973 104.345 92.1999L110.461 95.1795C110.388 94.8404 110.194 94.2832 109.612 93.726C108.616 92.7328 106.602 91.8849 106.578 91.8849C106.456 91.8365 106.408 91.6911 106.456 91.57C106.505 91.4489 106.626 91.3762 106.772 91.4247C106.82 91.4489 112.379 93.2415 114.539 91.0855C114.345 90.8675 113.811 90.4072 112.718 90.4072H112.694C112.573 90.4072 112.5 90.3345 112.476 90.2376C112.451 90.1407 112.476 90.0196 112.573 89.9469L114.587 88.5904C114.417 88.2512 113.932 87.5729 112.84 87.9363C111.141 88.4935 107.524 87.8152 107.379 87.7909C107.257 87.7667 107.184 87.6698 107.184 87.5729C107.184 87.476 107.257 87.3549 107.354 87.3307C107.476 87.3064 110.631 86.289 110.024 83.164C109.49 80.4993 107.451 80.4024 106.796 80.4508V80.5235C106.723 81.3714 107.136 82.0497 107.451 82.4857C107.694 82.8006 107.767 83.2125 107.646 83.7696C107.451 84.7144 107.16 85.2958 106.699 85.5865C106.335 85.8045 105.922 85.8772 105.364 85.7318C104.709 85.5865 104.296 85.2958 104.126 84.8597C103.932 84.3995 104.053 83.8181 104.466 83.1156C104.976 82.2677 105.315 81.3229 105.461 80.3539C105.291 80.2813 104.927 80.1601 104.514 80.2813C103.883 80.4751 103.301 81.1776 102.864 82.3404C102.524 83.1882 102.257 83.8907 102.039 84.4964C101.529 85.5138 100.631 86.3132 99.5145 86.5797Z" fill="black"/>
<path d="M119.515 60.7558H123.859C124.223 60.7558 124.515 60.4651 124.515 60.1018V36.6037C124.515 36.2161 124.175 35.877 123.786 35.877H112.743L119.515 60.7558Z" fill="#EF5344"/>
<path d="M124.515 46.899C124.393 46.899 124.272 46.7779 124.272 46.6568V36.6277C124.272 36.3612 124.053 36.1432 123.786 36.1432H112.743C112.621 36.1432 112.5 36.0221 112.5 35.9009C112.5 35.7798 112.621 35.6587 112.743 35.6587H123.786C124.32 35.6587 124.757 36.0947 124.757 36.6277V46.6568C124.757 46.7779 124.66 46.899 124.515 46.899Z" fill="black"/>
<path d="M119.515 60.7557H123.859C124.078 60.7557 124.248 60.6588 124.393 60.4893L119.515 60.7557Z" fill="white"/>
<path d="M123.859 60.9982H119.515C119.393 60.9982 119.272 60.8771 119.272 60.756C119.272 60.6348 119.393 60.5137 119.515 60.5137H123.859C123.981 60.5137 124.102 60.441 124.199 60.3441C124.272 60.223 124.418 60.223 124.539 60.2957C124.66 60.3684 124.66 60.5137 124.587 60.6348C124.418 60.8771 124.151 60.9982 123.859 60.9982Z" fill="black"/>
<path d="M119.369 61.8215C119.32 62.0396 119.126 62.2334 118.883 62.2334H93.4464C93.1309 62.2334 92.8882 61.9427 92.961 61.6277L98.0095 36.2644C98.0581 36.0463 98.2523 35.8525 98.495 35.8525H123.932C124.247 35.8525 124.49 36.1432 124.417 36.4582L119.369 61.8215Z" fill="white"/>
<path d="M95.0729 51.3082C95.0486 51.3082 95.0486 51.3082 95.0243 51.3082C94.903 51.284 94.8059 51.1386 94.8302 51.0175L97.767 36.2404C97.8399 35.9012 98.1554 35.6348 98.4952 35.6348H123.932C124.151 35.6348 124.369 35.7317 124.515 35.9255C124.66 36.095 124.709 36.3131 124.685 36.5553L122.621 46.8993C122.597 47.0204 122.452 47.1173 122.33 47.0931C122.209 47.0689 122.112 46.9235 122.136 46.8024L124.199 36.4584C124.223 36.3857 124.199 36.3131 124.151 36.2404C124.102 36.1677 124.029 36.1435 123.956 36.1435H98.5195C98.3981 36.1435 98.301 36.2162 98.2768 36.3615L95.3399 51.1386C95.2913 51.2113 95.17 51.3082 95.0729 51.3082Z" fill="black"/>
<path d="M116.505 62.4757H105.51C105.388 62.4757 105.267 62.3546 105.267 62.2335C105.267 62.1123 105.388 61.9912 105.51 61.9912H116.505C116.626 61.9912 116.748 62.1123 116.748 62.2335C116.748 62.3788 116.651 62.4757 116.505 62.4757Z" fill="black"/>
<path d="M96.9175 52.0591L97.4515 49.249H100.388L99.8544 52.0591H96.9175Z" fill="#C4C4C4"/>
<path d="M100.243 52.0591L100.777 49.249H103.714L103.18 52.0591H100.243Z" fill="white"/>
<path d="M103.544 52.0591L104.078 49.249H107.039L106.505 52.0591H103.544Z" fill="#C4C4C4"/>
<path d="M106.869 52.0591L107.403 49.249H110.34L109.806 52.0591H106.869Z" fill="#C4C4C4"/>
<path d="M110.194 52.0591L110.728 49.249H113.665L113.131 52.0591H110.194Z" fill="#C4C4C4"/>
<path d="M113.495 52.0591L114.029 49.249H116.99L116.456 52.0591H113.495Z" fill="#C4C4C4"/>
<path d="M116.82 52.0591L117.354 49.249H120.291L119.757 52.0591H116.82Z" fill="#C4C4C4"/>
<path d="M96.335 55.1599L96.8689 52.374H99.8058L99.2719 55.1599H96.335Z" fill="#C4C4C4"/>
<path d="M99.636 55.1599L100.17 52.374H103.107L102.573 55.1599H99.636Z" fill="#C4C4C4"/>
<path d="M102.961 55.1599L103.495 52.374H106.432L105.898 55.1599H102.961Z" fill="#C4C4C4"/>
<path d="M106.286 55.1599L106.82 52.374H109.757L109.223 55.1599H106.286Z" fill="#C4C4C4"/>
<path d="M109.587 55.1599L110.121 52.374H113.058L112.524 55.1599H109.587Z" fill="#C4C4C4"/>
<path d="M112.913 55.1599L113.447 52.374H116.383L115.849 55.1599H112.913Z" fill="#C4C4C4"/>
<path d="M116.238 55.1599L116.772 52.374H119.709L119.175 55.1599H116.238Z" fill="#C4C4C4"/>
<path d="M98.1069 45.8093L98.6409 43.0234H101.578L101.044 45.8093H98.1069Z" fill="#C4C4C4"/>
<path d="M101.408 45.8093L101.942 43.0234H104.879L104.345 45.8093H101.408Z" fill="white"/>
<path d="M104.733 45.8093L105.267 43.0234H108.204L107.67 45.8093H104.733Z" fill="#EF5344"/>
<path d="M108.058 45.8093L108.592 43.0234H111.553L111.02 45.8093H108.058Z" fill="#C4C4C4"/>
<path d="M111.359 45.8093L111.893 43.0234H114.854L114.32 45.8093H111.359Z" fill="#C4C4C4"/>
<path d="M114.685 45.8093L115.219 43.0234H118.18L117.646 45.8093H114.685Z" fill="#C4C4C4"/>
<path d="M118.01 45.8093L118.544 43.0234H121.505L120.971 45.8093H118.01Z" fill="#C4C4C4"/>
<path d="M97.5 48.9099L98.034 46.124H100.971L100.437 48.9099H97.5Z" fill="white"/>
<path d="M100.825 48.9099L101.359 46.124H104.296L103.762 48.9099H100.825Z" fill="white"/>
<path d="M104.15 48.9099L104.684 46.124H107.621L107.087 48.9099H104.15Z" fill="#C4C4C4"/>
<path d="M107.451 48.9099L107.985 46.124H110.922L110.388 48.9099H107.451Z" fill="#C4C4C4"/>
<path d="M110.777 48.9099L111.311 46.124H114.248L113.714 48.9099H110.777Z" fill="#C4C4C4"/>
<path d="M117.379 48.9099L117.913 46.124H120.874L120.34 48.9099H117.379Z" fill="#C4C4C4"/>
<path d="M114.102 48.9099L114.636 46.124H117.573L117.039 48.9099H114.102Z" fill="#C4C4C4"/>
<path d="M103.374 36.0706C103.252 36.0706 103.131 35.9495 103.131 35.8284C103.131 35.3923 103.01 34.9805 102.718 34.6656C102.646 34.5445 102.646 34.3991 102.767 34.3265C102.888 34.2538 103.034 34.2538 103.107 34.3749C103.447 34.8109 103.616 35.3197 103.616 35.8526C103.616 35.9737 103.519 36.0706 103.374 36.0706Z" fill="black"/>
<path d="M101.213 38.2267C99.8785 38.2267 98.8105 37.1366 98.8105 35.8284C98.8105 34.4961 99.9028 33.4302 101.213 33.4302C101.723 33.4302 102.209 33.5755 102.621 33.8662C102.743 33.9389 102.743 34.0842 102.694 34.2054C102.621 34.3265 102.476 34.3265 102.354 34.278C102.014 34.06 101.65 33.9389 101.262 33.9389C100.218 33.9389 99.3688 34.7868 99.3688 35.8527C99.3688 36.8943 100.218 37.7664 101.262 37.7664C101.383 37.7664 101.505 37.8875 101.505 38.0087C101.48 38.1298 101.359 38.2267 101.213 38.2267Z" fill="black"/>
<path d="M106.262 36.0707C106.141 36.0707 106.02 35.9496 106.02 35.8285C106.02 35.3924 105.874 34.9806 105.583 34.6414C105.51 34.5445 105.51 34.375 105.607 34.3023C105.704 34.2296 105.874 34.2296 105.947 34.3265C106.287 34.7626 106.481 35.2713 106.481 35.8285C106.505 35.9738 106.408 36.0707 106.262 36.0707Z" fill="black"/>
<path d="M104.102 38.2267C102.767 38.2267 101.699 37.1366 101.699 35.8284C101.699 34.4961 102.791 33.4302 104.102 33.4302C104.587 33.4302 105.048 33.5513 105.437 33.8178C105.558 33.8904 105.582 34.0358 105.51 34.1569C105.437 34.278 105.291 34.3023 105.17 34.2296C104.854 34.0116 104.49 33.9147 104.126 33.9147C103.082 33.9147 102.233 34.7625 102.233 35.8284C102.233 36.8701 103.082 37.7422 104.126 37.7422C104.248 37.7422 104.369 37.8633 104.369 37.9844C104.369 38.1056 104.248 38.2267 104.102 38.2267Z" fill="black"/>
<path d="M109.15 36.071C109.029 36.071 108.908 35.9499 108.908 35.8288C108.908 35.3927 108.762 34.9567 108.471 34.6175C108.398 34.5206 108.398 34.351 108.495 34.2784C108.592 34.2057 108.762 34.2057 108.835 34.3026C109.175 34.7386 109.369 35.2716 109.369 35.8288C109.393 35.9741 109.296 36.071 109.15 36.071Z" fill="black"/>
<path d="M106.99 38.2267C105.655 38.2267 104.587 37.1366 104.587 35.8284C104.587 34.4961 105.68 33.4302 106.99 33.4302C107.476 33.4302 107.961 33.5755 108.374 33.8662C108.495 33.9389 108.495 34.0842 108.447 34.2054C108.374 34.3265 108.228 34.3265 108.107 34.278C107.767 34.06 107.427 33.9389 107.015 33.9389C105.971 33.9389 105.121 34.7868 105.121 35.8527C105.121 36.8943 105.971 37.7664 107.015 37.7664C107.136 37.7664 107.257 37.8875 107.257 38.0087C107.257 38.1056 107.136 38.2267 106.99 38.2267Z" fill="black"/>
<path d="M112.039 36.0708C111.918 36.0708 111.796 35.9497 111.796 35.8286C111.796 35.3925 111.626 34.9322 111.359 34.5931C111.286 34.4962 111.286 34.3266 111.384 34.254C111.481 34.1813 111.651 34.1813 111.723 34.2782C112.087 34.7142 112.282 35.2714 112.282 35.8286C112.282 35.9739 112.185 36.0708 112.039 36.0708Z" fill="black"/>
<path d="M109.903 38.2267C108.568 38.2267 107.5 37.1366 107.5 35.8284C107.5 34.4961 108.592 33.4302 109.903 33.4302C110.388 33.4302 110.85 33.5755 111.238 33.842C111.359 33.9147 111.384 34.06 111.311 34.1811C111.238 34.3023 111.092 34.3265 110.971 34.2538C110.655 34.0358 110.291 33.9147 109.903 33.9147C108.859 33.9147 108.01 34.7625 108.01 35.8284C108.01 36.8701 108.859 37.7422 109.903 37.7422C110.024 37.7422 110.146 37.8633 110.146 37.9844C110.146 38.1056 110.024 38.2267 109.903 38.2267Z" fill="black"/>
<path d="M114.927 36.0707C114.806 36.0707 114.685 35.9496 114.685 35.8285C114.685 35.3924 114.539 34.9806 114.272 34.6414C114.199 34.5445 114.199 34.375 114.296 34.3023C114.418 34.2296 114.563 34.2296 114.636 34.3265C114.976 34.7626 115.17 35.2713 115.17 35.8285C115.17 35.9738 115.073 36.0707 114.927 36.0707Z" fill="black"/>
<path d="M112.791 38.2267C111.456 38.2267 110.388 37.1366 110.388 35.8284C110.388 34.4961 111.48 33.4302 112.791 33.4302C113.277 33.4302 113.738 33.5755 114.126 33.842C114.247 33.9147 114.272 34.06 114.199 34.1811C114.126 34.3023 113.98 34.3265 113.859 34.2538C113.544 34.0358 113.179 33.9147 112.791 33.9147C111.747 33.9147 110.898 34.7625 110.898 35.8284C110.898 36.8701 111.747 37.7422 112.791 37.7422C112.912 37.7422 113.034 37.8633 113.034 37.9844C113.034 38.1056 112.912 38.2267 112.791 38.2267Z" fill="black"/>
<path d="M117.816 36.0707C117.694 36.0707 117.573 35.9496 117.573 35.8285C117.573 35.3924 117.427 34.9806 117.16 34.6414C117.087 34.5203 117.087 34.375 117.185 34.3023C117.306 34.2296 117.452 34.2296 117.524 34.3265C117.864 34.7626 118.034 35.2713 118.034 35.8285C118.058 35.9738 117.961 36.0707 117.816 36.0707Z" fill="black"/>
<path d="M115.68 38.2267C114.345 38.2267 113.277 37.1366 113.277 35.8284C113.277 34.4961 114.369 33.4302 115.68 33.4302C116.165 33.4302 116.602 33.5513 116.99 33.8178C117.112 33.8904 117.136 34.0358 117.063 34.1569C116.99 34.278 116.845 34.3023 116.723 34.2296C116.408 34.0358 116.044 33.9147 115.68 33.9147C114.636 33.9147 113.787 34.7625 113.787 35.8284C113.787 36.8701 114.636 37.7422 115.68 37.7422C115.801 37.7422 115.923 37.8633 115.923 37.9844C115.898 38.1056 115.801 38.2267 115.68 38.2267Z" fill="black"/>
<path d="M120.704 36.0707C120.583 36.0707 120.461 35.9496 120.461 35.8285C120.461 35.3924 120.316 34.9564 120.024 34.6414C119.951 34.5445 119.952 34.375 120.049 34.3023C120.146 34.2296 120.316 34.2296 120.388 34.3265C120.728 34.7626 120.922 35.2955 120.922 35.8285C120.947 35.9738 120.85 36.0707 120.704 36.0707Z" fill="black"/>
<path d="M118.568 38.2267C117.233 38.2267 116.165 37.1366 116.165 35.8284C116.165 34.4961 117.257 33.4302 118.568 33.4302C119.029 33.4302 119.49 33.5513 119.879 33.8178C120 33.8904 120.024 34.0358 119.951 34.1569C119.879 34.278 119.733 34.3023 119.612 34.2296C119.296 34.0358 118.932 33.9147 118.568 33.9147C117.524 33.9147 116.675 34.7625 116.675 35.8284C116.675 36.8701 117.524 37.7422 118.568 37.7422C118.689 37.7422 118.811 37.8633 118.811 37.9844C118.811 38.1056 118.689 38.2267 118.568 38.2267Z" fill="black"/>
<path d="M121.456 38.2267C120.121 38.2267 119.053 37.1366 119.053 35.8284C119.053 34.4961 120.146 33.4302 121.456 33.4302C122.791 33.4302 123.859 34.5203 123.859 35.8284C123.859 35.9496 123.738 36.0707 123.617 36.0707C123.495 36.0707 123.374 35.9496 123.374 35.8284C123.374 34.7868 122.524 33.9147 121.481 33.9147C120.437 33.9147 119.587 34.7625 119.587 35.8284C119.587 36.8701 120.437 37.7422 121.481 37.7422C121.602 37.7422 121.723 37.8633 121.723 37.9844C121.699 38.1056 121.578 38.2267 121.456 38.2267Z" fill="black"/>
<path d="M101.262 38.6142C101.092 38.6142 100.898 38.5415 100.777 38.3962C100.68 38.2993 100.704 38.1297 100.801 38.057C100.898 37.9601 101.068 37.9843 101.141 38.0812C101.165 38.1055 101.213 38.1297 101.262 38.1297C101.335 38.1297 101.408 38.057 101.408 37.9843C101.408 37.9117 101.335 37.839 101.262 37.839C101.213 37.839 101.165 37.8632 101.141 37.9117C101.068 38.0328 100.922 38.0328 100.801 37.9601C100.68 37.8874 100.68 37.7421 100.752 37.621C100.874 37.4514 101.068 37.3545 101.286 37.3545C101.65 37.3545 101.917 37.6452 101.917 37.9843C101.917 38.3235 101.626 38.6142 101.262 38.6142Z" fill="black"/>
<path d="M104.102 38.6142C103.932 38.6142 103.738 38.5415 103.616 38.3962C103.519 38.2993 103.544 38.1297 103.641 38.057C103.738 37.9601 103.908 37.9843 103.981 38.0812C104.005 38.1055 104.053 38.1297 104.102 38.1297C104.175 38.1297 104.248 38.057 104.248 37.9843C104.248 37.9117 104.175 37.839 104.102 37.839C104.053 37.839 104.005 37.8632 103.981 37.9117C103.908 38.0328 103.762 38.0328 103.641 37.9601C103.519 37.8874 103.519 37.7421 103.592 37.621C103.714 37.4514 103.908 37.3545 104.126 37.3545C104.49 37.3545 104.757 37.6452 104.757 37.9843C104.757 38.3235 104.466 38.6142 104.102 38.6142Z" fill="black"/>
<path d="M106.942 38.6142C106.772 38.6142 106.578 38.5415 106.456 38.3962C106.359 38.2993 106.383 38.1297 106.481 38.057C106.578 37.9601 106.748 37.9843 106.82 38.0812C106.845 38.1055 106.893 38.1297 106.942 38.1297C107.015 38.1297 107.087 38.057 107.087 37.9843C107.087 37.9117 107.015 37.839 106.942 37.839C106.893 37.839 106.845 37.8632 106.82 37.9117C106.748 38.0328 106.602 38.0328 106.481 37.9601C106.359 37.8874 106.359 37.7421 106.432 37.621C106.553 37.4514 106.748 37.3545 106.966 37.3545C107.33 37.3545 107.597 37.6452 107.597 37.9843C107.597 38.3235 107.306 38.6142 106.942 38.6142Z" fill="black"/>
<path d="M109.854 38.6142C109.684 38.6142 109.49 38.5415 109.369 38.3962C109.272 38.2993 109.296 38.1297 109.393 38.057C109.49 37.9601 109.66 37.9843 109.733 38.0812C109.757 38.1055 109.806 38.1297 109.854 38.1297C109.927 38.1297 110 38.057 110 37.9843C110 37.9117 109.927 37.839 109.854 37.839C109.806 37.839 109.757 37.8632 109.733 37.9117C109.66 38.0328 109.515 38.0328 109.393 37.9601C109.272 37.8874 109.272 37.7421 109.345 37.621C109.466 37.4514 109.66 37.3545 109.879 37.3545C110.243 37.3545 110.51 37.6452 110.51 37.9843C110.51 38.3235 110.218 38.6142 109.854 38.6142Z" fill="black"/>
<path d="M112.743 38.6142C112.573 38.6142 112.379 38.5415 112.257 38.3962C112.16 38.2993 112.185 38.1297 112.282 38.057C112.379 37.9601 112.549 37.9843 112.621 38.0812C112.646 38.1055 112.694 38.1297 112.743 38.1297C112.816 38.1297 112.888 38.057 112.888 37.9843C112.888 37.9117 112.816 37.839 112.743 37.839C112.694 37.839 112.646 37.8632 112.621 37.9117C112.549 38.0328 112.403 38.0328 112.282 37.9601C112.16 37.8874 112.16 37.7421 112.233 37.621C112.354 37.4514 112.549 37.3545 112.767 37.3545C113.131 37.3545 113.398 37.6452 113.398 37.9843C113.374 38.3235 113.083 38.6142 112.743 38.6142Z" fill="black"/>
<path d="M115.728 38.6142C115.558 38.6142 115.364 38.5415 115.243 38.3962C115.146 38.2993 115.17 38.1297 115.267 38.057C115.364 37.9601 115.534 37.9843 115.607 38.0812C115.631 38.1055 115.68 38.1297 115.728 38.1297C115.801 38.1297 115.874 38.057 115.874 37.9843C115.874 37.9117 115.801 37.839 115.728 37.839C115.68 37.839 115.631 37.8632 115.607 37.9117C115.534 38.0328 115.388 38.0328 115.267 37.9601C115.146 37.8874 115.146 37.7421 115.218 37.621C115.34 37.4514 115.534 37.3545 115.752 37.3545C116.116 37.3545 116.383 37.6452 116.383 37.9843C116.383 38.3235 116.092 38.6142 115.728 38.6142Z" fill="black"/>
<path d="M118.568 38.6142C118.398 38.6142 118.204 38.5415 118.083 38.3962C117.985 38.2993 118.01 38.1297 118.107 38.057C118.204 37.9601 118.374 37.9843 118.447 38.0812C118.471 38.1055 118.519 38.1297 118.568 38.1297C118.641 38.1297 118.714 38.057 118.714 37.9843C118.714 37.9117 118.641 37.839 118.568 37.839C118.519 37.839 118.471 37.8632 118.447 37.9117C118.374 38.0328 118.228 38.0328 118.107 37.9601C117.985 37.8874 117.985 37.7421 118.058 37.621C118.18 37.4514 118.374 37.3545 118.592 37.3545C118.956 37.3545 119.223 37.6452 119.223 37.9843C119.223 38.3235 118.932 38.6142 118.568 38.6142Z" fill="black"/>
<path d="M121.408 38.6142C121.238 38.6142 121.044 38.5415 120.922 38.3962C120.825 38.2993 120.85 38.1297 120.947 38.057C121.044 37.9601 121.214 37.9843 121.286 38.0812C121.311 38.1055 121.359 38.1297 121.408 38.1297C121.481 38.1297 121.553 38.057 121.553 37.9843C121.553 37.9117 121.481 37.839 121.408 37.839C121.359 37.839 121.311 37.8632 121.286 37.9117C121.214 38.0328 121.068 38.0328 120.947 37.9601C120.825 37.8874 120.825 37.7421 120.898 37.621C121.019 37.4514 121.214 37.3545 121.432 37.3545C121.796 37.3545 122.063 37.6452 122.063 37.9843C122.063 38.3235 121.772 38.6142 121.408 38.6142Z" fill="black"/>
<path d="M12.864 116.158C12.6698 116.158 12.4514 116.11 12.2815 116.013C11.6261 115.673 11.3591 114.874 11.6989 114.244C11.8688 113.929 12.1358 113.711 12.4756 113.59C12.8154 113.469 13.1553 113.517 13.4951 113.663C14.1504 114.002 14.4174 114.801 14.0776 115.431C13.9077 115.746 13.6407 115.964 13.3009 116.085C13.131 116.134 13.0096 116.158 12.864 116.158ZM12.8883 114.002C12.8154 114.002 12.7184 114.026 12.6213 114.05C12.4028 114.123 12.2329 114.268 12.1358 114.462C12.0387 114.656 12.0145 114.898 12.0873 115.092C12.1601 115.286 12.3057 115.48 12.4999 115.577C12.6941 115.673 12.9368 115.698 13.131 115.625C13.3252 115.552 13.5193 115.407 13.6164 115.213C13.7135 115.019 13.7378 114.777 13.665 114.583C13.5921 114.365 13.4465 114.196 13.2523 114.099C13.131 114.05 12.9853 114.002 12.8883 114.002Z" fill="black"/>
<path d="M123.18 75.1452C122.985 75.1452 122.767 75.0968 122.597 74.9999C121.942 74.6607 121.675 73.8613 122.015 73.2315C122.354 72.5774 123.155 72.3109 123.786 72.6501C124.442 72.9892 124.709 73.7886 124.369 74.4185C124.151 74.8787 123.689 75.1452 123.18 75.1452ZM123.18 72.9892C122.888 72.9892 122.597 73.1588 122.452 73.4495C122.233 73.8613 122.403 74.3458 122.816 74.5638C123.228 74.7818 123.714 74.6123 123.932 74.2004C124.151 73.7886 123.981 73.3041 123.568 73.0861C123.447 73.0134 123.325 72.9892 123.18 72.9892Z" fill="black"/>
<path d="M107.961 25.7992C107.913 25.7992 107.864 25.775 107.815 25.7508L107.306 25.3874C107.184 25.3147 107.184 25.1694 107.233 25.0483C107.306 24.9271 107.451 24.9271 107.573 24.9756L108.082 25.339C108.204 25.4116 108.204 25.557 108.155 25.6781C108.107 25.775 108.058 25.7992 107.961 25.7992Z" fill="black"/>
<path d="M109.781 27.0595C109.733 27.0595 109.684 27.0352 109.636 27.011L109.126 26.6477C109.005 26.575 109.005 26.4296 109.053 26.3085C109.126 26.1874 109.272 26.1874 109.393 26.2358L109.903 26.5992C110.024 26.6719 110.024 26.8172 109.976 26.9383C109.927 27.011 109.83 27.0595 109.781 27.0595Z" fill="black"/>
<path d="M107.816 27.3985C107.767 27.3985 107.719 27.3743 107.694 27.3501C107.573 27.2774 107.549 27.1321 107.622 27.0109L107.986 26.5022C108.058 26.3811 108.204 26.3569 108.325 26.4296C108.447 26.5022 108.471 26.6476 108.398 26.7687L108.034 27.2774C107.961 27.3743 107.889 27.3985 107.816 27.3985Z" fill="black"/>
<path d="M109.053 25.6056C109.005 25.6056 108.956 25.5814 108.932 25.5571C108.811 25.4845 108.786 25.3391 108.859 25.218L109.223 24.7093C109.296 24.5881 109.442 24.5639 109.563 24.6366C109.684 24.7093 109.709 24.8546 109.636 24.9757L109.272 25.4845C109.223 25.5571 109.126 25.6056 109.053 25.6056Z" fill="black"/>
<path d="M7.47563 108.139C7.33 108.139 7.23291 108.018 7.23291 107.873L7.25718 107.001C7.25718 106.88 7.37854 106.759 7.52417 106.783C7.64553 106.783 7.76689 106.904 7.74262 107.049L7.71835 107.921C7.71835 108.043 7.59699 108.139 7.47563 108.139Z" fill="black"/>
<path d="M7.37871 111.168C7.35443 111.168 7.35443 111.168 7.37871 111.168C7.23307 111.168 7.13599 111.047 7.13599 110.901L7.16026 110.029C7.16026 109.908 7.28162 109.787 7.40298 109.811C7.52434 109.811 7.6457 109.932 7.62142 110.053L7.59715 110.926C7.59715 111.071 7.50006 111.168 7.37871 111.168Z" fill="black"/>
<path d="M6.35918 109.181C6.35918 109.181 6.33491 109.181 6.35918 109.181L5.48539 109.157C5.36404 109.157 5.24268 109.036 5.24268 108.915C5.24268 108.793 5.36404 108.672 5.48539 108.672L6.35918 108.697C6.48054 108.697 6.6019 108.818 6.6019 108.939C6.6019 109.084 6.48054 109.181 6.35918 109.181Z" fill="black"/>
<path d="M9.39312 109.278L8.51933 109.254C8.39797 109.254 8.27661 109.133 8.27661 109.012C8.27661 108.891 8.39797 108.77 8.51933 108.77L9.39312 108.794C9.51448 108.794 9.63584 108.915 9.63584 109.036C9.63584 109.181 9.51448 109.278 9.39312 109.278Z" fill="black"/>
<path d="M107.646 21.5843C107.573 21.5843 107.524 21.5601 107.476 21.5116C103.082 16.6424 97.7669 12.5 91.6503 9.25388C91.529 9.18121 91.4804 9.03586 91.5533 8.91474C91.6261 8.79361 91.7717 8.74516 91.8931 8.81784C98.0581 12.1124 103.422 16.2791 107.864 21.1725C107.961 21.2694 107.937 21.439 107.84 21.5116C107.767 21.5601 107.718 21.5843 107.646 21.5843Z" fill="black"/>
<path d="M101.82 20.2278C101.748 20.2278 101.699 20.2036 101.65 20.1551C95.9466 14.4865 88.932 10.1018 80.801 7.14641C80.6796 7.09796 80.6068 6.97684 80.6553 6.83149C80.7039 6.68614 80.8252 6.63769 80.9709 6.68614C89.1748 9.66579 96.2621 14.0747 102.015 19.816C102.112 19.9129 102.112 20.0582 102.015 20.1551C101.917 20.1794 101.869 20.2278 101.82 20.2278Z" fill="black"/>
<path d="M17.4029 31.9523C17.2815 31.9523 17.1844 31.928 17.0388 31.9038C16.432 31.71 16.0922 31.0559 16.3106 30.4503C16.5048 29.8447 17.1601 29.5056 17.7669 29.7236C18.0582 29.8205 18.3009 30.0143 18.4465 30.305C18.5922 30.5957 18.6164 30.8864 18.5194 31.2013C18.3252 31.6373 17.864 31.9523 17.4029 31.9523ZM17.4029 30.1354C17.1116 30.1354 16.8689 30.305 16.7718 30.5957C16.6504 30.9348 16.8446 31.3224 17.2087 31.4435C17.5728 31.5647 17.9368 31.3709 18.0582 31.0075C18.1067 30.8379 18.0825 30.6683 18.0339 30.4988C17.9611 30.3292 17.8155 30.2081 17.6456 30.1596C17.5242 30.1354 17.4514 30.1354 17.4029 30.1354Z" fill="black"/>
<path d="M20.2668 27.4467C20.2183 27.4467 20.1697 27.4224 20.1212 27.3982C19.9998 27.3255 19.9998 27.1802 20.0726 27.0591C25.2911 20.0581 30.7523 16.061 34.393 13.905C38.3493 11.6036 41.0435 10.9254 41.1649 10.9011C41.2862 10.8769 41.4319 10.9496 41.4561 11.0707C41.4804 11.1918 41.4076 11.3372 41.2862 11.3614C41.1649 11.3856 30.3639 14.0746 20.5095 27.3255C20.4124 27.4224 20.3396 27.4467 20.2668 27.4467Z" fill="black"/>
<path d="M23.3738 19.1619C23.301 19.1619 23.2525 19.1377 23.2039 19.0892C23.1068 18.9923 23.1068 18.847 23.2039 18.7501C33.568 8.2365 43.2525 6.80723 43.3496 6.78301C43.4709 6.75878 43.6165 6.85568 43.6165 7.00103C43.6408 7.12215 43.5437 7.2675 43.3981 7.29173C43.301 7.31595 33.7864 8.74522 23.5195 19.1134C23.4952 19.1377 23.4466 19.1619 23.3738 19.1619Z" fill="black"/>
<path d="M43.5437 11.725C43.5195 11.725 43.5195 11.725 43.4952 11.725C43.4224 11.7007 43.3496 11.6523 43.3253 11.5554L42.5729 9.39939C42.5486 9.32672 42.5486 9.22982 42.6214 9.18137C42.67 9.10869 42.7428 9.08447 42.8399 9.10869C43.8835 9.22982 45.5098 9.35094 45.534 9.35094C45.6311 9.35094 45.7039 9.42362 45.7525 9.52052C45.7767 9.61741 45.7767 9.71431 45.6797 9.78699L43.7136 11.7007C43.6894 11.7007 43.6166 11.725 43.5437 11.725ZM43.1554 9.61742L43.6408 11.0467L44.9272 9.78699C44.4661 9.73854 43.7622 9.66586 43.1554 9.61742Z" fill="black"/>
</g>
<defs>
<clipPath id="clip0">
<rect width="125" height="125" fill="white"/>
</clipPath>
</defs>
</svg>
