<?xml version="1.0" encoding="utf-8"?>
<!-- Generator: Adobe Illustrator 19.2.1, SVG Export Plug-In . SVG Version: 6.00 Build 0)  -->
<svg version="1.1" id="Слой_1" xmlns="http://www.w3.org/2000/svg" xmlns:xlink="http://www.w3.org/1999/xlink" x="0px" y="0px"
	 viewBox="0 0 500 500" style="enable-background:new 0 0 500 500;" xml:space="preserve">
<g>
	<path d="M37.3,263.8l-5.2-11.4c-28.8-62.9-15.4-138,33.4-187l4.1,4.1l-4.1-4.1c31.3-31.3,73-48.5,117.4-48.5S269,34.1,300.3,65.4
		l-8.1,8.1c-29.2-29-68-45-109.4-45s-80.1,16-109.2,45.1c-42.5,42.6-56.2,106.6-35.7,162.7c7.5-13.4,16.7-25.6,27.6-36.5L94,171.3
		c2.6-19.6,11.6-38,25.5-51.9c35-34.9,91.9-34.9,126.9,0l99.3,99.2l-8.2,8.1l-99.2-99.2c-30.5-30.4-80.1-30.4-110.6,0
		c-12.5,12.5-20.5,29.2-22.4,47l-0.2,2L73.6,208c-12.9,12.9-23.3,27.8-31.1,44.5L37.3,263.8z M372.8,254.1l-8.2-8.1l7.7-7.8
		c16.7-16.7,24.9-39.8,22.4-63.6l11.4-1.2c2.8,27.2-6.5,53.8-25.7,73L372.8,254.1z"/>
	<path d="M317.1,483.1L317.1,483.1c-44.4,0-86-17.2-117.3-48.6l8.1-8.1c29.1,29.1,67.9,45.2,109.2,45.2s80.1-16.1,109.2-45.2
		c42.6-42.5,56.3-106.5,35.8-162.6c-7.4,13.3-16.7,25.6-27.6,36.5l-8.1-8.1c13-13,23.5-28,31.1-44.5l5.2-11.4l5.2,11.4
		c28.9,63,15.5,138.1-33.4,186.9C403.2,465.8,361.5,483.1,317.1,483.1"/>
	<path d="M93.7,326.7c-2.9-27.2,6.5-53.8,25.7-72.9l7.8-7.8l8.1,8.1l-7.8,7.8c-16.7,16.7-24.9,39.9-22.4,63.6L93.7,326.7z"/>
	<path d="M317.1,406.8c-23,0-45.9-8.7-63.4-26.2l8.1-8.1c30.5,30.4,80.1,30.4,110.6,0c12.7-12.8,20.5-29,22.4-47l0.2-2l31.3-31.3
		l8.1,8.1L406,328.7c-2.5,19.8-11.3,37.7-25.4,51.9C363.1,398.1,340.1,406.8,317.1,406.8"/>
	<path d="M245.9,135.4l-7.8-7.8c-14.7-14.7-34.3-22.8-55.2-22.8c-2.8,0-5.6,0.1-8.4,0.4l-1.2-11.4c3.2-0.3,6.4-0.5,9.6-0.5
		c24,0,46.5,9.3,63.3,26.2l7.8,7.8L245.9,135.4z"/>
	<path d="M183.2,483c-43.3,0-86-16.8-117.7-48.5c-31.3-31.2-48.6-72.9-48.6-117.3s17.2-86.1,48.6-117.4l8.1,8.1
		C44.5,237,28.4,275.8,28.4,317.2c0,41.3,16.1,80,45.2,109.1c42.6,42.6,106.6,56.2,162.6,35.7c-13.4-7.5-25.6-16.7-36.4-27.6
		L171.3,406c-19.8-2.6-37.7-11.3-51.9-25.5c-16.9-16.9-26.2-39.4-26.2-63.4s9.3-46.5,26.2-63.4l8.1,8.1
		c-14.7,14.7-22.9,34.4-22.9,55.3s8.1,40.6,22.9,55.3c12.8,12.7,29,20.5,47,22.4l2,0.2l31.4,31.3c12.8,12.9,27.8,23.4,44.4,31.1
		l11.4,5.2l-11.4,5.2C230.3,478.1,206.6,483,183.2,483"/>
	<path d="M434.5,300.3l-8.1-8.1c29.2-29.2,45.3-68,45.3-109.3s-16.1-80.1-45.3-109.3c-29-29.1-67.8-45.1-109.2-45.1l0,0
		c-22.2,0-44.6,4.9-64.7,14.1l-4.8-10.5c21.6-9.9,45.6-15.2,69.5-15.2h0.1c44.4,0,86.1,17.2,117.3,48.5
		c31.4,31.3,48.6,73,48.6,117.4C483.1,227.3,465.8,269,434.5,300.3"/>
	<path d="M317,406.8c-23.7,0-46.3-9.2-63.3-26.2l-7.8-7.8l8.2-8.1l7.8,7.8c16.8,16.7,40,24.8,63.6,22.3l1.2,11.5
		C323.4,406.6,320.2,406.8,317,406.8"/>
	<path d="M380.6,246.3l-8.1-8.1c30.5-30.5,30.5-80.1,0-110.6c-12.7-12.7-28.9-20.5-47-22.3l-2-0.2l-31.3-31.4
		c-12.9-12.9-27.9-23.3-44.5-31l4.8-10.5c17.8,8.2,33.9,19.4,47.8,33.3L328.7,94c19.9,2.5,37.8,11.3,51.9,25.4
		C415.5,154.4,415.5,211.3,380.6,246.3"/>
	<path d="M317.1,406.8c-23,0-45.9-8.7-63.4-26.2l-99.5-99.5l8.1-8.1l99.5,99.5c30.5,30.4,80.1,30.4,110.6,0
		c8.1-8.1,14.2-17.6,18-28.1l-7.2,7.2c-15.3,15.3-31.1,24-47,25.7c-19.5,2.2-38.7-6-56.9-24.3l-98.6-98.6l8.1-8.1l98.6,98.6
		c15.7,15.7,31.7,22.8,47.5,21c13.2-1.5,26.7-9,40.2-22.4l32.8-32.9l-1.7,16.2c-2.2,20.6-11,39.2-25.7,53.9
		C363.1,398.1,340.1,406.8,317.1,406.8 M135.4,254.1l-8.2-8.1l26.6-26.6l8.1,8.1L135.4,254.1z"/>
	<path d="M189.5,407.9l-16.2-1.7c-20.6-2.1-39.2-11-53.9-25.6c-35-35-35-91.9,0-126.9L220,153.2l8.1,8.2L127.6,261.9
		c-30.5,30.5-30.5,80.1,0,110.6c8.1,8.1,17.7,14.2,28.1,18l-7.1-7.1c-34.5-34.6-35-70.5-1.5-104.1l99.4-99.4l8.1,8.1l-99.4,99.4
		c-29,29-28.5,57.7,1.5,87.8L189.5,407.9z"/>
	<rect x="257.6" y="125.8" transform="matrix(0.7066 -0.7077 0.7077 0.7066 -25.0787 228.7868)" width="11.5" height="37.6"/>
	<path d="M311.1,252.1l-97.6-97.8c-28.9-29-57.7-28.5-87.8,1.4L104.5,177l-8.2-8.1l21.3-21.3c34.6-34.4,70.6-34.9,104.1-1.4
		l97.6,97.8L311.1,252.1z"/>
	<path d="M276.6,350.3l-34.7-34.8l102.9-102.9c15.7-15.7,22.7-31.7,21-47.5c-1.5-13.2-9-26.8-22.5-40.1l-32.8-32.8l16.1,1.7
		c20.7,2.2,39.3,11,53.9,25.7c35,35,35,91.9,0,126.9L276.6,350.3z M258.1,315.5l18.5,18.5l95.8-95.8c30.5-30.5,30.5-80.1,0-110.6
		c-8.1-8.1-17.7-14.2-28.2-18.1l7.3,7.3c15.3,15.3,24,31.1,25.8,47c2.2,19.5-6,38.6-24.3,56.9L258.1,315.5z"/>
</g>
</svg>
